<?xml version="1.0" encoding="utf-8"?>
<!-- Generator: Adobe Illustrator 26.0.0, SVG Export Plug-In . SVG Version: 6.00 Build 0)  -->
<svg version="1.1" id="Layer_1" xmlns="http://www.w3.org/2000/svg" xmlns:xlink="http://www.w3.org/1999/xlink" x="0px" y="0px"
	 viewBox="0 0 892 612" style="enable-background:new 0 0 892 612;" xml:space="preserve">
<style type="text/css">
	.st0{fill:#E0E0E0;}
	.st1{fill:#FAFAFA;}
	.st2{fill:#FFFFFF;}
	.st3{fill:#EBEBEB;}
	.st4{fill:#F5F5F5;}
	.st5{fill:#F7725E;}
	.st6{opacity:0.3;}
	.st7{opacity:0.5;}
	.st8{fill:#263238;}
	.st9{fill:#F8BD9D;}
	.st10{opacity:0.6;}
	.st11{fill:#445A64;}
	.st12{fill:#EA996E;}
	.st13{fill:none;}
</style>
<g id="Background_Complete">
	<g>
		<g>
			<g>
				<g>
					<path class="st0" d="M634.6,445.9c-7.4-4.7-15.9-7.6-24.6-8.5c-4-0.4-8.4-0.3-11.6,2.1c-0.7,0.5-1.4,1.3-1.2,2.1
						c0.1,0.6,0.6,1.1,1.1,1.5C608.3,450.8,623.5,451.8,634.6,445.9"/>
				</g>
			</g>
			<g>
				<g>
					<path class="st0" d="M634,445.2c-5.6-4.3-11.2-8.7-15.9-14c-4.7-5.3-8.6-11.5-10-18.4c-0.4-2.1-0.6-4.5,0.8-6.2
						C621.6,416.5,631.6,429.3,634,445.2"/>
				</g>
			</g>
			<g>
				<g>
					<path class="st0" d="M634.5,445.8c-1-6.9-1.3-14.1,0.3-20.9c1.6-6.8,5.3-13.3,11.1-17.2c2.2,5.1,1.2,11-0.3,16.4
						c-2.4,8.3-6.1,16.1-11,23.2"/>
				</g>
			</g>
			<g>
				<g>
					<path class="st0" d="M646.9,468.1c-7.5,0.9-14.1,4.9-19.7,10c-5.6,5.1-9.6,12-11.3,19.4c7.4-0.5,13.7-5.7,18.2-11.5
						c4.6-5.8,7.7-12.3,12.7-17.7"/>
				</g>
			</g>
			<g>
				<g>
					<path class="st0" d="M649.6,471.6c-6.1-15-3.9-33,5.6-46C659.5,440.9,658,458.1,649.6,471.6"/>
				</g>
			</g>
			<g>
				<g>
					<path class="st0" d="M666,491.2c-6.8-0.4-13.8,1.2-19.7,4.6c-5.9,3.4-10.8,8.6-13.9,14.7c-0.4,0.8-0.8,1.9-0.2,2.6
						c0.5,0.6,1.4,0.7,2.2,0.7c6.6-0.4,12.5-4.4,17.4-9c4.9-4.5,9.1-9.8,14.4-13.7"/>
				</g>
			</g>
			<g>
				<g>
					<path class="st0" d="M665.5,490.1c-3.5-11.3-3.8-23.6-0.6-35c1.2-4.5,3.3-9.3,7.5-11.4c0.4-0.2,0.8-0.3,1.1-0.2
						c0.4,0.1,0.6,0.5,0.7,0.8c1.5,3.1,1.9,6.6,1.8,10c-0.2,3.4-0.9,6.8-1.6,10.2c-1.3,6.2-2,12.9-5.4,18.3c-0.8,1.3-1.5,2.6-2.2,4
						c-0.6,1.4-0.7,1.8-1.2,2.9"/>
				</g>
			</g>
			<g>
				<g>
					<path class="st0" d="M709,496.6c-3.2-12.2,0.2-27.1,7.9-37.1c0.6-0.7,1.3-1.5,2.2-1.4c1.4,0.1,1.8,2,1.7,3.4
						C720.3,474,716.1,486.3,709,496.6"/>
				</g>
			</g>
			<g>
				<g>
					<path class="st0" d="M712.9,499.3c14.9,3.9,31.9,0.1,44.3-9c-7.3-3.7-16-4.8-24-2.9C725.2,489.1,717.9,492.7,712.9,499.3"/>
				</g>
			</g>
			<g>
				<g>
					<path class="st0" d="M716.2,491.1c8.3-13.6,24.3-22.4,40.2-23.3c-1.8,6.5-7.2,11.5-13.2,14.5c-6,3-12.7,4.4-19.3,5.6
						C721.4,488.5,717.8,489.1,716.2,491.1"/>
				</g>
			</g>
			<g>
				<g>
					<path class="st0" d="M709.8,451.6c2.3-7.7,4.5-15.5,5.1-23.6c0.6-8-0.5-16.4-4.7-23.3c-7.8,15.1-8.6,32.7-0.7,47.7"/>
				</g>
			</g>
			<g>
				<g>
					<path class="st0" d="M736,438.3c9.1-16.5,27.7-29.8,46.5-31.6C775.2,424.8,755.4,438.7,736,438.3"/>
				</g>
			</g>
			<g>
				<g>
					<path class="st0" d="M730.3,441.6c13.6,2.1,25.1,10.7,37.8,16c2.7,1.1,5.6,2,8.5,1.6c2.9-0.4,5.8-2.3,6.4-5.2
						c0.5-2.4-0.5-4.9-2.2-6.6c-1.7-1.7-4-2.8-6.2-3.8c-13.8-5.8-28.6-5.9-43.2-2.4"/>
				</g>
			</g>
			<g>
				<g>
					<path class="st0" d="M722.4,451.1c3.1,0.9,4.1,2.5,6.6,4.5c8.3,7,18.2,12.1,28.7,14.7c1.1,0.3,2.5,0.4,3.1-0.6
						c0.5-0.9-0.1-1.9-0.7-2.7c-4.4-5.5-10.7-9.3-17.3-11.8c-6.6-2.5-12.4-5.4-20.3-4.8"/>
				</g>
			</g>
			<g>
				<g>
					<path class="st0" d="M713.5,393.6c11,10.3,26.6,15.6,41.6,14.2c0.7-0.1,1.4-0.2,1.9-0.7c1-1.1-0.2-2.9-1.4-3.8
						C743.4,393.7,728.6,389.7,713.5,393.6"/>
				</g>
			</g>
			<g>
				<g>
					<path class="st0" d="M724,389.7c14.6-10.9,34.6-14.2,51.9-8.6c-6.5,6.4-15.6,9.9-24.7,10.9C742.1,393,732.9,392,724,389.7"/>
				</g>
			</g>
			<g>
				<g>
					<path class="st0" d="M719.9,363.3c-1.2-12.2-0.4-21.8-1.3-34.1c-0.1-1-0.3-2.2-1.2-2.5c-1.3-0.5-2.3,1.1-2.8,2.4
						c-3.6,11.3-1.6,24.3,5.2,34"/>
				</g>
			</g>
			<g>
				<g>
					<path class="st0" d="M719,364.7c8.3-5.1,14.5-11.8,20.2-19.7c4-5.5,7.4-12,6.5-18.7c-5.6-0.1-10.9,3-14.6,7.2
						c-3.6,4.3-5.8,9.6-7.4,15C722,353.9,720.9,359.4,719,364.7"/>
				</g>
			</g>
			<g>
				<g>
					<path class="st0" d="M738.9,359.1c18.2-6.7,35.1-16.7,49.8-29.3c-5.9-2.4-12.8-1-18.7,1.4c-13.6,5.5-24.7,14.7-31.3,27.8"/>
				</g>
			</g>
			<g>
				<g>
					<path class="st0" d="M724.6,371.3c9.2,1,18.5,1.7,27.6,0.1c9-1.5,17.4-5,25.8-8.6c0.7-0.3,1.4-0.6,1.8-1.3
						c0.3-0.7,0-1.7-0.6-2.2c-0.6-0.5-1.4-0.8-2.2-1c-9.1-2.5-18.9-1.4-27.9,1.7C740.1,363,732.8,366.6,724.6,371.3"/>
				</g>
			</g>
			<g>
				<g>
					<path class="st0" d="M672.1,394c-6.3-12.7-5.9-27.4-0.4-40.5c3.8,5.8,4.3,13.2,3.6,20.1c-0.7,6.9-2.8,14-2.9,21"/>
				</g>
			</g>
			<g>
				<g>
					<path class="st0" d="M647.1,381.4c-15.7-0.3-31.3,6.4-41.9,17.9c7.8,1.2,15.9-0.8,23-4.3c7.1-3.5,13.4-8.3,19.7-13.2"/>
				</g>
			</g>
			<g>
				<g>
					<path class="st0" d="M630.2,375.7c-7.7-0.6-15-1.6-22.4,0.7c-7.4,2.3-14.1,7.4-17.1,14.5c7.2,0.8,14.4-1,21-4
						C618.3,384,624.3,379.8,630.2,375.7"/>
				</g>
			</g>
			<g>
				<g>
					<path class="st0" d="M655.2,376c-6.9-4.5-14-9.1-22-11c-8-1.9-17.3-0.5-22.9,5.6c6.5,3.8,14.4,4.3,21.9,4.3
						c7.5,0,16.8-0.1,23.9,2.4"/>
				</g>
			</g>
			<g>
				<g>
					<path class="st0" d="M655.2,376.4c-11.8-11.6-16.2-32.3-11.5-48.1C653,342.3,657.1,359.6,655.2,376.4"/>
				</g>
			</g>
			<g>
				<g>
					<path class="st0" d="M687.6,343.6c2.2-5.2,3.8-10.6,5.8-15.8c2-5.3,4.5-10.4,8.2-14.6c3.8-4.2,9-7.3,14.6-7.6
						c-3.5,15.9-14.1,30.1-28.3,38.1"/>
				</g>
			</g>
			<g>
				<g>
					<path class="st0" d="M681.7,350.4c-3.7-5.1-7.9-11.9-12.9-15.7c-5-3.8-11.5-6.1-17.6-4.6C657.4,341.2,669.1,349,681.7,350.4"/>
				</g>
			</g>
			<g>
				<g>
					<path class="st0" d="M682.9,344c-2.4-6.1-4.8-12.3-5.8-18.8c-1-6.5-0.4-13.5,2.9-19.1c6.5,12.2,8.5,25.3,3.2,38.1"/>
				</g>
			</g>
			<g>
				<g>
					<path class="st0" d="M687.6,306.1c3.7-12.1,14.8-21,26.7-25.1c1.5-0.5,3.1-0.9,4.7-0.7c1.6,0.2,3.1,1.3,3.5,2.9
						c0.4,2.1-1.3,3.9-2.9,5.3C710.3,296.4,699.4,302.4,687.6,306.1"/>
				</g>
			</g>
			<g>
				<g>
					<path class="st0" d="M687.8,296.2c0.5-7.8,1-15.7,3.5-23.1c2.5-7.4,7.4-14.3,14.6-17.6c1.2,7.9-2.3,15.7-6.5,22.5
						s-9.3,13.2-11.8,20.8"/>
				</g>
			</g>
			<g>
				<g>
					<path class="st0" d="M687.6,301.5c-3-8.8-3.3-20-8.6-27.7c-3.7-5.4-9.6-9-12.8-14.7c-2.1,5.3-1.5,11.4,0.7,16.7
						c2.2,5.3,5.9,9.8,9.8,14C680.6,294,683.9,297.1,687.6,301.5"/>
				</g>
			</g>
			<g>
				<g>
					<g>
						<path class="st0" d="M687.6,561.5c-0.2,0-0.4-58.9-0.5-131.5c0-72.7,0.2-131.5,0.4-131.5S688,357.3,688,430
							C688.1,502.6,687.9,561.5,687.6,561.5z"/>
					</g>
				</g>
			</g>
			<g>
				<g>
					<g>
						<path class="st0" d="M739.1,385.1c0,0.1-0.8,0.3-2.2,0.8c-1.6,0.5-3.6,1.2-6.1,2.1c-5.1,1.8-12.2,4.3-19.9,7.4
							c-7.6,3.3-14.7,5.9-18.8,9.4c-2,1.7-3.2,3.6-3.8,5c-0.6,1.4-0.7,2.2-0.8,2.2c0,0,0-0.2,0-0.6c0.1-0.4,0.2-1,0.4-1.7
							c0.5-1.5,1.6-3.5,3.7-5.3c2-1.9,4.9-3.5,8.2-5.1c3.3-1.5,6.9-3.1,10.7-4.7c7.7-3.1,14.8-5.6,20-7.2c2.6-0.8,4.7-1.4,6.2-1.8
							C738.3,385.2,739.1,385.1,739.1,385.1z"/>
					</g>
				</g>
			</g>
			<g>
				<g>
					<g>
						<path class="st0" d="M756,343.7c0,0-0.2,0.2-0.6,0.7c-0.5,0.5-1.1,1.1-1.9,1.8c-1.8,1.6-4.1,3.8-7.1,6.4
							c-6.1,5.4-14.4,12.8-23.5,20.9c-9.2,8.2-17.1,16-22.6,21.8c-2.7,2.9-4.9,5.4-6.4,7.1c-0.7,0.8-1.3,1.4-1.7,1.9
							c-0.4,0.4-0.6,0.7-0.6,0.6c0,0,0.2-0.3,0.5-0.8c0.4-0.5,0.9-1.2,1.6-2.1c1.4-1.8,3.5-4.3,6.2-7.3c5.4-6,13.3-13.9,22.5-22.1
							c9.2-8.1,17.6-15.5,23.6-20.7c3-2.6,5.4-4.7,7.2-6.2c0.8-0.7,1.5-1.2,2-1.7C755.7,343.8,756,343.7,756,343.7z"/>
					</g>
				</g>
			</g>
			<g>
				<g>
					<g>
						<path class="st0" d="M713,381.7c-0.2-0.1,1.7-4.5,3.6-10.1c1.9-5.6,2.8-10.3,3.1-10.3c0.2,0-0.3,4.9-2.3,10.5
							c-1,2.8-2,5.3-2.9,7.1C713.7,380.7,713.1,381.8,713,381.7z"/>
					</g>
				</g>
			</g>
			<g>
				<g>
					<g>
						<path class="st0" d="M687.7,417.4c0,0-0.5-0.6-1.4-1.6c-1-1.2-2.2-2.8-3.6-4.6c-3-3.9-7.2-9.4-12-15.3
							c-4.7-5.9-9-11.3-12.2-15.1c-1.5-1.8-2.7-3.4-3.7-4.6c-0.9-1.1-1.3-1.7-1.3-1.7c0,0,0.6,0.5,1.5,1.5c0.9,1,2.3,2.5,3.9,4.4
							c3.3,3.8,7.7,9,12.4,15c4.7,5.9,8.8,11.4,11.8,15.5c1.5,2,2.6,3.7,3.4,4.8C687.3,416.7,687.7,417.3,687.7,417.4z"/>
					</g>
				</g>
			</g>
			<g>
				<g>
					<g>
						<path class="st0" d="M676.4,402.9c-0.1,0.1-3.1-3.4-4.7-8.9c-1.2-3.8-1.2-7.3-1.1-8.9l0.4,0c-0.2,0.7-0.3,1-0.4,1
							c-0.1,0-0.1-0.4,0-1.1l0.4,0c0.1,1.6,0.4,5,1.5,8.7C674,399.1,676.6,402.7,676.4,402.9z"/>
					</g>
				</g>
			</g>
			<g>
				<g>
					<g>
						<path class="st0" d="M661.8,384.6c-0.1,0.1-1.1-1.1-3.3-1.9c-2.2-0.9-5.5-1-9.2-0.7c-3.6,0.3-6.9,0.9-9.2,1.5
							c-2.3,0.6-3.8,1-3.8,0.9c0-0.1,1.3-0.8,3.6-1.5c2.3-0.7,5.6-1.5,9.3-1.8c3.7-0.3,7.2,0,9.5,1
							C661.1,383.1,661.9,384.5,661.8,384.6z"/>
					</g>
				</g>
			</g>
			<g>
				<g>
					<g>
						<path class="st0" d="M658.4,380.1c-0.1,0.1-1.9-0.8-5.1-1.8c-3.1-1.1-7.6-2.2-12.6-2.6c-5-0.4-9.6,0.1-12.9,0.7
							c-3.3,0.6-5.2,1.2-5.3,1.1c0-0.1,0.5-0.3,1.3-0.6c0.9-0.3,2.2-0.7,3.8-1.1c3.3-0.7,7.9-1.3,13-0.9c5.1,0.4,9.6,1.6,12.8,2.9
							c1.6,0.6,2.8,1.2,3.6,1.6C658,379.8,658.4,380.1,658.4,380.1z"/>
					</g>
				</g>
			</g>
			<g>
				<g>
					<g>
						<path class="st0" d="M687.6,361.3c-0.2,0.1-1.9-5.7-3.7-12.8c-1.8-7.1-3.1-13-2.9-13c0.2-0.1,1.9,5.7,3.7,12.8
							C686.5,355.5,687.8,361.3,687.6,361.3z"/>
					</g>
				</g>
			</g>
			<g>
				<g>
					<g>
						<path class="st0" d="M687.8,361.3c-0.3,0.1-1.3-3.8-4.1-7.7c-2.7-4-6.1-6-6-6.2c0-0.1,1,0.3,2.3,1.2c1.3,0.9,3,2.5,4.4,4.5
							C687.3,357.3,688,361.3,687.8,361.3z"/>
					</g>
				</g>
			</g>
			<g>
				<g>
					<g>
						<path class="st0" d="M687.6,530.1c-0.1,0-0.3-1.4-0.9-3.9c-0.7-2.5-1.9-6-3.9-10.2c-4.1-8.3-11.5-18.9-20.9-29.4
							c-4.7-5.3-9.2-10.4-13-15.2c-3.8-4.8-7-9.4-9.3-13.4c-2.3-4-3.8-7.5-4.7-10c-0.4-1.2-0.7-2.2-0.9-2.9c-0.2-0.7-0.3-1-0.2-1
							c0.1,0,0.5,1.3,1.5,3.7c1,2.4,2.5,5.8,4.9,9.8c2.4,4,5.5,8.5,9.4,13.2c3.9,4.8,8.4,9.8,13.1,15.1
							c9.4,10.6,16.8,21.3,20.8,29.7c2,4.2,3.2,7.8,3.7,10.4c0.3,1.3,0.5,2.3,0.5,3C687.6,529.8,687.7,530.1,687.6,530.1z"/>
					</g>
				</g>
			</g>
			<g>
				<g>
					<g>
						<path class="st0" d="M734.1,477.6c0,0.1-0.9,0.5-2.4,1.4c-1.6,0.9-3.8,2.2-6.3,4.2c-2.5,1.9-5.4,4.5-8.3,7.6
							c-2.9,3.1-5.9,6.7-9,10.5c-6.1,7.7-11.9,14.5-15.3,19.9c-1.7,2.7-3,5-3.8,6.6c-0.8,1.6-1.3,2.5-1.3,2.5c0,0,0.1-0.2,0.2-0.7
							c0.2-0.4,0.4-1.1,0.8-1.9c0.7-1.6,1.9-4,3.6-6.7c3.3-5.6,9-12.5,15.1-20.1c3.1-3.8,6.1-7.4,9.1-10.5c3-3.1,5.9-5.6,8.5-7.5
							c2.6-1.9,4.9-3.2,6.5-4c0.8-0.4,1.5-0.7,1.9-0.8C733.9,477.7,734.1,477.6,734.1,477.6z"/>
					</g>
				</g>
			</g>
			<g>
				<g>
					<g>
						<path class="st0" d="M735.1,494.6c0,0.1-2,0.4-5.2,0.7c-3.2,0.4-7.6,0.9-12.2,2.4c-4.6,1.5-8.4,3.8-10.9,5.7
							c-2.5,1.9-3.7,3.6-3.8,3.5c0,0,0.2-0.5,0.8-1.2c0.6-0.7,1.5-1.7,2.7-2.7c2.5-2.1,6.3-4.5,11.1-6.1c4.7-1.5,9.2-1.9,12.4-2.2
							C733.1,494.6,735,494.5,735.1,494.6z"/>
					</g>
				</g>
			</g>
			<g>
				<g>
					<g>
						<path class="st0" d="M704.4,505.1c-0.3-0.2,2.1-3.7,3.9-8.5c1.7-4.8,2.1-9,2.4-9c0.1,0,0.1,1.1-0.1,2.8
							c-0.2,1.7-0.6,4-1.5,6.5c-0.9,2.5-2.1,4.5-3,6C705.2,504.4,704.5,505.2,704.4,505.1z"/>
					</g>
				</g>
			</g>
			<g>
				<g>
					<g>
						<path class="st0" d="M749.2,431.9c0,0-0.3,0.2-0.8,0.4c-0.6,0.3-1.4,0.7-2.4,1.1c-1.1,0.5-2.3,1-3.8,1.8
							c-1.5,0.8-3.2,1.5-4.9,2.6c-0.9,0.5-1.8,1-2.8,1.6c-1,0.6-1.9,1.2-3,1.9c-2.1,1.3-4.1,2.8-6.4,4.4c-4.3,3.3-8.9,7.2-13.3,11.7
							c-4.3,4.5-8.1,9.2-11.2,13.7c-1.5,2.3-3,4.4-4.2,6.5c-0.6,1-1.2,2-1.8,3c-0.5,1-1,1.9-1.5,2.9c-1,1.8-1.7,3.5-2.4,5
							c-0.7,1.5-1.2,2.8-1.7,3.9c-0.4,1-0.7,1.8-1,2.5c-0.2,0.6-0.4,0.8-0.4,0.8c0,0,0.1-0.3,0.2-0.9c0.2-0.7,0.5-1.5,0.9-2.5
							c0.4-1.1,0.9-2.4,1.5-3.9c0.7-1.5,1.3-3.3,2.3-5.1c0.5-0.9,1-1.9,1.5-2.9c0.5-1,1.1-2,1.7-3.1c1.2-2.1,2.6-4.3,4.1-6.6
							c3.1-4.5,6.9-9.2,11.3-13.8c4.4-4.5,9-8.4,13.4-11.7c2.2-1.6,4.3-3.1,6.5-4.4c1-0.6,2-1.3,3-1.8c1-0.5,1.9-1.1,2.9-1.6
							c1.8-1,3.5-1.8,5-2.5c1.5-0.7,2.8-1.3,3.9-1.7c1-0.4,1.8-0.7,2.5-1C748.9,431.9,749.2,431.8,749.2,431.9z"/>
					</g>
				</g>
			</g>
			<g>
				<g>
					<g>
						<path class="st0" d="M712.4,456.5c-0.1,0,0.3-1.4,2-3c1.6-1.6,4.7-3,8.2-3.1c3.5-0.1,6.5,0.9,8.6,1.7c2.1,0.8,3.3,1.5,3.2,1.6
							c0,0.1-1.3-0.3-3.4-1c-2.1-0.6-5-1.5-8.4-1.4c-3.3,0.1-6.1,1.4-7.8,2.7C713.1,455.3,712.5,456.6,712.4,456.5z"/>
					</g>
				</g>
			</g>
			<g>
				<g>
					<g>
						<path class="st0" d="M706.9,462.2c-0.2-0.1,1.8-3.2,2.3-7.5c0.5-4.4-0.8-7.8-0.5-7.9c0.1,0,0.6,0.8,1,2.2
							c0.4,1.4,0.7,3.5,0.4,5.8c-0.3,2.3-1,4.2-1.7,5.5C707.6,461.6,707,462.2,706.9,462.2z"/>
					</g>
				</g>
			</g>
		</g>
		<g>
			<g>
				<path class="st0" d="M647,538.6c1.3,22.5,8.1,45.4,18.5,68.5h45.4c9.9-22.9,16.3-45.8,17.4-68.5H647z"/>
			</g>
		</g>
		<g>
			<g>
				<g>
					<path class="st1" d="M720.8,575c0,0.2-14.9,0.4-33.4,0.4c-18.4,0-33.4-0.2-33.4-0.4s14.9-0.4,33.4-0.4
						C705.9,574.6,720.8,574.8,720.8,575z"/>
				</g>
			</g>
		</g>
		<g>
			<g>
				<g>
					<path class="st1" d="M719.8,583.1c0,0.2-14,0.4-31.3,0.4c-17.3,0-31.3-0.2-31.3-0.4c0-0.2,14-0.4,31.3-0.4
						C705.8,582.7,719.8,582.9,719.8,583.1z"/>
				</g>
			</g>
		</g>
		<g>
			<g>
				<g>
					<path class="st1" d="M666.2,553.3c0.2,0,0.4,4.7,0.4,10.4c0,5.8-0.2,10.4-0.4,10.4c-0.2,0-0.4-4.7-0.4-10.4
						C665.8,558,665.9,553.3,666.2,553.3z"/>
				</g>
			</g>
		</g>
		<g>
			<g>
				<g>
					<path class="st1" d="M690.5,553.3c0.2,0,0.4,4.8,0.4,10.8c0,6-0.2,10.8-0.4,10.8s-0.4-4.8-0.4-10.8
						C690.1,558.2,690.3,553.3,690.5,553.3z"/>
				</g>
			</g>
		</g>
		<g>
			<g>
				<g>
					<path class="st1" d="M713.3,553.2c0.2,0,0.4,4.9,0.4,11c0,6.1-0.2,11-0.4,11c-0.2,0-0.4-4.9-0.4-11
						C712.9,558.1,713.1,553.2,713.3,553.2z"/>
				</g>
			</g>
		</g>
		<g>
			<g>
				<g>
					<path class="st1" d="M726.8,553.3c0,0.2-17.5,0.4-39.1,0.4c-21.6,0-39.1-0.2-39.1-0.4c0-0.2,17.5-0.4,39.1-0.4
						C709.2,552.9,726.8,553.1,726.8,553.3z"/>
				</g>
			</g>
		</g>
	</g>
	<g>
		<g>
			<g>
				<g>
					<g>
						<g>
							<g>
								<g>
									<g>
										<g>
											<rect x="642.7" y="-13.7" class="st0" width="108.7" height="113.3"/>
										</g>
									</g>
								</g>
							</g>
						</g>
					</g>
				</g>
			</g>
		</g>
		<g>
			<g>
				<g>
					<g>
						<g>
							<g>
								<g>
									<g>
										<g>
											<rect x="635.4" y="-13.7" class="st1" width="108.7" height="113.3"/>
										</g>
									</g>
								</g>
							</g>
						</g>
					</g>
				</g>
			</g>
			<g>
				<g>
					<g>
						<g>
							<g>
								<g>
									<g>
										<g>
											<path class="st0" d="M744.1,99.6H635.3V-13.7h108.8V99.6z M635.4,99.6H744V-13.7H635.4V99.6z"/>
										</g>
									</g>
								</g>
							</g>
						</g>
					</g>
				</g>
			</g>
		</g>
		<g>
			<g>
				<g>
					<g>
						<g>
							<g>
								<g>
									<g>
										<g>
											<rect x="650" y="1.5" class="st2" width="79.5" height="82.8"/>
										</g>
									</g>
								</g>
							</g>
						</g>
					</g>
				</g>
			</g>
		</g>
		<g>
			<g>
				<g>
					<g>
						<g>
							<g>
								<g>
									<g>
										<g>
											<g>
												<path class="st0" d="M650,84.9c0.1,0.1-0.7,0.9-2,2.3c-1.3,1.3-3.1,3.2-5.1,5.1c-2,2-3.8,3.7-5.2,5s-2.2,2-2.3,1.9
													c-0.1-0.1,0.7-0.9,2-2.3c1.3-1.3,3.1-3.2,5.1-5.1c2-2,3.8-3.7,5.2-5C649.1,85.6,649.9,84.8,650,84.9z"/>
											</g>
										</g>
									</g>
								</g>
							</g>
						</g>
					</g>
				</g>
			</g>
		</g>
		<g>
			<g>
				<g>
					<g>
						<g>
							<g>
								<g>
									<g>
										<g>
											<g>
												<path class="st0" d="M729.5,84.7c0.1-0.1,0.9,0.7,2.3,2c1.3,1.3,3.2,3.1,5.1,5.1c2,2,3.7,3.8,5,5.2
													c1.2,1.4,2,2.2,1.9,2.3c-0.1,0.1-0.9-0.7-2.3-2c-1.3-1.3-3.2-3.1-5.1-5.1c-2-2-3.7-3.8-5-5.2
													C730.1,85.6,729.4,84.8,729.5,84.7z"/>
											</g>
										</g>
									</g>
								</g>
							</g>
						</g>
					</g>
				</g>
			</g>
		</g>
		<g>
			<g>
				<g>
					<g>
						<g>
							<g>
								<g>
									<g>
										<g>
											<g>
												<path class="st0" d="M729.2,1.7c-0.1-0.1,0.7-0.9,2-2.3s3.1-3.2,5.1-5.1c2-2,3.8-3.7,5.2-5c1.4-1.2,2.2-2,2.3-1.9
													c0.1,0.1-0.7,0.9-2,2.3s-3.1,3.2-5.1,5.1s-3.8,3.7-5.2,5C730.2,1.1,729.3,1.8,729.2,1.7z"/>
											</g>
										</g>
									</g>
								</g>
							</g>
						</g>
					</g>
				</g>
			</g>
		</g>
		<g>
			<g>
				<g>
					<g>
						<g>
							<g>
								<g>
									<g>
										<g>
											<g>
												<path class="st0" d="M649.8,2c-0.1,0.1-0.9-0.7-2.3-2c-1.3-1.3-3.2-3.1-5.1-5.1c-2-2-3.7-3.8-5-5.2
													c-1.2-1.4-2-2.2-1.9-2.3c0.1-0.1,0.9,0.7,2.3,2c1.3,1.3,3.2,3.1,5.1,5.1c2,2,3.7,3.8,5,5.2C649.1,1,649.9,1.9,649.8,2z"
													/>
											</g>
										</g>
									</g>
								</g>
							</g>
						</g>
					</g>
				</g>
			</g>
		</g>
		<g>
			<g>
				<g>
					<g>
						<g>
							<g>
								<g>
									<g>
										<g>
											<g>
												<path class="st0" d="M729.2,84.4c0,0,0-0.1,0-0.4c0-0.3,0-0.7,0-1.2c0-1,0-2.5,0-4.5c0-3.9,0-9.6-0.1-16.9
													c0-14.5-0.1-35.2-0.2-59.9l0.3,0.3c-23.1,0-50.3,0-79.2,0h0l0.4-0.4c0,30.4,0,58.8,0,82.8l-0.3-0.3
													c23.7,0.1,43.5,0.1,57.4,0.2c6.9,0,12.4,0.1,16.1,0.1c1.8,0,3.3,0,4.3,0c0.5,0,0.8,0,1.1,0
													C729.1,84.4,729.2,84.4,729.2,84.4c0,0-0.1,0-0.3,0c-0.3,0-0.6,0-1.1,0c-1,0-2.4,0-4.2,0c-3.7,0-9.2,0-16.1,0.1
													c-13.9,0-33.7,0.1-57.6,0.2l-0.3,0v-0.3c0-24,0-52.4,0-82.8V1.2h0.4h0c28.9,0,56.1,0,79.2,0h0.3v0.3
													c-0.1,24.8-0.1,45.6-0.2,60.1c0,7.2-0.1,12.9-0.1,16.8c0,1.9,0,3.4,0,4.4c0,0.5,0,0.8,0,1.1
													C729.3,84.2,729.3,84.4,729.2,84.4z"/>
											</g>
										</g>
									</g>
								</g>
							</g>
						</g>
					</g>
				</g>
			</g>
		</g>
		<g>
			<g>
				<g>
					<g>
						<g>
							<g>
								<g>
									<g>
										<g>
											<rect x="676.5" y="29.7" class="st3" width="26.5" height="26.5"/>
										</g>
									</g>
								</g>
							</g>
						</g>
					</g>
				</g>
			</g>
		</g>
	</g>
	<g>
		<g>
			<g>
				<g>
					<g>
						<rect x="153.7" y="165.3" class="st0" width="124.1" height="179.9"/>
					</g>
				</g>
			</g>
		</g>
		<g>
			<g>
				<g>
					<g>
						<rect x="147.5" y="165.3" class="st4" width="124.1" height="179.9"/>
					</g>
				</g>
			</g>
		</g>
		<g>
			<g>
				<g>
					<g>
						<g>
							<rect x="162.9" y="184.8" class="st2" width="93.3" height="140.9"/>
						</g>
					</g>
				</g>
			</g>
			<g>
				<g>
					<g>
						<g>
							<g>
								<path class="st0" d="M256.2,325.7c0,0,0-0.2,0-0.7c0-0.5,0-1.1,0-2c0-1.8,0-4.4,0-7.7c0-6.8,0-16.6-0.1-29
									c0-24.9-0.1-60-0.2-101.5l0.3,0.3c-28.5,0-60.1,0-93.3,0h0l0.3-0.3c0,53.2,0,102.2-0.1,140.9l-0.3-0.3
									c28.4,0.1,51.7,0.1,67.9,0.1c8.1,0,14.4,0.1,18.8,0.1c2.1,0,3.8,0,4.9,0C255.6,325.7,256.2,325.7,256.2,325.7s-0.5,0-1.6,0
									c-1.1,0-2.7,0-4.9,0c-4.3,0-10.6,0-18.7,0.1c-16.2,0-39.6,0.1-68.1,0.1h-0.3v-0.3c0-38.7,0-87.8-0.1-140.9v-0.3h0.3h0
									c33.2,0,64.8,0,93.3,0h0.3v0.3c-0.1,41.5-0.1,76.8-0.2,101.7c0,12.4-0.1,22.2-0.1,29c0,3.3,0,5.9,0,7.7c0,0.9,0,1.5,0,2
									C256.2,325.5,256.2,325.7,256.2,325.7z"/>
							</g>
						</g>
					</g>
				</g>
			</g>
		</g>
		<g>
			<g>
				<g>
					<g>
						<g>
							<path class="st0" d="M272,165.3c0.1,0.1-0.8,1.3-2.2,3.2c-1.4,1.9-3.5,4.6-5.8,7.4c-2.3,2.8-4.5,5.3-6.1,7.1
								c-1.6,1.8-2.7,2.8-2.7,2.8c-0.1-0.1,0.8-1.2,2.4-3.1c1.7-2,3.7-4.5,6-7.2c2.3-2.7,4.3-5.2,6-7.3
								C270.9,166.4,271.9,165.2,272,165.3z"/>
						</g>
					</g>
				</g>
			</g>
		</g>
		<g>
			<g>
				<g>
					<g>
						<g>
							<path class="st2" d="M256.7,325.3c4.6,7.4,10.1,14.2,16.3,20.3"/>
						</g>
					</g>
				</g>
			</g>
			<g>
				<g>
					<g>
						<g>
							<g>
								<path class="st0" d="M273,345.6c-0.1,0.1-1.2-0.9-2.8-2.6c-1.7-1.7-3.9-4.1-6.1-6.9c-2.3-2.8-4.1-5.5-5.4-7.5
									c-1.3-2-2-3.3-1.9-3.3c0.1-0.1,0.9,1.1,2.3,3.1c1.4,1.9,3.3,4.5,5.5,7.4c2.2,2.8,4.4,5.3,6,7C272,344.5,273,345.5,273,345.6
									z"/>
							</g>
						</g>
					</g>
				</g>
			</g>
		</g>
		<g>
			<g>
				<g>
					<g>
						<g>
							<path class="st2" d="M147.5,345.1c5.4-6.7,10.8-13.4,16.3-20.1"/>
						</g>
					</g>
				</g>
			</g>
			<g>
				<g>
					<g>
						<g>
							<g>
								<path class="st0" d="M163.8,325c0.1,0.1-3.4,4.7-7.9,10.2c-4.5,5.5-8.2,9.9-8.4,9.8c-0.1-0.1,3.4-4.7,7.9-10.2
									C159.8,329.3,163.6,324.9,163.8,325z"/>
							</g>
						</g>
					</g>
				</g>
			</g>
		</g>
		<g>
			<g>
				<g>
					<g>
						<g>
							<path class="st0" d="M147.5,165.3c0.1-0.1,3.7,4.1,7.9,9.4c4.2,5.3,7.5,9.7,7.4,9.9c-0.1,0.1-3.7-4.1-7.9-9.4
								C150.7,169.8,147.4,165.4,147.5,165.3z"/>
						</g>
					</g>
				</g>
			</g>
		</g>
		<g>
			<g>
				<g>
					<g>
						<rect x="195.9" y="213.4" class="st0" width="31.2" height="88.7"/>
					</g>
				</g>
			</g>
		</g>
	</g>
</g>
<g id="Padlock">
	<g>
		<g>
			<g>
				<g>
					<path class="st5" d="M212.4,40.9c-26,10.6-38.5,40.4-27.8,66.4l31.6,77.2l14.2-5.8l-31.6-77.2c-7.4-18.2,1.3-39,19.4-46.4
						c18.2-7.4,39,1.3,46.4,19.4l14.2-5.8C268.1,42.8,238.3,30.3,212.4,40.9z"/>
				</g>
				<g class="st6">
					<path d="M212.4,40.9c-26,10.6-38.5,40.4-27.8,66.4l31.6,77.2l14.2-5.8l-31.6-77.2c-7.4-18.2,1.3-39,19.4-46.4
						c18.2-7.4,39,1.3,46.4,19.4l14.2-5.8C268.1,42.8,238.3,30.3,212.4,40.9z"/>
				</g>
				<g>
					<g>
						<g>
							<path class="st5" d="M338.5,189.5l-111.8,45.8c-4.2,1.7-9-0.3-10.7-4.5l-27.1-66.3c-1.7-4.2,0.3-9,4.5-10.7L305.1,108
								c4.2-1.7,9,0.3,10.7,4.5l27.1,66.3C344.7,183,342.7,187.7,338.5,189.5z"/>
						</g>
					</g>
				</g>
				<g class="st7">
					<g>
						<path d="M272.1,156.7c-2.4-5.9-9.1-8.7-15-6.3c-5.9,2.4-8.7,9.1-6.3,15c2,4.9,6.9,7.6,11.9,7l6.5,15.9l5.8-2.4l-6.5-15.9
							C272.5,166.9,274.1,161.5,272.1,156.7z"/>
					</g>
				</g>
			</g>
			<g>
				<g>
					<g>
						<g>
							<path class="st1" d="M222.7,227.9c-0.3,0.1-6.1-13.4-13-30.1c-6.9-16.8-12.2-30.4-11.9-30.6c0.3-0.1,6.1,13.4,13,30.1
								C217.6,214.1,223,227.7,222.7,227.9z"/>
						</g>
					</g>
				</g>
			</g>
			<g>
				<g>
					<g>
						<g>
							<path class="st1" d="M258.8,178c0,0.1-0.6,0-1.5-0.2c-1-0.2-2.3-0.7-3.9-1.7c-3-1.8-6.8-5.8-7.7-11.3
								c-0.8-5.6,1.5-10.5,3.8-13.2c1.2-1.4,2.3-2.3,3.2-2.8c0.9-0.5,1.4-0.7,1.4-0.7c0.1,0.2-1.9,1.2-4,3.9
								c-2.1,2.6-4.1,7.3-3.3,12.5c0.8,5.1,4.2,9,7,10.8C256.7,177.4,258.9,177.8,258.8,178z"/>
						</g>
					</g>
				</g>
			</g>
		</g>
		<g>
			<path class="st5" d="M168.8,191.9l0.7-2l1.3,1.7c1.1,1.3,2.5,2.3,4.1,2.9l2,0.7l-1.7,1.3c-1.3,1.1-2.3,2.5-2.9,4.1l-0.7,2
				l-1.3-1.7c-1.1-1.3-2.5-2.3-4.1-2.9l-2-0.7l1.7-1.3C167.2,194.9,168.2,193.5,168.8,191.9z"/>
		</g>
		<g>
			<path class="st5" d="M235.7,113.2l0.4-1.2l0.8,1c0.6,0.8,1.4,1.3,2.4,1.7l1.2,0.4l-1,0.8c-0.8,0.6-1.3,1.4-1.7,2.4l-0.4,1.2
				l-0.8-1c-0.6-0.8-1.4-1.3-2.4-1.7l-1.2-0.4l1-0.8C234.8,115,235.4,114.2,235.7,113.2z"/>
		</g>
		<g>
			<path class="st5" d="M155.2,123l1.2-3.4l2.2,2.8c1.8,2.2,4.1,3.9,6.8,4.8l3.4,1.2l-2.8,2.2c-2.2,1.8-3.9,4.1-4.8,6.8l-1.2,3.4
				l-2.2-2.8c-1.8-2.2-4.1-3.9-6.8-4.8l-3.4-1.2l2.8-2.2C152.6,128.1,154.3,125.7,155.2,123z"/>
		</g>
	</g>
</g>
<g id="Device">
	<g>
		<g>
			<g>
				<g>
					<g>
						<g>
							<path class="st8" d="M544.1,612.5l-208.2-0.1c-25,0-45.3-20.3-45.3-45.4l0.1-521.9c0-25.1,20.3-45.4,45.4-45.3l208.2,0.1
								c25,0,45.3,20.3,45.3,45.4l-0.1,521.9C589.5,592.2,569.2,612.5,544.1,612.5z"/>
						</g>
					</g>
					<g>
						<g>
							<path class="st2" d="M544,18.3l-40.4,0c-5.4,0-9.8,4.6-9.8,10.2l0,7.3c0,5.7-4.4,10.2-9.8,10.2l-78.7,0
								c-5.4,0-9.8-4.6-9.8-10.3l0-7.3c0-5.7-4.4-10.2-9.8-10.3l-14.2,0l-35.3,0c-17.5,0-31.8,14.2-31.8,31.8l-0.1,509.5
								c0,17.5,14.2,31.8,31.7,31.8l207.8,0.1c17.5,0,31.8-14.2,31.8-31.8l0.1-509.5C575.8,32.5,561.6,18.3,544,18.3z"/>
						</g>
					</g>
				</g>
			</g>
			<g>
				<g>
					<path class="st8" d="M420.8,552.3c0,2.2-1.8,4-4,4c-2.2,0-4-1.8-4-4c0-2.2,1.8-4,4-4C419,548.4,420.8,550.1,420.8,552.3z"/>
				</g>
				<g>
					<path class="st8" d="M443.1,552.2c0,2.2-1.8,4-4,4c-2.2,0-4-1.8-4-4c0-2.2,1.8-4,4-4C441.3,548.2,443.1,550,443.1,552.2z"/>
				</g>
				<g>
					<path class="st8" d="M465.5,552c0,2.2-1.8,4-4,4c-2.2,0-4-1.8-4-4c0-2.2,1.8-4,4-4C463.7,548,465.5,549.8,465.5,552z"/>
				</g>
			</g>
			<g>
				<g>
					<g>
						<path class="st8" d="M545.3,69.7c0,0.1-5.2,0.3-11.7,0.3c-6.5,0.1-11.7,0-11.7-0.1c0-0.1,5.2-0.3,11.7-0.3
							C540,69.6,545.3,69.6,545.3,69.7z"/>
					</g>
				</g>
				<g>
					<g>
						<path class="st8" d="M545.3,75.7c0,0.1-5.2,0.3-11.7,0.3c-6.5,0.1-11.7,0-11.7-0.1c0-0.1,5.2-0.3,11.7-0.3
							C540.1,75.6,545.3,75.6,545.3,75.7z"/>
					</g>
				</g>
				<g>
					<g>
						<path class="st8" d="M545.4,81.7c0,0.1-5.2,0.3-11.7,0.3c-6.5,0.1-11.7,0-11.7-0.1c0-0.1,5.2-0.3,11.7-0.3
							C540.1,81.6,545.4,81.6,545.4,81.7z"/>
					</g>
				</g>
			</g>
			<g>
				<g>
					<path class="st8" d="M332,88.6c0,0,0.2,0,0.5,0c0.4,0,0.8,0,1.4,0c1.3,0,2.9-0.1,5-0.1l-0.1,0.1c0-1.1,0-2.3-0.1-3.6
						c0-0.7-0.1-1.3,0-2.1c0.1-0.8,0.8-1.4,1.7-1.5c0.8,0,1.5-0.1,2.4,0c0.9,0.1,1.6,1,1.6,1.9c0,1.7,0,3.5,0.1,5.3l-0.2-0.2
						c2,0,4.1,0,6.3-0.1l-0.2,0.2c0-2.5,0-5.2-0.1-7.9c0-0.7,0-1.3,0-2c0-0.3-0.1-0.6-0.3-0.8c-0.1-0.2-0.4-0.4-0.6-0.7
						c-0.9-0.9-1.9-1.8-2.8-2.7c-0.9-0.9-1.8-1.8-2.7-2.6c-0.4-0.4-0.9-0.9-1.3-1.3c-0.4-0.4-0.8-0.9-1.3-1c-0.5-0.1-1.1,0-1.5,0.3
						c-0.4,0.3-0.8,0.8-1.2,1.2c-0.8,0.8-1.5,1.5-2.3,2.3c-1.4,1.5-2.9,2.8-4,4.1c-0.5,0.7-0.3,1.6-0.3,2.4c0,0.8,0,1.5,0,2.2
						c0,1.4,0,2.6,0,3.6c0,0.9,0,1.7,0,2.3C332,88.3,332,88.6,332,88.6s0-0.3,0-0.8c0-0.6,0-1.3-0.1-2.3c0-1,0-2.2-0.1-3.6
						c0-0.7,0-1.5,0-2.3c0-0.4,0-0.8,0-1.2c0-0.4,0.1-0.9,0.3-1.3c1.2-1.4,2.6-2.7,4-4.2c0.7-0.7,1.5-1.5,2.2-2.3
						c0.4-0.4,0.7-0.8,1.2-1.2c0.5-0.4,1.2-0.5,1.8-0.4c0.7,0.1,1.1,0.7,1.5,1.1c0.4,0.4,0.9,0.8,1.3,1.3c0.9,0.9,1.8,1.7,2.7,2.6
						c0.9,0.9,1.8,1.8,2.8,2.7c0.2,0.2,0.5,0.4,0.7,0.8c0.2,0.3,0.3,0.7,0.3,1.1c0,0.7,0,1.3,0,2c0,2.7,0,5.3,0.1,7.9l0,0.2l-0.2,0
						c-2.2,0-4.3,0-6.3,0l-0.2,0l0-0.2c0-1.8,0-3.6,0-5.3c0-0.8-0.6-1.5-1.3-1.6c-0.7,0-1.6,0-2.3,0c-0.7,0.1-1.3,0.6-1.4,1.2
						c-0.1,0.6,0,1.4,0,2c0,1.3,0,2.5,0,3.6v0.1h-0.1c-2.1,0-3.8,0-5.1,0c-0.5,0-1,0-1.3,0C332.1,88.6,332,88.6,332,88.6z"/>
				</g>
			</g>
		</g>
		<g>
			<g>
				<path class="st2" d="M412.2,393.2h6.4c4.6,0,7.8,2.8,7.8,7.1c0,4.3-3.2,7.1-7.8,7.1h-6.4V393.2z M418.5,404.7
					c2.8,0,4.7-1.7,4.7-4.4c0-2.7-1.8-4.4-4.7-4.4h-3v8.8L418.5,404.7L418.5,404.7z"/>
				<path class="st2" d="M427.9,402c0-3.3,2.5-5.6,6-5.6s6,2.3,6,5.6c0,3.3-2.5,5.6-6,5.6C430.5,407.6,427.9,405.3,427.9,402z
					 M436.7,402c0-1.9-1.2-3-2.8-3c-1.6,0-2.8,1.1-2.8,3s1.2,3,2.8,3C435.5,405,436.7,403.9,436.7,402z"/>
				<path class="st2" d="M453.2,401.2v6.2H450v-5.8c0-1.8-0.8-2.6-2.2-2.6c-1.5,0-2.6,0.9-2.6,2.9v5.4H442v-10.9h3v1.3
					c0.9-0.9,2.1-1.4,3.6-1.4C451.2,396.4,453.2,397.9,453.2,401.2z"/>
				<path class="st2" d="M466.8,402.9h-8.2c0.3,1.4,1.5,2.2,3.1,2.2c1.2,0,2-0.3,2.7-1.1l1.7,1.8c-1,1.2-2.5,1.8-4.5,1.8
					c-3.8,0-6.2-2.4-6.2-5.6c0-3.3,2.5-5.6,5.8-5.6c3.2,0,5.7,2.1,5.7,5.7C466.8,402.3,466.8,402.6,466.8,402.9z M458.5,401h5.4
					c-0.2-1.4-1.3-2.3-2.7-2.3C459.8,398.8,458.7,399.6,458.5,401z"/>
			</g>
		</g>
		<g>
			<g>
				<g>
					<path class="st2" d="M432.6,130.4h-0.7v-4c0-4.6,3.7-8.3,8.3-8.3s8.3,3.7,8.3,8.3v3.2h-0.7v-3.2c0-4.2-3.4-7.6-7.6-7.6
						s-7.6,3.4-7.6,7.6V130.4z"/>
				</g>
				<g>
					<g>
						<path class="st2" d="M450.6,158h-21c-1.9,0-3.5-1.6-3.5-3.5v-21c0-1.9,1.6-3.5,3.5-3.5h21c1.9,0,3.5,1.6,3.5,3.5v21
							C454.1,156.4,452.5,158,450.6,158z M429.6,130.7c-1.5,0-2.8,1.2-2.8,2.8v21c0,1.5,1.2,2.8,2.8,2.8h21c1.5,0,2.8-1.2,2.8-2.8
							v-21c0-1.5-1.2-2.8-2.8-2.8L429.6,130.7L429.6,130.7z"/>
					</g>
					<g>
						<g>
							<path class="st2" d="M440.2,144.7c-1.8,0-3.3-1.5-3.3-3.3c0-1.8,1.5-3.3,3.3-3.3c1.8,0,3.3,1.5,3.3,3.3
								S442,144.7,440.2,144.7z M440.2,138.8c-1.4,0-2.6,1.2-2.6,2.6s1.2,2.6,2.6,2.6c1.4,0,2.6-1.2,2.6-2.6
								C442.8,140,441.6,138.8,440.2,138.8z"/>
						</g>
						<g>
							<rect x="439.7" y="144.2" class="st2" width="0.7" height="6"/>
						</g>
					</g>
				</g>
			</g>
		</g>
	</g>
</g>
<g id="Character">
	<g>
		<g>
			<g>
				<g>
					<g>
						<g>
							<polygon class="st9" points="734.9,582.7 708.2,521.3 677.7,540.9 710.1,597 726.3,589.7 							"/>
						</g>
					</g>
				</g>
				<g>
					<g>
						<g>
							<g>
								<g>
									<g>
										<g>
											<g>
												<g>
													<g>
														<g>
															<g>
																<g>
																	<g>
																		<g>
																			<g>
																				<path class="st5" d="M734.3,579.3l0.9,1.7c0,0,35.5-3,38.6,2.4L715,612.6l-8.9-19.9
																					C716.8,592.4,726.2,588.3,734.3,579.3z"/>
																			</g>
																		</g>
																	</g>
																</g>
															</g>
														</g>
													</g>
												</g>
											</g>
										</g>
									</g>
								</g>
							</g>
							<g class="st10">
								<g>
									<g>
										<g>
											<g>
												<g>
													<g>
														<g>
															<g>
																<g>
																	<g>
																		<g>
																			<g>
																				<g>
																					<path class="st2" d="M715.2,596c-1,0.9-1.1,2.5-0.3,3.6s2.5,1.2,3.5,0.3c1-0.9,1.2-2.9,0.3-3.8
																						c-0.9-0.9-2.9-1-3.7,0.1"/>
																				</g>
																			</g>
																		</g>
																	</g>
																</g>
															</g>
														</g>
													</g>
												</g>
											</g>
										</g>
									</g>
								</g>
							</g>
							<g class="st10">
								<g>
									<g>
										<g>
											<g>
												<g>
													<g>
														<g>
															<g>
																<g>
																	<g>
																		<g>
																			<g>
																				<path class="st2" d="M715,612.6l-2.1-4.8l57.1-26.3c0,0,3.2-0.2,3.8,1.8L715,612.6z"/>
																			</g>
																		</g>
																	</g>
																</g>
															</g>
														</g>
													</g>
												</g>
											</g>
										</g>
									</g>
								</g>
							</g>
							<g>
								<g>
									<g>
										<g>
											<g>
												<g>
													<g>
														<g>
															<g>
																<g>
																	<g>
																		<g>
																			<g>
																				<g>
																					<path class="st8" d="M735.4,581.1c0.1,0.3-1.2,1.1-2.2,2.8c-1,1.6-1.1,3.2-1.4,3.2c-0.3,0.1-0.7-1.9,0.5-3.8
																						C733.5,581.3,735.4,580.8,735.4,581.1z"/>
																				</g>
																			</g>
																		</g>
																	</g>
																</g>
															</g>
														</g>
													</g>
												</g>
											</g>
										</g>
									</g>
								</g>
							</g>
							<g>
								<g>
									<g>
										<g>
											<g>
												<g>
													<g>
														<g>
															<g>
																<g>
																	<g>
																		<g>
																			<g>
																				<g>
																					<path class="st8" d="M742.9,580.5c0.2,0.2-0.8,1.4-1.2,3c-0.4,1.7,0,3.1-0.3,3.2c-0.2,0.2-1.3-1.4-0.8-3.5
																						C741.1,581.2,742.7,580.3,742.9,580.5z"/>
																				</g>
																			</g>
																		</g>
																	</g>
																</g>
															</g>
														</g>
													</g>
												</g>
											</g>
										</g>
									</g>
								</g>
							</g>
							<g>
								<g>
									<g>
										<g>
											<g>
												<g>
													<g>
														<g>
															<g>
																<g>
																	<g>
																		<g>
																			<g>
																				<g>
																					<path class="st8" d="M750,586.2c-0.2,0.2-1.3-1-1.4-3c-0.1-1.9,1-3.2,1.2-3.1c0.3,0.2-0.2,1.4-0.1,3
																						C749.8,584.8,750.3,586,750,586.2z"/>
																				</g>
																			</g>
																		</g>
																	</g>
																</g>
															</g>
														</g>
													</g>
												</g>
											</g>
										</g>
									</g>
								</g>
							</g>
						</g>
					</g>
				</g>
			</g>
			<g>
				<g>
					<g>
						<polygon class="st9" points="684.8,593.3 685.8,526.4 649.9,531.7 656.3,596.2 674.1,596.3 						"/>
					</g>
				</g>
			</g>
			<g>
				<g>
					<g>
						<g>
							<g>
								<g>
									<g>
										<g>
											<g>
												<g>
													<g>
														<g>
															<g>
																<g>
																	<g>
																		<g>
																			<path class="st5" d="M685.7,590l0.1,1.9c0,0,33.6,11.8,34.2,18.1l-65.6,2.5l0.1-21.8
																				C664.4,594.8,674.6,594.9,685.7,590z"/>
																		</g>
																	</g>
																</g>
															</g>
														</g>
													</g>
												</g>
											</g>
										</g>
									</g>
								</g>
							</g>
						</g>
						<g class="st10">
							<g>
								<g>
									<g>
										<g>
											<g>
												<g>
													<g>
														<g>
															<g>
																<g>
																	<g>
																		<g>
																			<g>
																				<path class="st2" d="M661.4,597.4c-1.3,0.4-2.1,1.9-1.7,3.1c0.3,1.3,1.8,2.1,3.1,1.7c1.3-0.4,2.3-2.1,1.8-3.3
																					c-0.5-1.2-2.3-2.1-3.4-1.5"/>
																			</g>
																		</g>
																	</g>
																</g>
															</g>
														</g>
													</g>
												</g>
											</g>
										</g>
									</g>
								</g>
							</g>
						</g>
						<g class="st10">
							<g>
								<g>
									<g>
										<g>
											<g>
												<g>
													<g>
														<g>
															<g>
																<g>
																	<g>
																		<g>
																			<path class="st2" d="M654.4,612.5l0-5.3l62.8-0.4c0,0,3,1.2,2.7,3.2L654.4,612.5z"/>
																		</g>
																	</g>
																</g>
															</g>
														</g>
													</g>
												</g>
											</g>
										</g>
									</g>
								</g>
							</g>
						</g>
						<g>
							<g>
								<g>
									<g>
										<g>
											<g>
												<g>
													<g>
														<g>
															<g>
																<g>
																	<g>
																		<g>
																			<g>
																				<path class="st8" d="M686,592.1c0,0.3-1.6,0.5-3.1,1.6c-1.6,1-2.3,2.5-2.6,2.3c-0.3-0.1,0.1-2,2-3.3
																					C684.1,591.5,686.1,591.8,686,592.1z"/>
																			</g>
																		</g>
																	</g>
																</g>
															</g>
														</g>
													</g>
												</g>
											</g>
										</g>
									</g>
								</g>
							</g>
						</g>
						<g>
							<g>
								<g>
									<g>
										<g>
											<g>
												<g>
													<g>
														<g>
															<g>
																<g>
																	<g>
																		<g>
																			<g>
																				<path class="st8" d="M693,594.7c0.1,0.3-1.3,0.9-2.3,2.3c-1.1,1.4-1.3,2.8-1.6,2.8c-0.3,0.1-0.6-1.8,0.7-3.5
																					C691.1,594.6,693,594.4,693,594.7z"/>
																			</g>
																		</g>
																	</g>
																</g>
															</g>
														</g>
													</g>
												</g>
											</g>
										</g>
									</g>
								</g>
							</g>
						</g>
						<g>
							<g>
								<g>
									<g>
										<g>
											<g>
												<g>
													<g>
														<g>
															<g>
																<g>
																	<g>
																		<g>
																			<g>
																				<path class="st8" d="M697.2,602.8c-0.3,0.1-0.8-1.5,0-3.3c0.7-1.8,2.2-2.5,2.4-2.3c0.2,0.3-0.7,1.2-1.3,2.7
																					C697.5,601.4,697.5,602.7,697.2,602.8z"/>
																			</g>
																		</g>
																	</g>
																</g>
															</g>
														</g>
													</g>
												</g>
											</g>
										</g>
									</g>
								</g>
							</g>
						</g>
					</g>
				</g>
			</g>
			<g>
				<g>
					<path class="st8" d="M659,320.5l-1.3-52.7l-51.3,2.7l-1.7,6.2c0,0-4.6,16-6.7,29.3c-3.4,22.1-3,42.2,5.6,65.7
						c8.7,23.6,22.3,68.5,22.3,68.5l50.9,140.5l59.2-19.5L659,320.5z"/>
				</g>
				<g>
					<g>
						<path class="st8" d="M690,266.1l4.5,14.6c6.6,4.2,17.2,25,18.2,33.5c1,8.5,2.9,37.6,0.9,71.6c-1.6,28-15.5,192.1-15.5,192.1
							l-56.1,3l5.8-265.2l2.5-47.4L690,266.1z"/>
					</g>
				</g>
				<g>
					<g>
						<g>
							<path class="st11" d="M594,310.9c0,0,0.7,0.3,1.9,0.6c1.3,0.3,3.1,0.6,5.5,0.7c4.6,0.3,11.3-0.5,17.7-3.7
								c6.4-3.2,11.1-8,13.6-11.9c1.3-1.9,2.2-3.6,2.7-4.8c0.5-1.2,0.8-1.9,0.7-1.9c-0.1-0.1-1.2,2.6-3.9,6.4
								c-2.7,3.7-7.2,8.4-13.5,11.5c-6.3,3.1-12.8,3.9-17.3,3.8C596.8,311.6,594,310.8,594,310.9z"/>
						</g>
					</g>
				</g>
				<g>
					<g>
						<g>
							<path class="st11" d="M687.8,282.8c-0.1,0,0.1,0.4,0.3,1.2c0.2,0.8,0.7,1.9,1.3,3.2c1.2,2.6,3.3,6.1,6.2,9.4
								c2.9,3.3,6.1,5.8,8.6,7.4c1.2,0.8,2.2,1.3,3,1.7c0.7,0.3,1.1,0.5,1.2,0.5c0.1-0.1-1.5-1-3.8-2.6c-2.3-1.6-5.4-4.2-8.3-7.4
								c-2.9-3.3-5-6.6-6.3-9.2C688.6,284.4,688,282.7,687.8,282.8z"/>
						</g>
					</g>
				</g>
				<g>
					<g>
						<path class="st11" d="M661.5,327.6c0,0,0.1,0.4,0.4,1.1c0.2,0.7,0.6,1.8,1,3.2c0.9,2.9,2.2,7,3.9,12.4
							c3.4,10.8,8.2,26.5,14.2,45.8c12.2,38.6,27.6,92.3,48.3,150.5c2.4,7,4.7,13.9,7.1,20.6l0.1,0.4l-0.4,0.1
							c-20.8,6.8-40.7,13.4-59.2,19.5l-0.3,0.1l-0.1-0.3c-13.9-38.5-25.7-71.3-34.1-94.5c-4.1-11.6-7.4-20.8-9.7-27.1
							c-1.1-3.1-2-5.5-2.5-7.2c-0.3-0.8-0.5-1.4-0.6-1.9c-0.1-0.4-0.2-0.6-0.2-0.6s0.1,0.2,0.3,0.6c0.2,0.4,0.4,1,0.7,1.8
							c0.6,1.6,1.5,4.1,2.7,7.2c2.3,6.3,5.7,15.4,9.9,27c8.4,23.2,20.3,55.9,34.3,94.4l-0.4-0.2c18.5-6.1,38.4-12.7,59.2-19.5
							l-0.2,0.5c-2.3-6.8-4.7-13.7-7.1-20.6c-20.7-58.2-36.1-112-48.1-150.6c-5.9-19.3-10.7-35-14-45.8c-1.6-5.4-2.9-9.6-3.8-12.5
							c-0.4-1.4-0.7-2.5-1-3.2C661.6,327.9,661.5,327.6,661.5,327.6z"/>
					</g>
				</g>
			</g>
		</g>
		<g>
			<g>
				<g>
					<path class="st11" d="M711.9,174.6c0,0-2.7-15-10.4-22.2c-7.7-7.2-39.7-15.3-39.7-15.3s0.4,11.1-6.8,14.1
						c-7.6,3.2-15.2,2.1-21.2-4.2c-5.8-6.1-7.3-13.9-7.3-13.9s-38,5.5-43.4,15.8c-5.4,10.3-11,49.3-11,49.3l34.4,5.4l-1.1,66.8
						l90.4-4.8l-5.1-62.4l24.8,2.2L711.9,174.6z"/>
				</g>
			</g>
			<g>
				<g>
					<g>
						<path class="st8" d="M613.4,205.6c0.1,0,0.1-0.5,0-1.5c0-1-0.1-2.4-0.2-4.1c-0.2-3.5-0.5-8.2-0.9-13.5
							c-0.4-5.3-0.8-10-1.1-13.5c-0.2-1.7-0.3-3.1-0.4-4.1c-0.1-1-0.2-1.5-0.3-1.5s-0.1,0.5,0,1.5c0,1,0.1,2.4,0.2,4.1
							c0.2,3.5,0.5,8.2,0.9,13.5c0.4,5.3,0.8,10,1.1,13.5c0.2,1.7,0.3,3.1,0.4,4.1C613.2,205.1,613.3,205.6,613.4,205.6z"/>
					</g>
				</g>
			</g>
			<g>
				<g>
					<g>
						<path class="st8" d="M697.6,173.7c-0.2,0-2,6.8-3.9,15.3c-2,8.5-3.4,15.5-3.2,15.5c0.2,0,2-6.8,3.9-15.3
							C696.3,180.7,697.8,173.7,697.6,173.7z"/>
					</g>
				</g>
			</g>
			<g>
				<g>
					<g>
						<path class="st8" d="M586.8,146.4c0,0.1,1.6,0.4,4.2,1.2c2.5,0.8,5.9,2.3,9.1,4.8c3.2,2.5,5.5,5.4,6.9,7.7
							c1.4,2.3,2,3.8,2.1,3.8c0.1,0-0.1-0.4-0.3-1.1c-0.2-0.7-0.7-1.7-1.3-2.9c-1.3-2.4-3.6-5.4-6.9-8c-3.3-2.6-6.8-4.1-9.4-4.8
							c-1.3-0.3-2.4-0.5-3.1-0.6C587.2,146.3,586.8,146.3,586.8,146.4z"/>
					</g>
				</g>
			</g>
			<g>
				<g>
					<g>
						<path class="st8" d="M702.2,155.5c-0.2,0-0.8,2.1-1.3,4.8c-0.5,2.7-0.8,4.9-0.6,4.9c0.2,0,0.8-2.1,1.3-4.8
							C702.2,157.7,702.4,155.5,702.2,155.5z"/>
					</g>
				</g>
			</g>
			<g>
				<path class="st9" d="M578.2,199.3c0,0,12.9,51.2,14.3,55.6c1.4,4.4,3.9,16.2,16.4,18c16.8,2.5,82.1-3.3,82.1-3.3l-13.2-15
					l-58.1-13l-9.8-37.2L578.2,199.3z"/>
			</g>
			<g>
				<g>
					<g>
						<path class="st12" d="M678.5,245.8c0,0-0.2,0.4-0.4,1.2c-0.2,0.8-0.4,2-0.5,3.5c-0.1,3,0.5,7.2,2.9,11.1c1.2,1.9,2.5,3.7,4,5
							c1.5,1.3,3.1,2.2,4.5,2.7c1.4,0.5,2.7,0.6,3.5,0.6c0.8,0,1.3-0.1,1.3-0.1c0-0.2-1.9,0-4.6-1c-1.3-0.5-2.8-1.4-4.2-2.7
							c-1.4-1.3-2.7-3-3.8-4.9c-2.3-3.8-3-7.8-3-10.7C678.1,247.6,678.6,245.8,678.5,245.8z"/>
					</g>
				</g>
			</g>
			<g>
				<g>
					<path class="st5" d="M613,193.1c0,0.1-0.6,0-1.5-0.2c-1.1-0.2-2.5-0.4-4.2-0.6c-3.5-0.5-8.4-1.1-13.8-1.8
						c-5.4-0.7-10.3-1.5-13.7-2.4c-1.7-0.4-3.1-0.8-4.1-1.1c-1-0.3-1.5-0.5-1.5-0.5c0-0.1,2.2,0.4,5.7,1.1c3.5,0.7,8.3,1.5,13.7,2.2
						c5.4,0.7,10.3,1.4,13.8,2c1.8,0.3,3.2,0.6,4.1,0.8C612.4,192.9,613,193.1,613,193.1z"/>
				</g>
			</g>
			<g>
				<g>
					<path class="st5" d="M610.3,176.1c0,0.1-0.5,0.1-1.3,0.1c-0.9,0-2.1,0-3.6-0.1c-3.1-0.1-7.3-0.5-11.9-1.1
						c-4.7-0.6-8.8-1.3-11.8-1.9c-1.5-0.3-2.7-0.6-3.5-0.8c-0.8-0.2-1.3-0.3-1.3-0.4c0-0.1,1.9,0.2,4.9,0.7c3,0.5,7.2,1.1,11.8,1.7
						c4.6,0.6,8.8,1,11.9,1.3C608.4,175.8,610.3,176,610.3,176.1z"/>
				</g>
			</g>
			<g>
				<g>
					<path class="st5" d="M607.4,163.1c0,0.1-1.5,0.1-4,0c-2.5-0.2-5.9-0.5-9.6-1.2c-3.7-0.7-7-1.6-9.4-2.3
						c-2.4-0.8-3.8-1.3-3.8-1.4c0-0.1,1.5,0.3,3.9,0.9c2.4,0.6,5.7,1.4,9.4,2.1c3.7,0.7,7.1,1.2,9.5,1.4
						C605.8,162.8,607.4,163,607.4,163.1z"/>
				</g>
			</g>
			<g>
				<g>
					<path class="st5" d="M631.5,144.6c0,0.1-1.7,0.6-4.5,1.3c-2.8,0.7-6.8,1.6-11.1,2.5c-4.4,0.9-8.3,1.5-11.2,2
						c-2.9,0.4-4.7,0.6-4.7,0.5c0-0.1,1.8-0.5,4.6-1c3.1-0.6,6.9-1.3,11.2-2.2c4.2-0.9,8.1-1.7,11.1-2.3
						C629.7,144.9,631.5,144.5,631.5,144.6z"/>
				</g>
			</g>
			<g>
				<g>
					<path class="st5" d="M701.6,159.9c0,0-0.6-0.2-1.6-0.6c-1.2-0.5-2.6-1.1-4.3-1.8c-3.6-1.5-8.6-3.6-14.2-5.8
						c-5.6-2.2-10.7-4.1-14.4-5.4c-1.7-0.6-3.2-1.2-4.4-1.6c-1-0.4-1.6-0.6-1.6-0.7c0,0,0.6,0.1,1.7,0.4c1.1,0.3,2.6,0.8,4.4,1.4
						c3.7,1.2,8.9,3,14.5,5.2c5.6,2.2,10.6,4.3,14.2,6c1.8,0.8,3.2,1.5,4.2,2C701,159.5,701.6,159.8,701.6,159.9z"/>
				</g>
			</g>
			<g>
				<g>
					<path class="st5" d="M697.6,173c0,0-0.3,0-0.9-0.1c-0.7-0.1-1.5-0.2-2.5-0.4c-2.3-0.4-5.4-0.9-9.2-1.6
						c-7.7-1.4-18.4-3.2-30.3-4.7c-6-0.7-11.6-1.2-16.8-1.5c-5.2-0.3-9.9-0.4-13.8-0.3c-2,0-3.7,0.1-5.3,0.1c-1.6,0-2.9,0.1-4,0.2
						c-1,0.1-1.9,0.1-2.5,0.1c-0.6,0-0.9,0-0.9,0c0,0,0.3-0.1,0.9-0.1c0.7-0.1,1.5-0.2,2.5-0.3c1.1-0.1,2.4-0.2,4-0.3
						c1.6-0.1,3.3-0.2,5.3-0.2c3.9-0.1,8.6-0.1,13.8,0.2c5.2,0.3,10.9,0.7,16.9,1.4c11.9,1.4,22.6,3.4,30.4,4.9
						c3.9,0.7,7,1.4,9.1,1.8c1,0.2,1.8,0.4,2.5,0.5C697.3,172.9,697.6,173,697.6,173z"/>
				</g>
			</g>
			<g>
				<g>
					<path class="st5" d="M661.1,196.1c0,0.1-0.7,0-1.9,0c-1.2-0.1-3-0.2-5.3-0.5c-4.4-0.5-10.6-1.3-17.3-2.5
						c-6.7-1.2-12.7-2.6-17-3.8c-2.2-0.6-3.9-1.1-5.1-1.4c-1.2-0.4-1.8-0.6-1.8-0.6c0,0,0.7,0.1,1.9,0.4c1.4,0.3,3.1,0.7,5.1,1.2
						c4.3,1,10.3,2.3,17,3.5c6.7,1.2,12.8,2.1,17.2,2.7c2.1,0.3,3.8,0.5,5.2,0.7C660.4,195.9,661.1,196,661.1,196.1z"/>
				</g>
			</g>
			<g>
				<g>
					<path class="st5" d="M691.8,196.6c0,0.2-6.4,0.4-14.3,0.5c-7.9,0.1-14.3,0-14.3-0.2c0-0.2,6.4-0.4,14.3-0.5
						C685.3,196.2,691.7,196.4,691.8,196.6z"/>
				</g>
			</g>
			<g>
				<g>
					<path class="st5" d="M651.5,216.8c0,0.1-0.6,0-1.6-0.1c-1-0.1-2.4-0.3-4.2-0.5c-3.6-0.5-8.4-1.4-13.8-2.6
						c-5.3-1.2-10.1-2.6-13.5-3.8c-1.7-0.6-3.1-1-4-1.4c-0.9-0.4-1.4-0.6-1.4-0.6c0,0,0.6,0.1,1.5,0.4c1.1,0.3,2.5,0.7,4.1,1.2
						c3.4,1,8.2,2.3,13.5,3.5c5.3,1.2,10.2,2.2,13.7,2.8c1.6,0.3,3,0.5,4.2,0.8C650.9,216.6,651.5,216.8,651.5,216.8z"/>
				</g>
			</g>
			<g>
				<g>
					<path class="st5" d="M684.7,218.3c0,0.1-1.7,0.1-4.5,0c-2.8-0.1-6.7-0.4-10.9-0.9c-4.2-0.6-8.1-1.3-10.8-1.9
						c-2.7-0.6-4.4-1.1-4.4-1.2c0-0.1,1.7,0.2,4.5,0.7s6.6,1.1,10.8,1.7c4.2,0.5,8.1,0.9,10.9,1.1C683,218,684.7,218.2,684.7,218.3z
						"/>
				</g>
			</g>
			<g>
				<g>
					<path class="st5" d="M677.7,236.7c0,0-0.2,0.1-0.6,0.2c-0.4,0.1-0.9,0.3-1.7,0.5c-1.5,0.4-3.6,0.9-6.3,1.3
						c-5.4,0.9-13,1.1-21.4,0.2c-8.3-0.9-15.7-2.6-21-3.9c-2.7-0.7-4.8-1.2-6.3-1.6c-1.5-0.4-2.3-0.7-2.3-0.7c0-0.1,0.8,0.1,2.3,0.4
						c1.6,0.4,3.7,0.8,6.3,1.4c5.3,1.2,12.7,2.8,21,3.7c8.3,0.9,15.8,0.8,21.2,0c2.7-0.3,4.9-0.8,6.4-1.1
						C676.9,236.8,677.7,236.7,677.7,236.7z"/>
				</g>
			</g>
			<g>
				<g>
					<path class="st5" d="M710.3,183.8c0,0.2-3.2,0.4-7.2,0.6c-4,0.2-7.2,0-7.2-0.2c0-0.2,3.2-0.4,7.2-0.6
						C707.1,183.4,710.3,183.6,710.3,183.8z"/>
				</g>
			</g>
			<g>
				<g>
					<path class="st5" d="M708.4,166.6c0,0.2-1.8,0.3-3.9,0.1c-2.2-0.1-3.9-0.4-3.9-0.6c0-0.2,1.8-0.3,3.9-0.1
						C706.7,166.1,708.5,166.4,708.4,166.6z"/>
				</g>
			</g>
			<g>
				<g>
					<path class="st8" d="M648.7,218c-0.1-0.1,1.5-0.9,3.6-2.6c1.1-0.9,2.2-2,3.4-3.4c1.1-1.4,2.2-3.1,3.1-4.9
						c0.9-1.9,1.5-3.8,1.9-5.5c0.4-1.8,0.6-3.4,0.6-4.8c0.1-2.7-0.3-4.4-0.2-4.5c0.1,0,0.2,0.4,0.3,1.2c0.1,0.4,0.2,0.9,0.2,1.4
						c0.1,0.6,0.1,1.2,0.1,1.9c0.1,1.4-0.1,3.1-0.4,4.9c-0.4,1.8-1,3.8-1.9,5.7c-0.9,1.9-2.1,3.6-3.3,5.1c-1.2,1.4-2.4,2.6-3.6,3.4
						c-0.5,0.5-1.1,0.8-1.6,1.1c-0.5,0.3-0.9,0.5-1.2,0.7C649.1,217.9,648.8,218.1,648.7,218z"/>
				</g>
			</g>
			<g class="st6">
				<g>
					<path d="M660.8,204.3l-5.5,8.1c-3.7,4.6-8.9,7.9-14.7,9.2c5.1,1.8,11,0.6,15.1-2.8C659.8,215.3,661.8,209.6,660.8,204.3z"/>
				</g>
			</g>
		</g>
		<g>
			<g>
				<path class="st8" d="M677.1,119.3c5.2,0.5,10.5-0.6,15.1-3.1c-6.8-4.2-11.1-11.6-13.2-19.4s-4.8-20.9-4.8-29l-12.5,55.5
					c6.6,1.5,13.6,1,19.8-1.5C679.7,121.9,678,120.9,677.1,119.3z"/>
			</g>
			<g>
				<path class="st8" d="M641.4,126c-2.7-6.2-3.8-13.1-3-19.9l-25.2-9.5c-1.2,6.8-3.9,13.4-8,18.9c-1.5,2.1-3.4,4.5-2.6,7
					c0.5,1.7,2.2,2.9,3.9,3.3c1.7,0.4,3.6,0.3,5.4,0.1c-1.1,1.2-2.1,2.3-3.2,3.5C619.4,127.4,630.4,126.2,641.4,126z"/>
			</g>
			<g>
				<path class="st8" d="M643.5,43.1c-7.9-0.8-14.7,2.7-21,7.5c-6.3,4.9-10.9,11.9-13.3,19.5c-2.5,8-2.7,16.9,0.2,24.8
					c2.9,7.9,8.9,14.8,16.6,18.1c10.6,4.5,23.5,1.9,32.2-5.7c8.7-7.5,13.2-19.3,12.9-30.8c-0.2-7.9-2.6-15.9-7.5-22.1
					C658.8,48.1,651.4,43.7,643.5,43.1"/>
			</g>
			<g>
				<g>
					<g>
						<path class="st8" d="M623,71.2c1-3.1,0.3-6.4,0.5-9.6c0.5-7.1,5.8-13.1,12.2-16.2c5.9-2.9,13.4-2.9,20.9-1
							c5.1,1.3,10,3.8,13.7,7.7c4.8,5.1,6.9,12.7,5.3,19.5l-36.2-2.9c-3.2,3-6.4,6.1-10.4,7.9c-1.2,0.5-2.4,1-3.7,0.8
							c-1.3-0.1-2.6-0.9-2.9-2.1C621.8,74,622.5,72.6,623,71.2z"/>
					</g>
				</g>
				<g>
					<g>
						<path class="st9" d="M657.9,54.3L627,62.9c-3,0.4-5.2,3-5.1,6.1l4.8,67.8c0.3,4.6,2.2,9,5.3,12.5l3.2,3.7
							c7.4,8.3,21.1,6.6,25.7-3.6c0.3-0.7,0.5-1.3,0.6-1.8c0.1-0.6,0.2-1,0.2-1.6c0.5-5.3-0.1-10.3-0.1-10.3
							c-0.1-6.1-0.2-8.5-0.2-8.5c0,0,12.7-2.5,14.9-19.2c1.1-8.3,0.3-21.9-0.7-33C674.8,65,667.9,52.9,657.9,54.3z"/>
					</g>
				</g>
				<g>
					<g>
						<g>
							<g>
								<g>
									<g>
										<g>
											<g>
												<g>
													<g>
														<g>
															<g>
																<g>
																	<g>
																		<g>
																			<g>
																				<g>
																					<g>
																						<path class="st8" d="M669.8,85.7c0.1,1.1-0.8,2.1-2,2.2c-1.2,0.1-2.2-0.7-2.3-1.9c-0.1-1.1,0.8-2.1,2-2.2
																							C668.7,83.7,669.7,84.6,669.8,85.7z"/>
																					</g>
																				</g>
																			</g>
																		</g>
																	</g>
																</g>
															</g>
														</g>
													</g>
												</g>
											</g>
										</g>
									</g>
								</g>
							</g>
							<g>
								<g>
									<g>
										<g>
											<g>
												<g>
													<g>
														<g>
															<g>
																<g>
																	<g>
																		<g>
																			<g>
																				<g>
																					<g>
																						<g>
																							<path class="st8" d="M673,82.2c-0.3,0.3-1.9-0.9-4.2-0.8c-2.3,0-4,1.3-4.2,1c-0.1-0.1,0.1-0.6,0.9-1.2
																								c0.7-0.6,1.9-1.1,3.4-1.1c1.4,0,2.7,0.5,3.4,1C672.8,81.5,673.1,82,673,82.2z"/>
																						</g>
																					</g>
																				</g>
																			</g>
																		</g>
																	</g>
																</g>
															</g>
														</g>
													</g>
												</g>
											</g>
										</g>
									</g>
								</g>
							</g>
						</g>
						<g>
							<g>
								<g>
									<g>
										<g>
											<g>
												<g>
													<g>
														<g>
															<g>
																<g>
																	<g>
																		<g>
																			<g>
																				<g>
																					<g>
																						<path class="st8" d="M648,86.8c0.1,1.1-0.8,2.1-2,2.2c-1.2,0.1-2.2-0.7-2.3-1.9c-0.1-1.1,0.8-2.1,2-2.2
																							C646.9,84.9,647.9,85.7,648,86.8z"/>
																					</g>
																				</g>
																			</g>
																		</g>
																	</g>
																</g>
															</g>
														</g>
													</g>
												</g>
											</g>
										</g>
									</g>
								</g>
							</g>
							<g>
								<g>
									<g>
										<g>
											<g>
												<g>
													<g>
														<g>
															<g>
																<g>
																	<g>
																		<g>
																			<g>
																				<g>
																					<g>
																						<g>
																							<path class="st8" d="M650.4,83.2c-0.3,0.3-1.9-0.9-4.2-0.8c-2.3,0-4,1.3-4.2,1c-0.1-0.1,0.1-0.6,0.9-1.2
																								c0.7-0.6,1.9-1.1,3.4-1.1c1.4,0,2.7,0.5,3.4,1C650.2,82.6,650.5,83.1,650.4,83.2z"/>
																						</g>
																					</g>
																				</g>
																			</g>
																		</g>
																	</g>
																</g>
															</g>
														</g>
													</g>
												</g>
											</g>
										</g>
									</g>
								</g>
							</g>
						</g>
						<g>
							<g>
								<g>
									<g>
										<g>
											<g>
												<g>
													<g>
														<g>
															<g>
																<g>
																	<g>
																		<g>
																			<g>
																				<g>
																					<g>
																						<path class="st8" d="M659.2,100c0-0.1,1.4-0.4,3.7-0.8c0.6-0.1,1.1-0.2,1.2-0.6c0.1-0.4-0.1-1.1-0.4-1.7
																							c-0.6-1.4-1.2-2.9-1.9-4.4c-2.6-6.3-4.5-11.5-4.2-11.6c0.3-0.1,2.6,4.9,5.1,11.2c0.6,1.6,1.2,3,1.8,4.5
																							c0.2,0.7,0.6,1.4,0.4,2.3c-0.1,0.4-0.6,0.8-0.9,0.9c-0.4,0.1-0.7,0.1-1,0.2
																							C660.6,100.1,659.2,100.2,659.2,100z"/>
																					</g>
																				</g>
																			</g>
																		</g>
																	</g>
																</g>
															</g>
														</g>
													</g>
												</g>
											</g>
										</g>
									</g>
								</g>
							</g>
						</g>
						<g>
							<g>
								<g>
									<g>
										<g>
											<g>
												<g>
													<g>
														<g>
															<g>
																<g>
																	<g>
																		<g>
																			<g>
																				<g>
																					<path class="st12" d="M661.5,127.2c0,0-11.2,1-22.5-5.4c0,0,5.9,11.4,22.6,9.4L661.5,127.2z"/>
																				</g>
																			</g>
																		</g>
																	</g>
																</g>
															</g>
														</g>
													</g>
												</g>
											</g>
										</g>
									</g>
								</g>
							</g>
						</g>
						<g>
							<g>
								<g>
									<g>
										<g>
											<g>
												<g>
													<g>
														<g>
															<g>
																<g>
																	<g>
																		<g>
																			<g>
																				<g>
																					<path class="st12" d="M658.3,105.6c-0.9-1.1-2.3-1.6-3.8-1.4c-1,0.1-2,0.6-2.6,1.5c-0.6,0.8-0.7,2-0.1,2.7
																						c0.6,0.9,1.9,1,3,0.7c1.1-0.3,2-1.1,2.9-1.8c0.2-0.2,0.5-0.4,0.6-0.7c0.1-0.3,0.2-0.6,0-0.9"/>
																				</g>
																			</g>
																		</g>
																	</g>
																</g>
															</g>
														</g>
													</g>
												</g>
											</g>
										</g>
									</g>
								</g>
							</g>
						</g>
						<g>
							<g>
								<g>
									<g>
										<g>
											<g>
												<g>
													<g>
														<g>
															<g>
																<g>
																	<g>
																		<g>
																			<g>
																				<g>
																					<g>
																						<path class="st8" d="M652.4,101.8c0.4,0,0.4,2.5,2.6,4.2c2.2,1.7,4.8,1.4,4.9,1.7c0,0.2-0.6,0.5-1.7,0.6
																							c-1.1,0.1-2.7-0.2-4.1-1.3c-1.3-1.1-1.9-2.5-2-3.5C652,102.4,652.3,101.8,652.4,101.8z"/>
																					</g>
																				</g>
																			</g>
																		</g>
																	</g>
																</g>
															</g>
														</g>
													</g>
												</g>
											</g>
										</g>
									</g>
								</g>
							</g>
						</g>
					</g>
				</g>
				<g>
					<g>
						<g>
							<g>
								<g>
									<g>
										<g>
											<g>
												<g>
													<g>
														<g>
															<g>
																<g>
																	<g>
																		<path class="st8" d="M650.6,76.2c-0.2,0.6-2.5,0.4-5.2,0.8c-2.7,0.3-4.9,1.2-5.2,0.6c-0.2-0.3,0.2-0.9,1.1-1.5
																			c0.9-0.6,2.2-1.2,3.8-1.5c1.6-0.2,3.1,0,4.1,0.4C650.1,75.4,650.7,75.9,650.6,76.2z"/>
																	</g>
																</g>
															</g>
														</g>
													</g>
												</g>
											</g>
										</g>
									</g>
								</g>
							</g>
						</g>
					</g>
				</g>
				<g>
					<g>
						<g>
							<g>
								<g>
									<g>
										<g>
											<g>
												<g>
													<g>
														<g>
															<g>
																<g>
																	<g>
																		<path class="st8" d="M672,72.1c-0.4,0.5-2,0-3.9,0.1c-1.9,0-3.5,0.4-3.9-0.1c-0.2-0.3,0.1-0.8,0.8-1.3
																			c0.7-0.5,1.8-0.9,3.1-0.9c1.3,0,2.5,0.4,3.1,1C672,71.3,672.2,71.9,672,72.1z"/>
																	</g>
																</g>
															</g>
														</g>
													</g>
												</g>
											</g>
										</g>
									</g>
								</g>
							</g>
						</g>
					</g>
				</g>
				<g>
					<g>
						<path class="st8" d="M616.9,66.8c2.6-9.8,16-23.7,26.1-23.4l16.5,8.9c-0.7,5.5-4.7,10.5-10,12.3c-2.8,1-6.2,1.4-7.8,3.9
							c-1.6,2.6-0.4,6.2-1.9,8.8c-2.1,3.7-8.2,3.8-9.7,7.7c-0.7,1.7-0.2,3.7-0.9,5.4c-0.9,2.3-6.4,5.4-8.8,4.7
							c-2.4-0.6-2.6-4.6-3.4-6.7c-1.5-3.5-1-5.4-0.7-7.4C617.2,76.4,615.6,71.4,616.9,66.8z"/>
					</g>
				</g>
				<g>
					<g>
						<g>
							<g>
								<g>
									<path class="st9" d="M627.4,96.8c0-1.2-1.5-4.1-2.8-4.3c-3.3-0.4-9.2,0-9,8.3c0.2,11.4,11.6,8.8,11.6,8.5
										C627.2,109.1,627.5,101.1,627.4,96.8z"/>
								</g>
							</g>
						</g>
					</g>
				</g>
				<g>
					<g>
						<g>
							<g>
								<g>
									<g>
										<path class="st12" d="M623.7,105.1c-0.1,0-0.2,0.1-0.5,0.3c-0.3,0.2-0.9,0.3-1.5,0.1c-1.2-0.4-2.3-2.3-2.4-4.3
											c0-1,0.1-2,0.5-2.8c0.3-0.8,0.9-1.4,1.5-1.5c0.6-0.2,1,0.2,1.2,0.5c0.2,0.3,0.1,0.5,0.2,0.6c0,0,0.2-0.2,0.1-0.7
											c-0.1-0.2-0.2-0.5-0.5-0.7c-0.3-0.2-0.7-0.3-1.1-0.3c-0.9,0.1-1.6,0.9-2,1.8c-0.4,0.9-0.7,2-0.6,3.2
											c0.1,2.3,1.3,4.4,3,4.9c0.8,0.2,1.5-0.1,1.8-0.3C623.7,105.4,623.7,105.1,623.7,105.1z"/>
									</g>
								</g>
							</g>
						</g>
					</g>
				</g>
			</g>
			<g>
				<path class="st8" d="M614.3,64L614.3,64c-0.2-3.5-4.8-5.6-8.3-6.2c-3.5-0.6-7.1,0.7-10.1,2.6c-1.8,1.1-3.5,2.7-3.8,4.7
					c-0.3,2.1,1.8,4.4,3.7,3.5c-3.6,1.5-5.2,6.6-3,9.9c2.2,3.3,7.5,3.9,10.3,1.2c-0.8,3.3-2.7,6.3-5.4,8.4
					c5.9,0.4,11.9-2.4,15.2-7.3C616.3,76,616.8,69.3,614.3,64z"/>
			</g>
			<g>
				<g>
					<path class="st8" d="M594.5,112.7c0.1-0.5,1.5-0.8,3.5-1.4c2-0.6,4.7-1.6,7.1-3.5c2.4-1.9,4.1-4.2,5.1-6.1
						c1.1-1.8,1.7-3.1,2.2-3.1c0.5,0.1,0.9,1.6,0.3,4c-0.5,2.4-2.2,5.6-5.3,8c-3.1,2.4-6.6,3.3-9.1,3.2
						C595.8,113.9,594.4,113.2,594.5,112.7z"/>
				</g>
			</g>
			<g>
				<g>
					<path class="st5" d="M607.6,82.5c-0.1,0-0.5-1.2-0.6-3.4c-0.2-2.1-0.1-5.1,0.8-8.3c0.8-3.2,2.2-5.8,3.4-7.6
						c1.2-1.8,2.2-2.7,2.2-2.6c0.2,0.1-3.3,4.1-4.9,10.4C606.7,77.3,607.8,82.5,607.6,82.5z"/>
				</g>
			</g>
			<g>
				<path class="st8" d="M655.9,49c1.3,4.5,8.7,10,12.1,13.4c6.3,6.5,7.6,8.7,8.6,24c2.4-5.5,4.2-10.8,3.6-16.8
					c-0.6-6-3.2-11.8-7.6-15.8C668.1,49.8,661.8,47.8,655.9,49"/>
			</g>
		</g>
		<g>
			<g>
				<g>
					<g>
						<path class="st9" d="M730.1,181.7c0,0-7.6,31.5-10.7,45.1c-3.3,14.5-10.5,47.3-29.7,42.5c-14.6-3.6-11.4-22.5-11.4-22.5
							l12.5-43.4l11.6,1.3l10.6-26.1l11.4-12.1L730.1,181.7z"/>
					</g>
				</g>
				<g>
					<g>
						<g>
							<path class="st12" d="M683.3,247.9c0.2,0-1.1-2.7-0.4-7c0.4-2.1,1.2-4.6,2.7-7.1c1.5-2.5,3.5-5,5.6-7.6
								c2.1-2.6,4.1-5.2,5.6-7.8c1.5-2.5,2.6-5,3.4-7.1c0.8-2.1,1.3-3.8,1.6-5c0.3-1.2,0.4-1.9,0.3-1.9c-0.1,0-0.3,0.6-0.6,1.8
								c-0.4,1.2-1,2.9-1.8,4.9c-0.9,2-2,4.4-3.5,6.9c-1.5,2.5-3.5,5-5.6,7.7c-2.1,2.6-4.2,5.2-5.6,7.8c-1.5,2.6-2.3,5.2-2.6,7.4
								c-0.3,2.2-0.1,4.1,0.2,5.3c0.2,0.6,0.3,1.1,0.5,1.4C683.2,247.8,683.3,247.9,683.3,247.9z"/>
						</g>
					</g>
				</g>
			</g>
			<g>
				<g>
					<path class="st9" d="M712,181c0-0.6,0.3-9.7,0.5-12.1c0.1-1.1,0.5-2.9,1.3-4.4c1.1-2.1,4-2.6,5.8-1l0.2,0.2
						c0,0,1.9-3.7,4.5-5.5c2.7-1.8,4.9-3,7.2-1.6c2.3,1.4,2.2,3.3,2.2,3.3s3.4-0.5,4.9,0.9c1.5,1.4,0,5.6,0,5.6s3.1-0.9,3.8,1.3
						c0.7,2.2-0.6,4.5-0.6,4.5s2.4,0.7,2.7,2.5c0.3,1.8-2.4,3.7-2.4,3.7l-8.4,6.6c-1.2,3.7-3.4,6.5-6.5,8.5
						C721.4,195.9,712,181,712,181z"/>
				</g>
				<g>
					<g>
						<path class="st12" d="M718.4,171.1c0.1,0,0.1,0.4-0.2,0.8c-0.2,0.4-0.7,1-1.5,1.2c-0.7,0.3-1.5,0.2-1.9,0.1
							c-0.5-0.2-0.7-0.4-0.7-0.5c0.1-0.2,1.1,0.1,2.3-0.3C717.6,171.9,718.2,171,718.4,171.1z"/>
					</g>
				</g>
				<g>
					<g>
						<path class="st12" d="M725,162.8c-0.1,0.2-0.9-0.4-1.1-1.5c-0.2-1.1,0.5-1.8,0.6-1.7c0.2,0.1,0,0.8,0.1,1.6
							C724.8,162.1,725.1,162.7,725,162.8z"/>
					</g>
				</g>
				<g>
					<g>
						<path class="st12" d="M739,166.4c0.1,0.1-0.6,0.9-1.9,1.9c-1.2,1.1-3.1,2.4-5.2,3.8c-1,0.7-2.1,1.4-3.3,1.5
							c-1.2,0.2-2.3-0.3-2.9-1.1c-0.5-0.8-0.4-1.6-0.2-2.1c0.2-0.5,0.5-0.6,0.5-0.5c0,0-0.2,0.2-0.3,0.6c-0.1,0.4-0.1,1.1,0.4,1.6
							c0.4,0.6,1.4,0.9,2.4,0.7c1-0.2,2-0.8,3-1.5c2.1-1.4,4-2.6,5.3-3.6C738.1,167,738.9,166.3,739,166.4z"/>
					</g>
				</g>
				<g>
					<g>
						<path class="st12" d="M741.7,172.3c0.1,0.2-3.5,2-8,4c-1.1,0.5-2.3,1-3.5,1c-1.2,0-2.3-0.7-2.6-1.5c-0.2-0.4-0.2-0.9,0-1.2
							c0.1-0.3,0.4-0.6,0.6-0.7c0.5-0.3,0.8-0.1,0.7-0.1c0,0.1-0.3,0.1-0.6,0.3c-0.3,0.3-0.6,0.9-0.3,1.5c0.3,0.6,1.1,1.1,2.1,1.1
							c1,0,2-0.5,3.1-1C737.9,173.6,741.6,172.1,741.7,172.3z"/>
					</g>
				</g>
				<g>
					<g>
						<path class="st12" d="M737.6,179.8c0,0.1-0.5,0.4-1.4,0.7c-0.5,0.1-1,0.2-1.7,0.2c-0.6,0-1.3,0-2.1-0.5
							c-0.4-0.2-0.7-0.7-0.6-1.2c0.1-0.4,0.3-0.8,0.5-1c0.4-0.5,0.8-0.9,1.2-1.2c0.8-0.6,1.3-0.7,1.4-0.7c0.1,0.1-0.4,0.4-1,1.1
							c-0.3,0.3-0.7,0.7-1,1.2c-0.3,0.5-0.4,0.9,0,1.2c0.4,0.3,1.2,0.3,1.7,0.4c0.6,0.1,1.1,0,1.5,0
							C737,179.9,737.6,179.7,737.6,179.8z"/>
					</g>
				</g>
				<g>
					<g>
						<g>
							<g>
								<g>
									<path class="st8" d="M729.7,181.2c0.1-3.8-2.8-6.9-6.6-7.1c-3.8-0.1-6.9,2.8-7.1,6.6c-0.1,3.2,2,6,5,6.8l-0.1,1.9l1.9,1.4
										l-2,1.1l-0.1,2.4l1.9,1.4l-2,1.1l-0.1,2l1.1,0.9l-1.2,0.7l0,1.2l1.4,1.6l2.8-1.7l0.5-14.1
										C727.7,186.4,729.6,184,729.7,181.2z M723,176c1.1,0,1.9,1,1.9,2c0,1.1-1,1.9-2,1.9c-1.1,0-1.9-1-1.9-2
										C721,176.8,721.9,175.9,723,176z"/>
								</g>
							</g>
							<g>
								<g>
									<g>
										<path class="st13" d="M729.7,181.2c0.1-3.8-2.8-6.9-6.6-7.1c-3.8-0.1-6.9,2.8-7.1,6.6c-0.1,3.2,2,6,5,6.8l-0.1,1.9
											l1.9,1.4l-2,1.1l-0.1,2.4l1.9,1.4l-2,1.1l-0.1,2l1.1,0.9l-1.2,0.7l0,1.2l1.4,1.6l2.8-1.7l0.5-14.1
											C727.7,186.4,729.6,184,729.7,181.2z M723,176c1.1,0,1.9,1,1.9,2c0,1.1-1,1.9-2,1.9c-1.1,0-1.9-1-1.9-2
											C721,176.8,721.9,175.9,723,176z"/>
									</g>
								</g>
								<g>
									<g>
										<g>
											<path class="st8" d="M723,176c0,0-0.2,0-0.5,0.1c-0.3,0.1-0.7,0.3-1.1,0.7c-0.3,0.4-0.6,1.1-0.3,1.8
												c0.2,0.7,0.9,1.3,1.7,1.3c0.8,0,1.6-0.5,1.8-1.2c0.3-0.7,0.1-1.4-0.2-1.8c-0.3-0.4-0.7-0.7-1-0.8
												C723.2,176,723,176,723,176c0,0,0,0,0.1,0c0.1,0,0.2,0,0.4,0.1c0.3,0.1,0.8,0.3,1.1,0.8c0.3,0.5,0.5,1.2,0.2,1.9
												c-0.1,0.4-0.4,0.7-0.7,0.9c-0.3,0.2-0.8,0.4-1.2,0.4c-0.4,0-0.9-0.2-1.2-0.4c-0.3-0.3-0.6-0.6-0.7-1
												c-0.2-0.7,0-1.5,0.4-1.9c0.4-0.4,0.8-0.6,1.1-0.7c0.2,0,0.3,0,0.4,0C723,176,723,176,723,176z"/>
										</g>
									</g>
								</g>
								<g>
									<g>
										<g>
											<path class="st8" d="M729.7,181.2c0,0,0,0,0,0.1c0,0.1,0,0.2,0,0.4c0,0.4-0.1,0.9-0.3,1.5c-0.2,0.6-0.6,1.4-1.3,2.2
												c-0.6,0.8-1.6,1.5-2.8,1.9l0,0c-0.1,3.7-0.3,8.5-0.5,14.1l0,0l0,0c-0.9,0.5-1.8,1.1-2.8,1.7l-0.1,0l0,0
												c-0.4-0.5-0.9-1.1-1.4-1.6l0,0l0,0c0-0.4,0-0.8,0-1.2l0,0l0,0c0.4-0.2,0.8-0.4,1.2-0.7l0,0.1c-0.4-0.3-0.7-0.6-1.1-0.9
												l0,0l0,0c0-0.6,0-1.3,0.1-2l0,0l0,0c0.6-0.3,1.3-0.7,2-1.1l0,0.1c-0.6-0.4-1.2-0.9-1.9-1.4l0,0l0,0c0-0.2,0-0.4,0-0.6
												c0-0.6,0-1.2,0.1-1.7l0,0l0,0c0.7-0.4,1.3-0.7,2-1.1l0,0.1c-0.6-0.5-1.2-0.9-1.9-1.4l0,0l0,0c0-0.6,0-1.3,0.1-1.9
												l0.1,0.1c-1.1-0.3-2-0.9-2.8-1.6c-0.4-0.4-0.7-0.8-1-1.2c-0.3-0.4-0.5-0.9-0.7-1.4c-0.8-1.9-0.5-4.1,0.3-5.7
												c0.9-1.7,2.4-2.8,3.9-3.3c1.6-0.5,3.2-0.4,4.4,0c1.3,0.5,2.3,1.2,3,2.1c0.7,0.8,1.1,1.7,1.3,2.4c0,0.1,0.1,0.2,0.1,0.3
												c0,0.1,0,0.2,0.1,0.3c0,0.2,0.1,0.3,0.1,0.5c0,0.3,0.1,0.5,0.1,0.7c0,0.2,0,0.3,0,0.4
												C729.7,181.2,729.7,181.2,729.7,181.2s0-0.1,0-0.2c0-0.1,0-0.3,0-0.4c0-0.2,0-0.4-0.1-0.7c0-0.1-0.1-0.3-0.1-0.5
												c0-0.1,0-0.2-0.1-0.2c0-0.1-0.1-0.2-0.1-0.3c-0.2-0.7-0.6-1.6-1.3-2.4c-0.7-0.8-1.7-1.6-3-2c-1.3-0.4-2.8-0.5-4.4,0
												c-1.5,0.5-3,1.7-3.8,3.3c-0.8,1.6-1,3.7-0.3,5.6c0.2,0.5,0.4,0.9,0.7,1.3c0.3,0.4,0.6,0.8,1,1.2c0.8,0.7,1.7,1.2,2.8,1.5
												l0.1,0l0,0.1c0,0.6,0,1.3-0.1,1.9l0-0.1c0.6,0.5,1.2,0.9,1.9,1.4l0.1,0.1l-0.1,0.1c-0.6,0.4-1.3,0.7-2,1.1l0-0.1
												c0,0.6,0,1.2-0.1,1.7c0,0.2,0,0.4,0,0.6l0-0.1c0.6,0.5,1.3,1,1.9,1.4l0.1,0.1l-0.1,0.1c-0.7,0.4-1.3,0.7-2,1.1l0-0.1
												c0,0.7-0.1,1.4-0.1,2l0-0.1c0.4,0.3,0.8,0.6,1.1,0.9l0.1,0.1l-0.1,0.1c-0.4,0.2-0.8,0.5-1.2,0.7l0-0.1c0,0.4,0,0.8,0,1.2
												l0-0.1c0.5,0.6,1,1.1,1.4,1.6l-0.1,0c1-0.6,1.9-1.2,2.8-1.7l0,0.1c0.2-5.6,0.4-10.5,0.6-14.1l0,0l0,0
												c1.2-0.4,2.1-1.2,2.7-1.9c0.6-0.7,1-1.5,1.3-2.1c0.2-0.6,0.3-1.2,0.4-1.5c0-0.2,0-0.3,0-0.4
												C729.6,181.3,729.7,181.2,729.7,181.2z"/>
										</g>
									</g>
								</g>
							</g>
						</g>
						<g>
							<g>
								<g>
									<path class="st5" d="M728.9,180.8c0.1-3.8-2.8-6.9-6.6-7.1c-3.8-0.1-6.9,2.8-7.1,6.6c-0.1,3.2,2,6,5,6.8v0l-0.1,1.9
										l1.9,1.4l-2,1.1l-0.1,2.4l1.9,1.4l-2,1.1l-0.1,2l1.1,0.9l-1.2,0.7l0,1.2l1.4,1.6l2.8-1.7l0.5-14.1
										C727,186,728.8,183.7,728.9,180.8z M722.3,175.6c1.1,0,1.9,1,1.9,2c0,1.1-1,1.9-2,1.9c-1.1,0-1.9-1-1.9-2
										C720.3,176.4,721.2,175.5,722.3,175.6z"/>
								</g>
							</g>
							<g>
								<g>
									<g>
										<path class="st13" d="M728.9,180.8c0.1-3.8-2.8-6.9-6.6-7.1c-3.8-0.1-6.9,2.8-7.1,6.6c-0.1,3.2,2,6,5,6.8v0l-0.1,1.9
											l1.9,1.4l-2,1.1l-0.1,2.4l1.9,1.4l-2,1.1l-0.1,2l1.1,0.9l-1.2,0.7l0,1.2l1.4,1.6l2.8-1.7l0.5-14.1
											C727,186,728.8,183.7,728.9,180.8z M722.3,175.6c1.1,0,1.9,1,1.9,2c0,1.1-1,1.9-2,1.9c-1.1,0-1.9-1-1.9-2
											C720.3,176.4,721.2,175.5,722.3,175.6z"/>
									</g>
								</g>
								<g>
									<g>
										<g>
											<path class="st8" d="M722.3,175.6c0,0-0.2,0-0.5,0.1c-0.3,0.1-0.7,0.3-1.1,0.7c-0.3,0.4-0.6,1.1-0.3,1.8
												c0.2,0.7,0.9,1.3,1.7,1.3c0.8,0,1.6-0.5,1.8-1.2c0.3-0.7,0.1-1.4-0.2-1.8c-0.3-0.4-0.7-0.7-1-0.8
												C722.5,175.6,722.3,175.6,722.3,175.6c0,0,0,0,0.1,0c0.1,0,0.2,0,0.4,0.1c0.3,0.1,0.8,0.3,1.1,0.8
												c0.3,0.5,0.5,1.2,0.2,1.9c-0.1,0.4-0.4,0.7-0.7,0.9c-0.3,0.2-0.8,0.4-1.2,0.4c-0.4,0-0.9-0.2-1.2-0.4
												c-0.3-0.3-0.6-0.6-0.7-1c-0.2-0.7,0-1.5,0.4-1.9c0.4-0.4,0.8-0.6,1.1-0.7c0.2,0,0.3,0,0.4,0
												C722.3,175.6,722.3,175.6,722.3,175.6z"/>
										</g>
									</g>
								</g>
								<g>
									<g>
										<g>
											<path class="st8" d="M728.9,180.8c0,0,0,0,0,0.1c0,0.1,0,0.2,0,0.4c0,0.4-0.1,0.9-0.3,1.5c-0.2,0.6-0.6,1.4-1.3,2.2
												c-0.6,0.8-1.6,1.5-2.8,1.9l0,0c-0.1,3.7-0.3,8.5-0.5,14.1l0,0l0,0c-0.9,0.5-1.8,1.1-2.8,1.7l-0.1,0l0,0
												c-0.4-0.5-0.9-1.1-1.4-1.6l0,0l0,0c0-0.4,0-0.8,0-1.2l0,0l0,0c0.4-0.2,0.8-0.4,1.2-0.7l0,0.1c-0.4-0.3-0.7-0.6-1.1-0.9
												l0,0l0,0c0-0.6,0-1.3,0.1-2l0,0l0,0c0.6-0.3,1.3-0.7,2-1.1l0,0.1c-0.6-0.4-1.2-0.9-1.9-1.4l0,0l0,0c0-0.2,0-0.4,0-0.6
												c0-0.6,0-1.2,0.1-1.7l0,0l0,0c0.7-0.4,1.3-0.7,2-1.1l0,0.1c-0.6-0.5-1.2-0.9-1.9-1.4l0,0l0,0c0-0.6,0-1.3,0.1-1.9
												l0.1,0.1c-1.1-0.3-2-0.8-2.8-1.6c-0.4-0.4-0.7-0.8-1-1.2c-0.3-0.4-0.5-0.9-0.7-1.4c-0.8-1.9-0.5-4.1,0.3-5.7
												c0.9-1.7,2.4-2.8,3.9-3.3c1.6-0.5,3.2-0.4,4.4,0c1.3,0.5,2.3,1.2,3,2.1c0.7,0.8,1.1,1.7,1.3,2.4c0,0.1,0.1,0.2,0.1,0.3
												c0,0.1,0,0.2,0.1,0.3c0,0.2,0.1,0.3,0.1,0.5c0,0.3,0.1,0.5,0.1,0.7c0,0.2,0,0.3,0,0.4C729,180.8,728.9,180.8,728.9,180.8
												s0-0.1,0-0.2c0-0.1,0-0.3,0-0.4c0-0.2,0-0.4-0.1-0.7c0-0.1-0.1-0.3-0.1-0.5c0-0.1,0-0.2-0.1-0.2c0-0.1-0.1-0.2-0.1-0.3
												c-0.2-0.7-0.6-1.6-1.3-2.4c-0.7-0.8-1.7-1.6-3-2c-1.3-0.4-2.8-0.5-4.4,0c-1.5,0.5-3,1.7-3.8,3.3c-0.8,1.6-1,3.7-0.3,5.6
												c0.2,0.5,0.4,0.9,0.7,1.3c0.3,0.4,0.6,0.8,1,1.2c0.8,0.7,1.7,1.2,2.8,1.5l0.1,0l0,0.1c0,0.6,0,1.3-0.1,1.9l0-0.1
												c0.6,0.5,1.2,0.9,1.9,1.4l0.1,0.1l-0.1,0.1c-0.6,0.4-1.3,0.7-2,1.1l0-0.1c0,0.6,0,1.2-0.1,1.7c0,0.2,0,0.4,0,0.6l0-0.1
												c0.6,0.5,1.3,1,1.9,1.4l0.1,0.1l-0.1,0.1c-0.7,0.4-1.3,0.7-2,1.1l0-0.1c0,0.7-0.1,1.4-0.1,2l0-0.1
												c0.4,0.3,0.8,0.6,1.1,0.9l0.1,0.1l-0.1,0.1c-0.4,0.2-0.8,0.5-1.2,0.7l0-0.1c0,0.4,0,0.8,0,1.2l0-0.1
												c0.5,0.6,1,1.1,1.4,1.6l-0.1,0c1-0.6,1.9-1.2,2.8-1.7l0,0.1c0.2-5.6,0.4-10.5,0.6-14.1l0,0l0,0c1.2-0.4,2.1-1.2,2.7-1.9
												c0.6-0.7,1-1.5,1.3-2.1c0.2-0.6,0.3-1.2,0.4-1.5c0-0.2,0-0.3,0-0.4C728.9,180.9,728.9,180.8,728.9,180.8z"/>
										</g>
									</g>
								</g>
							</g>
						</g>
						<g>
							<g>
								<g>
									<path class="st8" d="M728.1,180.9c0,0,0-0.5-0.2-1.5c-0.1-0.5-0.3-1-0.6-1.6c-0.3-0.6-0.8-1.2-1.5-1.7
										c-0.7-0.5-1.5-1-2.5-1.2c-1-0.2-2.1-0.2-3.1,0.1c-0.5,0.2-1.1,0.4-1.5,0.8c-0.2,0.2-0.5,0.4-0.7,0.5
										c-0.2,0.2-0.4,0.4-0.6,0.7c-0.8,0.9-1.2,2.2-1.3,3.5c0,1.3,0.3,2.6,1,3.5c0.2,0.3,0.4,0.5,0.6,0.7c0.2,0.2,0.4,0.4,0.7,0.6
										c0.5,0.4,1,0.7,1.5,0.9c1,0.4,2.1,0.5,3.1,0.4c1-0.1,1.9-0.5,2.5-1c0.7-0.5,1.2-1.1,1.6-1.6c0.4-0.6,0.6-1.1,0.7-1.6
										C728.1,181.4,728.1,180.9,728.1,180.9C728.1,180.9,728.1,180.9,728.1,180.9c0,0.2,0,0.3,0,0.4c0,0.1,0,0.3-0.1,0.5
										c0,0.2-0.1,0.4-0.1,0.6c-0.1,0.5-0.4,1-0.7,1.6c-0.4,0.6-0.9,1.2-1.6,1.7c-0.7,0.5-1.6,0.9-2.6,1.1c-1,0.1-2.1,0.1-3.2-0.4
										c-0.5-0.2-1-0.5-1.5-0.9c-0.2-0.2-0.5-0.4-0.7-0.6c-0.2-0.2-0.4-0.5-0.6-0.7c-0.7-1-1.1-2.3-1.1-3.7
										c0.1-1.3,0.5-2.6,1.3-3.6c0.2-0.3,0.4-0.5,0.6-0.7c0.2-0.2,0.5-0.4,0.7-0.6c0.5-0.3,1-0.6,1.6-0.8c1.1-0.4,2.2-0.3,3.2-0.1
										c1,0.2,1.8,0.7,2.5,1.2c0.7,0.6,1.1,1.2,1.5,1.8c0.3,0.6,0.5,1.2,0.6,1.6c0.1,0.2,0.1,0.4,0.1,0.6c0,0.2,0,0.3,0,0.5
										C728.1,180.6,728.1,180.7,728.1,180.9C728.1,180.9,728.1,180.9,728.1,180.9z"/>
								</g>
							</g>
						</g>
						<g>
							<g>
								<g>
									<path class="st8" d="M724.5,177.6c0,0,0-0.2-0.1-0.6c-0.1-0.3-0.3-0.9-0.8-1.3c-0.2-0.2-0.6-0.4-0.9-0.4
										c-0.4-0.1-0.8-0.1-1.2,0.1c-0.4,0.1-0.8,0.4-1.1,0.7c-0.3,0.4-0.5,0.8-0.5,1.3c0,0.5,0.1,1,0.4,1.3c0.3,0.4,0.6,0.7,1,0.8
										c0.4,0.2,0.8,0.2,1.2,0.1c0.4,0,0.7-0.2,1-0.4c0.5-0.4,0.8-0.9,0.9-1.2C724.5,177.9,724.5,177.6,724.5,177.6
										c0,0,0,0.1,0,0.1c0,0.1,0,0.2-0.1,0.4c-0.1,0.4-0.3,0.9-0.9,1.3c-0.3,0.2-0.6,0.4-1,0.4c-0.4,0.1-0.8,0-1.2-0.1
										c-0.4-0.2-0.8-0.5-1.1-0.9c-0.3-0.4-0.4-0.9-0.4-1.4c0-0.5,0.2-1,0.5-1.4c0.3-0.4,0.7-0.7,1.1-0.8c0.4-0.1,0.9-0.1,1.2,0
										c0.4,0.1,0.7,0.3,1,0.5c0.5,0.4,0.7,1,0.8,1.3c0,0.2,0,0.3,0,0.4C724.5,177.6,724.5,177.6,724.5,177.6z"/>
								</g>
							</g>
						</g>
						<g>
							<g>
								<g>
									<path class="st8" d="M723.1,201.4c0,0,0-3.2,0.2-7.2c0.1-4,0.3-7.2,0.4-7.2c0,0,0,3.2-0.2,7.2
										C723.3,198.2,723.2,201.4,723.1,201.4z"/>
								</g>
							</g>
						</g>
					</g>
				</g>
				<g>
					<path class="st0" d="M722.9,176.3c-0.3,0.2-0.6,0.2-0.9,0v-8.7l0.9,0.1L722.9,176.3z"/>
					<path class="st8" d="M722.4,176.4c-0.2,0-0.3,0-0.5-0.1l0,0l0-8.7l1,0.1l0,8.7l0,0C722.8,176.4,722.6,176.4,722.4,176.4z
						 M722,176.2c0.3,0.1,0.6,0.1,0.8,0l0-8.5l-0.8-0.1L722,176.2z"/>
				</g>
				<g>
					<g>
						<path class="st9" d="M719,163.3c0.7,0.7,1.6,1.2,2.4,1.8c0.8,0.6,1.5,1.5,1.5,2.5c0,1-0.9,1.9-1.8,2.4
							c-1.3,0.7-2.9,0.8-4.3,0.4c-1.4-0.4-2.6-1.4-3.4-2.7"/>
					</g>
					<g>
						<g>
							<path class="st12" d="M713.4,167.7c0.1-0.1,0.6,0.9,1.9,1.7c0.7,0.4,1.5,0.8,2.5,0.9c1,0.1,2.2-0.1,3.2-0.7
								c1-0.6,1.7-1.6,1.4-2.5c-0.2-0.9-1-1.6-1.6-2c-1.3-0.9-2.1-1.7-2-1.8c0.1,0,0.8,0.5,2.3,1.3c0.7,0.4,1.6,1.1,1.9,2.3
								c0.2,0.6,0.1,1.3-0.3,1.9c-0.3,0.6-0.9,1-1.4,1.4c-1.2,0.7-2.5,0.9-3.6,0.7c-1.1-0.1-2.1-0.6-2.8-1.1
								C713.7,168.8,713.4,167.7,713.4,167.7z"/>
						</g>
					</g>
				</g>
				<g>
					<g>
						<path class="st9" d="M727.6,159.7c-1.6,2-3.1,3.9-4.2,6.2c-0.3,0.7-0.6,1.4-0.6,2.2s0.4,1.6,1,2c0.6,0.3,1.3,0.3,1.9,0
							c0.6-0.3,1.1-0.7,1.6-1.2c1.9-1.8,3.7-3.7,5.2-5.8c0.4-0.5,0.7-1,0.9-1.7c0.2-0.6,0.2-1.3-0.1-1.8"/>
					</g>
					<g>
						<g>
							<path class="st12" d="M733.4,159.6c0,0,0.4,0.3,0.4,1.1c0.1,0.8-0.4,1.8-1.2,2.8c-0.7,1-1.7,2.2-2.8,3.5
								c-0.6,0.6-1.2,1.2-1.8,1.9c-0.7,0.6-1.3,1.3-2.4,1.7c-0.5,0.2-1.1,0.2-1.6,0c-0.5-0.2-1-0.6-1.2-1.1c-0.5-0.9-0.4-2-0.1-2.8
								c0.6-1.6,1.5-2.9,2.2-3.9c1.5-2,2.6-3.1,2.7-3.1c0.1,0.1-0.9,1.3-2.2,3.4c-0.7,1-1.5,2.3-2,3.8c-0.3,0.7-0.3,1.6,0,2.2
								c0.3,0.7,1.2,0.9,2,0.7c0.8-0.3,1.5-0.9,2.1-1.5c0.7-0.6,1.3-1.2,1.8-1.8c1.1-1.2,2.1-2.3,2.9-3.3c0.8-1,1.3-1.8,1.3-2.5
								C733.5,160,733.3,159.7,733.4,159.6z"/>
						</g>
					</g>
				</g>
			</g>
		</g>
	</g>
</g>
<g id="Floor">
	<g>
		<g>
			<path class="st8" d="M755.6,612.9c0,0.2-137,0.4-306.1,0.4c-169.1,0-306.1-0.2-306.1-0.4c0-0.2,137-0.4,306.1-0.4
				C618.6,612.5,755.6,612.7,755.6,612.9z"/>
		</g>
	</g>
</g>
<g id="Plant">
	<g>
		<g>
			<g>
				<g>
					<g>
						<path class="st5" d="M223.4,418.6c13.4-20.5,12.9-50.5-3.1-69.1c-5-5.8-11.9-10.8-19.5-10.1c-7.8,0.7-14,7.3-16.4,14.8
							c-2.4,7.4-1.5,15.5-0.2,23.1c1.9,10.7,5.2,21.7,12.6,29.7C204.3,415,213.8,423.9,223.4,418.6"/>
					</g>
				</g>
				<g>
					<g>
						<path class="st5" d="M217.4,516.8c5.1-11.8,1.4-26.7-8.6-34.8c-3.1-2.5-7.1-4.5-11-3.4c-3.9,1-6.6,5-7.1,9.1
							c-0.5,4,0.6,8.1,2,11.9c2,5.4,4.6,10.7,9.2,14.2C206.6,517.1,212.9,520.4,217.4,516.8"/>
					</g>
				</g>
				<g>
					<g>
						<path class="st5" d="M249.8,509.7c-3.7-18.2,5.9-38.3,22.4-46.9c5.1-2.7,11.4-4.2,16.6-1.7c5.3,2.6,7.8,9.1,7.4,15
							s-3.2,11.3-6.4,16.3c-4.4,7-9.7,13.8-17.2,17.4C265,513.4,255,516.1,249.8,509.7"/>
					</g>
				</g>
				<g>
					<g>
						<path class="st5" d="M247.4,460.5c-6.4-20.7,4.5-45.9,22.6-57.8c5.6-3.7,12.8-6.3,19.1-3.9c6.4,2.5,10.2,9.6,10.4,16.5
							c0.2,6.9-2.5,13.5-5.5,19.7c-4.3,8.7-9.7,17.2-18,22.2C267.7,462.3,254.3,467.3,247.4,460.5"/>
					</g>
				</g>
				<g>
					<g>
						<g>
							<path class="st8" d="M234.5,561.9c0,0,0.1-0.3,0.2-1c0.1-0.8,0.3-1.7,0.4-2.9c0.1-0.6,0.2-1.3,0.3-2.1
								c0.1-0.8,0.3-1.6,0.5-2.5c0.3-1.8,0.7-3.8,1.3-6c0.3-1.1,0.5-2.3,0.8-3.5c0.3-1.2,0.7-2.4,1.1-3.7c0.7-2.6,1.7-5.2,2.7-8.1
								c2.1-5.6,4.8-11.6,8-17.8c3.3-6.1,6.9-11.6,10.4-16.5c1.8-2.4,3.5-4.7,5.3-6.7c0.9-1,1.7-2,2.5-2.9c0.8-0.9,1.6-1.8,2.4-2.6
								c1.5-1.7,3-3.1,4.3-4.4c0.6-0.6,1.2-1.2,1.8-1.8c0.6-0.5,1.1-1,1.6-1.4c0.9-0.8,1.6-1.4,2.2-2c0.5-0.5,0.7-0.7,0.7-0.7
								c0,0-0.3,0.2-0.8,0.6c-0.6,0.5-1.4,1.1-2.3,1.8c-0.5,0.4-1,0.9-1.6,1.3c-0.6,0.5-1.2,1.1-1.8,1.7c-1.3,1.2-2.9,2.6-4.4,4.3
								c-0.8,0.8-1.6,1.7-2.5,2.6c-0.8,0.9-1.7,1.9-2.5,2.9c-1.8,2-3.5,4.3-5.3,6.7c-3.6,4.9-7.2,10.4-10.5,16.6
								c-3.3,6.1-5.9,12.2-8,17.9c-0.9,2.9-1.9,5.5-2.6,8.1c-0.4,1.3-0.7,2.5-1,3.7c-0.3,1.2-0.5,2.4-0.8,3.5
								c-0.5,2.2-0.9,4.3-1.1,6c-0.1,0.9-0.3,1.7-0.4,2.5c-0.1,0.8-0.1,1.5-0.2,2.1c-0.1,1.2-0.2,2.2-0.3,2.9
								C234.5,561.5,234.5,561.9,234.5,561.9z"/>
						</g>
					</g>
				</g>
				<g>
					<g>
						<g>
							<path class="st8" d="M235,565.6c0,0,0-0.1,0-0.4c0-0.3-0.1-0.7-0.1-1.2c-0.1-1.1-0.2-2.7-0.4-4.6c-0.1-1-0.2-2.1-0.3-3.3
								c-0.1-1.2-0.1-2.5-0.2-4c-0.1-2.9-0.4-6.1-0.3-9.7c0-1.8,0-3.7,0-5.6c0-2,0.2-4,0.3-6.1c0.1-4.2,0.7-8.7,1.2-13.4
								c1.3-9.4,3.3-19.6,6.4-30.2c3.2-10.5,7.1-20.2,11.1-28.8c2.1-4.2,4.1-8.3,6.3-11.9c1.1-1.8,2-3.6,3.1-5.3
								c1.1-1.6,2.1-3.2,3-4.7c1.9-3.1,3.9-5.6,5.5-8c0.8-1.2,1.6-2.2,2.3-3.2c0.8-0.9,1.5-1.8,2.1-2.6c1.2-1.5,2.2-2.7,2.9-3.6
								c0.3-0.4,0.5-0.7,0.7-1c0.2-0.2,0.2-0.3,0.2-0.3s-0.1,0.1-0.3,0.3c-0.2,0.2-0.5,0.5-0.8,0.9c-0.7,0.9-1.7,2-3,3.5
								c-0.7,0.8-1.4,1.6-2.2,2.6c-0.8,1-1.5,2-2.4,3.2c-1.7,2.3-3.7,4.9-5.6,7.9c-1,1.5-2,3.1-3.1,4.7c-1.1,1.6-2,3.5-3.1,5.3
								c-2.2,3.6-4.2,7.7-6.4,11.9c-4.1,8.6-8,18.3-11.2,28.9c-3.1,10.6-5.1,20.9-6.3,30.3c-0.5,4.7-1,9.2-1.1,13.5
								c-0.1,2.1-0.3,4.2-0.3,6.1c0,2,0,3.9,0,5.7c-0.1,3.6,0.3,6.9,0.4,9.7c0.1,1.4,0.2,2.8,0.3,4c0.1,1.2,0.3,2.3,0.4,3.3
								c0.2,1.9,0.4,3.5,0.6,4.6c0.1,0.5,0.1,0.9,0.2,1.2C235,565.5,235,565.6,235,565.6z"/>
						</g>
					</g>
				</g>
				<g>
					<g>
						<g>
							<path class="st8" d="M200.1,364.2c0,0,0,0.1,0.2,0.4c0.2,0.3,0.3,0.6,0.6,1.1c0.6,1,1.3,2.4,2.3,4.1c0.5,0.9,1.1,1.9,1.7,3
								c0.6,1.1,1.2,2.3,1.8,3.6c0.6,1.3,1.3,2.7,2.1,4.1c0.7,1.5,1.4,3.1,2.1,4.8c0.7,1.7,1.5,3.4,2.3,5.2c0.7,1.9,1.5,3.8,2.2,5.8
								c0.4,1,0.8,2,1.2,3c0.4,1,0.7,2.1,1.1,3.2c0.7,2.2,1.5,4.4,2.2,6.7c2.8,9.2,5.5,19.4,7.8,30.3c2.2,10.9,3.8,21.4,4.9,31
								c1,9.6,1.7,18.2,1.9,25.5c0.2,3.6,0.2,6.9,0.2,9.8c0,2.9,0.1,5.4,0,7.4c0,2,0,3.5-0.1,4.7c0,0.5,0,0.9,0,1.2
								c0,0.3,0,0.4,0,0.4c0,0,0-0.1,0.1-0.4c0-0.3,0-0.7,0.1-1.2c0.1-1.1,0.1-2.7,0.2-4.7c0.1-2,0.2-4.5,0.2-7.4
								c0-2.9,0-6.2-0.1-9.9c-0.1-7.3-0.8-16-1.7-25.6c-1.1-9.6-2.6-20.1-4.8-31c-2.3-10.9-5-21.2-7.9-30.4
								c-0.8-2.3-1.5-4.5-2.3-6.7c-0.4-1.1-0.7-2.1-1.1-3.2c-0.4-1-0.8-2-1.2-3c-0.8-2-1.6-3.9-2.3-5.8c-0.8-1.8-1.6-3.6-2.3-5.2
								c-0.8-1.7-1.4-3.3-2.2-4.7c-0.8-1.5-1.5-2.8-2.1-4.1c-0.7-1.3-1.3-2.5-1.9-3.6c-0.6-1.1-1.2-2-1.7-2.9c-1-1.7-1.8-3-2.4-4
								c-0.3-0.4-0.5-0.8-0.7-1C200.2,364.3,200.1,364.2,200.1,364.2z"/>
						</g>
					</g>
				</g>
				<g>
					<g>
						<g>
							<path class="st8" d="M204.6,490.2c0,0,0.5,0.9,1.4,2.5c1,1.6,2.3,3.9,3.9,6.8c1.6,2.9,3.3,6.4,5.1,10.4
								c1.7,4,3.4,8.5,4.9,13.3c1.5,4.8,2.6,9.5,3.4,13.8c0.8,4.3,1.4,8.2,1.7,11.5c0.3,3.3,0.5,6,0.6,7.8c0.1,1.8,0.2,2.9,0.2,2.9
								c0.1,0,0.1-1,0.1-2.9c0-1.9-0.1-4.5-0.3-7.9c-0.2-3.3-0.7-7.2-1.5-11.6c-0.8-4.3-1.9-9-3.4-13.9c-1.5-4.8-3.3-9.4-5-13.4
								c-1.8-4-3.6-7.5-5.3-10.4c-1.7-2.9-3.1-5.2-4.2-6.7C205.3,491,204.7,490.2,204.6,490.2z"/>
						</g>
					</g>
				</g>
			</g>
			<g>
				<g>
					<polygon class="st11" points="260.9,552.6 201.9,552.6 209.1,612.9 253.6,612.9 					"/>
				</g>
			</g>
			<g>
				<g>
					<polygon class="st8" points="258.7,606.4 253.7,612.9 209.1,612.9 203.9,606.6 					"/>
				</g>
			</g>
			<g>
				<g>
					<g>
						<path class="st1" d="M204.2,570.4c0,0.2,12.2,0.4,27.3,0.4c15.1,0,27.3-0.2,27.3-0.4c0-0.2-12.2-0.4-27.3-0.4
							C216.5,569.9,204.2,570.1,204.2,570.4z"/>
					</g>
				</g>
			</g>
			<g>
				<g>
					<g>
						<path class="st1" d="M204.2,574.4c0,0.2,12.2,0.4,27.3,0.4c15.1,0,27.3-0.2,27.3-0.4c0-0.2-12.2-0.4-27.3-0.4
							C216.5,573.9,204.2,574.1,204.2,574.4z"/>
					</g>
				</g>
			</g>
			<g>
				<g>
					<g>
						<path class="st1" d="M205,578.3c0,0.2,11.8,0.4,26.4,0.4c14.6,0,26.4-0.2,26.4-0.4c0-0.2-11.8-0.4-26.4-0.4
							C216.8,577.8,205,578,205,578.3z"/>
					</g>
				</g>
			</g>
		</g>
		<g>
			<g>
				<path class="st8" d="M251.9,422.9c0,0,0,0.2,0,0.6c0,0.4,0.1,1,0.1,1.6c0.2,1.5,0.4,3.5,0.6,6c0.5,5.1,1.3,12.1,2.2,19.8
					c0,0.3,0.1,0.6,0.1,0.9l0,0.3l0.3,0c7.6,0.1,14.4,0.2,19.3,0.2c2.4,0,4.4,0,5.8,0c0.6,0,1.2,0,1.6,0c0.4,0,0.6,0,0.6-0.1
					c0,0-0.2,0-0.5-0.1c-0.4,0-0.9,0-1.6-0.1c-1.5,0-3.4-0.1-5.8-0.2c-4.9-0.1-11.7-0.3-19.3-0.4l0.3,0.3c0-0.3-0.1-0.6-0.1-0.9
					c-0.9-7.7-1.8-14.7-2.4-19.7c-0.3-2.5-0.6-4.5-0.8-6c-0.1-0.6-0.2-1.2-0.2-1.6C252,423,251.9,422.8,251.9,422.9z"/>
			</g>
		</g>
		<g>
			<g>
				<path class="st8" d="M265.3,404.8c0,0,0,0.2,0,0.6c0,0.5,0,1,0,1.7c0,1.6,0,3.7,0.1,6.2c0.1,5.2,0.2,12.5,0.4,20.5
					c0,0.3,0,0.6,0,0.9l0,0.3l0.3,0c7.8-0.6,14.8-0.6,19.8-0.4c2.5,0.1,4.6,0.2,6,0.3c0.6,0,1.2,0.1,1.6,0.1c0.4,0,0.6,0,0.6,0
					c0,0-0.2-0.1-0.6-0.1c-0.4,0-0.9-0.1-1.6-0.2c-1.4-0.1-3.4-0.3-6-0.4c-5.1-0.3-12.1-0.3-19.9,0.3l0.3,0.3c0-0.3,0-0.6,0-0.9
					c-0.2-8-0.4-15.2-0.6-20.5c-0.1-2.6-0.2-4.7-0.2-6.2c0-0.7-0.1-1.2-0.1-1.7C265.3,405,265.3,404.8,265.3,404.8z"/>
			</g>
		</g>
		<g>
			<g>
				<path class="st8" d="M281,398.7c0,0-0.2,0.6-0.4,1.7c-0.2,1.2-0.5,2.8-0.9,4.7c-0.8,4-2,9.5-3.6,15.6l-0.2,0.6l0.6-0.3
					c0.2-0.1,0.5-0.2,0.7-0.3c5.8-2.8,11.5-4.1,15.7-4.6c2.1-0.3,3.8-0.4,5-0.4c1.2,0,1.8-0.1,1.8-0.1c0,0-0.2,0-0.5-0.1
					c-0.3,0-0.8-0.1-1.4-0.1c-1.2,0-2.9,0-5,0.2c-4.2,0.4-10.1,1.6-15.9,4.5c-0.2,0.1-0.5,0.2-0.7,0.3l0.4,0.3
					c1.7-6.1,2.8-11.6,3.5-15.6c0.3-2,0.6-3.6,0.7-4.8C281,399.3,281,398.7,281,398.7z"/>
			</g>
		</g>
		<g>
			<g>
				<path class="st8" d="M197.7,508.5c0,0.1,1.7-0.1,4.5-0.2c2.7-0.1,6.6-0.1,10.7,0.3c0.8,0.1,1.7,0.2,2.5,0.3l0.3,0l0-0.3
					c0.6-3.6,1.2-6.7,1.5-9c0.4-2.3,0.5-3.6,0.5-3.6s-0.4,1.3-0.8,3.6s-1.1,5.4-1.7,8.9l0.3-0.2c-0.8-0.1-1.6-0.2-2.5-0.3
					c-4.2-0.5-8.1-0.4-10.8-0.2c-1.4,0.1-2.5,0.2-3.3,0.4C198.1,508.4,197.7,508.5,197.7,508.5z"/>
			</g>
		</g>
		<g>
			<g>
				<path class="st8" d="M192.2,497.4c0,0.1,1.7-0.3,4.3-0.6c2.7-0.3,6.4-0.5,10.5-0.1c0.6,0.1,1.3,0.1,1.8,0.2l0.3,0l0-0.3
					c0.4-3.7,0.7-6.9,0.9-9.2c0.2-2.3,0.3-3.8,0.2-3.8c-0.1,0-0.3,1.4-0.6,3.7c-0.3,2.3-0.7,5.6-1.1,9.2l0.3-0.3
					c-0.6-0.1-1.2-0.2-1.9-0.2c-4.1-0.4-7.9-0.2-10.6,0.3c-1.3,0.2-2.4,0.5-3.1,0.7C192.5,497.3,192.1,497.4,192.2,497.4z"/>
			</g>
		</g>
		<g>
			<g>
				<path class="st8" d="M188.2,392.6c0,0,0.2,0.1,0.6,0.3c0.5,0.2,1,0.5,1.7,0.8c1.6,0.7,3.7,1.6,6.4,2.7
					c5.5,2.3,12.9,5.3,21.1,8.8c0.4,0.2,0.8,0.3,1.1,0.5l0.3,0.1l0.1-0.3c3.5-7.9,6.6-15,8.9-20.2c1.1-2.5,2-4.6,2.6-6.1
					c0.3-0.7,0.5-1.2,0.7-1.7c0.2-0.4,0.2-0.6,0.2-0.6c0,0-0.1,0.2-0.3,0.5c-0.2,0.4-0.5,1-0.8,1.6c-0.7,1.5-1.6,3.5-2.8,6
					c-2.3,5.2-5.5,12.2-9.1,20.1l0.4-0.2c-0.4-0.1-0.8-0.3-1.1-0.5c-8.2-3.3-15.7-6.4-21.2-8.6c-2.7-1-4.8-1.9-6.4-2.5
					c-0.7-0.3-1.3-0.5-1.8-0.7C188.4,392.6,188.2,392.6,188.2,392.6z"/>
			</g>
		</g>
		<g>
			<g>
				<path class="st8" d="M183,367.1c0,0,0.2,0.1,0.5,0.4c0.4,0.3,0.9,0.6,1.5,1c1.4,0.9,3.4,2.1,5.8,3.6c5,3,11.7,7.1,19.2,11.7
					l0.3,0.2l0.1-0.3c0.1-0.3,0.2-0.6,0.3-0.9c3.1-8.4,6-16.1,8-21.7c1-2.7,1.8-5,2.4-6.6c0.3-0.7,0.5-1.3,0.6-1.8
					c0.1-0.4,0.2-0.6,0.2-0.6c0,0-0.1,0.2-0.3,0.6c-0.2,0.5-0.4,1-0.7,1.8c-0.6,1.6-1.5,3.8-2.6,6.5c-2.1,5.6-5,13.2-8.2,21.7
					c-0.1,0.3-0.2,0.6-0.3,0.9l0.4-0.2c-7.5-4.5-14.3-8.6-19.3-11.6c-2.4-1.4-4.4-2.6-5.9-3.4c-0.7-0.4-1.2-0.7-1.6-0.9
					C183.2,367.2,183,367.1,183,367.1z"/>
			</g>
		</g>
		<g>
			<g>
				<path class="st8" d="M184.7,353.5c0,0,0.4,0.3,1.3,0.7c0.8,0.5,2,1.1,3.5,2c2.9,1.8,6.8,4.6,10.7,8.4l0.7,0.7l-0.2-1
					c-0.3-1.1-0.5-2.2-0.7-3.3c-1-6.1-0.2-11.8,0.8-15.7c0.5-2,1.1-3.5,1.5-4.6c0.4-1.1,0.7-1.6,0.6-1.7c0,0-0.3,0.5-0.8,1.6
					c-0.5,1-1.1,2.6-1.7,4.5c-1.2,3.9-2,9.7-1,15.9c0.2,1.2,0.4,2.3,0.7,3.4l0.5-0.3c-3.9-3.8-7.9-6.6-10.9-8.3
					c-1.5-0.9-2.7-1.5-3.6-1.9C185.2,353.7,184.7,353.5,184.7,353.5z"/>
			</g>
		</g>
		<g>
			<g>
				<path class="st8" d="M252,485.7c0,0,0.1,0.6,0.3,1.5c0.2,1,0.5,2.4,0.8,4.1c0.7,3.5,1.3,8.4,1.6,14l0,0.3l0.3,0
					c0.4,0,0.9,0.1,1.3,0.1c5.8,0.4,11.1,0.6,15,0.8c1.8,0.1,3.4,0.1,4.5,0.2c1.1,0,1.7,0,1.7,0c0,0-0.6-0.1-1.7-0.2
					c-1.2-0.1-2.7-0.2-4.5-0.4c-3.8-0.3-9.1-0.6-15-1c-0.5,0-0.9-0.1-1.3-0.1l0.3,0.3c-0.2-5.6-1-10.5-1.8-14
					c-0.4-1.8-0.7-3.2-1-4.1C252.2,486.3,252,485.7,252,485.7z"/>
			</g>
		</g>
		<g>
			<g>
				<path class="st8" d="M263.6,469.1c0,0,0,0.6,0.1,1.5c0.1,1.1,0.3,2.5,0.5,4.2c0.4,3.5,1.1,8.5,1.8,14l0,0.2l0.2,0
					c0.6,0,1.2,0.1,1.9,0.1c6,0.4,11.4,1,15.3,1.5c1.9,0.3,3.4,0.5,4.6,0.6c1.1,0.1,1.7,0.2,1.7,0.2c0,0-0.6-0.2-1.7-0.4
					c-1.1-0.2-2.7-0.5-4.6-0.8c-3.9-0.6-9.3-1.3-15.3-1.7c-0.7,0-1.3-0.1-1.9-0.1l0.3,0.3c-0.8-5.5-1.5-10.4-2-14
					c-0.3-1.7-0.5-3.1-0.7-4.2C263.7,469.7,263.6,469.1,263.6,469.1z"/>
			</g>
		</g>
		<g>
			<g>
				<path class="st8" d="M277.2,462c-0.1,0,0.3,1.6,0.7,4.3c0.4,2.6,0.9,6.3,0.9,10.4l0,0.3l0.3,0c0.3,0,0.7-0.1,1-0.1
					c4.3-0.5,8.3-0.7,11.1-0.7c1.3,0,2.5,0,3.4,0c0.8,0,1.2,0,1.2,0c0,0-0.4-0.1-1.2-0.2c-0.8-0.1-2-0.2-3.4-0.2
					c-2.9-0.1-6.9,0-11.2,0.5c-0.3,0-0.7,0.1-1,0.1l0.3,0.3c-0.1-4.2-0.6-7.9-1.1-10.5c-0.3-1.3-0.5-2.4-0.7-3.1
					C277.4,462.4,277.2,462,277.2,462z"/>
			</g>
		</g>
		<g>
			<g>
				<path class="st8" d="M199.5,478.6c-0.1,0.1,1.1,2.7,2.6,6c1.5,3.3,2.7,6,2.8,5.9c0.1-0.1-0.8-2.8-2.3-6.1
					C201.2,481,199.7,478.5,199.5,478.6z"/>
			</g>
		</g>
		<g>
			<g>
				<path class="st8" d="M192.1,486.4c0,0.2,3.1,0.2,6.7,1.4c3.6,1.1,6.2,2.8,6.3,2.7c0.1-0.1-2.4-2.1-6.1-3.2
					C195.3,486.1,192.1,486.3,192.1,486.4z"/>
			</g>
		</g>
	</g>
</g>
</svg>
