<?xml version="1.0" encoding="utf-8"?>
<!-- Generator: Adobe Illustrator 26.0.0, SVG Export Plug-In . SVG Version: 6.00 Build 0)  -->
<svg version="1.1" id="Layer_1" xmlns="http://www.w3.org/2000/svg" xmlns:xlink="http://www.w3.org/1999/xlink" x="0px" y="0px"
	 viewBox="0 0 892 712" style="enable-background:new 0 0 892 712;" xml:space="preserve">
<style type="text/css">
	.st0{fill:#E0E0E0;}
	.st1{fill:#FAFAFA;}
	.st2{fill:#FFFFFF;}
	.st3{fill:#EBEBEB;}
	.st4{fill:#F5F5F5;}
	.st5{fill:#F7725E;}
	.st6{opacity:0.3;}
	.st7{opacity:0.5;}
	.st8{fill:#263238;}
	.st9{fill:#F8BD9D;}
	.st10{opacity:0.6;}
	.st11{fill:#445A64;}
	.st12{fill:#EA996E;}
	.st13{fill:none;}
</style>
<g id="Background_Complete">
	<g>
		<g>
			<g>
				<g>
					<path class="st0" d="M660.4,518c-8.1-5.1-17.5-8.3-27-9.3c-4.4-0.5-9.2-0.3-12.8,2.3c-0.8,0.6-1.5,1.4-1.3,2.3
						c0.1,0.7,0.7,1.2,1.2,1.6C631.5,523.3,648.2,524.4,660.4,518"/>
				</g>
			</g>
			<g>
				<g>
					<path class="st0" d="M659.7,517.2c-6.1-4.8-12.3-9.6-17.4-15.3c-5.2-5.8-9.4-12.6-10.9-20.2c-0.5-2.3-0.6-4.9,0.9-6.8
						C646.1,485.7,657,499.8,659.7,517.2"/>
				</g>
			</g>
			<g>
				<g>
					<path class="st0" d="M660.2,517.8c-1-7.6-1.4-15.4,0.3-22.9c1.7-7.5,5.8-14.6,12.2-18.9c2.4,5.6,1.4,12.1-0.3,18
						c-2.6,9.1-6.7,17.7-12.1,25.5"/>
				</g>
			</g>
			<g>
				<g>
					<path class="st0" d="M673.9,542.3c-8.3,1-15.5,5.4-21.7,11s-10.6,13.1-12.4,21.3c8.1-0.5,15-6.2,20-12.6
						c5-6.4,8.5-13.5,13.9-19.5"/>
				</g>
			</g>
			<g>
				<g>
					<path class="st0" d="M676.8,546.2c-6.7-16.4-4.2-36.2,6.2-50.5C687.7,512.4,686,531.4,676.8,546.2"/>
				</g>
			</g>
			<g>
				<g>
					<path class="st0" d="M694.8,567.6c-7.5-0.5-15.1,1.3-21.7,5.1c-6.5,3.8-11.9,9.5-15.3,16.2c-0.5,0.9-0.9,2.1-0.2,2.9
						c0.5,0.7,1.6,0.8,2.4,0.7c7.3-0.5,13.7-4.8,19.1-9.8c5.3-5,10-10.7,15.8-15.1"/>
				</g>
			</g>
			<g>
				<g>
					<path class="st0" d="M694.3,566.5c-3.9-12.4-4.1-25.9-0.7-38.4c1.4-4.9,3.6-10.2,8.2-12.5c0.4-0.2,0.8-0.4,1.3-0.2
						c0.4,0.1,0.6,0.5,0.8,0.9c1.6,3.4,2.1,7.3,1.9,11s-0.9,7.5-1.7,11.2c-1.4,6.8-2.2,14.1-5.9,20c-0.9,1.4-1.7,2.9-2.4,4.4
						c-0.7,1.5-0.7,2-1.4,3.2"/>
				</g>
			</g>
			<g>
				<g>
					<path class="st0" d="M741.9,573.6c-3.5-13.4,0.2-29.7,8.7-40.7c0.6-0.8,1.5-1.7,2.5-1.6c1.6,0.1,2,2.2,1.9,3.8
						C754.4,548.7,749.8,562.3,741.9,573.6"/>
				</g>
			</g>
			<g>
				<g>
					<path class="st0" d="M746.2,576.5c16.3,4.2,35,0.1,48.6-9.9c-8-4.1-17.5-5.2-26.3-3.2C759.7,565.4,751.7,569.3,746.2,576.5"/>
				</g>
			</g>
			<g>
				<g>
					<path class="st0" d="M749.9,567.5c9.1-14.9,26.7-24.6,44.1-25.5c-2,7.1-7.8,12.6-14.4,16s-13.9,4.8-21.2,6.2
						C755.5,564.7,751.7,565.3,749.9,567.5"/>
				</g>
			</g>
			<g>
				<g>
					<path class="st0" d="M742.8,524.1c2.5-8.5,5-17,5.6-25.8c0.7-8.8-0.6-18-5.1-25.6c-8.5,16.5-9.4,35.8-0.8,52.3"/>
				</g>
			</g>
			<g>
				<g>
					<path class="st0" d="M771.6,509.6c10-18.1,30.4-32.6,51-34.7C814.6,494.7,792.9,510,771.6,509.6"/>
				</g>
			</g>
			<g>
				<g>
					<path class="st0" d="M765.3,513.2c14.9,2.3,27.6,11.8,41.5,17.5c3,1.2,6.2,2.2,9.4,1.8c3.2-0.4,6.3-2.6,7.1-5.7
						c0.6-2.6-0.6-5.4-2.5-7.3c-1.9-1.9-4.3-3.1-6.8-4.1c-15.2-6.3-31.4-6.5-47.4-2.6"/>
				</g>
			</g>
			<g>
				<g>
					<path class="st0" d="M756.7,523.6c3.4,1,4.5,2.7,7.2,5c9.1,7.7,19.9,13.3,31.5,16.2c1.2,0.3,2.8,0.4,3.4-0.7
						c0.5-0.9-0.1-2.1-0.8-2.9c-4.8-6.1-11.7-10.2-19-12.9c-7.3-2.7-13.6-6-22.2-5.3"/>
				</g>
			</g>
			<g>
				<g>
					<path class="st0" d="M747,460.5c12.1,11.3,29.2,17.1,45.7,15.5c0.8-0.1,1.6-0.2,2.1-0.7c1.1-1.3-0.2-3.2-1.6-4.2
						C779.7,460.6,763.4,456.3,747,460.5"/>
				</g>
			</g>
			<g>
				<g>
					<path class="st0" d="M758.5,456.3c16-12,38-15.6,57-9.4c-7.2,7.1-17.1,10.9-27.1,11.9C778.3,459.9,768.3,458.8,758.5,456.3"/>
				</g>
			</g>
			<g>
				<g>
					<path class="st0" d="M753.9,427.3c-1.3-13.4-0.5-24-1.4-37.4c-0.1-1.1-0.3-2.4-1.3-2.8c-1.4-0.5-2.6,1.2-3,2.6
						c-4,12.4-1.8,26.6,5.7,37.3"/>
				</g>
			</g>
			<g>
				<g>
					<path class="st0" d="M752.9,428.8c9.1-5.6,15.9-12.9,22.2-21.6c4.4-6,8.1-13.2,7.1-20.5c-6.2-0.1-12,3.3-16,7.9
						c-4,4.7-6.4,10.5-8.2,16.4C756.3,417,755,423,752.9,428.8"/>
				</g>
			</g>
			<g>
				<g>
					<path class="st0" d="M774.8,422.8c19.9-7.4,38.5-18.3,54.6-32.2c-6.5-2.6-14-1.1-20.5,1.6c-14.9,6-27.1,16.2-34.4,30.5"/>
				</g>
			</g>
			<g>
				<g>
					<path class="st0" d="M759.1,436.1c10.1,1.1,20.3,1.8,30.3,0.1c9.8-1.6,19.1-5.5,28.3-9.4c0.8-0.3,1.6-0.7,1.9-1.5
						c0.4-0.8,0-1.8-0.7-2.4c-0.7-0.6-1.6-0.9-2.4-1.1c-10-2.8-20.8-1.5-30.6,1.8C776.1,427,768.1,430.9,759.1,436.1"/>
				</g>
			</g>
			<g>
				<g>
					<path class="st0" d="M701.5,461c-6.9-13.9-6.4-30.1-0.5-44.4c4.2,6.4,4.7,14.5,3.9,22.1c-0.8,7.6-3.1,15.4-3.2,23"/>
				</g>
			</g>
			<g>
				<g>
					<path class="st0" d="M674,447.1c-17.2-0.3-34.4,7-46,19.6c8.6,1.3,17.4-0.9,25.2-4.7c7.8-3.8,14.7-9.1,21.6-14.5"/>
				</g>
			</g>
			<g>
				<g>
					<path class="st0" d="M655.6,441c-8.4-0.7-16.5-1.7-24.6,0.8c-8.1,2.5-15.4,8.1-18.7,15.9c7.9,0.9,15.8-1.1,23-4.3
						C642.5,450,649.1,445.5,655.6,441"/>
				</g>
			</g>
			<g>
				<g>
					<path class="st0" d="M682.9,441.2c-7.6-5-15.3-10-24.1-12c-8.8-2.1-19-0.5-25.1,6.1c7.1,4.2,15.8,4.7,24,4.7
						c8.3,0,18.4-0.1,26.2,2.7"/>
				</g>
			</g>
			<g>
				<g>
					<path class="st0" d="M683,441.6c-12.9-12.7-17.8-35.5-12.6-52.8C680.5,404.2,685,423.3,683,441.6"/>
				</g>
			</g>
			<g>
				<g>
					<path class="st0" d="M718.5,405.7c2.4-5.7,4.2-11.6,6.3-17.4c2.2-5.8,4.9-11.4,9-16c4.1-4.6,9.8-8,16-8.3
						c-3.9,17.5-15.5,33.1-31.1,41.8"/>
				</g>
			</g>
			<g>
				<g>
					<path class="st0" d="M712.1,413.2c-4-5.6-8.7-13.1-14.2-17.2c-5.5-4.1-12.6-6.6-19.3-5.1C685.4,403,698.2,411.6,712.1,413.2"/>
				</g>
			</g>
			<g>
				<g>
					<path class="st0" d="M713.3,406.1c-2.6-6.7-5.3-13.5-6.4-20.6c-1.1-7.1-0.4-14.8,3.2-21c7.1,13.4,9.4,27.8,3.5,41.8"/>
				</g>
			</g>
			<g>
				<g>
					<path class="st0" d="M718.5,364.5c4-13.3,16.2-23.1,29.3-27.6c1.7-0.6,3.4-1,5.1-0.8c1.7,0.3,3.4,1.5,3.8,3.2
						c0.5,2.3-1.4,4.3-3.1,5.8C743.4,353.9,731.4,360.5,718.5,364.5"/>
				</g>
			</g>
			<g>
				<g>
					<path class="st0" d="M718.7,353.6c0.5-8.6,1-17.3,3.8-25.4c2.8-8.1,8.2-15.7,16-19.3c1.3,8.7-2.5,17.3-7.1,24.7
						s-10.2,14.5-12.9,22.8"/>
				</g>
			</g>
			<g>
				<g>
					<path class="st0" d="M718.5,359.5c-3.3-9.7-3.7-22-9.5-30.4c-4.1-5.9-10.5-9.9-14-16.2c-2.3,5.8-1.6,12.6,0.8,18.4
						c2.4,5.8,6.4,10.8,10.7,15.4C710.8,351.2,714.5,354.7,718.5,359.5"/>
				</g>
			</g>
			<g>
				<g>
					<g>
						<path class="st0" d="M718.5,644.8c-0.3,0-0.5-64.6-0.5-144.3c0-79.7,0.2-144.3,0.4-144.3s0.5,64.6,0.5,144.3
							C719,580.2,718.8,644.8,718.5,644.8z"/>
					</g>
				</g>
			</g>
			<g>
				<g>
					<g>
						<path class="st0" d="M775,451.2c0,0.1-0.8,0.4-2.4,0.9c-1.7,0.6-4,1.3-6.7,2.3c-5.6,1.9-13.4,4.7-21.8,8.1
							c-8.3,3.6-16.2,6.5-20.6,10.3c-2.2,1.9-3.5,4-4.1,5.5c-0.6,1.5-0.8,2.4-0.8,2.4c0,0,0-0.2,0-0.7c0.1-0.4,0.2-1.1,0.5-1.9
							c0.5-1.6,1.8-3.8,4-5.8c2.2-2,5.4-3.9,9-5.6c3.6-1.7,7.6-3.4,11.8-5.1c8.4-3.5,16.2-6.1,21.9-7.9c2.8-0.9,5.2-1.5,6.8-2
							C774.1,451.4,775,451.2,775,451.2z"/>
					</g>
				</g>
			</g>
			<g>
				<g>
					<g>
						<path class="st0" d="M793.5,405.8c0,0-0.2,0.3-0.7,0.7c-0.6,0.5-1.2,1.2-2.1,1.9c-1.9,1.8-4.5,4.1-7.7,7
							c-6.7,6-15.7,14-25.8,22.9c-10.1,9-18.7,17.5-24.8,23.9c-3,3.2-5.4,5.9-7,7.7c-0.8,0.9-1.4,1.6-1.9,2.1
							c-0.4,0.5-0.7,0.7-0.7,0.7c0,0,0.2-0.3,0.6-0.8c0.4-0.5,1-1.3,1.7-2.3c1.5-1.9,3.8-4.7,6.8-8c5.9-6.6,14.6-15.2,24.6-24.2
							c10.1-8.9,19.3-17,25.9-22.7c3.3-2.8,6-5.1,7.9-6.8c0.9-0.7,1.6-1.3,2.2-1.8C793.2,406,793.5,405.8,793.5,405.8z"/>
					</g>
				</g>
			</g>
			<g>
				<g>
					<g>
						<path class="st0" d="M746.4,447.5c-0.3-0.1,1.8-5,3.9-11.1c2.1-6.1,3.1-11.3,3.4-11.3c0.2,0-0.4,5.4-2.5,11.6
							c-1.1,3.1-2.2,5.8-3.1,7.8C747.2,446.4,746.5,447.6,746.4,447.5z"/>
					</g>
				</g>
			</g>
			<g>
				<g>
					<g>
						<path class="st0" d="M718.6,486.6c-0.1,0-0.6-0.6-1.6-1.8c-1.1-1.3-2.4-3.1-4-5.1c-3.3-4.3-7.9-10.3-13.1-16.8
							c-5.2-6.5-9.9-12.4-13.4-16.6c-1.6-2-3-3.7-4.1-5c-0.9-1.2-1.4-1.9-1.4-1.9c0,0,0.6,0.6,1.7,1.7c1,1.1,2.5,2.8,4.3,4.8
							c3.6,4.1,8.4,9.9,13.6,16.4c5.2,6.5,9.7,12.5,12.9,17c1.6,2.2,2.9,4,3.7,5.3C718.2,485.9,718.7,486.6,718.6,486.6z"/>
					</g>
				</g>
			</g>
			<g>
				<g>
					<g>
						<path class="st0" d="M706.2,470.7c-0.2,0.2-3.5-3.8-5.2-9.7c-1.3-4.2-1.3-8-1.2-9.8l0.4,0c-0.2,0.7-0.3,1.1-0.4,1.1
							c-0.1,0-0.1-0.4,0-1.2l0.4,0c0.2,1.7,0.4,5.4,1.7,9.5C703.6,466.5,706.5,470.6,706.2,470.7z"/>
					</g>
				</g>
			</g>
			<g>
				<g>
					<g>
						<path class="st0" d="M690.2,450.6c-0.1,0.1-1.2-1.2-3.6-2.1c-2.4-0.9-6.1-1.1-10.1-0.8c-4,0.3-7.6,1-10.1,1.6
							c-2.6,0.6-4.1,1.1-4.2,1c0-0.1,1.4-0.8,4-1.6c2.5-0.8,6.2-1.6,10.2-1.9c4-0.3,7.9,0,10.4,1.1
							C689.4,449,690.3,450.6,690.2,450.6z"/>
					</g>
				</g>
			</g>
			<g>
				<g>
					<g>
						<path class="st0" d="M686.5,445.8c-0.1,0.1-2.1-0.8-5.5-2c-3.4-1.2-8.3-2.4-13.8-2.8c-5.5-0.4-10.5,0.1-14.1,0.7
							c-3.6,0.6-5.7,1.3-5.8,1.2c0-0.1,0.5-0.3,1.5-0.6c1-0.4,2.4-0.8,4.2-1.2c3.6-0.8,8.7-1.4,14.3-1c5.6,0.4,10.6,1.8,14,3.2
							c1.7,0.7,3.1,1.3,4,1.8C686,445.4,686.5,445.7,686.5,445.8z"/>
					</g>
				</g>
			</g>
			<g>
				<g>
					<g>
						<path class="st0" d="M718.5,425.2c-0.3,0.1-2.1-6.2-4-14.1c-2-7.8-3.4-14.2-3.1-14.3c0.3-0.1,2.1,6.2,4,14.1
							C717.3,418.7,718.7,425.1,718.5,425.2z"/>
					</g>
				</g>
			</g>
			<g>
				<g>
					<g>
						<path class="st0" d="M718.7,425.2c-0.3,0.1-1.4-4.1-4.5-8.4c-3-4.4-6.7-6.6-6.6-6.8c0-0.1,1.1,0.3,2.5,1.3
							c1.5,1,3.3,2.7,4.8,5C718.2,420.7,719,425.1,718.7,425.2z"/>
					</g>
				</g>
			</g>
			<g>
				<g>
					<g>
						<path class="st0" d="M718.5,610.4c-0.1,0-0.3-1.6-1-4.3c-0.7-2.7-2.1-6.6-4.3-11.2c-4.5-9.1-12.6-20.7-22.9-32.3
							c-5.1-5.8-10.1-11.4-14.3-16.6c-4.2-5.3-7.7-10.3-10.2-14.7c-2.5-4.4-4.2-8.2-5.2-10.9c-0.5-1.3-0.8-2.4-1-3.1
							c-0.2-0.7-0.3-1.1-0.3-1.1c0.1,0,0.6,1.5,1.6,4.1c1.1,2.6,2.8,6.4,5.4,10.7c2.6,4.4,6.1,9.3,10.3,14.5
							c4.2,5.2,9.2,10.7,14.3,16.6c10.3,11.6,18.5,23.3,22.8,32.6c2.2,4.6,3.5,8.6,4.1,11.4c0.3,1.4,0.5,2.5,0.6,3.2
							C718.5,610,718.6,610.4,718.5,610.4z"/>
					</g>
				</g>
			</g>
			<g>
				<g>
					<g>
						<path class="st0" d="M769.6,552.7c0,0.1-0.9,0.6-2.7,1.5c-1.7,1-4.1,2.4-6.9,4.6c-2.8,2.1-5.9,4.9-9.1,8.3
							c-3.2,3.4-6.5,7.3-9.9,11.5c-6.7,8.4-13,15.9-16.8,21.9c-1.9,3-3.3,5.4-4.2,7.2c-0.9,1.7-1.4,2.7-1.5,2.7c0,0,0.1-0.3,0.2-0.8
							c0.2-0.5,0.5-1.2,0.9-2.1c0.8-1.8,2.1-4.4,4-7.4c3.7-6.1,9.9-13.7,16.6-22.1c3.4-4.2,6.7-8.1,10-11.5c3.3-3.4,6.5-6.2,9.3-8.2
							c2.9-2.1,5.4-3.5,7.2-4.4c0.9-0.4,1.6-0.7,2.1-0.9C769.3,552.8,769.6,552.7,769.6,552.7z"/>
					</g>
				</g>
			</g>
			<g>
				<g>
					<g>
						<path class="st0" d="M770.6,571.4c0,0.1-2.2,0.4-5.7,0.8c-3.5,0.5-8.3,1-13.4,2.6c-5.1,1.6-9.3,4.2-12,6.3
							c-2.8,2.1-4.1,3.9-4.2,3.8c0,0,0.2-0.5,0.8-1.3c0.6-0.8,1.6-1.8,2.9-3c2.7-2.3,6.9-5,12.1-6.7c5.2-1.6,10.1-2.1,13.6-2.4
							C768.4,571.3,770.6,571.3,770.6,571.4z"/>
					</g>
				</g>
			</g>
			<g>
				<g>
					<g>
						<path class="st0" d="M737,582.9c-0.3-0.2,2.3-4.1,4.2-9.3c1.9-5.3,2.3-9.9,2.6-9.9c0.1,0,0.1,1.2-0.1,3
							c-0.2,1.9-0.7,4.4-1.6,7.1c-1,2.7-2.3,5-3.3,6.6C737.8,582.1,737.1,583,737,582.9z"/>
					</g>
				</g>
			</g>
			<g>
				<g>
					<g>
						<path class="st0" d="M786.1,502.5c0,0-0.3,0.2-0.9,0.5c-0.7,0.3-1.6,0.7-2.7,1.2c-1.2,0.5-2.6,1.1-4.2,2
							c-1.6,0.8-3.5,1.7-5.4,2.8c-1,0.6-2,1.1-3.1,1.8c-1.1,0.6-2.1,1.3-3.3,2c-2.3,1.4-4.5,3.1-7,4.8c-4.8,3.6-9.8,7.9-14.6,12.8
							c-4.8,5-8.9,10.1-12.3,15c-1.6,2.5-3.3,4.8-4.6,7.1c-0.7,1.1-1.4,2.2-1.9,3.3c-0.6,1.1-1.1,2.1-1.6,3.1
							c-1.1,2-1.9,3.9-2.7,5.5c-0.8,1.6-1.4,3.1-1.8,4.2c-0.5,1.1-0.8,2-1.1,2.7c-0.3,0.6-0.4,0.9-0.4,0.9c0,0,0.1-0.3,0.3-1
							c0.3-0.7,0.6-1.6,1-2.8c0.4-1.2,0.9-2.7,1.7-4.3c0.7-1.7,1.5-3.6,2.5-5.6c0.5-1,1-2.1,1.6-3.2c0.6-1.1,1.2-2.2,1.9-3.4
							c1.3-2.4,2.9-4.7,4.5-7.2c3.4-4.9,7.5-10.1,12.4-15.2c4.9-5,9.9-9.3,14.7-12.9c2.5-1.7,4.8-3.4,7.1-4.8c1.1-0.7,2.2-1.4,3.3-2
							c1.1-0.6,2.1-1.2,3.1-1.7c2-1.1,3.9-1.9,5.5-2.7c1.6-0.8,3.1-1.4,4.2-1.8c1.1-0.4,2-0.8,2.7-1
							C785.8,502.6,786.1,502.5,786.1,502.5z"/>
					</g>
				</g>
			</g>
			<g>
				<g>
					<g>
						<path class="st0" d="M745.7,529.6c-0.1,0,0.4-1.6,2.2-3.3c1.8-1.7,5.1-3.3,8.9-3.4c3.8-0.1,7.1,1,9.4,1.8
							c2.3,0.9,3.6,1.6,3.6,1.7c-0.1,0.1-1.5-0.4-3.8-1.1c-2.3-0.7-5.5-1.6-9.2-1.5c-3.6,0.1-6.7,1.5-8.5,3
							C746.5,528.3,745.9,529.7,745.7,529.6z"/>
					</g>
				</g>
			</g>
			<g>
				<g>
					<g>
						<path class="st0" d="M739.7,535.8c-0.3-0.1,2-3.5,2.5-8.3c0.6-4.8-0.9-8.6-0.6-8.6c0.1,0,0.6,0.8,1,2.4
							c0.4,1.6,0.7,3.8,0.4,6.3c-0.3,2.5-1.1,4.6-1.9,6.1C740.5,535.1,739.8,535.9,739.7,535.8z"/>
					</g>
				</g>
			</g>
		</g>
		<g>
			<g>
				<path class="st0" d="M673.9,619.6c1.4,24.7,8.8,49.8,20.3,75.2H744c10.9-25.1,17.8-50.2,19.1-75.2H673.9z"/>
			</g>
		</g>
		<g>
			<g>
				<g>
					<path class="st1" d="M755,659.6c0,0.3-16.4,0.5-36.6,0.5c-20.2,0-36.6-0.2-36.6-0.5s16.4-0.5,36.6-0.5
						C738.6,659.1,755,659.3,755,659.6z"/>
				</g>
			</g>
		</g>
		<g>
			<g>
				<g>
					<path class="st1" d="M753.9,668.5c0,0.3-15.4,0.5-34.3,0.5c-19,0-34.3-0.2-34.3-0.5c0-0.3,15.4-0.5,34.3-0.5
						C738.5,668.1,753.9,668.3,753.9,668.5z"/>
				</g>
			</g>
		</g>
		<g>
			<g>
				<g>
					<path class="st1" d="M695,635.8c0.3,0,0.5,5.1,0.5,11.5c0,6.3-0.2,11.5-0.5,11.5s-0.5-5.1-0.5-11.5
						C694.5,641,694.7,635.8,695,635.8z"/>
				</g>
			</g>
		</g>
		<g>
			<g>
				<g>
					<path class="st1" d="M721.7,635.8c0.3,0,0.5,5.3,0.5,11.9c0,6.6-0.2,11.9-0.5,11.9s-0.5-5.3-0.5-11.9
						C721.2,641.1,721.4,635.8,721.7,635.8z"/>
				</g>
			</g>
		</g>
		<g>
			<g>
				<g>
					<path class="st1" d="M746.7,635.6c0.3,0,0.5,5.4,0.5,12.1c0,6.7-0.2,12.1-0.5,12.1s-0.5-5.4-0.5-12.1
						C746.2,641.1,746.4,635.6,746.7,635.6z"/>
				</g>
			</g>
		</g>
		<g>
			<g>
				<g>
					<path class="st1" d="M761.5,635.8c0,0.3-19.2,0.5-42.9,0.5c-23.7,0-42.9-0.2-42.9-0.5s19.2-0.5,42.9-0.5
						C742.2,635.4,761.5,635.6,761.5,635.8z"/>
				</g>
			</g>
		</g>
	</g>
	<g>
		<g>
			<g>
				<g>
					<g>
						<g>
							<g>
								<g>
									<g>
										<g>
											<rect x="669.3" y="13.6" class="st0" width="119.3" height="124.3"/>
										</g>
									</g>
								</g>
							</g>
						</g>
					</g>
				</g>
			</g>
		</g>
		<g>
			<g>
				<g>
					<g>
						<g>
							<g>
								<g>
									<g>
										<g>
											<rect x="661.2" y="13.6" class="st1" width="119.3" height="124.3"/>
										</g>
									</g>
								</g>
							</g>
						</g>
					</g>
				</g>
			</g>
			<g>
				<g>
					<g>
						<g>
							<g>
								<g>
									<g>
										<g>
											<path class="st0" d="M780.5,138H661.2V13.6h119.3V138z M661.2,137.9h119.2V13.7H661.2V137.9z"/>
										</g>
									</g>
								</g>
							</g>
						</g>
					</g>
				</g>
			</g>
		</g>
		<g>
			<g>
				<g>
					<g>
						<g>
							<g>
								<g>
									<g>
										<g>
											<rect x="677.2" y="30.4" class="st2" width="87.2" height="90.9"/>
										</g>
									</g>
								</g>
							</g>
						</g>
					</g>
				</g>
			</g>
		</g>
		<g>
			<g>
				<g>
					<g>
						<g>
							<g>
								<g>
									<g>
										<g>
											<g>
												<path class="st0" d="M677.2,121.9c0.1,0.1-0.8,1-2.2,2.5c-1.4,1.5-3.3,3.5-5.5,5.6c-2.2,2.2-4.2,4.1-5.7,5.5
													c-1.5,1.4-2.4,2.2-2.5,2.1c-0.1-0.1,0.7-1,2.1-2.5c1.4-1.5,3.4-3.5,5.6-5.6c2.2-2.2,4.2-4.1,5.7-5.5
													C676.2,122.6,677.2,121.8,677.2,121.9z"/>
											</g>
										</g>
									</g>
								</g>
							</g>
						</g>
					</g>
				</g>
			</g>
		</g>
		<g>
			<g>
				<g>
					<g>
						<g>
							<g>
								<g>
									<g>
										<g>
											<g>
												<path class="st0" d="M764.4,121.6c0.1-0.1,1,0.8,2.5,2.2c1.5,1.4,3.5,3.3,5.6,5.5c2.2,2.2,4.1,4.2,5.5,5.7
													c1.4,1.5,2.2,2.4,2.1,2.5c-0.1,0.1-1-0.7-2.5-2.1c-1.5-1.4-3.5-3.4-5.6-5.6c-2.2-2.2-4.1-4.2-5.5-5.7
													C765.2,122.7,764.4,121.7,764.4,121.6z"/>
											</g>
										</g>
									</g>
								</g>
							</g>
						</g>
					</g>
				</g>
			</g>
		</g>
		<g>
			<g>
				<g>
					<g>
						<g>
							<g>
								<g>
									<g>
										<g>
											<g>
												<path class="st0" d="M764.2,30.6c-0.1-0.1,0.8-1,2.2-2.5s3.3-3.5,5.5-5.6c2.2-2.2,4.2-4.1,5.7-5.5
													c1.5-1.4,2.4-2.2,2.5-2.1c0.1,0.1-0.7,1-2.1,2.5s-3.4,3.5-5.6,5.6s-4.2,4.1-5.7,5.5C765.2,29.9,764.3,30.7,764.2,30.6z"
													/>
											</g>
										</g>
									</g>
								</g>
							</g>
						</g>
					</g>
				</g>
			</g>
		</g>
		<g>
			<g>
				<g>
					<g>
						<g>
							<g>
								<g>
									<g>
										<g>
											<g>
												<path class="st0" d="M677,30.8c-0.1,0.1-1-0.8-2.5-2.2c-1.5-1.4-3.5-3.3-5.6-5.5c-2.2-2.2-4.1-4.2-5.5-5.7
													c-1.4-1.5-2.2-2.4-2.1-2.5c0.1-0.1,1,0.7,2.5,2.1c1.5,1.4,3.5,3.4,5.6,5.6c2.2,2.2,4.1,4.2,5.5,5.7
													C676.3,29.8,677.1,30.8,677,30.8z"/>
											</g>
										</g>
									</g>
								</g>
							</g>
						</g>
					</g>
				</g>
			</g>
		</g>
		<g>
			<g>
				<g>
					<g>
						<g>
							<g>
								<g>
									<g>
										<g>
											<g>
												<path class="st0" d="M764.2,121.2c0,0,0-0.2,0-0.4c0-0.3,0-0.7,0-1.3c0-1.1,0-2.8,0-4.9c0-4.3-0.1-10.6-0.1-18.5
													c0-15.9-0.1-38.6-0.2-65.8l0.3,0.3c-25.4,0-55.2,0-86.9,0h0l0.4-0.4c0,33.4,0,64.6-0.1,90.9l-0.3-0.3
													c26.1,0.1,47.8,0.1,63,0.2c7.6,0,13.6,0.1,17.7,0.1c2,0,3.6,0,4.7,0c0.5,0,0.9,0,1.2,0
													C764.1,121.2,764.2,121.2,764.2,121.2c0,0-0.1,0-0.4,0c-0.3,0-0.7,0-1.2,0c-1.1,0-2.6,0-4.6,0c-4.1,0-10,0-17.6,0.1
													c-15.3,0-37,0.1-63.2,0.2l-0.3,0v-0.3c0-26.3,0-57.5-0.1-90.9V30h0.4h0c31.8,0,61.6,0,86.9,0h0.3v0.3
													c-0.1,27.2-0.1,50-0.2,66c0,7.9-0.1,14.2-0.1,18.4c0,2.1,0,3.7,0,4.8c0,0.5,0,0.9,0,1.2
													C764.2,121.1,764.2,121.3,764.2,121.2z"/>
											</g>
										</g>
									</g>
								</g>
							</g>
						</g>
					</g>
				</g>
			</g>
		</g>
		<g>
			<g>
				<g>
					<g>
						<g>
							<g>
								<g>
									<g>
										<g>
											<rect x="706.3" y="61.3" class="st3" width="29.1" height="29.1"/>
										</g>
									</g>
								</g>
							</g>
						</g>
					</g>
				</g>
			</g>
		</g>
	</g>
	<g>
		<g>
			<g>
				<g>
					<g>
						<rect x="132.7" y="210.1" class="st0" width="136.2" height="197.4"/>
					</g>
				</g>
			</g>
		</g>
		<g>
			<g>
				<g>
					<g>
						<rect x="125.9" y="210.1" class="st4" width="136.2" height="197.4"/>
					</g>
				</g>
			</g>
		</g>
		<g>
			<g>
				<g>
					<g>
						<g>
							<rect x="142.8" y="231.4" class="st2" width="102.3" height="154.6"/>
						</g>
					</g>
				</g>
			</g>
			<g>
				<g>
					<g>
						<g>
							<g>
								<path class="st0" d="M245.2,386.1c0,0,0-0.3,0-0.8c0-0.5,0-1.2,0-2.2c0-1.9,0-4.8,0-8.5c0-7.4-0.1-18.2-0.1-31.9
									c0-27.3-0.1-65.9-0.2-111.4l0.3,0.3c-31.3,0-65.9,0-102.3,0h0l0.4-0.4c0,58.3-0.1,112.1-0.1,154.6l-0.3-0.3
									c31.2,0.1,56.7,0.1,74.5,0.2c8.9,0,15.8,0.1,20.6,0.1c2.4,0,4.2,0,5.4,0C244.5,386,245.2,386.1,245.2,386.1s-0.6,0-1.8,0
									c-1.2,0-3,0-5.3,0c-4.7,0-11.7,0-20.5,0.1c-17.8,0-43.4,0.1-74.7,0.2h-0.3v-0.3c0-42.5,0-96.3-0.1-154.6v-0.4h0.4h0
									c36.4,0,71.1,0,102.3,0h0.3v0.3c-0.1,45.6-0.1,84.3-0.2,111.6c0,13.6-0.1,24.4-0.1,31.8c0,3.7,0,6.5,0,8.4
									c0,0.9,0,1.7,0,2.2C245.2,385.8,245.2,386.1,245.2,386.1z"/>
							</g>
						</g>
					</g>
				</g>
			</g>
		</g>
		<g>
			<g>
				<g>
					<g>
						<g>
							<path class="st0" d="M262.5,210.1c0.1,0.1-0.8,1.4-2.4,3.5c-1.6,2.1-3.8,5-6.4,8.1c-2.6,3.1-5,5.9-6.7,7.8
								c-1.8,2-2.9,3.1-3,3.1c-0.1-0.1,0.9-1.4,2.6-3.4c1.8-2.2,4.1-4.9,6.6-8c2.5-3,4.7-5.7,6.6-8
								C261.3,211.2,262.4,210,262.5,210.1z"/>
						</g>
					</g>
				</g>
			</g>
		</g>
		<g>
			<g>
				<g>
					<g>
						<g>
							<path class="st2" d="M245.7,385.6c5.1,8.1,11.1,15.6,17.9,22.3"/>
						</g>
					</g>
				</g>
			</g>
			<g>
				<g>
					<g>
						<g>
							<g>
								<path class="st0" d="M263.5,407.9c-0.1,0.1-1.3-1-3.1-2.8c-1.8-1.8-4.3-4.5-6.7-7.6c-2.5-3.1-4.5-6.1-5.9-8.2
									c-1.4-2.2-2.2-3.6-2.1-3.7c0.1-0.1,1,1.3,2.5,3.4c1.5,2.1,3.6,5,6.1,8.1c2.5,3.1,4.8,5.8,6.5,7.7
									C262.5,406.6,263.6,407.8,263.5,407.9z"/>
							</g>
						</g>
					</g>
				</g>
			</g>
		</g>
		<g>
			<g>
				<g>
					<g>
						<g>
							<path class="st2" d="M125.9,407.3c5.9-7.3,11.9-14.7,17.8-22"/>
						</g>
					</g>
				</g>
			</g>
			<g>
				<g>
					<g>
						<g>
							<g>
								<path class="st0" d="M143.7,385.3c0.2,0.1-3.7,5.2-8.6,11.2c-4.9,6.1-9,10.9-9.2,10.8c-0.2-0.1,3.7-5.2,8.6-11.2
									C139.4,390,143.6,385.2,143.7,385.3z"/>
							</g>
						</g>
					</g>
				</g>
			</g>
		</g>
		<g>
			<g>
				<g>
					<g>
						<g>
							<path class="st0" d="M125.9,210.1c0.2-0.1,4,4.5,8.7,10.3c4.6,5.8,8.2,10.7,8.1,10.8c-0.2,0.1-4-4.5-8.7-10.4
								C129.4,215,125.7,210.2,125.9,210.1z"/>
						</g>
					</g>
				</g>
			</g>
		</g>
		<g>
			<g>
				<g>
					<g>
						<rect x="179" y="262.8" class="st0" width="34.3" height="97.3"/>
					</g>
				</g>
			</g>
		</g>
	</g>
</g>
<g id="Padlock">
	<g>
		<g>
			<g>
				<g>
					<path class="st5" d="M197.1,73.6c-28.5,11.7-42.2,44.4-30.5,72.9l34.7,84.7l15.6-6.4l-34.7-84.7c-8.2-19.9,1.4-42.8,21.3-50.9
						c19.9-8.2,42.8,1.4,50.9,21.3l15.6-6.4C258.3,75.6,225.6,61.9,197.1,73.6z"/>
				</g>
				<g class="st6">
					<path d="M197.1,73.6c-28.5,11.7-42.2,44.4-30.5,72.9l34.7,84.7l15.6-6.4l-34.7-84.7c-8.2-19.9,1.4-42.8,21.3-50.9
						c19.9-8.2,42.8,1.4,50.9,21.3l15.6-6.4C258.3,75.6,225.6,61.9,197.1,73.6z"/>
				</g>
				<g>
					<g>
						<g>
							<path class="st5" d="M335.4,236.6l-122.7,50.2c-4.6,1.9-9.8-0.3-11.7-4.9l-29.8-72.7c-1.9-4.6,0.3-9.8,4.9-11.7l122.7-50.2
								c4.6-1.9,9.8,0.3,11.7,4.9l29.8,72.7C342.2,229.4,340,234.7,335.4,236.6z"/>
						</g>
					</g>
				</g>
				<g class="st7">
					<g>
						<path d="M262.7,200.6c-2.6-6.4-10-9.5-16.4-6.9s-9.5,10-6.9,16.4c2.2,5.3,7.6,8.3,13,7.7l7.1,17.4l6.4-2.6l-7.1-17.4
							C263.1,211.8,264.8,205.9,262.7,200.6z"/>
					</g>
				</g>
			</g>
			<g>
				<g>
					<g>
						<g>
							<path class="st1" d="M208.4,278.7c-0.3,0.1-6.7-14.7-14.2-33.1c-7.5-18.4-13.4-33.4-13.1-33.5c0.3-0.1,6.7,14.7,14.2,33.1
								C202.8,263.5,208.7,278.6,208.4,278.7z"/>
						</g>
					</g>
				</g>
			</g>
			<g>
				<g>
					<g>
						<g>
							<path class="st1" d="M248,224c0,0.1-0.6,0-1.7-0.2c-1.1-0.3-2.6-0.8-4.3-1.8c-3.3-2-7.4-6.3-8.4-12.4
								c-0.9-6.1,1.6-11.5,4.2-14.4c1.3-1.5,2.6-2.5,3.5-3c0.9-0.6,1.5-0.8,1.5-0.7c0.1,0.2-2,1.3-4.3,4.3c-2.3,2.9-4.5,8-3.7,13.7
								c0.9,5.6,4.6,9.8,7.7,11.9C245.7,223.4,248.1,223.8,248,224z"/>
						</g>
					</g>
				</g>
			</g>
		</g>
		<g>
			<path class="st5" d="M149.2,239.3l0.8-2.2l1.4,1.8c1.2,1.5,2.7,2.6,4.5,3.2l2.2,0.8l-1.8,1.4c-1.5,1.2-2.6,2.7-3.2,4.5l-0.8,2.2
				l-1.4-1.8c-1.2-1.5-2.7-2.6-4.5-3.2l-2.2-0.8l1.8-1.4C147.5,242.6,148.6,241,149.2,239.3z"/>
		</g>
		<g>
			<path class="st5" d="M222.7,152.9l0.4-1.3l0.8,1.1c0.7,0.8,1.6,1.5,2.6,1.8l1.3,0.4l-1.1,0.8c-0.8,0.7-1.5,1.6-1.8,2.6l-0.4,1.3
				l-0.8-1.1c-0.7-0.8-1.6-1.5-2.6-1.8l-1.3-0.4l1.1-0.8C221.7,154.9,222.3,154,222.7,152.9z"/>
		</g>
		<g>
			<path class="st5" d="M134.4,163.7l1.3-3.7l2.4,3.1c1.9,2.4,4.5,4.3,7.5,5.3l3.7,1.3l-3.1,2.4c-2.4,1.9-4.3,4.5-5.3,7.5l-1.3,3.7
				l-2.4-3.1c-1.9-2.4-4.5-4.3-7.5-5.3l-3.7-1.3l3.1-2.4C131.5,169.2,133.4,166.6,134.4,163.7z"/>
		</g>
	</g>
</g>
<g id="Device">
	<g>
		<g>
			<g>
				<g>
					<g>
						<g>
							<path class="st8" d="M561.1,700.7l-228.4-0.1c-27.5,0-49.7-22.3-49.7-49.8L283,78.1c0-27.5,22.3-49.8,49.8-49.8l228.4,0.1
								c27.5,0,49.7,22.3,49.7,49.8L610.8,651C610.8,678.5,588.5,700.7,561.1,700.7z"/>
						</g>
					</g>
					<g>
						<g>
							<path class="st2" d="M561,48.8l-44.3,0c-5.9,0-10.8,5-10.8,11.2l0,8c0,6.2-4.8,11.2-10.8,11.2l-86.3-0.1
								c-5.9,0-10.8-5-10.8-11.2l0-8c0-6.2-4.8-11.2-10.8-11.2l-15.6,0l-38.8,0c-19.3,0-34.9,15.6-34.9,34.8l-0.1,559
								c0,19.2,15.6,34.8,34.8,34.9l228,0.1c19.3,0,34.9-15.6,34.9-34.8l0.1-559C595.8,64.4,580.2,48.8,561,48.8z"/>
						</g>
					</g>
				</g>
			</g>
			<g>
				<g>
					<path class="st8" d="M425.7,634.7c0,2.4-1.9,4.4-4.3,4.4s-4.4-1.9-4.4-4.3c0-2.4,1.9-4.4,4.3-4.4
						C423.8,630.4,425.7,632.3,425.7,634.7z"/>
				</g>
				<g>
					<path class="st8" d="M450.3,634.5c0,2.4-1.9,4.4-4.3,4.4c-2.4,0-4.4-1.9-4.4-4.3c0-2.4,1.9-4.4,4.3-4.4
						C448.3,630.2,450.3,632.1,450.3,634.5z"/>
				</g>
				<g>
					<path class="st8" d="M474.8,634.3c0,2.4-1.9,4.4-4.3,4.4c-2.4,0-4.4-1.9-4.4-4.3c0-2.4,1.9-4.4,4.3-4.4
						C472.8,630,474.8,631.9,474.8,634.3z"/>
				</g>
			</g>
			<g>
				<g>
					<g>
						<path class="st8" d="M562.3,105.2c0,0.1-5.8,0.3-12.9,0.3c-7.1,0.1-12.9,0-12.9-0.1c0-0.1,5.8-0.3,12.9-0.3
							C556.6,105,562.3,105.1,562.3,105.2z"/>
					</g>
				</g>
				<g>
					<g>
						<path class="st8" d="M562.4,111.8c0,0.1-5.8,0.3-12.9,0.3c-7.1,0.1-12.9,0-12.9-0.1c0-0.1,5.8-0.3,12.9-0.3
							C556.6,111.6,562.4,111.7,562.4,111.8z"/>
					</g>
				</g>
				<g>
					<g>
						<path class="st8" d="M562.4,118.4c0,0.1-5.8,0.3-12.9,0.3c-7.1,0.1-12.9,0-12.9-0.1c0-0.1,5.8-0.3,12.9-0.3
							C556.7,118.2,562.4,118.2,562.4,118.4z"/>
					</g>
				</g>
			</g>
			<g>
				<g>
					<path class="st8" d="M328.3,125.9c0,0,0.2,0,0.5,0c0.4,0,0.9,0,1.5,0c1.4,0,3.2-0.1,5.5-0.1l-0.1,0.1c0-1.2,0-2.5-0.1-4
						c0-0.7-0.1-1.4,0-2.3c0.1-0.8,0.9-1.6,1.8-1.7c0.9,0,1.7-0.1,2.6,0c1,0.1,1.8,1.1,1.8,2.1c0,1.9,0,3.8,0.1,5.8l-0.2-0.2
						c2.2,0,4.5,0,6.9-0.1l-0.2,0.2c0-2.8,0-5.7-0.1-8.6c0-0.7,0-1.5,0-2.2c0-0.3-0.1-0.6-0.3-0.9c-0.2-0.3-0.5-0.5-0.7-0.8
						c-1-1-2-2-3-3c-1-1-2-1.9-2.9-2.9c-0.5-0.5-1-0.9-1.4-1.4c-0.5-0.5-0.9-1-1.4-1.1c-0.6-0.2-1.2,0-1.6,0.3
						c-0.4,0.4-0.9,0.9-1.3,1.3c-0.9,0.9-1.7,1.7-2.5,2.5c-1.6,1.6-3.2,3.1-4.4,4.5c-0.5,0.8-0.3,1.7-0.3,2.6c0,0.9,0,1.7,0,2.4
						c0,1.5,0,2.8,0,3.9c0,1,0,1.8,0,2.5C328.3,125.6,328.3,125.9,328.3,125.9s0-0.3,0-0.8c0-0.7,0-1.5-0.1-2.5c0-1.1-0.1-2.4-0.1-4
						c0-0.8,0-1.6,0-2.5c0-0.4,0-0.9,0-1.4c0-0.5,0.1-1,0.4-1.4c1.3-1.6,2.8-3,4.4-4.6c0.8-0.8,1.6-1.7,2.5-2.5
						c0.4-0.4,0.8-0.9,1.3-1.3c0.5-0.4,1.3-0.6,2-0.4c0.7,0.2,1.2,0.8,1.7,1.2c0.5,0.5,0.9,0.9,1.4,1.4c1,0.9,1.9,1.9,2.9,2.9
						c1,1,2,2,3,3c0.2,0.3,0.5,0.5,0.8,0.8c0.2,0.3,0.3,0.7,0.4,1.2c0,0.7,0,1.5,0,2.2c0,3,0,5.8,0.1,8.6l0,0.2l-0.2,0
						c-2.4,0-4.7,0-6.9,0l-0.2,0l0-0.2c0-2,0-4,0-5.8c0-0.8-0.6-1.6-1.4-1.7c-0.8,0-1.7,0-2.5,0c-0.8,0.1-1.4,0.7-1.5,1.4
						c-0.1,0.7,0,1.5,0,2.2c0,1.4,0,2.8,0,4v0.1h-0.1c-2.3,0-4.2,0-5.6,0c-0.6,0-1.1,0-1.5,0C328.4,125.9,328.3,125.9,328.3,125.9z"
						/>
				</g>
			</g>
		</g>
		<g>
			<g>
				<path class="st2" d="M416.3,460.2h7.1c5.1,0,8.6,3.1,8.6,7.8c0,4.7-3.5,7.8-8.6,7.8h-7.1V460.2z M423.2,472.8
					c3.1,0,5.1-1.8,5.1-4.8c0-3-2-4.8-5.1-4.8H420v9.7L423.2,472.8L423.2,472.8z"/>
				<path class="st2" d="M433.6,469.8c0-3.6,2.8-6.2,6.6-6.2s6.6,2.6,6.6,6.2c0,3.6-2.8,6.2-6.6,6.2
					C436.4,475.9,433.6,473.4,433.6,469.8z M443.2,469.8c0-2.1-1.3-3.3-3-3.3c-1.7,0-3.1,1.2-3.1,3.3s1.3,3.3,3.1,3.3
					C441.9,473.1,443.2,471.8,443.2,469.8z"/>
				<path class="st2" d="M461.3,468.9v6.9h-3.5v-6.3c0-1.9-0.9-2.8-2.4-2.8c-1.7,0-2.9,1-2.9,3.2v5.9h-3.5v-12h3.3v1.4
					c0.9-1,2.3-1.6,4-1.6C459.2,463.6,461.3,465.2,461.3,468.9z"/>
				<path class="st2" d="M476.2,470.7h-9.1c0.3,1.5,1.6,2.4,3.4,2.4c1.3,0,2.2-0.4,3-1.2l1.8,2c-1.1,1.3-2.8,1.9-4.9,1.9
					c-4.1,0-6.8-2.6-6.8-6.2c0-3.6,2.7-6.2,6.4-6.2c3.5,0,6.2,2.4,6.2,6.2C476.3,470.1,476.2,470.4,476.2,470.7z M467.1,468.7h5.9
					c-0.2-1.5-1.4-2.5-2.9-2.5C468.5,466.2,467.4,467.2,467.1,468.7z"/>
			</g>
		</g>
		<g>
			<g>
				<g>
					<path class="st2" d="M438.7,171.7H438v-4.3c0-5,4.1-9.1,9.1-9.1c5,0,9.1,4.1,9.1,9.1v3.5h-0.8v-3.5c0-4.6-3.7-8.3-8.3-8.3
						s-8.3,3.7-8.3,8.3V171.7z"/>
				</g>
				<g>
					<g>
						<path class="st2" d="M458.5,202h-23.1c-2.1,0-3.8-1.7-3.8-3.8v-23.1c0-2.1,1.7-3.8,3.8-3.8h23.1c2.1,0,3.8,1.7,3.8,3.8v23.1
							C462.3,200.3,460.6,202,458.5,202z M435.4,172.1c-1.7,0-3.1,1.4-3.1,3.1v23.1c0,1.7,1.4,3.1,3.1,3.1h23.1
							c1.7,0,3.1-1.4,3.1-3.1v-23.1c0-1.7-1.4-3.1-3.1-3.1L435.4,172.1L435.4,172.1z"/>
					</g>
					<g>
						<g>
							<path class="st2" d="M447,187.4c-2,0-3.6-1.6-3.6-3.6c0-2,1.6-3.6,3.6-3.6c2,0,3.6,1.6,3.6,3.6
								C450.7,185.8,449,187.4,447,187.4z M447,181c-1.6,0-2.8,1.3-2.8,2.8s1.3,2.8,2.8,2.8s2.8-1.3,2.8-2.8
								C449.9,182.2,448.6,181,447,181z"/>
						</g>
						<g>
							<rect x="446.5" y="186.9" class="st2" width="0.8" height="6.5"/>
						</g>
					</g>
				</g>
			</g>
		</g>
	</g>
</g>
<g id="Character">
	<g>
		<g>
			<g>
				<g>
					<g>
						<g>
							<polygon class="st9" points="770.4,668 741.2,600.7 707.7,622.2 743.2,683.8 761,675.8 							"/>
						</g>
					</g>
				</g>
				<g>
					<g>
						<g>
							<g>
								<g>
									<g>
										<g>
											<g>
												<g>
													<g>
														<g>
															<g>
																<g>
																	<g>
																		<g>
																			<g>
																				<path class="st5" d="M769.7,664.3l1,1.9c0,0,38.9-3.3,42.4,2.7l-64.4,32.1l-9.8-21.9
																					C750.6,678.7,760.9,674.2,769.7,664.3z"/>
																			</g>
																		</g>
																	</g>
																</g>
															</g>
														</g>
													</g>
												</g>
											</g>
										</g>
									</g>
								</g>
							</g>
							<g class="st10">
								<g>
									<g>
										<g>
											<g>
												<g>
													<g>
														<g>
															<g>
																<g>
																	<g>
																		<g>
																			<g>
																				<g>
																					<path class="st2" d="M748.7,682.6c-1.1,1-1.2,2.8-0.3,3.9s2.8,1.3,3.9,0.4c1.1-0.9,1.4-3.1,0.3-4.1
																						c-1-1-3.2-1.1-4.1,0.1"/>
																				</g>
																			</g>
																		</g>
																	</g>
																</g>
															</g>
														</g>
													</g>
												</g>
											</g>
										</g>
									</g>
								</g>
							</g>
							<g class="st10">
								<g>
									<g>
										<g>
											<g>
												<g>
													<g>
														<g>
															<g>
																<g>
																	<g>
																		<g>
																			<g>
																				<path class="st2" d="M748.6,700.9l-2.4-5.3l62.6-28.8c0,0,3.5-0.2,4.2,2L748.6,700.9z"/>
																			</g>
																		</g>
																	</g>
																</g>
															</g>
														</g>
													</g>
												</g>
											</g>
										</g>
									</g>
								</g>
							</g>
							<g>
								<g>
									<g>
										<g>
											<g>
												<g>
													<g>
														<g>
															<g>
																<g>
																	<g>
																		<g>
																			<g>
																				<g>
																					<path class="st8" d="M771,666.2c0.1,0.3-1.4,1.2-2.4,3c-1.1,1.8-1.2,3.5-1.6,3.5c-0.3,0.1-0.8-2,0.5-4.2
																						C768.8,666.5,770.9,665.9,771,666.2z"/>
																				</g>
																			</g>
																		</g>
																	</g>
																</g>
															</g>
														</g>
													</g>
												</g>
											</g>
										</g>
									</g>
								</g>
							</g>
							<g>
								<g>
									<g>
										<g>
											<g>
												<g>
													<g>
														<g>
															<g>
																<g>
																	<g>
																		<g>
																			<g>
																				<g>
																					<path class="st8" d="M779.1,665.7c0.2,0.3-0.9,1.5-1.3,3.3c-0.5,1.9,0,3.4-0.3,3.6c-0.3,0.2-1.4-1.5-0.9-3.8
																						C777.2,666.4,779,665.4,779.1,665.7z"/>
																				</g>
																			</g>
																		</g>
																	</g>
																</g>
															</g>
														</g>
													</g>
												</g>
											</g>
										</g>
									</g>
								</g>
							</g>
							<g>
								<g>
									<g>
										<g>
											<g>
												<g>
													<g>
														<g>
															<g>
																<g>
																	<g>
																		<g>
																			<g>
																				<g>
																					<path class="st8" d="M787,671.9c-0.3,0.2-1.5-1.1-1.5-3.3c-0.1-2.1,1.1-3.5,1.3-3.3c0.3,0.2-0.2,1.6-0.1,3.3
																						C786.7,670.3,787.3,671.7,787,671.9z"/>
																				</g>
																			</g>
																		</g>
																	</g>
																</g>
															</g>
														</g>
													</g>
												</g>
											</g>
										</g>
									</g>
								</g>
							</g>
						</g>
					</g>
				</g>
			</g>
			<g>
				<g>
					<g>
						<polygon class="st9" points="715.4,679.7 716.6,606.3 677.2,612.1 684.2,682.9 703.7,682.9 						"/>
					</g>
				</g>
			</g>
			<g>
				<g>
					<g>
						<g>
							<g>
								<g>
									<g>
										<g>
											<g>
												<g>
													<g>
														<g>
															<g>
																<g>
																	<g>
																		<g>
																			<path class="st5" d="M716.4,676l0.1,2.1c0,0,36.8,13,37.5,19.9l-71.9,2.7l0.1-24
																				C693,681.3,704.2,681.4,716.4,676z"/>
																		</g>
																	</g>
																</g>
															</g>
														</g>
													</g>
												</g>
											</g>
										</g>
									</g>
								</g>
							</g>
						</g>
						<g class="st10">
							<g>
								<g>
									<g>
										<g>
											<g>
												<g>
													<g>
														<g>
															<g>
																<g>
																	<g>
																		<g>
																			<g>
																				<path class="st2" d="M689.7,684.1c-1.4,0.4-2.3,2-1.9,3.4c0.4,1.4,2,2.3,3.4,1.9s2.5-2.3,2-3.6
																					c-0.5-1.3-2.5-2.3-3.7-1.6"/>
																			</g>
																		</g>
																	</g>
																</g>
															</g>
														</g>
													</g>
												</g>
											</g>
										</g>
									</g>
								</g>
							</g>
						</g>
						<g class="st10">
							<g>
								<g>
									<g>
										<g>
											<g>
												<g>
													<g>
														<g>
															<g>
																<g>
																	<g>
																		<g>
																			<path class="st2" d="M682.1,700.7l0-5.8l68.9-0.5c0,0,3.3,1.3,3,3.5L682.1,700.7z"/>
																		</g>
																	</g>
																</g>
															</g>
														</g>
													</g>
												</g>
											</g>
										</g>
									</g>
								</g>
							</g>
						</g>
						<g>
							<g>
								<g>
									<g>
										<g>
											<g>
												<g>
													<g>
														<g>
															<g>
																<g>
																	<g>
																		<g>
																			<g>
																				<path class="st8" d="M716.7,678.4c0,0.4-1.7,0.6-3.4,1.8c-1.7,1.1-2.6,2.7-2.9,2.6c-0.3-0.1,0.1-2.2,2.2-3.6
																					C714.7,677.7,716.8,678,716.7,678.4z"/>
																			</g>
																		</g>
																	</g>
																</g>
															</g>
														</g>
													</g>
												</g>
											</g>
										</g>
									</g>
								</g>
							</g>
						</g>
						<g>
							<g>
								<g>
									<g>
										<g>
											<g>
												<g>
													<g>
														<g>
															<g>
																<g>
																	<g>
																		<g>
																			<g>
																				<path class="st8" d="M724.4,681.2c0.1,0.3-1.4,1-2.5,2.5c-1.2,1.5-1.4,3.1-1.8,3.1c-0.3,0.1-0.6-2,0.8-3.9
																					C722.3,681.1,724.4,680.9,724.4,681.2z"/>
																			</g>
																		</g>
																	</g>
																</g>
															</g>
														</g>
													</g>
												</g>
											</g>
										</g>
									</g>
								</g>
							</g>
						</g>
						<g>
							<g>
								<g>
									<g>
										<g>
											<g>
												<g>
													<g>
														<g>
															<g>
																<g>
																	<g>
																		<g>
																			<g>
																				<path class="st8" d="M729,690.1c-0.3,0.1-0.9-1.6,0-3.6c0.8-2,2.4-2.8,2.6-2.5c0.2,0.3-0.8,1.4-1.5,3
																					C729.4,688.5,729.4,690,729,690.1z"/>
																			</g>
																		</g>
																	</g>
																</g>
															</g>
														</g>
													</g>
												</g>
											</g>
										</g>
									</g>
								</g>
							</g>
						</g>
					</g>
				</g>
			</g>
			<g>
				<g>
					<path class="st8" d="M687.1,380.4l-1.5-57.8l-56.3,3l-1.8,6.8c0,0-5.1,17.5-7.4,32.2c-3.8,24.2-3.3,46.3,6.2,72.1
						c9.5,25.9,24.4,75.1,24.4,75.1L706.6,666l65-21.4L687.1,380.4z"/>
				</g>
				<g>
					<g>
						<path class="st8" d="M721.1,320.7l4.9,16c7.2,4.6,18.9,27.4,19.9,36.7c1.1,9.3,3.2,41.2,1,78.6c-1.8,30.7-17,210.7-17,210.7
							l-61.5,3.2l6.4-291l2.7-52L721.1,320.7z"/>
					</g>
				</g>
				<g>
					<g>
						<g>
							<path class="st11" d="M615.8,369.9c0,0,0.7,0.3,2.1,0.6c1.4,0.3,3.4,0.7,6,0.8c5.1,0.3,12.4-0.5,19.4-4
								c7.1-3.5,12.1-8.8,15-13c1.4-2.1,2.4-4,3-5.3c0.6-1.3,0.8-2.1,0.8-2.1c-0.2-0.1-1.3,2.9-4.3,7c-2.9,4.1-7.9,9.2-14.8,12.6
								c-6.9,3.4-14,4.3-19,4.2C618.8,370.6,615.8,369.7,615.8,369.9z"/>
						</g>
					</g>
				</g>
				<g>
					<g>
						<g>
							<path class="st11" d="M718.8,339c-0.1,0,0.1,0.5,0.4,1.3c0.3,0.8,0.7,2,1.4,3.5c1.3,2.9,3.6,6.7,6.8,10.3
								c3.2,3.6,6.7,6.4,9.4,8.1c1.3,0.8,2.5,1.5,3.3,1.8c0.8,0.4,1.3,0.6,1.3,0.5c0.1-0.1-1.6-1.1-4.2-2.9
								c-2.6-1.8-5.9-4.6-9.1-8.1c-3.2-3.6-5.5-7.3-6.9-10C719.6,340.7,718.9,338.9,718.8,339z"/>
						</g>
					</g>
				</g>
				<g>
					<g>
						<path class="st11" d="M689.8,388.1c0,0,0.2,0.4,0.4,1.2c0.3,0.8,0.6,2,1.1,3.5c1,3.1,2.4,7.7,4.3,13.6
							c3.7,11.9,9,29,15.6,50.2c13.3,42.3,30.3,101.3,53,165.1c2.6,7.6,5.2,15.2,7.7,22.6l0.1,0.4l-0.4,0.1
							c-22.8,7.5-44.7,14.7-65,21.3l-0.4,0.1l-0.1-0.3c-15.2-42.2-28.2-78.2-37.4-103.6c-4.6-12.7-8.2-22.8-10.6-29.7
							c-1.2-3.4-2.2-6.1-2.8-7.9c-0.3-0.9-0.5-1.6-0.7-2c-0.2-0.5-0.2-0.7-0.2-0.7s0.1,0.2,0.3,0.7c0.2,0.5,0.4,1.1,0.8,2
							c0.7,1.8,1.6,4.4,2.9,7.9c2.5,6.9,6.2,16.9,10.8,29.6c9.2,25.4,22.3,61.4,37.6,103.5l-0.5-0.2c20.3-6.7,42.2-13.9,65-21.4
							l-0.3,0.5c-2.5-7.4-5.1-15-7.7-22.6c-22.7-63.8-39.6-122.8-52.8-165.2c-6.5-21.2-11.7-38.4-15.3-50.3
							c-1.8-5.9-3.2-10.5-4.1-13.7c-0.5-1.6-0.8-2.7-1.1-3.6C689.9,388.5,689.8,388.1,689.8,388.1z"/>
					</g>
				</g>
			</g>
		</g>
		<g>
			<g>
				<g>
					<path class="st11" d="M745.1,220.3c0,0-2.9-16.5-11.4-24.3c-8.4-7.9-43.6-16.8-43.6-16.8s0.4,12.2-7.4,15.5
						c-8.3,3.5-16.7,2.3-23.3-4.6c-6.4-6.7-8-15.3-8-15.3s-41.7,6.1-47.6,17.4c-5.9,11.3-12.1,54.1-12.1,54.1l37.7,6l-1.2,73.3
						l99.2-5.2l-5.5-68.5l27.2,2.4L745.1,220.3z"/>
				</g>
			</g>
			<g>
				<g>
					<g>
						<path class="st8" d="M637,254.3c0.1,0,0.1-0.6,0-1.7c0-1.1-0.1-2.6-0.2-4.5c-0.2-3.8-0.5-9-1-14.8c-0.4-5.8-0.9-11-1.2-14.8
							c-0.2-1.9-0.3-3.4-0.5-4.5c-0.1-1.1-0.2-1.6-0.3-1.6c-0.1,0-0.1,0.6,0,1.7s0.1,2.6,0.2,4.5c0.2,3.8,0.5,9,1,14.8
							c0.4,5.8,0.9,11,1.2,14.8c0.2,1.9,0.3,3.4,0.5,4.5C636.9,253.7,637,254.3,637,254.3z"/>
					</g>
				</g>
			</g>
			<g>
				<g>
					<g>
						<path class="st8" d="M729.4,219.2c-0.2-0.1-2.2,7.5-4.3,16.8c-2.2,9.3-3.7,17-3.5,17s2.2-7.5,4.3-16.8
							C728.1,226.9,729.7,219.3,729.4,219.2z"/>
					</g>
				</g>
			</g>
			<g>
				<g>
					<g>
						<path class="st8" d="M607.9,189.3c0,0.2,1.8,0.4,4.6,1.3c2.8,0.9,6.5,2.6,10,5.3c3.5,2.7,6,5.9,7.6,8.4
							c1.5,2.5,2.2,4.2,2.4,4.1c0.1,0-0.1-0.5-0.3-1.2c-0.3-0.8-0.8-1.9-1.5-3.2c-1.4-2.6-4-6-7.6-8.8c-3.6-2.8-7.5-4.5-10.4-5.2
							c-1.4-0.4-2.6-0.6-3.5-0.7C608.4,189.3,607.9,189.2,607.9,189.3z"/>
					</g>
				</g>
			</g>
			<g>
				<g>
					<g>
						<path class="st8" d="M734.5,199.3c-0.2,0-0.9,2.3-1.5,5.2c-0.6,2.9-0.9,5.4-0.6,5.4c0.2,0,0.9-2.3,1.5-5.2
							C734.5,201.8,734.8,199.3,734.5,199.3z"/>
					</g>
				</g>
			</g>
			<g>
				<path class="st9" d="M598.5,247.4c0,0,14.2,56.2,15.7,61c1.5,4.8,4.3,17.8,18,19.8c18.5,2.7,90.1-3.6,90.1-3.6L707.8,308
					l-63.7-14.3l-10.8-40.9L598.5,247.4z"/>
			</g>
			<g>
				<g>
					<g>
						<path class="st12" d="M708.5,298.4c-0.1,0-0.2,0.5-0.5,1.3c-0.2,0.9-0.5,2.2-0.5,3.8c-0.2,3.2,0.5,7.9,3.2,12.2
							c1.3,2.1,2.8,4,4.4,5.5c1.6,1.5,3.4,2.4,5,2.9c1.6,0.5,2.9,0.6,3.8,0.7c0.9,0,1.4-0.1,1.4-0.1c0-0.2-2.1,0-5-1.1
							c-1.5-0.6-3.1-1.5-4.6-3c-1.5-1.4-2.9-3.3-4.2-5.3c-2.6-4.1-3.3-8.6-3.3-11.8C708.1,300.4,708.7,298.4,708.5,298.4z"/>
					</g>
				</g>
			</g>
			<g>
				<g>
					<path class="st5" d="M636.6,240.6c0,0.1-0.6,0-1.7-0.2c-1.3-0.2-2.8-0.4-4.6-0.7c-3.9-0.6-9.2-1.2-15.2-2
						c-5.9-0.8-11.3-1.7-15.1-2.6c-1.9-0.5-3.4-0.9-4.5-1.2c-1-0.3-1.6-0.5-1.6-0.6c0-0.1,2.4,0.5,6.2,1.2c3.8,0.8,9.2,1.6,15.1,2.4
						c5.9,0.8,11.3,1.5,15.1,2.2c1.9,0.4,3.5,0.7,4.5,0.9C636,240.4,636.6,240.5,636.6,240.6z"/>
				</g>
			</g>
			<g>
				<g>
					<path class="st5" d="M633.7,221.9c0,0.1-0.5,0.1-1.5,0.1c-0.9,0-2.3,0-4-0.1c-3.4-0.2-8-0.5-13.1-1.2c-5.1-0.6-9.7-1.4-13-2.1
						c-1.7-0.3-3-0.6-3.9-0.9c-0.9-0.2-1.4-0.4-1.4-0.4c0-0.1,2.1,0.2,5.4,0.7c3.3,0.5,7.9,1.2,13,1.8c5.1,0.6,9.7,1.1,13,1.4
						C631.6,221.6,633.7,221.8,633.7,221.9z"/>
				</g>
			</g>
			<g>
				<g>
					<path class="st5" d="M630.5,207.7c0,0.1-1.7,0.1-4.4,0c-2.7-0.2-6.5-0.6-10.6-1.4c-4.1-0.8-7.7-1.7-10.3-2.6
						c-2.6-0.8-4.2-1.5-4.1-1.6c0-0.1,1.7,0.3,4.3,1c2.6,0.7,6.3,1.6,10.3,2.3c4.1,0.8,7.8,1.3,10.5,1.6
						C628.8,207.4,630.5,207.5,630.5,207.7z"/>
				</g>
			</g>
			<g>
				<g>
					<path class="st5" d="M657,187.4c0,0.1-1.9,0.7-5,1.5c-3.1,0.8-7.4,1.8-12.2,2.8c-4.8,1-9.2,1.7-12.3,2.2
						c-3.2,0.5-5.1,0.7-5.2,0.5c0-0.1,1.9-0.5,5.1-1.1c3.4-0.7,7.6-1.5,12.3-2.4c4.7-1,8.9-1.8,12.2-2.5
						C655,187.6,656.9,187.2,657,187.4z"/>
				</g>
			</g>
			<g>
				<g>
					<path class="st5" d="M733.8,204.1c0,0.1-0.7-0.2-1.8-0.6c-1.3-0.5-2.9-1.2-4.7-1.9c-4-1.7-9.5-3.9-15.6-6.3
						c-6.1-2.4-11.7-4.5-15.8-5.9c-1.9-0.7-3.5-1.3-4.8-1.8c-1.1-0.4-1.7-0.7-1.7-0.7c0-0.1,0.7,0.1,1.8,0.4
						c1.2,0.3,2.8,0.9,4.9,1.5c4.1,1.3,9.7,3.3,15.9,5.7c6.1,2.4,11.6,4.8,15.6,6.5c2,0.9,3.5,1.6,4.6,2.2
						C733.2,203.7,733.8,204,733.8,204.1z"/>
				</g>
			</g>
			<g>
				<g>
					<path class="st5" d="M729.4,218.5c0,0-0.3,0-1-0.1c-0.7-0.1-1.6-0.3-2.7-0.4c-2.5-0.4-5.9-1-10.1-1.8
						c-8.5-1.5-20.2-3.5-33.3-5.1c-6.5-0.8-12.8-1.3-18.5-1.6c-5.7-0.3-10.8-0.4-15.1-0.3c-2.2,0-4.1,0.1-5.8,0.1
						c-1.7,0-3.2,0.1-4.4,0.2c-1.1,0.1-2.1,0.1-2.8,0.1c-0.6,0-1,0-1,0c0,0,0.3-0.1,1-0.2c0.7-0.1,1.6-0.2,2.8-0.3
						c1.2-0.1,2.7-0.3,4.4-0.3c1.7-0.1,3.7-0.2,5.8-0.3c4.3-0.1,9.5-0.1,15.2,0.2c5.7,0.3,12,0.8,18.5,1.6
						c13.1,1.6,24.8,3.7,33.3,5.4c4.2,0.8,7.7,1.5,10,2c1.1,0.2,2,0.4,2.7,0.6C729.1,218.4,729.4,218.5,729.4,218.5z"/>
				</g>
			</g>
			<g>
				<g>
					<path class="st5" d="M689.4,243.8c0,0.1-0.8,0-2.1,0c-1.4-0.1-3.3-0.3-5.8-0.5c-4.9-0.5-11.6-1.4-18.9-2.7
						c-7.4-1.3-13.9-2.9-18.7-4.1c-2.4-0.6-4.3-1.2-5.6-1.6c-1.3-0.4-2-0.6-2-0.7c0-0.1,0.8,0.1,2.1,0.4c1.5,0.3,3.4,0.8,5.6,1.3
						c4.8,1.1,11.4,2.5,18.7,3.9c7.3,1.3,14,2.3,18.9,3c2.3,0.3,4.2,0.6,5.7,0.8C688.7,243.6,689.4,243.8,689.4,243.8z"/>
				</g>
			</g>
			<g>
				<g>
					<path class="st5" d="M723.1,244.4c0,0.2-7,0.5-15.7,0.6c-8.7,0.1-15.7,0-15.7-0.3c0-0.2,7-0.5,15.7-0.6
						C716,244,723.1,244.1,723.1,244.4z"/>
				</g>
			</g>
			<g>
				<g>
					<path class="st5" d="M678.9,266.6c0,0.1-0.6,0-1.7-0.1c-1.1-0.1-2.7-0.3-4.6-0.6c-3.9-0.6-9.3-1.5-15.1-2.9
						c-5.9-1.4-11.1-2.9-14.8-4.1c-1.9-0.6-3.4-1.1-4.4-1.5c-1-0.4-1.6-0.6-1.6-0.7c0-0.1,0.6,0.1,1.7,0.4c1.2,0.4,2.7,0.8,4.5,1.3
						c3.8,1.1,9,2.5,14.8,3.9c5.8,1.4,11.2,2.4,15,3.1c1.8,0.3,3.3,0.6,4.6,0.8C678.3,266.4,678.9,266.5,678.9,266.6z"/>
				</g>
			</g>
			<g>
				<g>
					<path class="st5" d="M715.3,268.2c0,0.1-1.9,0.2-5,0.1c-3.1-0.1-7.3-0.4-12-1c-4.7-0.6-8.8-1.4-11.8-2.1
						c-3-0.7-4.8-1.2-4.8-1.3c0-0.1,1.9,0.2,4.9,0.8c3,0.5,7.2,1.2,11.8,1.8c4.6,0.6,8.9,1,11.9,1.3
						C713.4,267.9,715.3,268.1,715.3,268.2z"/>
				</g>
			</g>
			<g>
				<g>
					<path class="st5" d="M707.7,288.4c0,0-0.2,0.1-0.6,0.3c-0.4,0.1-1,0.3-1.9,0.6c-1.6,0.5-4,1-7,1.4c-5.9,0.9-14.3,1.2-23.4,0.2
						c-9.1-1-17.2-2.9-23-4.3c-2.9-0.7-5.3-1.3-6.9-1.8c-1.6-0.4-2.5-0.7-2.5-0.8c0-0.1,0.9,0.1,2.6,0.5c1.8,0.4,4.1,0.9,6.9,1.5
						c5.8,1.3,13.9,3,23,4.1c9.1,1,17.3,0.8,23.3,0c3-0.4,5.3-0.8,7-1.2C706.8,288.6,707.7,288.3,707.7,288.4z"/>
				</g>
			</g>
			<g>
				<g>
					<path class="st5" d="M743.5,230.3c0,0.2-3.5,0.4-7.8,0.6c-4.3,0.2-7.9,0-7.9-0.2c0-0.2,3.5-0.4,7.8-0.6
						C739.9,229.9,743.5,230.1,743.5,230.3z"/>
				</g>
			</g>
			<g>
				<g>
					<path class="st5" d="M741.4,211.5c0,0.2-1.9,0.3-4.3,0.1c-2.4-0.2-4.3-0.5-4.3-0.7c0-0.2,1.9-0.3,4.3-0.1
						C739.5,210.9,741.4,211.3,741.4,211.5z"/>
				</g>
			</g>
			<g>
				<g>
					<path class="st8" d="M675.9,267.9c-0.1-0.1,1.6-1,3.9-2.9c1.2-0.9,2.4-2.2,3.7-3.8c1.2-1.6,2.4-3.4,3.4-5.4
						c1-2.1,1.7-4.1,2.1-6.1c0.4-1.9,0.6-3.7,0.6-5.2c0.1-3-0.3-4.9-0.2-4.9c0.1,0,0.2,0.4,0.4,1.3c0.1,0.4,0.2,0.9,0.2,1.5
						c0.1,0.6,0.2,1.3,0.1,2.1c0.1,1.5-0.1,3.4-0.5,5.4c-0.4,2-1.1,4.1-2.1,6.3c-1,2.1-2.3,4-3.6,5.6c-1.3,1.5-2.7,2.8-3.9,3.7
						c-0.6,0.5-1.2,0.8-1.7,1.2c-0.5,0.3-1,0.6-1.4,0.8C676.3,267.8,675.9,268,675.9,267.9z"/>
				</g>
			</g>
			<g class="st6">
				<g>
					<path d="M689.1,252.9l-6,8.9c-4,5.1-9.8,8.7-16.1,10c5.5,1.9,12.1,0.7,16.5-3.1C688,264.9,690.2,258.6,689.1,252.9z"/>
				</g>
			</g>
		</g>
		<g>
			<g>
				<path class="st8" d="M707,159.6c5.7,0.5,11.6-0.7,16.6-3.4c-7.5-4.6-12.2-12.8-14.5-21.3c-2.3-8.5-5.2-23-5.3-31.8L690,164.1
					c7.2,1.6,14.9,1.1,21.8-1.7C709.8,162.4,708,161.3,707,159.6z"/>
			</g>
			<g>
				<path class="st8" d="M667.8,166.9c-3-6.8-4.1-14.4-3.3-21.8l-27.6-10.5c-1.3,7.5-4.3,14.7-8.8,20.8c-1.7,2.3-3.7,4.9-2.9,7.7
					c0.5,1.9,2.4,3.2,4.3,3.7c1.9,0.5,3.9,0.3,5.9,0.1c-1.2,1.3-2.4,2.6-3.5,3.8C643.7,168.4,655.7,167.2,667.8,166.9z"/>
			</g>
			<g>
				<path class="st8" d="M670.2,75.9c-8.7-0.9-16.1,2.9-23,8.2c-7,5.3-11.9,13-14.6,21.4c-2.8,8.8-2.9,18.5,0.2,27.2
					c3.1,8.7,9.7,16.2,18.2,19.8c11.6,5,25.8,2,35.3-6.2c9.5-8.2,14.4-21.2,14.1-33.8c-0.2-8.7-2.9-17.4-8.2-24.3
					C686.9,81.5,678.8,76.6,670.2,75.9"/>
			</g>
			<g>
				<g>
					<g>
						<path class="st8" d="M647.6,106.9c1-3.4,0.3-7,0.6-10.6c0.6-7.8,6.4-14.3,13.4-17.8c6.5-3.2,14.7-3.2,22.9-1.1
							c5.6,1.4,11,4.2,15,8.4c5.3,5.6,7.5,13.9,5.9,21.4l-39.8-3.2c-3.5,3.3-7.1,6.6-11.4,8.6c-1.3,0.6-2.7,1.1-4.1,0.9
							c-1.4-0.1-2.8-1-3.2-2.3C646.3,109.8,647.1,108.3,647.6,106.9z"/>
					</g>
				</g>
				<g>
					<g>
						<path class="st9" d="M686,88.2l-33.9,9.5c-3.3,0.4-5.7,3.3-5.6,6.7l5.3,74.4c0.4,5.1,2.4,9.9,5.8,13.7l3.6,4
							c8.1,9.2,23.2,7.2,28.2-4c0.3-0.8,0.6-1.5,0.7-2c0.1-0.7,0.2-1.1,0.2-1.7c0.6-5.8-0.1-11.3-0.1-11.3c-0.1-6.6-0.2-9.4-0.2-9.3
							c0,0,14-2.7,16.4-21.1c1.2-9.1,0.3-24-0.7-36.2C704.5,100,696.9,86.8,686,88.2z"/>
					</g>
				</g>
				<g>
					<g>
						<g>
							<g>
								<g>
									<g>
										<g>
											<g>
												<g>
													<g>
														<g>
															<g>
																<g>
																	<g>
																		<g>
																			<g>
																				<g>
																					<g>
																						<path class="st8" d="M698.9,122.7c0.1,1.2-0.9,2.3-2.2,2.4c-1.3,0.1-2.4-0.8-2.5-2.1
																							c-0.1-1.2,0.9-2.3,2.2-2.4C697.8,120.5,698.9,121.5,698.9,122.7z"/>
																					</g>
																				</g>
																			</g>
																		</g>
																	</g>
																</g>
															</g>
														</g>
													</g>
												</g>
											</g>
										</g>
									</g>
								</g>
							</g>
							<g>
								<g>
									<g>
										<g>
											<g>
												<g>
													<g>
														<g>
															<g>
																<g>
																	<g>
																		<g>
																			<g>
																				<g>
																					<g>
																						<g>
																							<path class="st8" d="M702.4,118.8c-0.3,0.3-2.1-1-4.6-0.9c-2.5,0-4.3,1.4-4.6,1.1c-0.1-0.1,0.1-0.7,0.9-1.3
																								c0.8-0.6,2.1-1.2,3.7-1.2c1.6,0,2.9,0.5,3.7,1.1C702.3,118.1,702.6,118.7,702.4,118.8z"/>
																						</g>
																					</g>
																				</g>
																			</g>
																		</g>
																	</g>
																</g>
															</g>
														</g>
													</g>
												</g>
											</g>
										</g>
									</g>
								</g>
							</g>
						</g>
						<g>
							<g>
								<g>
									<g>
										<g>
											<g>
												<g>
													<g>
														<g>
															<g>
																<g>
																	<g>
																		<g>
																			<g>
																				<g>
																					<g>
																						<path class="st8" d="M675.1,124c0.1,1.2-0.9,2.3-2.2,2.4c-1.3,0.1-2.4-0.8-2.5-2.1c-0.1-1.2,0.9-2.3,2.2-2.4
																							C673.9,121.8,675,122.7,675.1,124z"/>
																					</g>
																				</g>
																			</g>
																		</g>
																	</g>
																</g>
															</g>
														</g>
													</g>
												</g>
											</g>
										</g>
									</g>
								</g>
							</g>
							<g>
								<g>
									<g>
										<g>
											<g>
												<g>
													<g>
														<g>
															<g>
																<g>
																	<g>
																		<g>
																			<g>
																				<g>
																					<g>
																						<g>
																							<path class="st8" d="M677.7,120c-0.3,0.3-2.1-1-4.6-0.9c-2.5,0-4.3,1.4-4.6,1.1c-0.1-0.1,0.1-0.7,0.9-1.3
																								c0.8-0.6,2.1-1.2,3.7-1.2c1.6,0,2.9,0.5,3.7,1.1C677.5,119.3,677.8,119.8,677.7,120z"/>
																						</g>
																					</g>
																				</g>
																			</g>
																		</g>
																	</g>
																</g>
															</g>
														</g>
													</g>
												</g>
											</g>
										</g>
									</g>
								</g>
							</g>
						</g>
						<g>
							<g>
								<g>
									<g>
										<g>
											<g>
												<g>
													<g>
														<g>
															<g>
																<g>
																	<g>
																		<g>
																			<g>
																				<g>
																					<g>
																						<path class="st8" d="M687.3,138.4c0-0.1,1.5-0.5,4.1-0.8c0.6-0.1,1.2-0.2,1.3-0.7c0.1-0.5-0.1-1.2-0.5-1.9
																							c-0.6-1.5-1.3-3.2-2-4.9c-2.8-6.9-4.9-12.6-4.6-12.7s2.8,5.4,5.6,12.3c0.7,1.7,1.3,3.3,2,4.9
																							c0.3,0.7,0.7,1.5,0.4,2.5c-0.2,0.5-0.6,0.8-1,1c-0.4,0.1-0.8,0.2-1.1,0.2
																							C688.9,138.5,687.3,138.6,687.3,138.4z"/>
																					</g>
																				</g>
																			</g>
																		</g>
																	</g>
																</g>
															</g>
														</g>
													</g>
												</g>
											</g>
										</g>
									</g>
								</g>
							</g>
						</g>
						<g>
							<g>
								<g>
									<g>
										<g>
											<g>
												<g>
													<g>
														<g>
															<g>
																<g>
																	<g>
																		<g>
																			<g>
																				<g>
																					<path class="st12" d="M689.8,168.3c0,0-12.3,1.1-24.7-5.9c0,0,6.5,12.5,24.8,10.3L689.8,168.3z"/>
																				</g>
																			</g>
																		</g>
																	</g>
																</g>
															</g>
														</g>
													</g>
												</g>
											</g>
										</g>
									</g>
								</g>
							</g>
						</g>
						<g>
							<g>
								<g>
									<g>
										<g>
											<g>
												<g>
													<g>
														<g>
															<g>
																<g>
																	<g>
																		<g>
																			<g>
																				<g>
																					<path class="st12" d="M686.4,144.5c-0.9-1.2-2.5-1.8-4.1-1.6c-1.1,0.1-2.2,0.7-2.8,1.6c-0.6,0.9-0.7,2.2-0.1,3
																						c0.7,0.9,2.1,1.1,3.3,0.7c1.2-0.4,2.2-1.2,3.2-2c0.3-0.2,0.5-0.5,0.7-0.8c0.2-0.3,0.2-0.7,0-0.9"/>
																				</g>
																			</g>
																		</g>
																	</g>
																</g>
															</g>
														</g>
													</g>
												</g>
											</g>
										</g>
									</g>
								</g>
							</g>
						</g>
						<g>
							<g>
								<g>
									<g>
										<g>
											<g>
												<g>
													<g>
														<g>
															<g>
																<g>
																	<g>
																		<g>
																			<g>
																				<g>
																					<g>
																						<path class="st8" d="M679.9,140.4c0.4,0,0.5,2.7,2.9,4.6c2.4,1.9,5.3,1.5,5.3,1.9c0,0.2-0.6,0.5-1.9,0.6
																							c-1.2,0.1-3-0.3-4.4-1.4c-1.5-1.2-2.1-2.7-2.2-3.9C679.5,141.1,679.7,140.4,679.9,140.4z"/>
																					</g>
																				</g>
																			</g>
																		</g>
																	</g>
																</g>
															</g>
														</g>
													</g>
												</g>
											</g>
										</g>
									</g>
								</g>
							</g>
						</g>
					</g>
				</g>
				<g>
					<g>
						<g>
							<g>
								<g>
									<g>
										<g>
											<g>
												<g>
													<g>
														<g>
															<g>
																<g>
																	<g>
																		<path class="st8" d="M677.9,112.3c-0.2,0.7-2.8,0.4-5.7,0.9c-3,0.4-5.3,1.3-5.7,0.7c-0.2-0.3,0.2-0.9,1.2-1.6
																			c0.9-0.7,2.4-1.4,4.2-1.6c1.8-0.2,3.4,0,4.5,0.4C677.4,111.5,678,112,677.9,112.3z"/>
																	</g>
																</g>
															</g>
														</g>
													</g>
												</g>
											</g>
										</g>
									</g>
								</g>
							</g>
						</g>
					</g>
				</g>
				<g>
					<g>
						<g>
							<g>
								<g>
									<g>
										<g>
											<g>
												<g>
													<g>
														<g>
															<g>
																<g>
																	<g>
																		<path class="st8" d="M701.4,107.8c-0.4,0.6-2.2,0-4.3,0.1c-2.1,0-3.9,0.5-4.3-0.1c-0.2-0.3,0.1-0.9,0.8-1.4
																			c0.7-0.6,2-1,3.4-1c1.4,0,2.7,0.5,3.4,1.1C701.4,106.9,701.6,107.5,701.4,107.8z"/>
																	</g>
																</g>
															</g>
														</g>
													</g>
												</g>
											</g>
										</g>
									</g>
								</g>
							</g>
						</g>
					</g>
				</g>
				<g>
					<g>
						<path class="st8" d="M640.9,102c2.9-10.7,17.5-26,28.6-25.7l18.1,9.8c-0.8,6.1-5.2,11.5-11,13.5c-3.1,1.1-6.8,1.5-8.6,4.3
							c-1.8,2.8-0.5,6.8-2.1,9.7c-2.3,4-8.9,4.1-10.6,8.5c-0.7,1.9-0.2,4.1-0.9,6c-1,2.5-7,5.9-9.6,5.2c-2.6-0.7-2.8-5.1-3.7-7.3
							c-1.6-3.8-1.1-5.9-0.7-8.1C641.2,112.5,639.5,107.1,640.9,102z"/>
					</g>
				</g>
				<g>
					<g>
						<g>
							<g>
								<g>
									<path class="st9" d="M652.5,134.9c0-1.4-1.7-4.5-3.1-4.7c-3.6-0.5-10.1,0-9.9,9.1c0.2,12.5,12.7,9.6,12.7,9.3
										C652.3,148.3,652.6,139.6,652.5,134.9z"/>
								</g>
							</g>
						</g>
					</g>
				</g>
				<g>
					<g>
						<g>
							<g>
								<g>
									<g>
										<path class="st12" d="M648.4,144c-0.1,0-0.2,0.2-0.6,0.3c-0.4,0.2-1,0.3-1.6,0.1c-1.3-0.5-2.5-2.5-2.6-4.8
											c-0.1-1.1,0.2-2.2,0.5-3.1c0.4-0.9,0.9-1.6,1.6-1.7c0.7-0.2,1.1,0.2,1.3,0.6c0.2,0.3,0.1,0.6,0.2,0.6c0,0,0.3-0.2,0.2-0.7
											c-0.1-0.2-0.2-0.5-0.5-0.8c-0.3-0.2-0.7-0.4-1.2-0.3c-1,0.1-1.8,1-2.2,2c-0.5,1-0.7,2.2-0.7,3.5c0.1,2.5,1.5,4.8,3.3,5.3
											c0.9,0.2,1.6-0.1,2-0.4C648.3,144.3,648.4,144,648.4,144z"/>
									</g>
								</g>
							</g>
						</g>
					</g>
				</g>
			</g>
			<g>
				<path class="st8" d="M638,98.9L638,98.9c-0.2-3.9-5.2-6.1-9.1-6.8c-3.8-0.6-7.8,0.8-11.1,2.9c-1.9,1.2-3.8,2.9-4.1,5.2
					c-0.3,2.3,2,4.8,4.1,3.8c-4,1.7-5.7,7.3-3.3,10.9c2.4,3.6,8.2,4.3,11.3,1.3c-0.8,3.6-2.9,7-5.9,9.2c6.5,0.5,13.1-2.7,16.7-8
					C640.3,112.1,640.9,104.7,638,98.9z"/>
			</g>
			<g>
				<g>
					<path class="st8" d="M616.3,152.3c0.1-0.6,1.6-0.9,3.8-1.5c2.2-0.6,5.2-1.8,7.8-3.9c2.7-2.1,4.5-4.6,5.7-6.6
						c1.2-2,1.8-3.4,2.4-3.4c0.5,0.1,0.9,1.8,0.3,4.4c-0.6,2.6-2.4,6.2-5.8,8.8c-3.4,2.6-7.3,3.6-10,3.5
						C617.8,153.7,616.3,152.9,616.3,152.3z"/>
				</g>
			</g>
			<g>
				<g>
					<path class="st5" d="M630.7,119.2c-0.1,0-0.5-1.4-0.7-3.7c-0.2-2.3-0.1-5.6,0.8-9.1c0.9-3.5,2.4-6.4,3.8-8.3
						c1.3-1.9,2.4-2.9,2.5-2.9c0.2,0.1-3.7,4.5-5.4,11.4C629.8,113.5,631,119.2,630.7,119.2z"/>
				</g>
			</g>
			<g>
				<path class="st8" d="M683.8,82.5c1.5,5,9.6,11,13.2,14.7c6.9,7.1,8.4,9.5,9.4,26.3c2.7-6,4.6-11.8,4-18.4
					c-0.7-6.5-3.5-12.9-8.4-17.4C697.1,83.4,690.2,81.1,683.8,82.5"/>
			</g>
		</g>
		<g>
			<g>
				<g>
					<g>
						<path class="st9" d="M765.1,228c0,0-8.3,34.6-11.8,49.5c-3.6,15.9-11.5,51.9-32.6,46.7c-16.1-4-12.5-24.7-12.5-24.7l13.7-47.6
							l12.7,1.4l11.7-28.7l12.6-13.2L765.1,228z"/>
					</g>
				</g>
				<g>
					<g>
						<g>
							<path class="st12" d="M713.8,300.7c0.2,0-1.3-2.9-0.4-7.7c0.4-2.4,1.4-5.1,3-7.8c1.6-2.8,3.8-5.5,6.1-8.4
								c2.4-2.9,4.5-5.7,6.2-8.5c1.7-2.8,2.9-5.5,3.7-7.7c0.9-2.3,1.4-4.2,1.7-5.5c0.3-1.3,0.4-2.1,0.4-2.1c-0.1,0-0.3,0.7-0.7,2
								c-0.4,1.3-1,3.2-2,5.4c-0.9,2.2-2.2,4.8-3.9,7.6c-1.6,2.7-3.8,5.5-6.1,8.4c-2.3,2.9-4.6,5.7-6.2,8.5
								c-1.6,2.8-2.5,5.7-2.9,8.1c-0.4,2.5-0.1,4.5,0.2,5.8c0.2,0.7,0.4,1.2,0.5,1.5C713.7,300.5,713.8,300.7,713.8,300.7z"/>
						</g>
					</g>
				</g>
			</g>
			<g>
				<g>
					<path class="st9" d="M745.3,227.3c0-0.6,0.3-10.7,0.5-13.3c0.1-1.2,0.5-3.2,1.4-4.8c1.2-2.4,4.3-2.9,6.3-1.1l0.2,0.2
						c0,0,2-4.1,5-6c2.9-1.9,5.4-3.2,7.9-1.7c2.5,1.5,2.4,3.7,2.4,3.7s3.8-0.5,5.4,1c1.6,1.5,0,6.1,0,6.1s3.4-1,4.2,1.4
						c0.8,2.4-0.7,5-0.7,5s2.6,0.8,2.9,2.7c0.3,1.9-2.6,4.1-2.6,4.1l-9.2,7.3c-1.3,4.1-3.8,7.1-7.1,9.4
						C755.6,243.6,745.3,227.3,745.3,227.3z"/>
				</g>
				<g>
					<g>
						<path class="st12" d="M752.3,216.4c0.1,0,0.1,0.4-0.2,0.9c-0.3,0.5-0.8,1-1.6,1.4c-0.8,0.3-1.6,0.3-2.1,0.1
							c-0.5-0.2-0.8-0.4-0.7-0.5c0.1-0.2,1.3,0.2,2.5-0.3C751.4,217.3,752.1,216.3,752.3,216.4z"/>
					</g>
				</g>
				<g>
					<g>
						<path class="st12" d="M759.5,207.4c-0.1,0.2-1-0.4-1.2-1.6c-0.2-1.2,0.5-2,0.7-1.9c0.2,0.1,0,0.9,0.1,1.8
							C759.3,206.5,759.7,207.2,759.5,207.4z"/>
					</g>
				</g>
				<g>
					<g>
						<path class="st12" d="M774.9,211.3c0.1,0.1-0.7,0.9-2,2.1c-1.4,1.2-3.4,2.7-5.7,4.2c-1.1,0.8-2.3,1.5-3.6,1.7
							c-1.3,0.2-2.6-0.3-3.2-1.2c-0.6-0.9-0.5-1.8-0.2-2.3c0.3-0.5,0.6-0.6,0.6-0.6c0,0-0.2,0.2-0.3,0.7c-0.1,0.4-0.1,1.2,0.4,1.8
							c0.5,0.6,1.5,0.9,2.6,0.8c1.1-0.2,2.2-0.9,3.3-1.6c2.3-1.5,4.4-2.9,5.8-4C773.9,211.9,774.8,211.2,774.9,211.3z"/>
					</g>
				</g>
				<g>
					<g>
						<path class="st12" d="M777.8,217.7c0.1,0.2-3.8,2.2-8.7,4.4c-1.2,0.6-2.5,1.1-3.8,1.1c-1.3,0-2.5-0.7-2.8-1.7
							c-0.2-0.5-0.2-1,0-1.4c0.2-0.4,0.4-0.6,0.7-0.8c0.5-0.3,0.8-0.1,0.8-0.1c0,0.1-0.3,0.1-0.6,0.4c-0.3,0.3-0.7,0.9-0.3,1.6
							c0.3,0.7,1.2,1.2,2.3,1.2c1.1,0,2.2-0.5,3.4-1.1C773.7,219.2,777.7,217.5,777.8,217.7z"/>
					</g>
				</g>
				<g>
					<g>
						<path class="st12" d="M773.4,226c0,0.1-0.5,0.5-1.5,0.7c-0.5,0.1-1.1,0.2-1.8,0.2c-0.7-0.1-1.4,0-2.3-0.5
							c-0.4-0.2-0.7-0.8-0.7-1.3c0.1-0.5,0.3-0.8,0.5-1.1c0.4-0.6,0.9-1,1.3-1.3c0.8-0.6,1.5-0.8,1.5-0.7c0.1,0.1-0.4,0.5-1.1,1.2
							c-0.3,0.3-0.7,0.8-1.1,1.3c-0.4,0.5-0.5,1,0,1.3c0.5,0.3,1.3,0.4,1.9,0.5c0.6,0.1,1.2,0,1.7,0
							C772.7,226,773.3,225.9,773.4,226z"/>
					</g>
				</g>
				<g>
					<g>
						<g>
							<g>
								<g>
									<path class="st8" d="M764.7,227.5c0.2-4.1-3.1-7.6-7.2-7.8c-4.1-0.2-7.6,3.1-7.8,7.2c-0.1,3.5,2.2,6.6,5.5,7.5l-0.1,2.1
										l2,1.5l-2.1,1.2l-0.1,2.6l2,1.5l-2.1,1.2l-0.1,2.2l1.2,0.9l-1.3,0.7l0,1.3l1.6,1.8l3.1-1.8l0.6-15.5
										C762.5,233.2,764.5,230.6,764.7,227.5z M757.4,221.8c1.2,0,2.1,1,2.1,2.2c0,1.2-1,2.1-2.2,2.1c-1.2,0-2.1-1-2.1-2.2
										C755.2,222.6,756.2,221.7,757.4,221.8z"/>
								</g>
							</g>
							<g>
								<g>
									<g>
										<path class="st13" d="M764.7,227.5c0.2-4.1-3.1-7.6-7.2-7.8c-4.1-0.2-7.6,3.1-7.8,7.2c-0.1,3.5,2.2,6.6,5.5,7.5l-0.1,2.1
											l2,1.5l-2.1,1.2l-0.1,2.6l2,1.5l-2.1,1.2l-0.1,2.2l1.2,0.9l-1.3,0.7l0,1.3l1.6,1.8l3.1-1.8l0.6-15.5
											C762.5,233.2,764.5,230.6,764.7,227.5z M757.4,221.8c1.2,0,2.1,1,2.1,2.2c0,1.2-1,2.1-2.2,2.1c-1.2,0-2.1-1-2.1-2.2
											C755.2,222.6,756.2,221.7,757.4,221.8z"/>
									</g>
								</g>
								<g>
									<g>
										<g>
											<path class="st8" d="M757.4,221.8c0,0-0.2,0-0.5,0.1c-0.3,0.1-0.8,0.3-1.2,0.7c-0.4,0.5-0.6,1.2-0.4,2
												c0.2,0.7,1,1.4,1.9,1.4c0.9,0,1.7-0.6,2-1.3c0.3-0.7,0.1-1.5-0.2-2c-0.3-0.5-0.8-0.7-1.1-0.8
												C757.6,221.8,757.4,221.8,757.4,221.8c0,0,0,0,0.1,0c0.1,0,0.2,0,0.4,0.1c0.3,0.1,0.8,0.3,1.2,0.8
												c0.4,0.5,0.6,1.3,0.3,2.1c-0.2,0.4-0.4,0.8-0.8,1c-0.4,0.3-0.9,0.4-1.3,0.4c-0.5,0-1-0.2-1.3-0.5
												c-0.4-0.3-0.6-0.7-0.7-1.1c-0.3-0.8,0-1.6,0.4-2.1c0.4-0.5,0.9-0.7,1.3-0.7c0.2,0,0.3,0,0.4,0
												C757.3,221.7,757.4,221.8,757.4,221.8z"/>
										</g>
									</g>
								</g>
								<g>
									<g>
										<g>
											<path class="st8" d="M764.7,227.5c0,0,0,0.1,0,0.2c0,0.1,0,0.3,0,0.4c-0.1,0.4-0.1,1-0.4,1.7c-0.3,0.7-0.7,1.6-1.4,2.4
												c-0.7,0.8-1.7,1.6-3,2.1l0-0.1c-0.1,4-0.3,9.3-0.6,15.5l0,0l0,0c-1,0.6-2,1.2-3.1,1.8l-0.1,0l0-0.1
												c-0.5-0.5-1-1.2-1.6-1.8l0,0l0,0c0-0.4,0-0.9,0-1.3l0-0.1l0,0c0.4-0.2,0.9-0.5,1.3-0.7l0,0.2c-0.4-0.3-0.8-0.6-1.2-0.9
												l0,0l0,0c0-0.7,0.1-1.5,0.1-2.2l0-0.1l0,0c0.7-0.4,1.4-0.8,2.1-1.2l0,0.2c-0.6-0.5-1.3-1-2-1.5l0,0l0,0
												c0-0.2,0-0.5,0-0.7c0-0.6,0-1.3,0.1-1.9l0-0.1l0,0c0.7-0.4,1.4-0.8,2.1-1.2l0,0.2c-0.7-0.5-1.4-1-2-1.5l0,0l0,0
												c0-0.7,0.1-1.4,0.1-2.1l0.1,0.1c-1.2-0.3-2.2-0.9-3.1-1.7c-0.4-0.4-0.8-0.8-1.1-1.3c-0.3-0.5-0.6-1-0.8-1.5
												c-0.8-2.1-0.6-4.5,0.4-6.3c1-1.8,2.6-3.1,4.3-3.7c1.7-0.6,3.5-0.5,4.9,0c1.4,0.5,2.5,1.4,3.3,2.3
												c0.8,0.9,1.2,1.9,1.4,2.6c0,0.1,0.1,0.2,0.1,0.3c0,0.1,0,0.2,0.1,0.3c0,0.2,0.1,0.3,0.1,0.5c0,0.3,0.1,0.6,0.1,0.8
												c0,0.2,0,0.4,0,0.5C764.7,227.5,764.7,227.5,764.7,227.5s0-0.1,0-0.2c0-0.1,0-0.3,0-0.5c0-0.2-0.1-0.5-0.1-0.8
												c0-0.2-0.1-0.3-0.1-0.5c0-0.1,0-0.2-0.1-0.3c0-0.1-0.1-0.2-0.1-0.3c-0.2-0.8-0.7-1.7-1.5-2.6c-0.8-0.9-1.9-1.7-3.3-2.2
												c-1.4-0.5-3.1-0.6-4.8,0c-1.7,0.6-3.3,1.8-4.2,3.6c-0.9,1.8-1.1,4.1-0.3,6.1c0.2,0.5,0.5,1,0.8,1.5
												c0.3,0.5,0.7,0.9,1.1,1.3c0.8,0.8,1.9,1.4,3,1.7l0.1,0l0,0.1c0,0.7-0.1,1.4-0.1,2.1l0-0.1c0.7,0.5,1.4,1,2,1.5l0.1,0.1
												l-0.1,0.1c-0.7,0.4-1.4,0.8-2.1,1.2l0-0.1c0,0.6,0,1.3-0.1,1.9c0,0.2,0,0.5,0,0.7l0-0.1c0.7,0.5,1.4,1.1,2,1.5l0.1,0.1
												l-0.1,0.1c-0.7,0.4-1.5,0.8-2.1,1.2l0-0.1c0,0.8-0.1,1.5-0.1,2.2l0-0.1c0.4,0.3,0.9,0.6,1.2,0.9l0.1,0.1l-0.1,0.1
												c-0.5,0.3-0.9,0.5-1.3,0.7l0-0.1c0,0.5,0,0.9,0,1.3l0-0.1c0.5,0.6,1.1,1.2,1.6,1.8l-0.1,0c1.1-0.6,2.1-1.3,3.1-1.8l0,0.1
												c0.2-6.2,0.5-11.5,0.6-15.5l0,0l0,0c1.3-0.5,2.3-1.3,3-2.1c0.7-0.8,1.1-1.6,1.4-2.4c0.3-0.7,0.3-1.3,0.4-1.7
												c0-0.2,0-0.3,0-0.4C764.6,227.6,764.7,227.5,764.7,227.5z"/>
										</g>
									</g>
								</g>
							</g>
						</g>
						<g>
							<g>
								<g>
									<path class="st5" d="M763.9,227.1c0.2-4.1-3.1-7.6-7.2-7.8c-4.1-0.2-7.6,3.1-7.8,7.2c-0.1,3.5,2.2,6.6,5.5,7.5v0l-0.1,2.1
										l2,1.5l-2.1,1.2l-0.1,2.6l2,1.5l-2.1,1.2l-0.1,2.2l1.2,0.9l-1.3,0.7l0,1.3l1.6,1.8l3.1-1.8l0.6-15.5
										C761.8,232.8,763.8,230.2,763.9,227.1z M756.6,221.3c1.2,0,2.1,1,2.1,2.2c0,1.2-1,2.1-2.2,2.1c-1.2,0-2.1-1-2.1-2.2
										C754.4,222.2,755.4,221.3,756.6,221.3z"/>
								</g>
							</g>
							<g>
								<g>
									<g>
										<path class="st13" d="M763.9,227.1c0.2-4.1-3.1-7.6-7.2-7.8c-4.1-0.2-7.6,3.1-7.8,7.2c-0.1,3.5,2.2,6.6,5.5,7.5v0
											l-0.1,2.1l2,1.5l-2.1,1.2l-0.1,2.6l2,1.5l-2.1,1.2l-0.1,2.2l1.2,0.9l-1.3,0.7l0,1.3l1.6,1.8l3.1-1.8l0.6-15.5
											C761.8,232.8,763.8,230.2,763.9,227.1z M756.6,221.3c1.2,0,2.1,1,2.1,2.2c0,1.2-1,2.1-2.2,2.1c-1.2,0-2.1-1-2.1-2.2
											C754.4,222.2,755.4,221.3,756.6,221.3z"/>
									</g>
								</g>
								<g>
									<g>
										<g>
											<path class="st8" d="M756.6,221.3c0,0-0.2,0-0.5,0.1c-0.3,0.1-0.8,0.3-1.2,0.7c-0.4,0.5-0.6,1.2-0.4,2
												c0.2,0.7,1,1.4,1.9,1.4c0.9,0,1.7-0.6,2-1.3c0.3-0.7,0.1-1.5-0.2-2c-0.3-0.5-0.8-0.7-1.1-0.8
												C756.8,221.4,756.6,221.4,756.6,221.3c0,0,0,0,0.1,0c0.1,0,0.2,0,0.4,0.1c0.3,0.1,0.8,0.3,1.2,0.8
												c0.4,0.5,0.6,1.3,0.3,2.1c-0.2,0.4-0.4,0.8-0.8,1c-0.4,0.3-0.9,0.4-1.3,0.4c-0.5,0-1-0.2-1.3-0.5
												c-0.4-0.3-0.6-0.7-0.7-1.1c-0.3-0.8,0-1.6,0.4-2.1c0.4-0.5,0.9-0.7,1.3-0.7c0.2,0,0.3,0,0.4,0
												C756.5,221.3,756.6,221.3,756.6,221.3z"/>
										</g>
									</g>
								</g>
								<g>
									<g>
										<g>
											<path class="st8" d="M763.9,227.1c0,0,0,0.1,0,0.2c0,0.1,0,0.3,0,0.4c-0.1,0.4-0.1,1-0.4,1.7c-0.3,0.7-0.7,1.6-1.4,2.4
												c-0.7,0.8-1.7,1.6-3,2.1l0-0.1c-0.1,4-0.3,9.3-0.6,15.5l0,0l0,0c-1,0.6-2,1.2-3.1,1.8l-0.1,0l0-0.1
												c-0.5-0.5-1-1.2-1.6-1.8l0,0l0,0c0-0.4,0-0.9,0-1.3l0-0.1l0,0c0.4-0.2,0.9-0.5,1.3-0.7l0,0.2c-0.4-0.3-0.8-0.6-1.2-0.9
												l0,0l0,0c0-0.7,0.1-1.5,0.1-2.2l0-0.1l0,0c0.7-0.4,1.4-0.8,2.1-1.2l0,0.2c-0.6-0.5-1.3-1-2-1.5l0,0l0,0
												c0-0.2,0-0.5,0-0.7c0-0.6,0-1.3,0.1-1.9l0-0.1l0,0c0.7-0.4,1.4-0.8,2.1-1.2l0,0.2c-0.7-0.5-1.4-1-2-1.5l0,0l0,0
												c0-0.7,0.1-1.4,0.1-2.1l0.1,0.1c-1.2-0.3-2.2-0.9-3.1-1.7c-0.4-0.4-0.8-0.8-1.1-1.3c-0.3-0.5-0.6-1-0.8-1.5
												c-0.8-2.1-0.6-4.5,0.4-6.3c1-1.8,2.6-3.1,4.3-3.7c1.7-0.6,3.5-0.5,4.9,0c1.4,0.5,2.5,1.4,3.3,2.3
												c0.8,0.9,1.2,1.9,1.4,2.6c0,0.1,0.1,0.2,0.1,0.3c0,0.1,0,0.2,0.1,0.3c0,0.2,0.1,0.3,0.1,0.5c0,0.3,0.1,0.6,0.1,0.8
												c0,0.2,0,0.4,0,0.5C763.9,227,763.9,227.1,763.9,227.1s0-0.1,0-0.2c0-0.1,0-0.3,0-0.5c0-0.2-0.1-0.5-0.1-0.8
												c0-0.2-0.1-0.3-0.1-0.5c0-0.1,0-0.2-0.1-0.3c0-0.1-0.1-0.2-0.1-0.3c-0.2-0.8-0.7-1.7-1.4-2.6c-0.8-0.9-1.9-1.7-3.3-2.2
												c-1.4-0.5-3.1-0.6-4.8,0c-1.7,0.6-3.3,1.8-4.2,3.6c-0.9,1.8-1.1,4.1-0.3,6.1c0.2,0.5,0.5,1,0.8,1.5
												c0.3,0.5,0.7,0.9,1.1,1.3c0.8,0.8,1.9,1.4,3,1.7l0.1,0l0,0.1c0,0.7-0.1,1.4-0.1,2.1l0-0.1c0.7,0.5,1.4,1,2,1.5l0.1,0.1
												l-0.1,0.1c-0.7,0.4-1.4,0.8-2.1,1.2l0-0.1c0,0.6,0,1.3-0.1,1.9c0,0.2,0,0.5,0,0.7l0-0.1c0.7,0.5,1.4,1.1,2,1.5l0.1,0.1
												l-0.1,0.1c-0.7,0.4-1.5,0.8-2.1,1.2l0-0.1c0,0.8-0.1,1.5-0.1,2.2l0-0.1c0.4,0.3,0.9,0.6,1.2,0.9l0.1,0.1l-0.1,0.1
												c-0.5,0.3-0.9,0.5-1.3,0.7l0-0.1c0,0.5,0,0.9,0,1.3l0-0.1c0.5,0.6,1.1,1.2,1.6,1.8l-0.1,0c1.1-0.6,2.1-1.3,3.1-1.8l0,0.1
												c0.2-6.2,0.5-11.5,0.6-15.5l0,0l0,0c1.3-0.5,2.3-1.3,3-2.1c0.7-0.8,1.1-1.6,1.4-2.4c0.3-0.7,0.3-1.3,0.4-1.7
												c0-0.2,0-0.3,0-0.4C763.9,227.1,763.9,227.1,763.9,227.1z"/>
										</g>
									</g>
								</g>
							</g>
						</g>
						<g>
							<g>
								<g>
									<path class="st8" d="M763,227.2c0,0,0-0.6-0.2-1.6c-0.1-0.5-0.3-1.1-0.7-1.8c-0.4-0.6-0.9-1.3-1.6-1.9
										c-0.7-0.6-1.6-1.1-2.7-1.3c-1.1-0.2-2.3-0.2-3.4,0.2c-0.6,0.2-1.2,0.5-1.7,0.8c-0.3,0.2-0.5,0.4-0.8,0.6
										c-0.2,0.2-0.5,0.5-0.7,0.7c-0.8,1-1.3,2.4-1.4,3.8c0,1.4,0.4,2.8,1.1,3.9c0.2,0.3,0.4,0.5,0.6,0.8c0.2,0.2,0.5,0.5,0.7,0.7
										c0.5,0.4,1,0.7,1.6,1c1.1,0.5,2.3,0.6,3.4,0.4c1.1-0.1,2-0.6,2.8-1.1c0.8-0.5,1.3-1.2,1.7-1.8c0.4-0.6,0.7-1.2,0.8-1.7
										C763,227.8,762.9,227.2,763,227.2c0,0,0,0,0,0.1c0,0.1,0,0.2,0,0.3c0,0.1,0,0.3-0.1,0.5c0,0.2-0.1,0.4-0.2,0.7
										c-0.1,0.5-0.4,1.1-0.8,1.8c-0.4,0.6-1,1.3-1.8,1.8c-0.8,0.5-1.7,1-2.8,1.2c-1.1,0.2-2.3,0.1-3.5-0.4
										c-0.6-0.2-1.1-0.6-1.7-1c-0.3-0.2-0.5-0.4-0.7-0.7c-0.2-0.3-0.4-0.5-0.6-0.8c-0.8-1.1-1.2-2.6-1.2-4
										c0.1-1.5,0.6-2.8,1.5-3.9c0.2-0.3,0.5-0.5,0.7-0.7c0.3-0.2,0.5-0.4,0.8-0.6c0.5-0.4,1.1-0.7,1.7-0.8
										c1.2-0.4,2.4-0.4,3.5-0.1c1.1,0.2,2,0.8,2.8,1.4c0.7,0.6,1.3,1.3,1.6,2c0.3,0.7,0.6,1.3,0.6,1.8c0.1,0.3,0.1,0.5,0.1,0.7
										c0,0.2,0,0.4,0,0.5c0,0.1,0,0.2,0,0.3C763,227.1,763,227.2,763,227.2z"/>
								</g>
							</g>
						</g>
						<g>
							<g>
								<g>
									<path class="st8" d="M759,223.6c0,0,0-0.2-0.1-0.6c-0.1-0.4-0.3-0.9-0.9-1.4c-0.3-0.2-0.6-0.4-1-0.5
										c-0.4-0.1-0.8-0.1-1.3,0.1c-0.4,0.1-0.9,0.4-1.2,0.8c-0.3,0.4-0.5,0.9-0.5,1.4c0,0.5,0.1,1,0.4,1.5
										c0.3,0.4,0.7,0.7,1.1,0.9c0.4,0.2,0.9,0.2,1.3,0.2c0.4-0.1,0.8-0.2,1.1-0.4c0.6-0.4,0.9-0.9,1-1.3
										C759,223.8,759,223.6,759,223.6c0,0,0,0.1,0,0.2c0,0.1,0,0.3-0.1,0.5c-0.1,0.4-0.4,1-1,1.4c-0.3,0.2-0.7,0.4-1.1,0.5
										c-0.4,0.1-0.9,0-1.4-0.2c-0.5-0.2-0.9-0.5-1.2-1c-0.3-0.4-0.5-1-0.5-1.6c0-0.6,0.2-1.1,0.6-1.5c0.3-0.4,0.8-0.7,1.3-0.9
										c0.5-0.2,1-0.1,1.4-0.1c0.4,0.1,0.8,0.3,1.1,0.5c0.6,0.5,0.8,1.1,0.9,1.5c0,0.2,0,0.4,0,0.5C759,223.5,759,223.6,759,223.6
										z"/>
								</g>
							</g>
						</g>
						<g>
							<g>
								<g>
									<path class="st8" d="M757.5,249.7c-0.1,0,0-3.5,0.2-7.9c0.2-4.4,0.3-7.9,0.4-7.9c0.1,0,0,3.5-0.2,7.9
										S757.6,249.7,757.5,249.7z"/>
								</g>
							</g>
						</g>
					</g>
				</g>
				<g>
					<path class="st0" d="M757.2,222.1c-0.3,0.2-0.7,0.2-1,0v-9.5l1,0.1L757.2,222.1z"/>
					<path class="st8" d="M756.7,222.2c-0.2,0-0.3,0-0.5-0.1l0,0l0-9.6l1.1,0.1l0,9.5l0,0C757.1,222.2,756.9,222.2,756.7,222.2z
						 M756.3,222.1c0.3,0.1,0.6,0.1,0.9,0l0-9.4l-0.9-0.1L756.3,222.1z"/>
				</g>
				<g>
					<g>
						<path class="st9" d="M752.9,207.9c0.8,0.8,1.8,1.3,2.7,2c0.9,0.7,1.7,1.7,1.6,2.8c0,1.1-1,2.1-2,2.6c-1.4,0.7-3.2,0.9-4.7,0.4
							c-1.5-0.5-2.9-1.6-3.7-3"/>
					</g>
					<g>
						<g>
							<path class="st12" d="M746.9,212.7c0.1-0.1,0.6,0.9,2.1,1.9c0.7,0.5,1.7,0.8,2.8,0.9c1.1,0.1,2.4-0.1,3.5-0.8
								c1.1-0.6,1.8-1.7,1.6-2.7c-0.2-1-1-1.7-1.7-2.2c-1.5-1-2.3-1.9-2.2-2c0.1,0,0.9,0.6,2.5,1.5c0.8,0.5,1.7,1.2,2.1,2.6
								c0.2,0.7,0.1,1.5-0.3,2.1c-0.4,0.6-0.9,1.1-1.6,1.5c-1.3,0.7-2.7,0.9-4,0.8c-1.3-0.1-2.3-0.6-3-1.2
								C747.1,213.9,746.8,212.7,746.9,212.7z"/>
						</g>
					</g>
				</g>
				<g>
					<g>
						<path class="st9" d="M762.4,203.9c-1.7,2.2-3.4,4.3-4.6,6.8c-0.4,0.8-0.7,1.6-0.7,2.4s0.4,1.8,1.1,2.2c0.6,0.3,1.4,0.3,2.1,0
							c0.7-0.3,1.2-0.8,1.8-1.3c2.1-1.9,4.1-4.1,5.8-6.4c0.4-0.6,0.8-1.1,1-1.8c0.2-0.7,0.2-1.4-0.1-2"/>
					</g>
					<g>
						<g>
							<path class="st12" d="M768.7,203.8c0,0,0.4,0.3,0.4,1.2c0.1,0.8-0.4,2-1.3,3.1c-0.8,1.1-1.8,2.5-3.1,3.8
								c-0.6,0.7-1.3,1.4-2,2.1c-0.7,0.7-1.5,1.5-2.6,1.9c-0.6,0.2-1.2,0.2-1.8,0c-0.6-0.2-1.1-0.6-1.4-1.2c-0.6-1-0.4-2.2-0.1-3.1
								c0.7-1.8,1.6-3.1,2.5-4.3c1.7-2.2,2.9-3.5,2.9-3.4c0.1,0.1-0.9,1.4-2.5,3.7c-0.7,1.1-1.6,2.6-2.2,4.2
								c-0.3,0.8-0.4,1.7,0.1,2.5c0.4,0.8,1.3,1,2.2,0.7c0.9-0.3,1.6-1,2.3-1.7c0.7-0.7,1.4-1.3,2-2c1.3-1.3,2.3-2.6,3.2-3.6
								c0.9-1.1,1.4-2,1.4-2.7C768.9,204.2,768.7,203.9,768.7,203.8z"/>
						</g>
					</g>
				</g>
			</g>
		</g>
	</g>
</g>
<g id="Floor">
	<g>
		<g>
			<path class="st8" d="M793.1,701.1c0,0.2-150.4,0.4-335.8,0.4c-185.5,0-335.9-0.2-335.9-0.4s150.3-0.4,335.9-0.4
				C642.7,700.7,793.1,700.9,793.1,701.1z"/>
		</g>
	</g>
</g>
<g id="Plant">
	<g>
		<g>
			<g>
				<g>
					<g>
						<path class="st5" d="M209.1,488c14.7-22.5,14.2-55.5-3.4-75.8c-5.5-6.3-13.1-11.8-21.4-11.1c-8.5,0.7-15.4,8-18,16.2
							c-2.6,8.2-1.7,17-0.2,25.4c2.1,11.8,5.7,23.8,13.9,32.6C188.2,484,198.6,493.8,209.1,488"/>
					</g>
				</g>
				<g>
					<g>
						<path class="st5" d="M202.6,595.7c5.5-12.9,1.5-29.3-9.4-38.2c-3.4-2.8-7.8-4.9-12-3.8c-4.3,1.1-7.2,5.5-7.8,10
							c-0.6,4.4,0.7,8.9,2.2,13.1c2.2,5.9,5.1,11.8,10.1,15.5C190.7,596.1,197.7,599.6,202.6,595.7"/>
					</g>
				</g>
				<g>
					<g>
						<path class="st5" d="M238.1,588c-4-20,6.5-42,24.6-51.4c5.6-2.9,12.5-4.6,18.2-1.8c5.8,2.9,8.6,10,8.1,16.4
							c-0.5,6.5-3.6,12.4-7,17.9c-4.8,7.7-10.7,15.2-18.9,19S243.9,595,238.1,588"/>
					</g>
				</g>
				<g>
					<g>
						<path class="st5" d="M235.5,534c-7.1-22.8,4.9-50.3,24.8-63.4c6.2-4.1,14-6.9,20.9-4.2c7.1,2.7,11.1,10.6,11.4,18.2
							c0.2,7.6-2.7,14.9-6,21.7c-4.7,9.5-10.7,18.9-19.7,24.4C257.8,536,243.1,541.4,235.5,534"/>
					</g>
				</g>
				<g>
					<g>
						<g>
							<path class="st8" d="M221.4,645.2c0,0,0.1-0.4,0.2-1.1c0.1-0.8,0.3-1.9,0.5-3.2c0.1-0.7,0.2-1.5,0.3-2.3
								c0.2-0.8,0.3-1.7,0.5-2.7c0.4-1.9,0.8-4.2,1.4-6.6c0.3-1.2,0.6-2.5,0.9-3.8c0.4-1.3,0.8-2.7,1.2-4.1c0.8-2.8,1.9-5.7,2.9-8.9
								c2.3-6.1,5.2-12.8,8.8-19.5c3.6-6.7,7.5-12.8,11.4-18.1c2-2.6,3.8-5.1,5.8-7.3c0.9-1.1,1.8-2.2,2.7-3.2
								c0.9-1,1.8-1.9,2.7-2.9c1.7-1.9,3.3-3.4,4.7-4.8c0.7-0.7,1.4-1.3,2-1.9c0.6-0.6,1.2-1.1,1.7-1.5c1-0.9,1.8-1.6,2.4-2.1
								c0.5-0.5,0.8-0.8,0.8-0.8c0,0-0.3,0.2-0.9,0.7c-0.7,0.5-1.5,1.2-2.5,2c-0.5,0.5-1.1,0.9-1.8,1.5c-0.6,0.6-1.3,1.2-2,1.9
								c-1.5,1.4-3.1,2.9-4.8,4.7c-0.9,0.9-1.8,1.9-2.7,2.8c-0.9,1-1.8,2.1-2.8,3.2c-2,2.2-3.8,4.7-5.9,7.3
								c-3.9,5.3-7.9,11.5-11.5,18.2c-3.6,6.7-6.5,13.4-8.8,19.6c-1,3.1-2.1,6.1-2.9,8.9c-0.4,1.4-0.8,2.8-1.1,4.1
								c-0.3,1.3-0.6,2.6-0.9,3.8c-0.6,2.4-0.9,4.7-1.3,6.6c-0.2,1-0.3,1.9-0.4,2.7c-0.1,0.8-0.2,1.6-0.2,2.3
								c-0.1,1.3-0.2,2.4-0.3,3.2C221.4,644.8,221.4,645.2,221.4,645.2z"/>
						</g>
					</g>
				</g>
				<g>
					<g>
						<g>
							<path class="st8" d="M221.9,649.3c0,0,0-0.2,0-0.5c0-0.4-0.1-0.8-0.1-1.3c-0.1-1.2-0.3-2.9-0.5-5.1c-0.1-1.1-0.2-2.3-0.4-3.6
								c-0.1-1.3-0.1-2.8-0.2-4.4c-0.1-3.1-0.4-6.7-0.3-10.6c0-2,0-4,0-6.2c0-2.1,0.2-4.4,0.3-6.7c0.2-4.6,0.8-9.5,1.3-14.7
								c1.4-10.3,3.6-21.6,7-33.1c3.5-11.5,7.8-22.1,12.2-31.6c2.4-4.6,4.5-9.1,6.9-13.1c1.2-2,2.2-4,3.4-5.8
								c1.2-1.8,2.3-3.5,3.3-5.2c2.1-3.4,4.2-6.2,6-8.7c0.9-1.3,1.7-2.5,2.6-3.5c0.8-1,1.6-2,2.3-2.9c1.3-1.7,2.4-3,3.1-4
								c0.3-0.4,0.6-0.8,0.8-1.1c0.2-0.2,0.3-0.4,0.2-0.4c0,0-0.1,0.1-0.3,0.3c-0.2,0.3-0.5,0.6-0.9,1c-0.8,0.9-1.9,2.2-3.3,3.9
								c-0.7,0.9-1.5,1.8-2.4,2.8c-0.8,1.1-1.7,2.2-2.6,3.5c-1.8,2.5-4.1,5.3-6.2,8.7c-1.1,1.7-2.2,3.4-3.4,5.2
								c-1.2,1.8-2.2,3.8-3.4,5.8c-2.4,4-4.6,8.4-7,13.1c-4.5,9.4-8.8,20.1-12.3,31.7c-3.4,11.6-5.6,22.9-6.9,33.3
								c-0.5,5.2-1.1,10.1-1.3,14.8c-0.1,2.3-0.3,4.6-0.3,6.7c0,2.2,0,4.2,0,6.2c-0.1,4,0.3,7.5,0.4,10.6c0.1,1.6,0.2,3,0.3,4.4
								c0.2,1.3,0.3,2.5,0.4,3.6c0.3,2.1,0.5,3.8,0.6,5c0.1,0.5,0.1,1,0.2,1.3C221.9,649.2,221.9,649.3,221.9,649.3z"/>
						</g>
					</g>
				</g>
				<g>
					<g>
						<g>
							<path class="st8" d="M183.6,428.3c0,0,0,0.2,0.2,0.4c0.2,0.3,0.4,0.7,0.6,1.2c0.6,1.1,1.5,2.6,2.5,4.5c0.5,1,1.2,2,1.8,3.2
								c0.6,1.2,1.3,2.5,2,4c0.7,1.4,1.5,2.9,2.3,4.5c0.8,1.6,1.5,3.4,2.3,5.2c0.8,1.8,1.7,3.7,2.5,5.8c0.8,2,1.6,4.2,2.4,6.3
								c0.4,1.1,0.9,2.2,1.3,3.3c0.4,1.1,0.8,2.3,1.2,3.5c0.8,2.4,1.6,4.8,2.5,7.3c3.1,10.1,6.1,21.3,8.6,33.3
								c2.4,12,4.1,23.5,5.4,34c1.1,10.5,1.9,20,2.1,28c0.2,4,0.2,7.6,0.3,10.8c0.1,3.2,0.1,5.9,0,8.1c0,2.2-0.1,3.9-0.1,5.2
								c0,0.5,0,1,0,1.3c0,0.3,0,0.5,0,0.5c0,0,0-0.2,0.1-0.5c0-0.4,0.1-0.8,0.1-1.3c0.1-1.3,0.1-3,0.3-5.2c0.1-2.2,0.2-5,0.2-8.2
								c0-3.2,0-6.8-0.1-10.8c-0.1-8-0.9-17.5-1.9-28.1c-1.2-10.5-2.9-22.1-5.3-34.1c-2.5-12-5.5-23.2-8.7-33.4
								c-0.9-2.5-1.7-4.9-2.5-7.3c-0.4-1.2-0.8-2.4-1.2-3.5c-0.4-1.1-0.9-2.2-1.3-3.3c-0.9-2.2-1.7-4.3-2.5-6.3
								c-0.8-2-1.7-3.9-2.6-5.7c-0.8-1.8-1.6-3.6-2.4-5.2c-0.8-1.6-1.6-3.1-2.3-4.5c-0.7-1.4-1.4-2.7-2-3.9
								c-0.7-1.2-1.3-2.2-1.9-3.2c-1.1-1.9-2-3.3-2.7-4.4c-0.3-0.5-0.5-0.8-0.7-1.1C183.7,428.4,183.6,428.3,183.6,428.3z"/>
						</g>
					</g>
				</g>
				<g>
					<g>
						<g>
							<path class="st8" d="M188.6,566.5c-0.1,0,0.5,1,1.6,2.7c1.1,1.7,2.6,4.3,4.3,7.5c1.7,3.2,3.7,7.1,5.6,11.4
								c1.9,4.4,3.8,9.3,5.4,14.6c1.6,5.3,2.8,10.4,3.8,15.1c0.9,4.7,1.5,9,1.9,12.6c0.4,3.6,0.6,6.5,0.7,8.6c0.1,2,0.2,3.2,0.3,3.2
								s0.1-1.1,0.1-3.2c0-2-0.1-5-0.4-8.6c-0.3-3.6-0.8-8-1.7-12.7c-0.9-4.7-2.1-9.9-3.7-15.2c-1.7-5.3-3.6-10.3-5.5-14.7
								c-2-4.4-4-8.3-5.8-11.4c-1.8-3.2-3.4-5.7-4.6-7.3C189.3,567.4,188.6,566.5,188.6,566.5z"/>
						</g>
					</g>
				</g>
			</g>
			<g>
				<g>
					<polygon class="st11" points="250.3,635.1 185.6,635.1 193.4,701.1 242.3,701.1 					"/>
				</g>
			</g>
			<g>
				<g>
					<polygon class="st8" points="248,694 242.5,701.1 193.4,701.1 187.8,694.2 					"/>
				</g>
			</g>
			<g>
				<g>
					<g>
						<path class="st1" d="M188.1,654.5c0,0.3,13.4,0.5,30,0.5c16.6,0,30-0.2,30-0.5c0-0.3-13.4-0.5-30-0.5
							C201.6,654,188.1,654.2,188.1,654.5z"/>
					</g>
				</g>
			</g>
			<g>
				<g>
					<g>
						<path class="st1" d="M188.1,658.9c0,0.3,13.4,0.5,30,0.5c16.6,0,30-0.2,30-0.5c0-0.3-13.4-0.5-30-0.5
							C201.6,658.4,188.1,658.6,188.1,658.9z"/>
					</g>
				</g>
			</g>
			<g>
				<g>
					<g>
						<path class="st1" d="M188.9,663.2c0,0.3,13,0.5,28.9,0.5c16,0,28.9-0.2,28.9-0.5c0-0.3-13-0.5-28.9-0.5
							C201.9,662.7,188.9,662.9,188.9,663.2z"/>
					</g>
				</g>
			</g>
		</g>
		<g>
			<g>
				<path class="st8" d="M240.4,492.7c0,0,0,0.2,0,0.6c0,0.5,0.1,1.1,0.1,1.8c0.2,1.7,0.4,3.9,0.7,6.6c0.6,5.6,1.5,13.2,2.4,21.7
					c0,0.3,0.1,0.6,0.1,0.9l0,0.3l0.3,0c8.3,0.1,15.8,0.2,21.2,0.2c2.6,0,4.8,0,6.4,0c0.7,0,1.3,0,1.7,0c0.4,0,0.6,0,0.6-0.1
					c0,0-0.2,0-0.6-0.1c-0.5,0-1-0.1-1.7-0.1c-1.6-0.1-3.8-0.1-6.4-0.2c-5.4-0.1-12.9-0.3-21.2-0.4l0.3,0.3c0-0.3-0.1-0.6-0.1-0.9
					c-1-8.5-1.9-16.1-2.6-21.7c-0.4-2.7-0.7-4.9-0.9-6.6c-0.1-0.7-0.2-1.3-0.3-1.8C240.5,492.9,240.4,492.6,240.4,492.7z"/>
			</g>
		</g>
		<g>
			<g>
				<path class="st8" d="M255.1,472.9c0,0,0,0.2-0.1,0.6c0,0.5,0,1.1,0,1.9c0,1.7,0,4,0.1,6.8c0.1,5.8,0.2,13.7,0.5,22.5
					c0,0.4,0,0.7,0,1l0,0.3l0.3,0c8.5-0.7,16.2-0.7,21.8-0.5c2.8,0.1,5,0.2,6.6,0.3c0.7,0,1.3,0.1,1.8,0.1c0.4,0,0.6,0,0.6,0
					c0,0-0.2-0.1-0.6-0.1c-0.4-0.1-1-0.1-1.8-0.2c-1.5-0.2-3.8-0.3-6.6-0.5c-5.6-0.3-13.3-0.4-21.8,0.3l0.4,0.3c0-0.3,0-0.7,0-1
					c-0.2-8.8-0.4-16.7-0.6-22.5c-0.1-2.8-0.2-5.1-0.3-6.8c0-0.7-0.1-1.4-0.1-1.9C255.2,473.1,255.2,472.9,255.1,472.9z"/>
			</g>
		</g>
		<g>
			<g>
				<path class="st8" d="M272.4,466.2c0,0-0.2,0.7-0.4,1.9c-0.2,1.3-0.6,3.1-1,5.2c-0.8,4.4-2.1,10.4-4,17.1l-0.2,0.7l0.7-0.3
					c0.2-0.1,0.5-0.2,0.8-0.4c6.4-3.1,12.7-4.5,17.2-5c2.3-0.3,4.2-0.4,5.5-0.4c1.3,0,2-0.1,2-0.1c0,0-0.2,0-0.5-0.1
					c-0.3,0-0.8-0.1-1.5-0.1c-1.3,0-3.2,0-5.5,0.2c-4.6,0.4-11,1.8-17.5,4.9c-0.3,0.1-0.5,0.3-0.8,0.4l0.5,0.4
					c1.9-6.7,3.1-12.7,3.8-17.2c0.4-2.2,0.6-4,0.8-5.2C272.3,466.9,272.4,466.2,272.4,466.2z"/>
			</g>
		</g>
		<g>
			<g>
				<path class="st8" d="M181,586.6c0,0.1,1.9-0.1,4.9-0.2c3-0.1,7.2-0.1,11.8,0.4c0.9,0.1,1.8,0.2,2.7,0.3l0.3,0l0.1-0.3
					c0.7-3.9,1.3-7.4,1.7-9.8c0.4-2.5,0.6-4,0.5-4c-0.1,0-0.4,1.5-0.9,3.9c-0.5,2.5-1.2,5.9-1.9,9.8l0.4-0.3
					c-0.9-0.1-1.8-0.2-2.7-0.3c-4.6-0.5-8.8-0.4-11.9-0.2c-1.5,0.1-2.7,0.3-3.6,0.4C181.4,586.5,181,586.6,181,586.6z"/>
			</g>
		</g>
		<g>
			<g>
				<path class="st8" d="M174.9,574.5c0,0.1,1.8-0.3,4.7-0.7c2.9-0.4,7-0.6,11.5-0.1c0.7,0.1,1.4,0.2,2,0.3l0.3,0l0-0.3
					c0.4-4,0.7-7.6,0.9-10.1c0.2-2.6,0.3-4.1,0.2-4.1c-0.1,0-0.3,1.5-0.6,4.1s-0.7,6.1-1.2,10.1l0.4-0.3c-0.7-0.1-1.3-0.2-2.1-0.3
					c-4.5-0.5-8.7-0.2-11.6,0.3c-1.5,0.2-2.6,0.5-3.4,0.7C175.3,574.3,174.9,574.4,174.9,574.5z"/>
			</g>
		</g>
		<g>
			<g>
				<path class="st8" d="M170.5,459.5c0,0,0.2,0.1,0.6,0.3c0.5,0.2,1.1,0.5,1.9,0.8c1.7,0.7,4.1,1.7,7,3c6,2.5,14.2,5.9,23.2,9.6
					c0.4,0.2,0.9,0.3,1.3,0.5l0.3,0.1l0.1-0.3c3.8-8.6,7.3-16.4,9.8-22.1c1.2-2.8,2.2-5,2.9-6.7c0.3-0.7,0.6-1.3,0.8-1.8
					c0.2-0.4,0.2-0.6,0.2-0.7c0,0-0.1,0.2-0.3,0.6c-0.2,0.5-0.5,1.1-0.9,1.8c-0.8,1.6-1.8,3.9-3.1,6.6c-2.6,5.7-6.1,13.4-10,22
					l0.4-0.2c-0.4-0.2-0.8-0.3-1.3-0.5c-9-3.7-17.2-7-23.2-9.4c-2.9-1.2-5.3-2.1-7.1-2.8c-0.8-0.3-1.4-0.5-1.9-0.7
					C170.7,459.5,170.5,459.4,170.5,459.5z"/>
			</g>
		</g>
		<g>
			<g>
				<path class="st8" d="M164.8,431.5c0,0,0.2,0.2,0.6,0.4c0.4,0.3,1,0.7,1.7,1.1c1.6,1,3.7,2.3,6.3,3.9c5.4,3.3,12.8,7.8,21.1,12.9
					l0.3,0.2l0.1-0.4c0.1-0.3,0.3-0.7,0.4-1c3.4-9.3,6.5-17.7,8.8-23.8c1.1-3,2-5.5,2.6-7.2c0.3-0.8,0.5-1.5,0.7-2
					c0.1-0.5,0.2-0.7,0.2-0.7c0,0-0.1,0.2-0.3,0.7c-0.2,0.5-0.5,1.2-0.8,1.9c-0.7,1.8-1.6,4.2-2.8,7.2c-2.3,6.2-5.5,14.5-9,23.8
					c-0.1,0.3-0.3,0.7-0.4,1l0.5-0.2c-8.3-5-15.7-9.4-21.2-12.7c-2.7-1.6-4.8-2.8-6.4-3.8c-0.7-0.4-1.3-0.7-1.8-1
					C165.1,431.6,164.8,431.5,164.8,431.5z"/>
			</g>
		</g>
		<g>
			<g>
				<path class="st8" d="M166.7,416.6c0,0,0.5,0.3,1.4,0.8c0.9,0.5,2.2,1.2,3.8,2.2c3.2,2,7.5,5,11.7,9.2l0.8,0.8l-0.3-1.1
					c-0.3-1.2-0.5-2.4-0.7-3.6c-1.1-6.7-0.2-13,0.9-17.2c0.6-2.2,1.2-3.8,1.7-5c0.5-1.2,0.7-1.8,0.7-1.8c0,0-0.4,0.6-0.9,1.7
					c-0.5,1.1-1.2,2.8-1.9,5c-1.3,4.3-2.2,10.6-1.1,17.5c0.2,1.3,0.5,2.5,0.8,3.7l0.5-0.3c-4.3-4.2-8.7-7.2-12-9.1
					c-1.6-0.9-3-1.6-3.9-2.1C167.2,416.8,166.7,416.6,166.7,416.6z"/>
			</g>
		</g>
		<g>
			<g>
				<path class="st8" d="M240.5,561.7c0,0,0.1,0.6,0.3,1.7c0.2,1.1,0.5,2.6,0.9,4.5c0.7,3.9,1.5,9.3,1.7,15.3l0,0.3l0.3,0
					c0.5,0,1,0.1,1.5,0.1c6.4,0.4,12.2,0.7,16.4,0.9c2,0.1,3.7,0.1,5,0.2c1.2,0,1.8,0,1.8,0s-0.6-0.1-1.8-0.2c-1.3-0.1-3-0.2-5-0.4
					c-4.2-0.3-10-0.7-16.4-1.1c-0.5,0-1-0.1-1.5-0.1l0.3,0.3c-0.3-6.1-1.1-11.5-1.9-15.4c-0.4-1.9-0.8-3.5-1.1-4.5
					C240.7,562.2,240.6,561.6,240.5,561.7z"/>
			</g>
		</g>
		<g>
			<g>
				<path class="st8" d="M253.2,543.4c0,0,0,0.6,0.1,1.7c0.1,1.2,0.3,2.7,0.5,4.6c0.5,3.9,1.2,9.3,2,15.4l0,0.3l0.3,0
					c0.7,0,1.4,0.1,2.1,0.1c6.6,0.4,12.5,1.1,16.8,1.7c2,0.3,3.8,0.5,5.1,0.7c1.2,0.2,1.9,0.2,1.9,0.2c0,0-0.6-0.2-1.8-0.4
					c-1.2-0.2-2.9-0.5-5-0.9c-4.3-0.7-10.2-1.4-16.8-1.9c-0.7,0-1.4-0.1-2.1-0.1l0.3,0.3c-0.8-6.1-1.6-11.5-2.2-15.3
					c-0.3-1.8-0.5-3.4-0.7-4.6C253.4,544,253.3,543.4,253.2,543.4z"/>
			</g>
		</g>
		<g>
			<g>
				<path class="st8" d="M268.2,535.6c-0.1,0,0.3,1.8,0.8,4.7c0.5,2.9,1,6.9,1,11.5l0,0.4l0.4,0c0.3,0,0.7-0.1,1.1-0.1
					c4.7-0.6,9.1-0.7,12.2-0.7c1.5,0,2.7,0,3.7,0c0.9,0,1.4,0,1.4,0c0,0-0.5-0.1-1.4-0.2c-0.9-0.1-2.1-0.2-3.7-0.3
					c-3.1-0.1-7.5-0.1-12.3,0.5c-0.4,0-0.7,0.1-1.1,0.1l0.4,0.3c-0.1-4.6-0.7-8.6-1.3-11.5c-0.3-1.4-0.6-2.6-0.8-3.4
					C268.4,536,268.2,535.6,268.2,535.6z"/>
			</g>
		</g>
		<g>
			<g>
				<path class="st8" d="M183,553.8c-0.2,0.1,1.2,3,2.9,6.6c1.7,3.6,2.9,6.5,3.1,6.5c0.2-0.1-0.9-3.1-2.5-6.7
					C184.8,556.5,183.1,553.7,183,553.8z"/>
			</g>
		</g>
		<g>
			<g>
				<path class="st8" d="M174.8,562.4c0,0.2,3.4,0.2,7.4,1.5c4,1.2,6.8,3.1,6.9,2.9c0.1-0.1-2.6-2.3-6.7-3.6
					C178.3,562,174.8,562.3,174.8,562.4z"/>
			</g>
		</g>
	</g>
</g>
</svg>
