<svg xmlns="http://www.w3.org/2000/svg" viewBox="0 0 512 512" style="height: 512px; width: 512px;"><defs><linearGradient id="delapouite-checklist-gradient-0"><stop offset="0%" stop-color="#9013fe" stop-opacity="1"></stop><stop offset="100%" stop-color="#c08bee" stop-opacity="1"></stop></linearGradient></defs><path d="M0 0h512v512H0z" fill="url(#delapouite-checklist-gradient-0)"></path><g class="" transform="translate(0,0)" style=""><path d="M122.31 84.615l-2.85 8.54-11.394 34.185-5.703-5.703L96 115.27 83.27 128l6.367 6.363 26.297 26.297 20.605-61.814 2.845-8.537-17.076-5.695zM151 119v18h242v-18H151zm0 64v18h242v-18H151zm0 64v18h242v-18H151zm-28.69 29.615l-2.85 8.54-11.394 34.185-5.703-5.703L96 307.27 83.27 320l6.367 6.363 26.297 26.297 20.605-61.814 2.845-8.537-17.076-5.695zM151 311v18h242v-18H151zm0 64v18h242v-18H151z" fill="#fff" fill-opacity="1"></path></g></svg>