<?xml version="1.0" encoding="utf-8"?>
<!-- Generator: Adobe Illustrator 27.5.0, SVG Export Plug-In . SVG Version: 6.00 Build 0)  -->
<svg version="1.1" xmlns="http://www.w3.org/2000/svg" xmlns:xlink="http://www.w3.org/1999/xlink" x="0px" y="0px"
	 viewBox="0 0 500 500" style="enable-background:new 0 0 500 500;" xml:space="preserve">
<g id="BACKGROUND">
	<g>
		<rect style="fill:#FAFAFA;" width="500" height="500"/>
	</g>
</g>
<g id="OBJECTS">
	<g>
		<path style="fill:#E7E9F2;" d="M307.211,284.656c-6.888,7.778-10.624,19.004-7.272,28.839c2.332,6.843,7.649,12.154,12.167,17.797
			c4.518,5.644,8.523,12.553,7.437,19.7c-0.784,5.159-4.093,9.524-7.264,13.668c-8.346,10.911-16.646,22.324-20.267,35.575
			c-3.622,13.252-0.839,28.107,8.337,38.33c23.201,25.85,52.593,4.826,56.838,1.62c13.082-9.878,30.38-11.509,46.656-13.462
			c16.276-1.952,33.732-5.213,45.007-17.111c11.965-12.627,12.664-35.435-0.728-46.536c-4.794-3.974-10.777-6.211-15.945-9.684
			c-10.236-6.878-15.164-19.004-17.329-31.144c-5.943-33.325-22.199-45.75-37.377-52.218
			C355.31,260.587,323.203,266.599,307.211,284.656z"/>
		<g>
			<g>
				<path style="fill:#61C499;" d="M309.704,374.698c-6.31,5.295-15.228,10.81-19.223,13.372c-4.914,3.152-5.052,6.366-5.334,12.197
					c-0.144,2.979,0.398,6.283,2.681,8.202c1.396,1.174,4.518,7.003,6.266,6.48c10.779-3.224,23.049-8.173,30.903-12.45
					c6.411-3.491,16.234-8.267,19.938-14.557c2.714-4.611,3.915-2.461,4.333-7.794c0.503-6.42-7.331-31.892-15.279-28.458
					C328.684,353.982,316.816,368.73,309.704,374.698z"/>
				<g>
					<path style="fill:#312553;" d="M305.318,299.758l-21.493,3.195c-1.378,0.205-2.329,1.488-2.124,2.866l6.286,42.292
						c0.205,1.378,1.488,2.329,2.866,2.124l21.492-3.195c1.378-0.205,2.329-1.488,2.124-2.866l-6.286-42.292
						C307.979,300.504,306.696,299.553,305.318,299.758z"/>
					<path style="fill:#FAFAFA;" d="M302.917,305.202l-2.402,0.357c-0.9,0.134-1.521,0.972-1.387,1.871
						c0.134,0.9,0.972,1.521,1.871,1.387l2.403-0.357c0.9-0.134,1.521-0.972,1.387-1.871
						C304.655,305.689,303.817,305.068,302.917,305.202z"/>
				</g>
				<path style="fill:#F49484;" d="M296.74,386.609c-2.521-10.013-8.572-30.996-10.099-42.76c-0.35-2.694-1.654-7.646,4.814-10.443
					c2.033-0.88,4.209-0.462,5.413-2.322c-0.599-3.088-4.151-0.769-7.646-0.753c0.311-2.059,10.681-3.71,9.785-5.192
					c-0.919-2.401-8.151,1.134-11.244,1.058c1.218-1.382,4.699-3.164,6.408-3.853c1.708-0.688,3.629-1.268,2.25-2.488
					c-0.432-0.383-8.244,0.433-10.239,1.536c1.84-3.041,6.692-2.76,7.832-4.889c-0.612-1.661-10.672-1.315-13.684,2.66
					c-3.012,3.975-4.02,9.083-4.735,14.019c-1.851,12.776-2.931,48.432-2.478,56.483c1.031,18.327,7.217,27.92,20.978,25.285
					C300.592,413.705,299.323,396.867,296.74,386.609z"/>
				<g>
					<path style="fill:#4EA87F;" d="M299.277,389.615c2.438,3.367,3.519,7.219,3.18,11.366c-0.052,0.641,0.948,0.638,1,0
						c0.35-4.293-0.79-8.382-3.317-11.871C299.767,388.594,298.899,389.093,299.277,389.615L299.277,389.615z"/>
				</g>
				<g>
					<path style="fill:#4EA87F;" d="M302.162,388.296c2.176,2.241,4.352,4.482,6.528,6.723c0.449,0.462,1.156-0.245,0.707-0.707
						c-2.176-2.241-4.352-4.482-6.528-6.723C302.42,387.126,301.714,387.834,302.162,388.296L302.162,388.296z"/>
				</g>
			</g>
			<g>
				<path style="fill:#61C499;" d="M398.763,435.422c-0.921-3.348,0.25-17.751,1.436-21.843c2.88-9.943,7.486-18.975,6.107-29.235
					c-1.041-7.745-1.587-15.556-1.633-23.37c-0.024-4.077,0.554-10.102-3.334-11.329c-6.448-2.036-17.148-2.595-17.148-2.595
					c-2.453,1.569-33.254,1.551-41.351,1.869c0,0-5.168,1.313-8.85,2.771c-6.522,2.583,4.108,23.438,2.103,31.134
					c-1.789,6.865-5.035,7.873-5.235,13.685c-0.438,12.742,5.905,14.292,8.257,17.932c0,0-2.072,27.448-3.529,32.901
					c-1.749,6.55-3.482,21.138-4.57,25.363c16.071,2.13,28.361,2.592,44.568,2.223c13.598-0.309,21.839,1.02,34.439-2.896
					C408.705,460.905,402.112,447.603,398.763,435.422z"/>
				<g>
					<path style="fill:#4EA87F;" d="M332.357,366.709c0.293,2.811,1.945,5.201,2.952,7.795c1.25,3.221,2.634,7.13,1.511,10.561
						c-1.612,4.926-5.171,8.733-5.536,14.125c-0.043,0.642,0.957,0.64,1,0c0.219-3.229,1.61-6.123,3.097-8.943
						c1.007-1.911,2.286-3.86,2.679-6.017c0.489-2.685-0.229-5.424-1.063-7.966c-1.027-3.13-3.298-6.292-3.639-9.555
						C333.291,366.076,332.29,366.069,332.357,366.709L332.357,366.709z"/>
				</g>
				<g>
					<path style="fill:#4EA87F;" d="M344.803,414.768c2.975,1.245,6.414,0.425,8.528-2.006c0.421-0.484-0.284-1.194-0.707-0.707
						c-1.909,2.196-4.876,2.87-7.555,1.748C344.476,413.556,344.217,414.523,344.803,414.768L344.803,414.768z"/>
				</g>
				<g>
					<path style="fill:#4EA87F;" d="M358.93,407.868c2.091,4.714,8.73,6.126,13.298,6.734c5.913,0.787,11.533-1.19,15.36-5.815
						c0.407-0.492-0.296-1.204-0.707-0.707c-3.43,4.145-8.376,6.139-13.724,5.632c-4.448-0.422-11.359-1.828-13.364-6.349
						C359.533,406.776,358.671,407.284,358.93,407.868L358.93,407.868z"/>
				</g>
				<g>
					<path style="fill:#4EA87F;" d="M347.435,430.493c2.754,3.824,6.933,6.029,11.198,7.81c5.384,2.248,11.057,3.661,16.707,5.059
						c0.625,0.155,0.891-0.809,0.266-0.964c-4.761-1.178-9.537-2.358-14.146-4.054c-4.831-1.778-10.062-4.052-13.161-8.355
						C347.926,429.471,347.058,429.97,347.435,430.493L347.435,430.493z"/>
				</g>
				<g>
					<path style="fill:#4EA87F;" d="M350.5,452.649c8.823,1.966,17.767,3.218,26.79,3.751c0.643,0.038,0.641-0.962,0-1
						c-8.935-0.528-17.788-1.768-26.524-3.715C350.139,451.545,349.871,452.509,350.5,452.649L350.5,452.649z"/>
				</g>
			</g>
			<g>
				<path style="fill:#432E7D;" d="M330.353,309.211c0.79,7.767,2.844,12.55,2.692,20.356c-0.068,3.508-1.777,8.821-4.455,11.616
					c6.016,1.812,12.449,2.737,18.594,1.43c6.145-1.307,11.969-5.106,14.631-10.797c1.467-3.136,1.918-6.641,2.216-10.091
					c0.349-4.025,0.516-8.065,0.5-12.104c-0.027-7.108-0.891-14.853-5.858-19.939c-2.495-2.554-3.4-2.153-6.681-3.562
					C335.422,279.003,329.096,296.845,330.353,309.211z"/>
				<path style="fill:#E58073;" d="M381.278,358.483c-1.679,6.908-4.666,14.944-9.154,19.038c-4.281,3.901-5.971,4.485-11.759,4.304
					c-10.534-0.348-14.929-9.969-16.681-18.721c-1.449-7.312-1.057-14.023-0.842-14.186c1.252-0.959,4.962-0.897,6.053-3.032
					c0.674-1.328-0.465-21.967,0.524-21.905c7.168,0.487,16.329-7.885,23.175-10.05c-0.3,6.363,1.087,24.629,3.625,30.476
					c2.179,2.483,6.593,1.819,6.593,1.819C383.246,347.092,382.772,352.349,381.278,358.483z"/>
				<path style="fill:#FAFAFA;" d="M381.278,358.483c-1.679,6.908-4.666,14.944-9.154,19.038c-4.281,3.901-5.971,4.485-11.759,4.304
					c-10.534-0.348-14.929-9.969-16.681-18.721c1.362,0.865,2.818,1.624,4.235,2.351c4.918,2.554,10.388,4.486,16.022,3.841
					c6.84-0.794,12.771-5.271,17.159-10.589C381.163,358.629,381.226,358.561,381.278,358.483z"/>
				<path style="fill:#F49484;" d="M338.63,324.283c1.246,4.148,3.12,8.216,6.192,11.269c3.072,3.053,4.701,5.086,8.974,4.379
					c3.766-0.623,11.692-5.769,13.855-8.913c2.163-3.144,1.479-4.378,2.437-8.073c1.217-4.691,2.072-9.476,2.556-14.298
					c0.334-3.332,0.479-6.777-0.594-9.949c-1.335-3.945-4.479-7.104-8.132-9.105c-3.653-2.001-7.795-2.943-11.927-3.471
					c-9.962-1.271-11.7,2.685-13.426,10.937C336.629,306.326,335.853,315.034,338.63,324.283z"/>
				<path style="fill:#432E7D;" d="M348.708,292.067c2.295,4.12,6.56,13.892,10.94,15.639c1.577,0.629,8.61,7.514,9.748,2.587
					c1.513-6.549-0.171,12.525-1.438,19.127c-1.266,6.602-1.963,10.952-7.514,15.953c8.096,0.898,16.291,1.308,23.221-6.752
					c5.293-6.156,10.932-27.841-3.578-48.693c-3.202-4.601-8.095-7.845-13.471-9.433c-5.376-1.588-21.406-7.142-33.171,9.945
					c-1.833,2.662-6.114,8.591-3.092,18.772C331.197,312.056,349.907,294.288,348.708,292.067z"/>
				<path style="fill:#F49484;" d="M376.211,310.362c-0.574-1.991-2.027-5.054-4.097-5.136c-5.847-0.232-5.086,6.659-5.238,9.323
					c0,0-0.339,7.625,4.05,7.768c2.421,0.079,4.377-2.253,4.899-4.619C376.348,315.333,376.883,312.69,376.211,310.362z"/>
				<g>
					<path style="fill:#D36D66;" d="M345.058,312.603c-0.13,1.849,0.169,5.697-1.17,6.994c-0.772,0.748-1.712,1.015-2.087,2.14
						c-0.683,2.052,2.315,2.47,3.782,2.572c0.642,0.045,0.64-0.956,0-1c-0.45-0.031-0.892-0.132-1.328-0.246
						c-0.749-0.195-1.542-0.776-1.05-1.74c0.33-0.647,1.434-0.831,1.885-1.414c0.423-0.546,0.381-1.223,0.462-1.899
						c0.217-1.798,0.378-3.601,0.505-5.408C346.103,311.961,345.103,311.964,345.058,312.603L345.058,312.603z"/>
				</g>
				<g>
					<path style="fill:#D36D66;" d="M344.877,325.845c-0.173,0.305-0.346,0.61-0.52,0.915c-0.123,0.216-0.07,0.572,0.179,0.684
						c2.078,0.939,4.339,0.873,6.343-0.228c-0.245-0.188-0.49-0.377-0.734-0.565c-0.369,1.381-1.282,2.459-2.621,2.99
						c-0.591,0.235-0.333,1.202,0.266,0.964c1.667-0.662,2.854-1.946,3.319-3.689c0.114-0.428-0.354-0.774-0.734-0.565
						c-1.668,0.917-3.593,1.015-5.334,0.228c0.06,0.228,0.12,0.456,0.179,0.684c0.173-0.305,0.347-0.61,0.52-0.915
						C346.058,325.789,345.195,325.285,344.877,325.845L344.877,325.845z"/>
				</g>
				<g>
					<path style="fill:#D36D66;" d="M338.677,312.685c1.111-0.758,2.459-0.747,3.561,0.025c0.528,0.37,1.029-0.497,0.505-0.864
						c-1.368-0.958-3.192-0.966-4.571-0.025C337.644,312.182,338.144,313.049,338.677,312.685L338.677,312.685z"/>
				</g>
				<g>
					<path style="fill:#D36D66;" d="M351.392,312.904c1.228-1.427,3.12-1.868,4.858-1.158c0.595,0.243,0.855-0.724,0.266-0.964
						c-2.036-0.832-4.399-0.25-5.831,1.415C350.267,312.683,350.971,313.393,351.392,312.904L351.392,312.904z"/>
				</g>
				<g>
					<path style="fill:#432E7D;" d="M337.304,307.79c1.179-0.298,2.333-0.249,3.487,0.128c0.613,0.2,0.876-0.765,0.266-0.964
						c-1.319-0.431-2.675-0.467-4.019-0.128C336.415,306.983,336.679,307.948,337.304,307.79L337.304,307.79z"/>
				</g>
				<g>
					<path style="fill:#432E7D;" d="M350.321,307.194c1.104-0.358,2.208-0.716,3.311-1.074c0.61-0.198,0.349-1.164-0.266-0.964
						c-1.104,0.358-2.208,0.716-3.312,1.074C349.446,306.428,349.707,307.393,350.321,307.194L350.321,307.194z"/>
				</g>
				<g>
					<path style="fill:#D36D66;" d="M370.35,312.803c-0.155-1.006-0.497-2.906,0.572-3.397c1.528-0.703,2.757,2.694,2.808,3.956
						c0.048,1.207-0.626,4.79-2.407,4.863c-0.641,0.027-0.645,1.027,0,1c1.657-0.069,2.325-1.533,2.865-2.92
						c0.759-1.953,0.736-4.063-0.35-5.892c-0.634-1.067-2.286-3.24-3.725-2.135c-1.278,0.982-0.933,3.449-0.727,4.791
						C369.483,313.703,370.447,313.434,370.35,312.803L370.35,312.803z"/>
				</g>
				<g>
					<path style="fill:#53409B;" d="M354.781,291.411c2.34,3.332,4.852,6.526,7.539,9.585c0.426,0.484,1.13-0.225,0.707-0.707
						c-2.631-2.995-5.091-6.121-7.382-9.383C355.277,290.384,354.41,290.883,354.781,291.411L354.781,291.411z"/>
				</g>
				<g>
					<path style="fill:#53409B;" d="M360.164,288.317c2.911,4.083,6.128,7.908,9.658,11.47c0.454,0.458,1.161-0.249,0.707-0.707
						c-3.47-3.501-6.639-7.254-9.501-11.268C360.657,287.293,359.789,287.791,360.164,288.317L360.164,288.317z"/>
				</g>
				<g>
					<path style="fill:#53409B;" d="M365.492,286.653c5.397,4.238,10.765,9.057,12.575,15.934c0.164,0.622,1.129,0.358,0.964-0.266
						c-1.856-7.048-7.291-12.024-12.832-16.375C365.699,285.553,364.986,286.256,365.492,286.653L365.492,286.653z"/>
				</g>
				<g>
					<path style="fill:#53409B;" d="M337.162,300.077c2.087-4.286,4.732-8.197,7.947-11.719c0.433-0.474-0.272-1.184-0.707-0.707
						c-3.27,3.583-5.979,7.559-8.104,11.921C336.018,300.149,336.88,300.656,337.162,300.077L337.162,300.077z"/>
				</g>
				<g>
					<path style="fill:#53409B;" d="M335.565,294.254c1.309-2.772,3.084-5.216,5.32-7.314c0.47-0.441-0.238-1.147-0.707-0.707
						c-2.294,2.152-4.132,4.672-5.477,7.517C334.428,294.328,335.29,294.836,335.565,294.254L335.565,294.254z"/>
				</g>
				<g>
					<path style="fill:#53409B;" d="M370.401,341.085c1.824-4.428,2.849-9.044,3.096-13.823c0.033-0.643-0.967-0.641-1,0
						c-0.243,4.707-1.267,9.203-3.06,13.557C369.192,341.414,370.159,341.673,370.401,341.085L370.401,341.085z"/>
				</g>
				<g>
					<path style="fill:#53409B;" d="M376.68,337.003c0.662-3.926,1.145-7.868,1.446-11.839c0.049-0.642-0.952-0.639-1,0
						c-0.294,3.88-0.763,7.735-1.41,11.573C375.61,337.367,376.573,337.638,376.68,337.003L376.68,337.003z"/>
				</g>
				<g>
					<path style="fill:#53409B;" d="M385.074,318.389c0.236-1.929,0.051-3.815-0.544-5.664c-0.196-0.61-1.162-0.349-0.964,0.266
						c0.569,1.769,0.733,3.556,0.508,5.398C383.996,319.026,384.997,319.021,385.074,318.389L385.074,318.389z"/>
				</g>
				<g>
					<path style="fill:#53409B;" d="M336.628,338.55c0.299-2.822,0.482-5.649,0.551-8.486c0.016-0.644-0.984-0.643-1,0
						c-0.068,2.837-0.252,5.664-0.551,8.486C335.56,339.189,336.561,339.184,336.628,338.55L336.628,338.55z"/>
				</g>
				<g>
					<path style="fill:#53409B;" d="M341.889,338.724c0.041-1.249,0.083-2.499,0.124-3.748c0.021-0.644-0.979-0.643-1,0
						c-0.041,1.249-0.083,2.499-0.124,3.748C340.868,339.368,341.868,339.367,341.889,338.724L341.889,338.724z"/>
				</g>
				<g>
					<path style="fill:#D36D66;" d="M345.545,358.024c3.363-0.359,6.559,0.265,9.525,1.896c0.564,0.31,1.069-0.553,0.505-0.863
						c-3.106-1.708-6.503-2.409-10.03-2.032C344.912,357.091,344.905,358.092,345.545,358.024L345.545,358.024z"/>
				</g>
				<g>
					<path style="fill:#D36D66;" d="M361.142,359.952c2.551-2.624,6.17-3.223,9.64-3.73c0.634-0.093,0.365-1.056-0.266-0.964
						c-3.659,0.534-7.403,1.233-10.081,3.987C359.986,359.706,360.692,360.414,361.142,359.952L361.142,359.952z"/>
				</g>
			</g>
			<g>
				<path style="fill:#61C499;" d="M418.74,428.135c-6.568,0.769-8.551,0.843-13.92-3.018c-0.675-0.485-5.584-8.137-5.57-13.109
					c0.025-8.827-0.243-15.345-4.482-23.322c-5.277-9.931-5.239-42.029,4.535-39.601c12.182,3.026,16.236,24.675,20.296,37.56
					C422.491,395.823,430.781,426.725,418.74,428.135z"/>
				<path style="fill:#F49484;" d="M425.414,416.743c0.239-10.272-10.192-23.506-14.042-27.846
					c-6.254-7.05-18.517-20.914-17.034-23.155c2.108-3.185,3.044-12.156,3.435-15.027c0.691-5.075-3.037-5.231-3.037-5.231
					c-0.427-6.807-6.141-2.767-6.141-2.767c-0.101-3.678,4.042-17.201,2.018-18.206c-3.307-1.641-4.848,12.895-7.694,18.633
					c0.366-5.642,0.366-5.642,0.735-12.943c0.164-3.258,1.81-8.002-1.68-5.975c-0.661,1.333-2.021,9.925-3.097,16.914
					c-0.817,3.493-0.994,4.68-1.72,8.741c-0.544,3.043-2.106,6.077-1.814,8.136c0.135,5.729,3.987,10.897,3.987,10.897
					c4.323,7.586,16.917,49.969,27.66,55.801C415.3,429.224,425.177,426.933,425.414,416.743z"/>
				<g>
					<path style="fill:#D36D66;" d="M376.595,359.891c1.241-1.892,2.685-5.258,4.741-6.296c2.235-1.127,6.672-1.57,9.066-0.688
						c0.524,0.193,1.76,0.948,1.758,1.636c-0.002,0.744-1.018,1.025-1.552,1.192c-1.04,0.324-2.156,0.419-3.235,0.521
						c-2.654,0.249-3.935,1.613-5.189,3.934c-0.306,0.566,0.557,1.072,0.863,0.505c0.822-1.521,1.721-3.021,3.54-3.374
						c0.532-0.103,1.111-0.089,1.649-0.15c1.195-0.136,2.512-0.272,3.598-0.824c2.186-1.111,1.21-3.356-0.735-4.252
						c-2.596-1.195-7.146-0.579-9.726,0.403c-2.664,1.014-4.169,4.647-5.64,6.89C375.377,359.926,376.243,360.428,376.595,359.891
						L376.595,359.891z"/>
				</g>
				<g>
					<path style="fill:#D36D66;" d="M388.112,346.964c-0.555,1.12-1.111,2.24-1.666,3.359c-0.285,0.575,0.577,1.082,0.864,0.505
						c0.555-1.12,1.111-2.24,1.666-3.359C389.26,346.894,388.398,346.387,388.112,346.964L388.112,346.964z"/>
				</g>
				<g>
					<path style="fill:#D36D66;" d="M391.738,353.023c0.632-1.087,1.377-2.1,2.009-3.188c0.324-0.557-0.54-1.062-0.863-0.505
						c-0.632,1.087-1.377,2.1-2.009,3.188C390.551,353.076,391.415,353.58,391.738,353.023L391.738,353.023z"/>
				</g>
				<g>
					<path style="fill:#D36D66;" d="M389.972,356.102c-1.307,1.134-0.309,3.258,1.281,3.41c2.345,0.224,3.372-2.204,3.912-4.041
						c0.182-0.619-0.783-0.883-0.964-0.266c-0.33,1.122-0.689,2.433-1.775,3.055c-0.532,0.305-1.313,0.423-1.77-0.078
						c-0.363-0.398-0.388-1.017,0.023-1.374C391.166,356.387,390.456,355.682,389.972,356.102L389.972,356.102z"/>
				</g>
				<g>
					<path style="fill:#D36D66;" d="M382.66,360.746c1.708,0.002,3.263,0.808,4.224,2.227c0.359,0.53,1.225,0.03,0.863-0.505
						c-1.159-1.712-3.014-2.719-5.087-2.722C382.017,359.745,382.016,360.745,382.66,360.746L382.66,360.746z"/>
				</g>
			</g>
		</g>
	</g>
	<g>
		<path style="fill:#E7E9F2;" d="M84.803,277.999c-4.729,10.393-4.555,22.527-1.488,33.526c0.961,3.444,2.205,6.92,1.952,10.487
			c-0.404,5.681-4.45,10.326-8.03,14.756c-17.811,22.033-28.544,49.698-30.253,77.978c-0.591,9.78-0.065,19.907,4.015,28.815
			c8.051,17.578,28.563,26.672,47.894,26.963c19.332,0.291,38.723-4.72,56.176-13.038c39.408-18.782,90.024-63.409,51.828-106.73
			c-6.257-7.097-12.235-15.02-13.724-24.363c-1.243-7.805,0.624-15.717,1.752-23.539c1.47-10.19,1.662-20.749-1.271-30.618
			C179.171,223.51,102.045,240.106,84.803,277.999z"/>
		<g>
			<g>
				<path style="fill:#FAFAFA;" d="M94.405,334.04c-4.056,1.928-10.195,4.892-11.954,9.024c-2.002,4.704-2.339,5.687-1.146,10.658
					c5.145,21.433,9.526,41.751,14.733,63.169c2.362,9.717-2.161,45.117-1.157,55.067c23.512,1.253,86.505,1.309,86.44,0.32
					c-1.5-22.75,0.364-70.022,3.226-84.791c3.314-17.106-7.168-58.245-8.688-58.782c-11.155-3.939-9.319-3.498-21.13-4.17
					c-11.587-0.659-26.213-1.953-37.821-1.426C107.118,323.555,103.217,329.005,94.405,334.04z"/>
				<g>
					<g>
						<path style="fill:#E8E5E2;" d="M120.583,471.182c3.4,0.668,6.813,0.859,10.272,0.881c2.896,0.019,6.004,0.419,8.875,0.045
							c1.996-0.26,3.987-0.786,5.91-1.37c1.488-0.452,3.371-0.914,4.536-2.013c0.469-0.442-0.239-1.149-0.707-0.707
							c-1.22,1.151-3.377,1.56-4.937,2.001c-1.775,0.502-3.671,1.051-5.52,1.173c-2.529,0.166-5.181-0.113-7.722-0.126
							c-3.517-0.019-6.979-0.168-10.44-0.848C120.22,470.094,119.951,471.058,120.583,471.182L120.583,471.182z"/>
					</g>
					<g>
						<path style="fill:#E8E5E2;" d="M125.644,414.06c2.013,1.035,3.757,2.628,5.616,3.915c1.999,1.383,4.048,2.694,6.142,3.928
							c1.828,1.078,3.738,2.331,5.716,3.113c0.984,0.389,1.759,0.532,2.507-0.272c0.438-0.471-0.268-1.18-0.707-0.707
							c-1.236,1.329-8.829-4.082-10.118-4.905c-2.906-1.857-5.596-4.364-8.652-5.935
							C125.577,412.903,125.071,413.765,125.644,414.06L125.644,414.06z"/>
					</g>
					<g>
						<path style="fill:#E8E5E2;" d="M125.665,430.702c5.153,6.419,12.421,10.702,20.532,12.103c0.629,0.109,0.9-0.855,0.266-0.964
							c-7.967-1.377-15.029-5.542-20.091-11.846C125.969,429.493,125.266,430.205,125.665,430.702L125.665,430.702z"/>
					</g>
					<g>
						<path style="fill:#E8E5E2;" d="M123.426,335.1c7.348,4.368,16.399,4.655,24.022,0.799c0.574-0.291,0.069-1.154-0.505-0.863
							c-7.305,3.696-15.979,3.382-23.013-0.799C123.376,333.907,122.873,334.771,123.426,335.1L123.426,335.1z"/>
					</g>
					<g>
						<path style="fill:#E8E5E2;" d="M133.191,344.51c2.774,0.467,5.548,0.934,8.322,1.401c0.629,0.106,0.9-0.857,0.266-0.964
							c-2.774-0.467-5.548-0.934-8.322-1.401C132.827,343.439,132.557,344.403,133.191,344.51L133.191,344.51z"/>
					</g>
				</g>
			</g>
			<g>
				<path style="fill:#F29E91;" d="M118.843,320.871c-0.029,0.818-1.755,1.441-1.934,2.239c5.228,3.134,6.352,9.209,18.925,9.215
					c16.013,0.008,19.751-6.642,18.897-7.789c-0.438-0.588-1.097-0.977-1.555-1.55c-0.813-1.016,0.238-17.301-0.475-21.749
					c-0.06-0.376-23.537,3.677-33.386,1.368C119.86,307.646,120.465,321.063,118.843,320.871z"/>
				<path style="fill:#FFAF9D;" d="M117.637,301.022c1.197,3.778,2.522,7.722,5.415,10.43c4.212,3.942,10.649,9.876,16.417,9.967
					c3.86,0.061,8.016-5.635,10.919-8.179c3.031-2.655,3.572-7.091,3.91-11.105c0.36-4.269,1.727-7.019,2.086-11.288
					c0.565-6.707,1.518-21.314-9.226-27.454c-6.113-3.494-15.846-1.548-22.504,0.743
					C107.504,270.036,113.951,289.389,117.637,301.022z"/>
				<path style="fill:#312553;" d="M119.759,272.705c11.803,2.262,20.458,2.282,32.087-0.75c2.452,9.233,2.632,17.01,3.435,21.999
					c1.81-3.884,2.634-3.486,3.374-5.034c0.74-1.549,0.138-15.656-0.5-18.517c2.887-1.97,2.147-6.022,1.16-9.374
					c-1.203-4.087-5.442-6.685-9.664-7.255c-4.223-0.57-8.476,0.49-12.605,1.542c-4.01,1.021-8.02,2.042-12.029,3.063
					c-3.318,0.845-6.686,1.696-10.11,1.627c-3.424-0.069-6.97-1.174-9.284-3.698c0.109,5.805,2.715,11.133,7.707,14.095
					c-2.033,7.423-2.299,19.757,1.234,21.305C121.275,294.649,118.915,272.543,119.759,272.705z"/>
				<path style="fill:#FFAF9D;" d="M119.096,294.316l-0.032-2.123c-0.425-2.316-1.365-4.596-2.967-5.892
					c-1.603-1.295-3.942-1.327-5.293,0.355c-1.019,1.27-1.301,3.236-1.077,5.007c0.224,1.772,0.886,3.405,1.539,5.004
					c0.653,1.6,1.334,3.245,2.44,4.398c1.106,1.153,2.757,1.694,4.016,0.816C119.667,300.524,119.513,297.039,119.096,294.316z"/>
				<path style="fill:#FFAF9D;" d="M160.333,286.981c-0.358-0.761-0.824-1.486-1.471-1.92c-1.595-1.069-3.305,0.478-4.739,1.862
					c-3.056,2.949-1.833,15.221,0.176,15.211c2.945,0.194,4.185-2.48,5.762-5.371C161.637,293.871,161.745,289.984,160.333,286.981z
					"/>
				<g>
					<path style="fill:#D37A71;" d="M137.612,287.541c0.122,2.896,0.6,5.739,1.555,8.483c0.387,1.112,0.846,2.206,1.37,3.261
						c0.567,1.142,1.544,2.088,0.191,3.443c-0.705,0.707-2.36,0.907-3.24,0.968c-0.638,0.044-0.643,1.045,0,1
						c1.972-0.137,5.66-1.081,5.202-3.561c-0.133-0.718-0.959-1.685-1.29-2.355c-0.611-1.235-1.124-2.517-1.538-3.831
						c-0.76-2.412-1.144-4.884-1.25-7.408C138.585,286.899,137.585,286.896,137.612,287.541L137.612,287.541z"/>
				</g>
				<g>
					<path style="fill:#D37A71;" d="M131.703,308.15c3.02,1.066,6.09,1.353,9.26,0.925c0.635-0.086,0.365-1.049-0.266-0.964
						c-2.98,0.403-5.895,0.075-8.729-0.925C131.361,306.971,131.099,307.937,131.703,308.15L131.703,308.15z"/>
				</g>
				<g>
					<path style="fill:#D37A71;" d="M134.526,311.503c1,0.165,2.001,0.331,3.001,0.496c0.63,0.104,0.9-0.859,0.266-0.964
						c-1-0.165-2-0.331-3.001-0.496C134.162,310.434,133.891,311.398,134.526,311.503L134.526,311.503z"/>
				</g>
				<g>
					<path style="fill:#D37A71;" d="M115.701,288.988c-7.47-3.74-2.392,12.479,0.457,11.372c0.593-0.23,0.335-1.198-0.266-0.964
						c-1.145,0.445-5.671-12.035-0.696-9.544C115.77,290.139,116.277,289.277,115.701,288.988L115.701,288.988z"/>
				</g>
				<g>
					<path style="fill:#D37A71;" d="M155.902,288.965c1.224,0.269,1.803,0.865,1.738,1.788c0.025,0.413,0.028,0.827,0.007,1.241
						c-0.035,0.921-0.168,1.836-0.375,2.733c-0.383,1.657-0.958,3.729-2.529,4.611c-0.561,0.315-0.058,1.179,0.505,0.863
						c3.051-1.712,3.733-7.037,3.342-10.156c-0.207-1.65-2.459-4.062-3.552-1.586C154.781,289.043,155.642,289.553,155.902,288.965
						L155.902,288.965z"/>
				</g>
				<ellipse style="fill:#312553;" cx="129.155" cy="291.452" rx="1.176" ry="1.91"/>
				<path style="fill:#312553;" d="M147.051,290.811c0,1.055-0.526,1.91-1.176,1.91c-0.649,0-1.176-0.855-1.176-1.91
					s0.526-1.91,1.176-1.91C146.524,288.901,147.051,289.756,147.051,290.811z"/>
				<g>
					<path style="fill:#312553;" d="M124.918,285.061c2.326-0.667,4.392-0.807,6.785-0.421c0.63,0.102,0.9-0.862,0.266-0.964
						c-2.565-0.414-4.818-0.296-7.317,0.421C124.034,284.274,124.297,285.239,124.918,285.061L124.918,285.061z"/>
				</g>
				<g>
					<path style="fill:#312553;" d="M142.825,284.574c2.053-0.151,4.105-0.302,6.158-0.452c0.638-0.047,0.643-1.047,0-1
						c-2.053,0.151-4.105,0.302-6.158,0.452C142.187,283.621,142.182,284.622,142.825,284.574L142.825,284.574z"/>
				</g>
				<g>
					<path style="fill:#3F3468;" d="M112.703,263.308c4.231,3.338,8.965,5.75,14.161,7.181c0.621,0.171,0.886-0.793,0.266-0.964
						c-5.021-1.383-9.631-3.698-13.72-6.924C112.91,262.207,112.198,262.91,112.703,263.308L112.703,263.308z"/>
				</g>
				<g>
					<path style="fill:#3F3468;" d="M123.309,262.719c3.188,3.619,7.024,6.447,11.428,8.416c0.583,0.26,1.092-0.601,0.505-0.864
						c-4.327-1.935-8.092-4.702-11.226-8.26C123.59,261.528,122.885,262.238,123.309,262.719L123.309,262.719z"/>
				</g>
				<g>
					<path style="fill:#3F3468;" d="M131.394,262.816c2.889,2.111,5.778,4.222,8.667,6.333c0.52,0.38,1.02-0.487,0.505-0.863
						c-2.889-2.111-5.778-4.222-8.667-6.333C131.378,261.573,130.879,262.44,131.394,262.816L131.394,262.816z"/>
				</g>
				<g>
					<path style="fill:#3F3468;" d="M139.249,259.608c1.805,2.649,4.09,4.851,6.809,6.549c0.547,0.342,1.05-0.523,0.505-0.863
						c-2.572-1.607-4.742-3.684-6.45-6.191C139.752,258.574,138.885,259.074,139.249,259.608L139.249,259.608z"/>
				</g>
				<g>
					<path style="fill:#3F3468;" d="M145.613,258.082c1.825,1.733,3.381,3.679,4.665,5.843c0.328,0.553,1.193,0.051,0.863-0.505
						c-1.326-2.235-2.937-4.257-4.822-6.046C145.854,256.932,145.145,257.638,145.613,258.082L145.613,258.082z"/>
				</g>
			</g>
			<path style="fill:#FFAF9D;" d="M119.759,372.823c1.402,0.222,2.868,0.41,4.218-0.031c1.35-0.441,2.539-1.698,2.428-3.114
				c-0.077-0.978-0.735-1.821-0.91-2.787c-0.277-1.529,0.681-2.979,1.037-4.491c0.237-1.006,0.724-4.623-0.732-4.889
				c-1.382-0.254-2.229,2.404-2.662,3.266c-0.83,1.653-2.026,2.675-2.395,4.548C120.26,367.78,120.085,370.341,119.759,372.823z"/>
			<g>
				<g>
					<path style="fill:#CC993E;" d="M151.846,474.86c10.108-0.908,23.322,0.013,33.345-1.582c1.892-39.437-0.87-82.24-3.657-123.839
						c-0.186-2.769,4.499-11.343,2.674-13.405c-1.416-1.6-31.708-15.18-31.034-13.048c1.558,4.927,3.054,21.516,2.744,26.471
						c-1.225,19.559-0.48,28.8-1.293,48.381C153.7,420.178,152.773,452.519,151.846,474.86z"/>
					<g>
						<g>
							<path style="fill:#AD7B34;" d="M156.832,327.294c2.292,6.079,5.154,11.945,7.228,18.105c0.995,2.956,1.775,5.98,2.242,9.066
								c0.28,1.851,0.782,3.349-0.564,4.694c-1.028,1.028-2.425,2.479-3.76,2.996c-0.365,0.141-0.477,0.532-0.221,0.836
								c1.093,1.299,2.598,2.205,3.564,3.618c1.816,2.655,0.679,5.714-0.314,8.458c-0.219,0.606,0.747,0.867,0.964,0.266
								c0.925-2.555,2.01-5.478,0.858-8.153c-0.899-2.087-2.954-3.219-4.365-4.896c-0.074,0.279-0.147,0.557-0.221,0.836
								c2.065-0.799,3.382-2.817,5.256-3.947c0.143-0.087,0.26-0.258,0.248-0.432c-0.79-11.393-5.992-21.215-9.951-31.712
								C157.571,326.432,156.604,326.69,156.832,327.294L156.832,327.294z"/>
						</g>
						<g>
							<path style="fill:#C4903B;" d="M162.599,430.532c2.886-4.741,6.247-9.121,10.081-13.135c0.445-0.465-0.262-1.174-0.707-0.707
								c-3.893,4.075-7.307,8.523-10.238,13.337C161.4,430.578,162.265,431.081,162.599,430.532L162.599,430.532z"/>
						</g>
						<g>
							<path style="fill:#C4903B;" d="M162.58,447.184c3.401-5.393,8.052-9.684,13.689-12.66c0.569-0.301,0.065-1.164-0.505-0.863
								c-5.782,3.052-10.561,7.49-14.048,13.019C161.372,447.225,162.237,447.728,162.58,447.184L162.58,447.184z"/>
						</g>
					</g>
				</g>
				<g>
					<path style="fill:#C4903B;" d="M215.126,420.896c-0.017,3.265-1.943,3.834-7.034,7.996c-7.644,6.25-13.784-7.47-17.031-14.187
						c-2.078-4.299-21.405-35.76-18.905-59.482c0.742-7.036,3.176-22.991,12.054-19.19c6.675,2.858,10.95,12.105,13.113,17.168
						C208.322,378.945,215.236,400.404,215.126,420.896z"/>
					<path style="fill:#FFAF9D;" d="M151.067,363.46c-2.509-0.592-3.787-4.26-6.343-4.596c-0.84-0.111-1.702-0.206-2.525-0.008
						c-2.473,0.595-3.628,3.48-5.796,4.811c-1.215,0.746-2.699,0.967-3.903,1.733c-1.203,0.765-2.035,2.512-1.117,3.603
						c0.825,0.981,2.4,0.716,3.568,0.188c1.168-0.529,2.409-1.254,3.646-0.917c-0.153,2.029-0.306,4.058-0.459,6.088
						c-0.099,1.313-0.146,2.788,0.736,3.766c0.401,0.444,0.948,0.724,1.477,1.004c7.262,3.839,11.474,9.423,17.554,14.947
						c3.761-3.724,9.475-7.448,13.235-11.172c-1.13,1.119-9.662-7.635-10.485-8.7C158.153,370.97,151.984,363.677,151.067,363.46z"
						/>
					<path style="fill:#C4903B;" d="M185.192,425.021c2.9,3.713,21.4,17.303,28.9,0c5.054-11.66-8.937-22.512-15.061-26.192
						c-4.567-2.744-22.652-16.498-34.209-22.42c-1.436-0.736-13.952,13.916-8.903,18.058
						C171.141,406.955,176.909,414.418,185.192,425.021z"/>
					<g>
						<path style="fill:#AD7B34;" d="M175.663,340.224c-4.518,5.616-4.604,13.75-4.641,20.622c-0.024,4.517,0.303,9.104,1.7,13.428
							c1.459,4.519,4.151,8.438,6.85,12.293c0.366,0.523,1.234,0.024,0.863-0.505c-2.473-3.532-4.99-7.118-6.461-11.207
							c-1.509-4.194-1.934-8.681-1.955-13.111c-0.031-6.808-0.14-15.229,4.351-20.813
							C176.769,340.434,176.066,339.722,175.663,340.224L175.663,340.224z"/>
					</g>
					<g>
						<path style="fill:#AD7B34;" d="M179.59,386.635c8.939,4.643,19.004,10.2,21.206,20.94c0.129,0.63,1.093,0.363,0.964-0.266
							c-2.255-10.994-12.5-16.777-21.666-21.538C179.525,385.476,179.018,386.338,179.59,386.635L179.59,386.635z"/>
					</g>
					<g>
						<path style="fill:#AD7B34;" d="M195.835,396.655c3.094,0.562,5.624,2.498,6.972,5.34c0.276,0.581,1.138,0.074,0.863-0.505
							c-1.446-3.049-4.249-5.197-7.57-5.8C195.471,395.576,195.202,396.54,195.835,396.655L195.835,396.655z"/>
					</g>
				</g>
			</g>
			<g>
				<g>
					<path style="fill:#CC993E;" d="M120.678,346.628c1.435,38.071,0.562,86.229-2.613,124.195c-0.051,0.614-0.12,1.27-0.514,1.743
						c-0.584,0.701-1.631,0.733-2.543,0.707c-8.206-0.23-16.413-0.459-24.619-0.689c-0.848-0.024-1.79-0.087-2.374-0.703
						c-0.584-0.615-0.598-1.56-0.577-2.408c0.878-35.705,1.757-81.41,2.635-117.114c0.049-1.971,0.087-4.004-0.638-5.838
						c-1.335-3.38-6.84-4.675-6.953-8.308c-0.03-0.969,36.36-17.343,36.36-17.343C116.909,327.481,120.409,339.496,120.678,346.628z
						"/>
					<g>
						<g>
							<path style="fill:#AD7B34;" d="M115.057,324.62c-4.836,10.612-5.829,22.734-8.163,34.044
								c-0.046,0.224,0.032,0.442,0.23,0.565c1.102,0.685,2.204,1.371,3.288,2.084c0.427,0.281,1.36,0.684,1.636,1.126
								c0.424,0.679,0.422,0.14,0.008,0.984c-0.663,1.353-2.195,2.683-3.228,3.74c-0.432,0.442-0.908,0.754-1.045,1.361
								c-0.326,1.445,0.855,3.782,1.321,5.11c0.608,1.731,1.243,3.744,2.507,5.119c0.437,0.475,1.142-0.234,0.707-0.707
								c-1.479-1.608-2.134-4.2-2.765-6.236c-0.241-0.776-0.696-1.76-0.689-2.586c0.009-1.063,0.833-1.502,1.595-2.329
								c0.733-0.794,3.221-2.976,3-4.314c-0.18-1.093-2.554-2.141-3.319-2.633c-0.482-0.311-1.073-0.576-1.504-0.953
								c-0.797-0.699-0.523-0.285-0.509-1.39c0.018-1.352,0.563-2.908,0.81-4.243c0.592-3.204,1.16-6.412,1.783-9.609
								c1.227-6.294,2.525-12.76,5.199-18.627C116.185,324.543,115.324,324.034,115.057,324.62L115.057,324.62z"/>
						</g>
						<g>
							<path style="fill:#C4903B;" d="M95.941,432.258c4.031,6.009,9.002,11.21,14.817,15.516c0.518,0.383,1.017-0.484,0.505-0.863
								c-5.674-4.202-10.526-9.294-14.458-15.158C96.448,431.221,95.581,431.721,95.941,432.258L95.941,432.258z"/>
						</g>
						<g>
							<path style="fill:#C4903B;" d="M95.267,445.761c4.197,4.059,8.915,7.427,14.121,10.072c0.573,0.291,1.079-0.572,0.505-0.863
								c-5.13-2.606-9.781-5.915-13.919-9.916C95.512,444.606,94.804,445.312,95.267,445.761L95.267,445.761z"/>
						</g>
					</g>
				</g>
				<g>
					<g>
						<path style="fill:#312553;" d="M150.217,351.557h-21.494c-1.378,0-2.495,1.117-2.495,2.495v42.295
							c0,1.378,1.117,2.495,2.495,2.495h21.494c1.378,0,2.495-1.117,2.495-2.495v-42.295
							C152.712,352.674,151.595,351.557,150.217,351.557z"/>
						<path style="fill:#FAFAFA;" d="M147.076,356.535h-2.403c-0.9,0-1.629,0.73-1.629,1.63s0.729,1.629,1.629,1.629h2.403
							c0.9,0,1.63-0.729,1.63-1.629S147.976,356.535,147.076,356.535z"/>
					</g>
					<path style="fill:#FFAF9D;" d="M123.989,367.539c1.5-1,3.648,4.462,6.333,4.333c1.825-0.087,6.356,0.597,9.148,0.167
						c4.525-0.697,9.236-3.167,9.236,0.667c-2.831,1.333-5.327,2.833-7.967,3.25c-5.215,0.824-6.572,0.978-7.835,1.16
						c0.757,0.246,3.471,0.909,7.752,0.756c3.496-0.125,6.5-3.083,7.667-0.333c0.419,0.988-3.22,2.892-6.5,3.583
						c-3.863,0.814-6.833,1.205-8.919,1.25c0.619-0.036,3.919,0.417,8.589,0.115c3.203-0.207,5.913-1.698,6.02,1.619
						c-0.69,2.09-14.609,1.436-14.609,3.099c0.568,0.173,1.405,1.097,3.779,1.766c2.128,0.6,7.306-1.711,6.361,1.567
						c-0.32,1.112-10.906,0.88-12.052,1.042c-2.672,0.376-2.829,0.789-5.491,0.347c-0.841-0.139-1.706-0.319-2.535-0.119
						c-0.826,0.199-1.515,0.753-2.173,1.29c-3.839,3.137-7.678,6.273-11.517,9.41c-1.662-2.919-3.324-5.837-4.987-8.756
						c-0.237-0.417-0.481-0.853-0.506-1.332c-0.043-0.823,0.555-1.525,1.12-2.124c2.746-2.915,0.439-3.249,3.084-6.19
						C110.394,381.431,120.9,369.598,123.989,367.539z"/>
					<path style="fill:#C4903B;" d="M67.842,432.005c6.608,5.915,18.83,0.206,26.152-4.8c16.162-11.049,25.466-31.853,24.857-33.128
						c-1.526-3.194-1.589-12.195-6.933-15.211c-1.262-0.712-18.64,12.291-22.912,16.919c0.602-0.186,6.101-12.492,7.9-17.601
						c3.267-9.274,4.56-23.653,1.25-33.479c-3.566-10.585-10.912-9.766-15.672-6.492C68.411,347.893,52.76,418.505,67.842,432.005z"
						/>
					<g>
						<path style="fill:#AD7B34;" d="M95.637,341.566c4.334,8.007,4.024,17.171,1.913,25.786
							c-2.179,8.894-5.348,17.523-7.859,26.325c-0.177,0.62,0.788,0.885,0.964,0.266c2.702-9.474,6.282-18.771,8.342-28.417
							c1.76-8.243,1.589-16.917-2.497-24.464C96.194,340.495,95.33,340.999,95.637,341.566L95.637,341.566z"/>
					</g>
					<g>
						<path style="fill:#AD7B34;" d="M94.51,391.125c-8.168,4.836-14.119,12.636-16.622,21.793c-0.17,0.622,0.795,0.887,0.964,0.266
							c2.436-8.913,8.211-16.488,16.162-21.196C95.568,391.661,95.065,390.796,94.51,391.125L94.51,391.125z"/>
					</g>
					<g>
						<path style="fill:#AD7B34;" d="M84.972,396.06c-4.567,2.171-8.241,5.667-10.649,10.111c-0.307,0.566,0.557,1.071,0.864,0.505
							c2.334-4.309,5.866-7.649,10.291-9.753C86.058,396.647,85.551,395.785,84.972,396.06L84.972,396.06z"/>
					</g>
				</g>
			</g>
		</g>
	</g>
	<g>
		<path style="fill:#E7E9F2;" d="M443.318,128.466c-3.807-13.587-11.383-26.07-21.544-35.845
			c-4.769-4.588-10.515-7.489-15.496-11.654c-5.618-4.697-7.037-10.917-9.485-17.585c-2.467-6.719-6.918-12.54-11.858-17.72
			c-8.521-8.935-18.907-16.394-30.754-19.873c-11.847-3.478-25.248-2.642-35.758,3.837c-8.211,5.061-21.169,13.913-26.266,22.101
			c-18.66,29.979-2.123,65.956-1.585,84.626c0.591,20.486-9.447,40.446-7.259,60.823c1.704,15.865,11.276,30.69,25.033,38.773
			s31.367,9.228,46.055,2.994c9.228-3.916,17.101-10.435,25.98-15.089c14.495-7.596,31.729-10.281,44.19-20.888
			c5.827-4.96,10.252-11.407,13.616-18.28C446.647,167.405,448.509,146.993,443.318,128.466z"/>
		<g>
			<g>
				<path style="fill:#BF7855;" d="M306.786,194.688c-0.454,2.472,13.39,18.209,16.844,14.924
					c5.415-5.15,14.724-21.002,15.594-28.424c0.564-4.818,9.415-33.936,8.812-35.22c-0.725-1.543-22.296-12.516-23.132-11.03
					C315.722,151.243,309.504,179.876,306.786,194.688z"/>
				<path style="fill:#ADB6DF;" d="M326.822,109.803c0.693,5.19-0.753,33.552,0,38.734c5.214,35.9,12.601,53.163,7.181,84.048
					c-0.423,2.409-0.872,5.032,0.287,7.185c1.477,2.744,4.928,3.627,8.001,4.145c25.448,4.289,51.925,2.335,76.467-5.645
					c3.911-10.028-3.122-20.64-5.559-31.124c-1.872-8.053-0.975-16.45-0.435-24.699c1.85-28.223-2.299-54.276-8.978-81.76
					c-6.974-2.424-13.75-5.01-20.712-6.746c0,0-13.784,9.318-23.797,11.371c-7.793,1.598-22.356-2.237-22.356-2.237
					C331.928,106.561,326.822,109.803,326.822,109.803z"/>
				<path style="fill:#ADB6DF;" d="M313.938,156.994c-1.191,3.944-1.832,3.143-2.158,7.25c-0.062,0.779,28.192,9.276,28.684,7.22
					c3.281-13.685,2.955-28.218-0.937-41.742c-0.899-3.124-3.826-23.216-12.705-19.919c-3.536,1.313-6.118,9.536-8.137,16.009
					C315.628,135.616,316.998,146.857,313.938,156.994z"/>
				<g>
					<path style="fill:#8F9CC1;" d="M380.976,123.678c-0.434,6.445-0.868,12.89-1.302,19.335c-0.043,0.642,0.957,0.64,1,0
						c0.434-6.445,0.868-12.89,1.302-19.335C382.019,123.036,381.019,123.039,380.976,123.678L380.976,123.678z"/>
				</g>
				<g>
					<path style="fill:#8F9CC1;" d="M375.029,132.032c0.537,4.464,1.467,8.819,2.822,13.108c0.193,0.611,1.159,0.35,0.964-0.266
						c-1.326-4.199-2.26-8.469-2.786-12.842C375.953,131.401,374.952,131.393,375.029,132.032L375.029,132.032z"/>
				</g>
				<g>
					<path style="fill:#8F9CC1;" d="M331.212,168.863c-0.364-1.548-0.728-3.097-1.091-4.645c-0.147-0.626-1.112-0.361-0.964,0.266
						c0.364,1.548,0.727,3.097,1.091,4.645C330.395,169.755,331.36,169.49,331.212,168.863L331.212,168.863z"/>
				</g>
				<g>
					<path style="fill:#8F9CC1;" d="M330.202,128.684c-0.259-4.886-0.371-9.772-0.335-14.664c0.005-0.644-0.995-0.644-1,0
						c-0.035,4.892,0.076,9.779,0.335,14.664C329.236,129.324,330.236,129.328,330.202,128.684L330.202,128.684z"/>
				</g>
				<g>
					<path style="fill:#8F9CC1;" d="M337.079,109.382c3.304,2.155,6.691,4.33,10.576,5.252c3.767,0.893,7.826,0.88,11.65,0.421
						c7.57-0.909,14.664-3.971,20.607-8.725c0.503-0.402-0.209-1.105-0.707-0.707c-5.93,4.744-13.148,7.772-20.72,8.522
						c-3.477,0.345-7.152,0.332-10.563-0.476c-3.804-0.902-7.105-3.042-10.337-5.151
						C337.044,108.166,336.542,109.031,337.079,109.382L337.079,109.382z"/>
				</g>
				<g>
					<path style="fill:#8F9CC1;" d="M342.938,136.721c4.753,4.963,9.416,10.036,14.299,14.872c3.913,3.875,8.232,7.353,13.62,8.857
						c0.621,0.173,0.886-0.791,0.266-0.964c-5.772-1.611-10.227-5.575-14.335-9.765c-4.43-4.519-8.765-9.136-13.142-13.706
						C343.199,135.548,342.493,136.256,342.938,136.721L342.938,136.721z"/>
				</g>
				<g>
					<path style="fill:#8F9CC1;" d="M348.334,196.187c6.46,10.623,17.024,18.237,29.152,20.984c0.627,0.142,0.894-0.822,0.266-0.964
						c-11.882-2.691-22.223-10.113-28.555-20.525C348.864,195.133,347.999,195.635,348.334,196.187L348.334,196.187z"/>
				</g>
				<g>
					<path style="fill:#8F9CC1;" d="M345.218,221.749c3.254,2.828,8.32,2.534,12.361,2.931c5.905,0.58,11.811,1.159,17.716,1.739
						c0.64,0.063,0.636-0.938,0-1c-4.948-0.486-9.896-0.971-14.844-1.457c-2.394-0.235-4.788-0.467-7.182-0.705
						c-2.61-0.259-5.273-0.413-7.345-2.215C345.442,220.621,344.731,221.326,345.218,221.749L345.218,221.749z"/>
				</g>
			</g>
			<g>
				<path style="fill:#BF7855;" d="M338.529,148.129c-1.234-1.245-5.146-9.844-5.659-11.793c-0.874-3.32-3.878-5.662-7.004-7.081
					c-8.392-3.808-18.919-2.346-25.956,3.606c2.446,2.108,6.131,0.465,9.148-0.687c3.016-1.152,7.662-0.769,7.962,2.446
					c-2.512,0.914-5.089,1.975-6.876,3.964c-1.786,1.989-2.528,5.167-1.004,7.363c0.707,0.349,1.608,0.259,2.232-0.221
					c-0.836,2.961,0.702,3.508,1.053,5.262c1.085,0.11,2.206-0.191,3.09-0.83c-0.512,3.465,0.295,7.085,4.382,4.281
					c1.642-1.127,3.39,5.999,8.082,5.32c13.551,16.965,26.225,34.124,45.058,44.929c15.25,8.75,23.48,5.359,26.25,1.5
					c3.769-5.25,16.143-36.248,18.523-44.197c0.288-0.962-6.273-5.183-7.815-5.675c-7.6-2.425-14.701-15.429-22.458-17.128
					c-2.061,11.033-2.5,22.25-6.5,36C365.397,168.099,350.471,160.288,338.529,148.129z"/>
				<path style="fill:#ADB6DF;" d="M417.819,112.899c2.89,7.408,4.666,16.947,3.968,24.789c-0.789,8.865-1.621,17.731-5.25,30.543
					c-1.039,3.671-33.48-7.957-33.462-9.457c0.182-15.901-0.48-28.781,5.462-43.924c2.604-6.637,8.314-16.057,15.25-14.162
					C411.235,102.723,415.126,105.997,417.819,112.899z"/>
				<g>
					<path style="fill:#9B5A43;" d="M312.755,144.066c0.854-2.097,2.987-3.849,5.281-3.929c0.642-0.022,0.645-1.023,0-1
						c-2.78,0.098-5.217,2.139-6.245,4.663C311.549,144.396,312.516,144.655,312.755,144.066L312.755,144.066z"/>
				</g>
				<g>
					<path style="fill:#9B5A43;" d="M316.163,147.923c0.695-1.362,1.195-4.264,3.103-4.356c0.641-0.031,0.644-1.031,0-1
						c-2.516,0.121-3.041,3.037-3.966,4.852C315.008,147.991,315.87,148.497,316.163,147.923L316.163,147.923z"/>
				</g>
				<g>
					<path style="fill:#9B5A43;" d="M319.766,152.937c0.109-1.225,0.859-3.805,2.456-3.75c0.644,0.022,0.643-0.978,0-1
						c-2.244-0.078-3.297,2.966-3.456,4.75C318.709,153.578,319.709,153.574,319.766,152.937L319.766,152.937z"/>
				</g>
				<g>
					<path style="fill:#AA684B;" d="M383.103,178.312c3.027,1.543,5.37,4.04,6.657,7.193c0.24,0.588,1.208,0.331,0.964-0.266
						c-1.385-3.395-3.843-6.122-7.116-7.791C383.036,177.157,382.529,178.019,383.103,178.312L383.103,178.312z"/>
				</g>
				<g>
					<path style="fill:#8F9CC1;" d="M382.788,158.596c-2.353-1.401-0.23-4.896,0.223-6.605c0.343-1.295,0.538-2.625,0.66-3.957
						c0.308-3.355,0.047-6.724-0.034-10.082c-0.179-7.484,1.217-14.744,4.337-21.56c0.266-0.581-0.596-1.09-0.863-0.505
						c-3.486,7.615-4.699,15.505-4.418,23.827c0.145,4.288,0.402,8.688-0.884,12.843c-0.727,2.349-2.264,5.273,0.474,6.903
						C382.837,159.79,383.341,158.926,382.788,158.596L382.788,158.596z"/>
				</g>
				<g>
					<path style="fill:#8F9CC1;" d="M391.375,111.601c1.556-2.351,3.432-4.422,5.605-6.217c0.497-0.41-0.214-1.114-0.707-0.707
						c-2.238,1.849-4.16,3.999-5.762,6.419C390.156,111.635,391.022,112.136,391.375,111.601L391.375,111.601z"/>
				</g>
			</g>
			<g>
				<path style="fill:#AA684B;" d="M342.016,100.143c-1.748,0.892-3.241,2.144-5.096,2.934c3.58,5.099,15.72,8.743,21.896,7.925
					c9.255-1.224,22.608-7.871,24.257-17.06l-7.729-2.21c-3.967-5.879-12.258-21.579-16.238-26.862
					c-3.52,8.105-16.485,17.176-25.321,17.318C335.548,86.659,343.812,99.226,342.016,100.143z"/>
				<path style="fill:#BF7855;" d="M316.905,68.966c-1.31,9.39,9.401,22.8,14.62,26.254c1.339,0.887,7.059,4.119,12.302,3.988
					c8.467-0.212,10.284-7.372,13.771-13.72c3.486-6.348,0.549-10.094,0-17.316c-0.44-5.789-0.056-14.073-3.224-18.938
					c-1.605-2.465-3.77-4.732-6.572-5.627c-1.901-0.607-3.943-0.538-5.937-0.463c-2.814,0.106-5.629,0.212-8.443,0.318
					C304.485,44.551,319.403,51.059,316.905,68.966z"/>
				<path style="fill:#8E401F;" d="M310.855,51.864c-0.349,2.175-3.472,2.605-4.618,4.487c-1.14,1.872,0.101,4.241,1.316,6.065
					c1.004,1.507,0.312,5.155,0.451,6.96c0.264,3.434,3.14,4.466,5.656,4.49c4.505,0.044,7.823-4.121,6.577-6.308
					c1.734,0.699,3.562,1.411,5.417,1.181c1.855-0.23,3.691-1.764,3.556-3.628c-0.157-2.158-2.707-4.313-1.488-6.03
					c0.466-0.656,1.308-0.95,2.106-0.849c10.492,1.318,3.271-6.797,10.535-7.29c2.507-0.584,5.914,1.1,6.676,3.939
					c1.907,7.099,2.98,8.026,7.189,10.533c1.252-0.533,1.752,3.912,2.243,5.181c0.491,1.27,2.181,0.855,2.247,2.215
					c0.151,3.069,4.184,7.128,8.818,5.878c5.848-3.989-0.776-5.919,0.571-7.7c1.276-1.687,4.051-2.68,3.771-4.776
					c-0.203-1.52-2-2.293-2.631-3.691c-1.39-3.082,3.486-6.775,1.556-9.551c-1.005-1.445-3.212-1.405-4.54-2.561
					c-2.174-1.894-0.821-5.418-1.19-8.278c-0.53-4.109-5.743-6.806-9.402-4.864c0.188-1.442-1.694-2.43-3.076-1.975
					c-1.382,0.454-2.281,1.751-3.078,2.968c-0.424-3.587-4.75-6.11-8.08-4.712c-2.409,1.011-4.246,3.636-6.855,3.516
					c-3.487-0.16-4.938-3.156-8.755-2.528c-2.365,0.389-6.386,2.669-8.696,3.742C309.739,41.709,311.951,45.026,310.855,51.864z"/>
				<path style="fill:#BF7855;" d="M360.564,66.803c-0.42-1.033-2.521-9.715-7.432-6.886c-4.524,2.607-1.091,10.001-1.091,10.001
					c0.015,2.118,3.28,6.49,5.397,6.576C361.509,76.661,362.237,70.912,360.564,66.803z"/>
				<g>
					<path style="fill:#9B5A43;" d="M328.02,73.576c0.341,2.325,2.63,3.416,2.207,5.941c-0.211,1.259-1.046,2.615-0.87,3.903
						c0.409,2.986,4.234,1.477,6.103,1.971c0.623,0.165,0.888-0.8,0.266-0.964c-1.043-0.276-2.104-0.038-3.164-0.039
						c-1.078-0.001-2.226-0.026-2.21-1.551c0.005-0.482,0.355-1.135,0.484-1.59c0.309-1.095,0.679-2.387,0.46-3.534
						c-0.324-1.693-2.053-2.635-2.312-4.402C328.891,72.676,327.927,72.946,328.02,73.576L328.02,73.576z"/>
				</g>
				<g>
					<path style="fill:#9B5A43;" d="M334.785,90.342c0.368-1.084,0.77-2.248,2.006-2.464c0.7-0.122,1.123,0.319,1.793,0.237
						c1.409-0.173,1.511-1.948,3.299-1.649c0.63,0.105,0.9-0.858,0.266-0.964c-0.818-0.137-1.608-0.088-2.336,0.36
						c-0.32,0.197-0.498,0.499-0.789,0.708c-1.016,0.733-0.986,0.247-1.851,0.172c-1.937-0.169-2.84,1.822-3.353,3.335
						C333.614,90.688,334.579,90.95,334.785,90.342L334.785,90.342z"/>
				</g>
				<g>
					<path style="fill:#9B5A43;" d="M336.922,91.194c1.26-0.179,2.453-0.556,3.598-1.11c0.579-0.28,0.073-1.143-0.505-0.863
						c-1.067,0.516-2.187,0.843-3.359,1.01C336.022,90.32,336.292,91.283,336.922,91.194L336.922,91.194z"/>
				</g>
				<g>
					<path style="fill:#8E401F;" d="M332.439,68.178c1.497-3.246,4.521-5.438,8.096-5.752c0.636-0.056,0.642-1.056,0-1
						c-3.914,0.343-7.308,2.666-8.96,6.247C331.308,68.254,332.17,68.763,332.439,68.178L332.439,68.178z"/>
				</g>
				<g>
					<path style="fill:#8E401F;" d="M319.511,73.313c-0.453-1.284,1.462-1.804,2.339-1.973c1.187-0.229,2.377-0.174,3.555,0.067
						c0.628,0.128,0.897-0.836,0.266-0.964c-1.754-0.358-3.793-0.421-5.464,0.335c-1.102,0.499-2.112,1.523-1.661,2.801
						C318.759,74.182,319.726,73.922,319.511,73.313L319.511,73.313z"/>
				</g>
				<path style="fill:#5E443B;" d="M337.326,71.548c0.467,0.946,0.374,1.946-0.208,2.233c-0.582,0.288-1.433-0.246-1.9-1.192
					c-0.467-0.946-0.374-1.946,0.208-2.233C336.008,70.068,336.859,70.602,337.326,71.548z"/>
				<path style="fill:#5E443B;" d="M325.215,76.224c0.467,0.946,0.374,1.946-0.208,2.233c-0.582,0.287-1.433-0.246-1.9-1.192
					c-0.467-0.946-0.374-1.946,0.208-2.233C323.897,74.745,324.747,75.278,325.215,76.224z"/>
				<g>
					<path style="fill:#9B5A43;" d="M354.227,64.205c1.329-0.664,2.136-0.522,2.42,0.427c0.177,0.35,0.318,0.715,0.423,1.094
						c0.19,0.571,0.325,1.161,0.454,1.748c0.25,1.143,1.144,3.752-0.023,4.631c-0.508,0.382-0.01,1.251,0.505,0.864
						c1.108-0.835,1.114-1.949,0.94-3.267c-0.269-2.032-0.595-4.738-1.907-6.411c-1.391-1.774-4.794-1.132-3.676,1.42
						C353.621,65.298,354.483,64.79,354.227,64.205L354.227,64.205z"/>
				</g>
				<g>
					<path style="fill:#A55235;" d="M314.77,56.23c-1.751,0.953-1.654,3.527-0.256,4.759c1.857,1.637,4.598,0.317,5.832-1.403
						c0.376-0.524-0.491-1.023-0.864-0.505c-0.871,1.213-2.838,2.288-4.226,1.222c-0.986-0.758-1.167-2.564,0.018-3.21
						C315.84,56.785,315.336,55.922,314.77,56.23L314.77,56.23z"/>
				</g>
				<g>
					<path style="fill:#A55235;" d="M318.045,43.907c-0.706,1.935-1.454,5.028,0.981,6.172c1.419,0.667,2.743-0.263,4.09-0.664
						c2.625-0.78,5.262-0.469,7.711,0.713c0.577,0.279,1.085-0.583,0.505-0.863c-1.997-0.964-4.079-1.451-6.307-1.235
						c-1.029,0.1-1.964,0.517-2.961,0.7c-1.013,0.185-2.448,0.39-3.406-0.332c-1.011-0.761-0.016-3.218,0.352-4.226
						C319.23,43.568,318.264,43.307,318.045,43.907L318.045,43.907z"/>
				</g>
				<g>
					<path style="fill:#A55235;" d="M330.97,41.194c1.038,3.6,5.12,4.84,8.043,2.56c0.507-0.395-0.205-1.098-0.707-0.707
						c-2.346,1.83-5.558,0.705-6.372-2.119C331.756,40.311,330.791,40.573,330.97,41.194L330.97,41.194z"/>
				</g>
				<g>
					<path style="fill:#A55235;" d="M346.044,43.773c1.231,4.819,7.223,5.874,10.141,1.922c0.382-0.518-0.485-1.017-0.864-0.505
						c-2.447,3.314-7.31,2.243-8.313-1.683C346.849,42.884,345.884,43.148,346.044,43.773L346.044,43.773z"/>
				</g>
				<g>
					<path style="fill:#A55235;" d="M351.863,53.271c1.201,2.649,4.054,4.072,6.893,3.583c0.633-0.109,0.365-1.073-0.266-0.964
						c-2.421,0.417-4.761-0.913-5.764-3.124C352.461,52.181,351.599,52.688,351.863,53.271L351.863,53.271z"/>
				</g>
				<g>
					<path style="fill:#A55235;" d="M359.455,51.16c0.7,1.728,2.18,2.996,4.036,3.308c0.63,0.106,0.9-0.858,0.266-0.964
						c-1.487-0.25-2.765-1.195-3.338-2.609C360.181,50.306,359.213,50.563,359.455,51.16L359.455,51.16z"/>
				</g>
				<g>
					<path style="fill:#A55235;" d="M311.379,66.181c0.713,2.102,3.118,3.117,5.131,2.214c0.586-0.263,0.078-1.125-0.505-0.864
						c-1.405,0.631-3.171-0.171-3.661-1.617C312.138,65.309,311.172,65.57,311.379,66.181L311.379,66.181z"/>
				</g>
				<g>
					<path style="fill:#A55235;" d="M354.754,39.832c0.817,2.991,4.49,3.885,6.569,1.556c0.427-0.479-0.277-1.188-0.707-0.707
						c-1.573,1.762-4.269,1.187-4.898-1.115C355.549,38.946,354.584,39.209,354.754,39.832L354.754,39.832z"/>
				</g>
				<g>
					<path style="fill:#A55235;" d="M320.389,53.321c1.2,2.832,4.878,3.038,6.559,0.557c0.362-0.534-0.504-1.035-0.863-0.505
						c-1.311,1.934-3.953,1.518-4.832-0.557C321.003,52.226,320.141,52.735,320.389,53.321L320.389,53.321z"/>
				</g>
				<g>
					<path style="fill:#A55235;" d="M362.453,60.021c-0.248,2.284,1.58,4.339,3.833,4.507c0.642,0.048,0.639-0.952,0-1
						c-1.754-0.132-3.019-1.796-2.833-3.507C363.522,59.382,362.522,59.387,362.453,60.021L362.453,60.021z"/>
				</g>
			</g>
			<g>
				<path style="fill:#312553;" d="M274.186,130.433c6.054,8.093,19.663,28.341,19.663,28.341l19.239-1.359
					c1.868-0.132,2.918-2.211,1.915-3.792l-16.75-26.43c-1.201-1.894-3.385-2.927-5.611-2.653l-16.818,2.071
					C273.99,126.837,273.08,128.954,274.186,130.433z"/>
				<g>
					<path style="fill:#BF7855;" d="M324.786,197.688c-0.754-5.981-6.814-12.28-10.747-16.849c-3.53-4.101-6.361-6.064-10.253-9.823
						c-1.559-1.505-7.367-6.755-8-8.828c-0.654-2.141-2.742-4.733-1.346-6.538c1.346-1.742,7.596-4.407,5.657-5.59
						c-1.68-0.744-6.955,0.66-8.06,2.128c-0.25-4.235,9-6.22,6.231-9.487c-2.67,0.046-6.713,2.078-8.981,3.487
						c0-3.803,9-8.5,4.962-9.874c-2.535,0.325-7.116,3.554-8.962,5.322c-2.16-1.875,9.035-10.126,4.931-11.056
						c-2.681-0.25-8.556,3.256-10.817,7.108c-2.261,3.852-3.032,7.911-3.564,12.346c-0.445,3.706,1.7,9.49,3.95,12.154
						c11,17.051,9.771,31.305,22.484,43.221c3.154,2.957,11.843,7.694,18.942,5.48C326.967,209.095,325.541,203.669,324.786,197.688
						z"/>
				</g>
				<g>
					<path style="fill:#9B5A43;" d="M282.046,144.054c-0.167,0.917-0.334,1.833-0.501,2.75c-0.115,0.629,0.849,0.899,0.964,0.266
						c0.167-0.917,0.334-1.833,0.501-2.75C283.125,143.691,282.162,143.421,282.046,144.054L282.046,144.054z"/>
				</g>
				<g>
					<path style="fill:#9B5A43;" d="M287.178,147.318c-0.476,0.602-1.039,1.145-1.469,1.782c-0.427,0.631-0.583,1.343-0.668,2.089
						c-0.073,0.638,0.928,0.633,1,0c0.157-1.377,1.027-2.13,1.845-3.164C288.281,147.525,287.578,146.813,287.178,147.318
						L287.178,147.318z"/>
				</g>
				<g>
					<path style="fill:#9B5A43;" d="M289.809,152.556c-0.083,0.583-0.166,1.167-0.249,1.75c-0.09,0.629,0.874,0.901,0.964,0.266
						c0.083-0.583,0.166-1.167,0.249-1.75C290.863,152.192,289.9,151.92,289.809,152.556L289.809,152.556z"/>
				</g>
				<g>
					<path style="fill:#AA684B;" d="M312.3,180.286c4.008,3.635,10.569,7.978,9.516,14.182c-0.107,0.629,0.857,0.9,0.964,0.266
						c1.145-6.745-5.401-11.188-9.773-15.154C312.531,179.147,311.822,179.852,312.3,180.286L312.3,180.286z"/>
				</g>
			</g>
		</g>
	</g>
	<g>
		<path style="fill:#E7E9F2;" d="M97.625,40.835c-10.784,6.159-21.56,13.926-26.269,25.417c-4.129,10.075-2.935,21.597,0.169,32.034
			c1.296,4.356,2.921,8.974,1.615,13.328c-1.094,3.645-4.04,6.369-6.668,9.121c-10.729,11.231-17.935,26.359-17.477,41.884
			c0.458,15.525,9.455,31.068,23.715,37.226c17.792,7.683,37.964,0.014,56.872-4.239c11.6-2.609,23.489-3.901,34.958-7.035
			c11.47-3.134,21.119-8.739,30.764-15.692c43.484-31.35,9.163-60.624,6.871-63.744c-5.962-8.114-2.236-19.348-0.246-29.218
			c1.978-9.811,1.859-20.412-2.651-29.347c-5.409-10.716-16.504-17.665-28.088-20.812c-11.583-3.148-23.774-2.986-35.776-2.753
			C123.539,27.234,107.819,35.013,97.625,40.835z"/>
		<g>
			<g>
				<path style="fill:#FFAF9D;" d="M202.431,174.164c2.053-0.414,5.975-6.282,5.243-9.537c-0.67-2.978-4.646-6.957-6.454-9.417
					c-4.904-6.675-12.705-7.544-18.662-13.299c-2.131-2.058-4.377-4.088-7.09-5.279c-2.713-1.191-6.002-1.428-8.56,0.065
					c-3.471,2.027-4.636,6.696-3.776,10.622C165.499,158.131,184.794,177.717,202.431,174.164z"/>
				<path style="fill:#626FAC;" d="M179.665,115.356c6.937,5.944,9.427,8.987,23.889,17.4c6.128,3.565-3.5,13.871-12.25,13.621
					c-3.61-0.103-6.29,7.502-8.68,10.21c-2.031,2.303-1.773,14.299-4.57,13.034c-2.798-1.266-3.548-3.141-5.577-5.446
					c-4.507-5.12-0.089-12.303-4.596-17.423c-2.701-3.068-5.441-6.196-7.136-9.915c-2.802-6.145-5.435-22.789-0.032-28.243
					C167.051,102.197,174.994,111.355,179.665,115.356z"/>
			</g>
			<g>
				<path style="fill:#626FAC;" d="M98.895,120.78c-0.476,0.972-0.897,2.01-0.886,3.092c0.023,2.313,1.927,4.095,3.504,5.787
					c9.652,10.359,4.29,25.236,2.399,39.268c-1.891,14.032-10.626,28.961-1.797,40.03c1.622,2.033-4.494,16.067-4.107,16.936
					c0.565,1.266-0.556,9.568,10.428,6.327c22.11-6.524,53.074,2.395,76.322-5.094c8.537-5.798,2.654-15.094-1.797-25.978
					c-4.223-10.326-6.831-22.22-6.441-28.861c0.351-5.981,1.481-7.159,2.6-13.045c1.119-5.885,1.2-11.201-2.4-15.99
					c-1.256-1.671-4.614-7.679-5.833-9.377c-4.837-6.737-3.576-26.676-4.703-27.364c-1.51-0.921-10.905-1.714-12.674-1.69
					c-12.421,0.165-18.433,1.434-30.66,3.63C112.392,110.329,104.123,110.099,98.895,120.78z"/>
				<g>
					<g>
						<path style="fill:#546296;" d="M115.582,168.807c3.809,2.77,7.503,4.742,12.349,4.087c5.247-0.709,9.63-3.889,13.78-6.947
							c0.513-0.378,0.014-1.246-0.505-0.863c-3.617,2.664-7.357,5.437-11.8,6.516c-5.242,1.273-9.198-0.66-13.32-3.657
							C115.566,167.564,115.066,168.431,115.582,168.807L115.582,168.807z"/>
					</g>
					<g>
						<path style="fill:#546296;" d="M150.642,165.944c4.537,1.723,9.245,4.51,14.274,3.4c3.721-0.821,8.084-3.115,10.065-6.469
							c0.328-0.555-0.536-1.059-0.863-0.505c-1.985,3.362-7.127,5.973-10.97,6.221c-4.289,0.277-8.361-2.138-12.24-3.612
							C150.306,164.751,150.045,165.717,150.642,165.944L150.642,165.944z"/>
					</g>
					<g>
						<path style="fill:#546296;" d="M167.434,130.033c1.414,7.647,5.762,14.372,8.045,21.743c0.19,0.613,1.155,0.351,0.964-0.266
							c-2.285-7.376-6.631-14.094-8.045-21.743C168.281,129.135,167.317,129.403,167.434,130.033L167.434,130.033z"/>
					</g>
					<g>
						<path style="fill:#546296;" d="M122.294,184.9c9.407,10.688,23.275,16.743,37.507,16.392c0.642-0.016,0.645-1.016,0-1
							c-13.988,0.345-27.556-5.596-36.8-16.099C122.575,183.708,121.87,184.418,122.294,184.9L122.294,184.9z"/>
					</g>
					<g>
						<path style="fill:#546296;" d="M129.043,210.531c4.411-2.063,10.163-0.834,14.826-0.264
							c5.058,0.618,10.075,1.502,15.051,2.598c0.627,0.138,0.895-0.826,0.266-0.964c-5.377-1.184-10.803-2.114-16.273-2.747
							c-4.68-0.542-9.942-1.559-14.374,0.515C127.956,209.94,128.463,210.802,129.043,210.531L129.043,210.531z"/>
					</g>
					<g>
						<path style="fill:#546296;" d="M125.146,131.688c7.915,6.088,17.698,9.125,27.668,8.611c0.64-0.033,0.644-1.033,0-1
							c-9.813,0.506-19.377-2.485-27.164-8.474C125.141,130.433,124.642,131.301,125.146,131.688L125.146,131.688z"/>
					</g>
				</g>
			</g>
			<g>
				<path style="fill:#323146;" d="M121.949,87.076c-0.182-0.307-0.51-0.492-0.824-0.663c-2.252-1.229-4.503-2.457-6.755-3.686
					c-0.203,2.082-1.834,15.732-3.508,20.676c1.775-3.259,3.583-6.511,5.358-9.77c-0.738,5.816-0.172,7.63-0.969,10.906
					c2.228-4.914,4.271-10.716,6.499-15.63C122.014,88.325,122.275,87.627,121.949,87.076z"/>
				<path style="fill:#F29E91;" d="M118.243,106.389c-1.761,1.257-5.278,1.435-9.806,3.86c5.134,2.758,10.269,5.515,15.403,8.273
					c2.972,1.596,6.015,3.217,9.345,3.759c3.174,0.516,6.622,0.462,9.512-0.949c8.931-4.36,11.49-12.588,10.813-16.51
					c-3.58,0.232-7.573,0.332-10.271-2.032c-2.13-1.866-4.974-17.15-5.262-21.978c-6.837-0.44-15.679,0.301-21.98-2.228
					C117.669,91.757,123.489,102.644,118.243,106.389z"/>
				<g>
					<g>
						<path style="fill:#E28A81;" d="M122.794,114.998c3.549,0.365,8.836-0.046,11.607,2.532c0.471,0.438,1.179-0.268,0.707-0.707
							c-3.052-2.839-8.451-2.428-12.314-2.825C122.154,113.932,122.159,114.932,122.794,114.998L122.794,114.998z"/>
					</g>
					<g>
						<path style="fill:#E28A81;" d="M138.414,116.49c0.924,0.859,1.855-0.272,2.585-0.859c1.886-1.513,4.093-2.443,6.464-2.88
							c0.632-0.117,0.364-1.08-0.266-0.964c-1.533,0.283-3.008,0.755-4.394,1.473c-0.348,0.18-3.676,2.528-3.682,2.523
							C138.65,115.345,137.941,116.051,138.414,116.49L138.414,116.49z"/>
					</g>
				</g>
			</g>
			<g>
				<path style="fill:#FFAF9D;" d="M76.887,196.544c3,11,13.608,13.996,15.183,14.163c3.792,0.402,11.13-8.889,12.15-13.496
					c1.477-6.667,1.371-16.645,2.004-23.444c0.261-2.802,0.404-5.814-1.043-8.228c-1.651-2.754-4.975-4.027-8.144-4.547
					c-5.338-0.875-11.094-0.064-15.541,3.017C71.598,170.866,74.064,186.193,76.887,196.544z"/>
				<path style="fill:#626FAC;" d="M78.805,145.437c-0.183,4.043,0.315,8.244-1.147,12.017c-0.964,2.487-2.709,4.581-4.03,6.899
					c-4.183,7.341-4.106,12.899-3.656,21.336c2.721,1.002,10.897,2.729,13.729,2.108c10.381-2.276,15.858-3.477,26.239-5.753
					c0.669-0.147,1.38-0.316,1.851-0.814c0.632-0.667,0.632-1.7,0.53-2.612c-0.495-4.414-2.468-8.576-2.825-13.003
					c-0.511-6.338,2.308-12.404,3.687-18.611c1.452-6.53,1.298-13.411-0.444-19.87C104.997,98.434,79.541,129.191,78.805,145.437z"
					/>
			</g>
			<g>
				<path style="fill:#FFAF9D;" d="M180.698,148.706c-2.081-8.969-4.301-14.921-6.528-29.662
					c-0.508-3.364-2.298-11.369-3.616-14.505c-3.358-7.986-10.283-12.066-10.804-20.713c2.393,1.625,4.786,3.25,7.179,4.875
					c0.064-6.198-2.782-12.366-7.54-16.339c-1.149-0.959-5.221-3.326-5.596-4.775c-0.545-2.106,0.531-3.536,2.646-4.044
					c2.115-0.507,5.866,3.536,7.948,4.167c2.407,0.729,5.932,2.348,8,3.778c6.61,4.571,7.979,10.37,9.322,18.293
					c4.388,25.884,24.887,42.655,29.026,68.58c1.405,8.797-6.788,21.097-17.431,14.515
					C184.66,167.532,182.809,157.804,180.698,148.706z"/>
				<g>
					<path style="fill:#312553;" d="M146.86,65.375l-6.284,14.929c-0.403,0.957,0.047,2.059,1.004,2.462l29.377,12.365
						c0.957,0.403,2.059-0.046,2.462-1.004l6.284-14.929c0.403-0.957-0.047-2.059-1.004-2.462l-29.377-12.365
						C148.365,63.969,147.263,64.418,146.86,65.375z"/>
					
						<rect x="151.39" y="65.121" transform="matrix(0.3879 -0.9217 0.9217 0.3879 24.5098 196.4116)" style="fill:#8491C1;" width="17.499" height="29.262"/>
					<g>
						<path style="fill:#FAFAFA;" d="M144.99,75.493c0.505-1.2,1.01-2.399,1.515-3.599c0.148-0.352-0.398-0.583-0.547-0.23
							c-0.505,1.2-1.01,2.399-1.515,3.599C144.295,75.615,144.842,75.846,144.99,75.493L144.99,75.493z"/>
					</g>
					<g>
						<path style="fill:#FAFAFA;" d="M175.886,86.379c0.444-1.056-1.195-1.748-1.64-0.69
							C173.801,86.744,175.441,87.437,175.886,86.379L175.886,86.379z"/>
					</g>
					<g>
						<path style="fill:#FAFAFA;" d="M160.256,85.226c1.578-0.643,3.157-1.286,4.735-1.93c0.354-0.144,0.13-0.694-0.224-0.549
							c-1.578,0.643-3.157,1.287-4.735,1.93C159.678,84.821,159.902,85.37,160.256,85.226L160.256,85.226z"/>
					</g>
					<g>
						<path style="fill:#FAFAFA;" d="M153.795,81.565c4.041-1.647,8.081-3.294,12.122-4.94c0.354-0.144,0.13-0.694-0.224-0.549
							c-4.041,1.647-8.081,3.294-12.122,4.94C153.217,81.16,153.441,81.709,153.795,81.565L153.795,81.565z"/>
					</g>
					<g>
						<path style="fill:#FAFAFA;" d="M153.492,75.946c1.136-0.463,2.273-0.926,3.409-1.39c0.354-0.144,0.13-0.694-0.224-0.549
							c-1.136,0.463-2.273,0.926-3.409,1.389C152.914,75.541,153.138,76.09,153.492,75.946L153.492,75.946z"/>
					</g>
				</g>
				<path style="fill:#FFAF9D;" d="M156.98,92.049c-1.351-0.471-3.758-0.582-5.109-1.053c-0.672-0.234-0.088-3.025,3.519-2.989
					c1.473,0.015,2.916,0.748,4.354,1.071c2.339,0.525,9.074,3.92,9.81,6.201c1,3.098-5,3.265-7.042,1.931
					C158.735,94.743,158.808,92.686,156.98,92.049z"/>
				<g>
					<path style="fill:#F29E91;" d="M182.462,157.135c0.298,2.795,1.579,5.283,3.741,7.093c0.49,0.41,1.201-0.293,0.707-0.707
						c-1.951-1.633-3.177-3.847-3.448-6.386C183.394,156.501,182.394,156.495,182.462,157.135L182.462,157.135z"/>
				</g>
			</g>
			<g>
				<path style="fill:#FFAF9D;" d="M84.477,165.908c-1.858,7.792-4.921,15.385-5.313,23.386c-0.391,8.001,2.68,16.908,9.886,20.407
					c1.525,0.741,3.212,1.214,4.906,1.129c4.917-0.248,8.4-4.954,10.141-9.56c4.949-13.095,1.726-27.649-0.561-41.459
					c-1.664-10.044-2.457-26.671-0.523-28.337c3.353-2.887,3.495-9.077,5.803-12.117c0.441-0.581,0.968-1.183,1.687-1.308
					c1.667-0.289,3.35,2.099,4.71,1.093c0.565-5.226-5.318-8.537-10.238-10.388c-1.813-0.683-3.744-1.376-5.646-1.003
					c-4.324,0.848-5.981,6.458-9.96,8.353c0.958-0.457-4.483-8.457-9.378-5.223c4.561,4.478,3.341,7.559,4.978,11.439
					c1.476,3.495,1.625,7.031,1.808,10.806C87.308,144.079,87.031,155.196,84.477,165.908z"/>
				<g>
					<path style="fill:#F29E91;" d="M79.016,190.769c0.282,1.625,0.829,3.157,1.625,4.6c0.311,0.564,1.175,0.06,0.864-0.505
						c-0.757-1.372-1.256-2.818-1.524-4.361C79.87,189.87,78.906,190.139,79.016,190.769L79.016,190.769z"/>
				</g>
				<g>
					<path style="fill:#F29E91;" d="M99.331,113.276c0.642-1.612,2.41-2.581,4.113-2.273c0.629,0.114,0.899-0.85,0.266-0.964
						c-2.286-0.413-4.485,0.818-5.343,2.972C98.129,113.608,99.096,113.868,99.331,113.276L99.331,113.276z"/>
				</g>
				<g>
					<path style="fill:#F29E91;" d="M103.184,115.351c0.775-1.313,2.014-2.172,3.507-2.467c0.631-0.125,0.364-1.089-0.266-0.964
						c-1.736,0.343-3.207,1.405-4.105,2.926C101.993,115.402,102.857,115.905,103.184,115.351L103.184,115.351z"/>
				</g>
				<g>
					<path style="fill:#F29E91;" d="M106.392,117.214c0.882-0.737,1.913-1.17,3.046-1.339c0.634-0.095,0.365-1.059-0.266-0.964
						c-1.307,0.196-2.476,0.752-3.487,1.596C105.191,116.92,105.901,117.624,106.392,117.214L106.392,117.214z"/>
				</g>
			</g>
			<g>
				<path style="fill:#323146;" d="M99.499,53.338c-1.243-0.093-2.535-0.223-3.597-0.875c-1.577-0.969-2.311-2.902-2.473-4.746
					c-0.363-4.119,1.625-8.184,4.51-11.147c2.884-2.963,6.196-6.717,10.331-6.744c7.953-0.052,7.611,6.873,7.575,9.418
					c-0.036,2.545,0.427,5.28,2.208,7.098C125.156,53.59,101.911,53.519,99.499,53.338z"/>
				<path style="fill:#FFAF9D;" d="M111.012,76.753c4.226,7.436,2.637,8.702,8.832,14.598c4.784,4.553,18.693,11.175,24.781,8.614
					c4.643-1.953,6.863-7.193,8.244-12.036c3.661-12.837,1.19-23.226-3.816-34.718c-0.971-2.228-3.196-7.409-5.322-8.586
					c-1.865-1.033-3.957-1.578-6.045-2.011c-7.485-1.551-15.699-1.655-22.313,2.179C104.451,51.125,105.561,67.16,111.012,76.753z"
					/>
				<path style="fill:#323146;" d="M127.317,61.081c1.66,2.272,2.941,4.819,3.776,7.506c5.465-2.126,9.336-2.71,12.933-4.363
					c-0.07-2.24-1.913-5.125-2.806-7.18c3.198,2,3.025,6.942,5.156,7.077c0.4,0.025,4.177-0.989,8.244-0.882
					c0.552-5.103-0.809-12.214-3.617-15.954c-2.809-3.74-11.283-11.075-31.705-5.68c-4.838,1.278-7.608,4.941-11.008,8.611
					c-4.713,5.087-5.828,13.047-4.034,19.745c1.631,6.089,6.607,12.76,8.798,15.2c0.433,0.482,3.866-1.884,4.167-2.787
					c0.781-2.352,0.44-7.623,1-9.998c0,0,8.708-2.906,9.667-3.667C128.895,67.91,128.151,64.295,127.317,61.081z"/>
				<path style="fill:#FFAF9D;" d="M119.611,82.364l-0.653-2.168c-0.973-2.455-2.33-5.86-4.967-6.005
					c-7.92-0.435-4.58,8.769-2.69,11.575c0.802,1.19,1.819,2.292,3.135,2.864c1.316,0.572,2.972,0.518,4.063-0.415
					C120.078,86.864,119.912,84.42,119.611,82.364z"/>
				<g>
					<path style="fill:#E28A81;" d="M140.946,71.788c0.499,2.039,1.156,4.018,2.043,5.923c0.494,1.061,1.053,2.093,1.672,3.087
						c0.309,0.497,0.634,0.984,0.973,1.462c-0.314,0.802-0.843,1.363-1.586,1.682c-0.559,0.319-0.056,1.184,0.505,0.863
						c1.326-0.758,2.643-1.476,1.945-3.05c-0.694-1.565-1.909-2.967-2.645-4.549c-0.851-1.828-1.464-3.728-1.942-5.684
						C141.758,70.898,140.793,71.162,140.946,71.788L140.946,71.788z"/>
				</g>
				<g>
					<path style="fill:#E28A81;" d="M142.766,86.463c0.384,0.551,0.768,1.103,1.152,1.654c0.06-0.228,0.12-0.456,0.179-0.684
						c-1.756,0.964-3.693,1.254-5.651,0.834c-0.519-0.111-0.788,0.449-0.486,0.836c1.172,1.503,2.688,2.555,4.486,3.175
						c0.61,0.21,0.872-0.755,0.266-0.964c-1.64-0.566-2.981-1.553-4.045-2.918c-0.162,0.279-0.324,0.557-0.486,0.836
						c2.226,0.477,4.426,0.16,6.422-0.935c0.223-0.123,0.331-0.466,0.179-0.684c-0.384-0.551-0.768-1.103-1.152-1.654
						C143.264,85.434,142.397,85.933,142.766,86.463L142.766,86.463z"/>
				</g>
				<path style="fill:#5E443B;" d="M133.333,75.599c0,1.055-0.526,1.91-1.176,1.91c-0.649,0-1.176-0.855-1.176-1.91
					c0-1.055,0.526-1.91,1.176-1.91C132.807,73.688,133.333,74.544,133.333,75.599z"/>
				<path style="fill:#5E443B;" d="M148.881,71.656c0,1.055-0.526,1.91-1.176,1.91c-0.649,0-1.176-0.855-1.176-1.91
					c0-1.055,0.526-1.91,1.176-1.91C148.355,69.745,148.881,70.601,148.881,71.656z"/>
				<g>
					<path style="fill:#E28A81;" d="M115.173,76.859c-2.336-1.188-4.376,1.169-4.17,3.456c0.258,2.86,2.601,6.833,5.831,6.609
						c0.639-0.044,0.643-1.045,0-1c-2.082,0.144-3.177-1.576-3.998-3.231c-0.473-0.953-0.756-1.705-0.77-2.754
						c-0.017-1.244,0.919-3.073,2.603-2.217C115.24,78.014,115.747,77.151,115.173,76.859L115.173,76.859z"/>
				</g>
				<g>
					<path style="fill:#323146;" d="M125.937,73.11c2.166-0.752,4.332-1.503,6.498-2.255c0.604-0.21,0.344-1.176-0.266-0.964
						c-2.166,0.752-4.332,1.503-6.498,2.255C125.066,72.355,125.326,73.322,125.937,73.11L125.937,73.11z"/>
				</g>
				<g>
					<path style="fill:#323146;" d="M143.436,68.106c1.673-0.366,3.227-1.05,4.624-2.041c0.521-0.369,0.022-1.237-0.505-0.864
						c-1.336,0.948-2.784,1.591-4.385,1.941C142.541,67.279,142.807,68.243,143.436,68.106L143.436,68.106z"/>
				</g>
				<g>
					<path style="fill:#43435B;" d="M109.958,68.778c-1.536-3.726-1.852-7.594-0.898-11.512c0.152-0.625-0.812-0.892-0.964-0.266
						c-0.992,4.075-0.701,8.164,0.898,12.044C109.235,69.631,110.203,69.374,109.958,68.778L109.958,68.778z"/>
				</g>
				<g>
					<path style="fill:#43435B;" d="M112.569,56.129c-0.285,3.677,0.41,7.203,2.03,10.513c0.283,0.578,1.146,0.072,0.863-0.505
						c-1.545-3.157-2.164-6.507-1.893-10.008C113.619,55.487,112.619,55.49,112.569,56.129L112.569,56.129z"/>
				</g>
				<g>
					<path style="fill:#43435B;" d="M117.77,53.878c0.169,4.392,1.073,8.587,2.751,12.654c0.242,0.587,1.21,0.33,0.964-0.266
						c-1.641-3.978-2.549-8.084-2.715-12.388C118.745,53.237,117.745,53.233,117.77,53.878L117.77,53.878z"/>
				</g>
				<g>
					<path style="fill:#43435B;" d="M125.338,52.994c3.451,2.079,5.801,5.347,6.697,9.273c0.143,0.627,1.107,0.362,0.964-0.266
						c-0.952-4.171-3.494-7.664-7.157-9.871C125.291,51.798,124.787,52.662,125.338,52.994L125.338,52.994z"/>
				</g>
				<g>
					<path style="fill:#43435B;" d="M130.056,50.053c3.012,2.231,5.305,5.151,6.81,8.579c0.258,0.588,1.12,0.08,0.864-0.505
						c-1.58-3.597-4.014-6.602-7.169-8.938C130.043,48.806,129.544,49.673,130.056,50.053L130.056,50.053z"/>
				</g>
				<g>
					<path style="fill:#43435B;" d="M135.94,47.058c4.745,1.891,8.412,5.645,10.204,10.426c0.224,0.597,1.191,0.339,0.964-0.266
						c-1.927-5.143-5.802-9.092-10.903-11.125C135.608,45.856,135.348,46.822,135.94,47.058L135.94,47.058z"/>
				</g>
				<g>
					<path style="fill:#43435B;" d="M141.301,45.808c3.864,2.046,6.787,5.334,8.321,9.434c0.223,0.597,1.19,0.339,0.964-0.266
						c-1.625-4.344-4.678-7.858-8.78-10.031C141.238,44.644,140.732,45.507,141.301,45.808L141.301,45.808z"/>
				</g>
				<g>
					<path style="fill:#43435B;" d="M98.369,43.256c-0.678,3.203,1.681,6.368,4.933,6.662c0.641,0.058,0.637-0.942,0-1
						c-2.584-0.234-4.504-2.867-3.968-5.396C99.466,42.894,98.502,42.626,98.369,43.256L98.369,43.256z"/>
				</g>
				<g>
					<path style="fill:#43435B;" d="M104.051,42.127c0.055,2.14,1.855,3.918,4,3.93c0.644,0.004,0.644-0.996,0-1
						c-1.593-0.009-2.959-1.333-3-2.93C105.035,41.485,104.035,41.482,104.051,42.127L104.051,42.127z"/>
				</g>
				<g>
					<path style="fill:#43435B;" d="M108.677,40.001c0.584,0.666,1.168,1.332,1.752,1.998c0.425,0.485,1.13-0.225,0.707-0.707
						c-0.584-0.666-1.168-1.332-1.752-1.998C108.959,38.809,108.254,39.518,108.677,40.001L108.677,40.001z"/>
				</g>
				<g>
					<path style="fill:#43435B;" d="M111.156,34.856c0.339,0.496,0.678,0.992,1.017,1.488c0.361,0.528,1.228,0.028,0.863-0.505
						c-0.339-0.496-0.678-0.992-1.017-1.488C111.658,33.823,110.791,34.323,111.156,34.856L111.156,34.856z"/>
				</g>
			</g>
		</g>
	</g>
</g>
</svg>
