<?xml version="1.0" encoding="utf-8"?>
<!-- Generator: Adobe Illustrator 26.0.0, SVG Export Plug-In . SVG Version: 6.00 Build 0)  -->
<svg version="1.1" id="Layer_1" xmlns="http://www.w3.org/2000/svg" xmlns:xlink="http://www.w3.org/1999/xlink" x="0px" y="0px"
	 viewBox="0 0 892 612" style="enable-background:new 0 0 892 612;" xml:space="preserve">
<style type="text/css">
	.st0{fill:#EBEBEB;}
	.st1{fill:#E6E6E6;}
	.st2{fill:#F0F0F0;}
	.st3{fill:#FFFFFF;}
	.st4{fill:#E0E0E0;}
	.st5{fill:#F5F5F5;}
	.st6{fill:#FAFAFA;}
	.st7{fill:#3C76B4;}
	.st8{opacity:0.3;fill:#FFFFFF;enable-background:new    ;}
	.st9{fill:#F88B7B;}
	.st10{fill:#263238;}
	.st11{fill:#F55552;}
	.st12{opacity:0.2;enable-background:new    ;}
	.st13{opacity:0.4;enable-background:new    ;}
	.st14{opacity:0.3;enable-background:new    ;}
	.st15{opacity:0.6;fill:#3C76B4;enable-background:new    ;}
	.st16{opacity:0.3;fill:#3C76B4;enable-background:new    ;}
</style>
<g id="Background_Complete">
	<g>
		<rect x="89.1" y="530.6" class="st0" width="795.5" height="0.4"/>
		<rect x="550.8" y="541.5" class="st0" width="40.5" height="0.4"/>
		<rect x="717.7" y="550.1" class="st0" width="96" height="0.4"/>
		<rect x="443" y="541.7" class="st0" width="99.2" height="0.4"/>
		<rect x="358" y="553.6" class="st0" width="20.7" height="0.4"/>
		<rect x="398.9" y="553.6" class="st0" width="94.5" height="0.4"/>
		<rect x="172.6" y="546.8" class="st0" width="61.2" height="0.4"/>
		<path class="st0" d="M466.2,459.7H159c-5,0-9.1-4.1-9.1-9.1V18.8c0-5,4.1-9.1,9.1-9.1h307.2c5,0,9.1,4.1,9.1,9.1v431.8
			C475.3,455.6,471.2,459.7,466.2,459.7z M159,10.1c-4.8,0-8.7,3.9-8.7,8.7v431.8c0,4.8,3.9,8.7,8.7,8.7h307.2
			c4.8,0,8.7-3.9,8.7-8.7V18.8c0-4.8-3.9-8.7-8.7-8.7L159,10.1L159,10.1z"/>
		<path class="st0" d="M810.3,459.7H503.1c-5,0-9.1-4.1-9.1-9.1V18.8c0-5,4.1-9.1,9.1-9.1h307.2c5,0,9.1,4.1,9.1,9.1v431.8
			C819.4,455.6,815.3,459.7,810.3,459.7z M503.1,10.1c-4.8,0-8.7,3.9-8.7,8.7v431.8c0,4.8,3.9,8.7,8.7,8.7h307.2
			c4.8,0,8.7-3.9,8.7-8.7V18.8c0-4.8-3.9-8.7-8.7-8.7L503.1,10.1L503.1,10.1z"/>
	</g>
	<g>
		<g>
			<g>
				<polygon class="st1" points="400.9,392.6 295.2,392.6 288.8,318.7 394.4,318.7 				"/>
				<polygon class="st2" points="406.3,392.6 300.7,392.6 294.3,318.7 399.9,318.7 				"/>
				<polygon class="st3" points="315.1,376.8 311.6,334.5 385.5,334.5 389,376.8 				"/>
			</g>
			<g>
				<rect x="412.2" y="392.6" class="st1" width="12.4" height="138"/>
				<rect x="419.9" y="392.6" class="st2" width="8.6" height="138"/>
				<rect x="308.5" y="392.6" class="st2" width="120" height="15.2"/>
				<rect x="300.4" y="407.9" class="st1" width="12.4" height="122.8"/>
				<rect x="308.1" y="407.9" class="st2" width="8.6" height="122.8"/>
				<rect x="212.2" y="407.9" class="st1" width="12.4" height="122.8"/>
				<rect x="219.9" y="407.9" class="st2" width="8.6" height="122.8"/>
				<rect x="333.8" y="407.9" class="st1" width="12.4" height="122.8"/>
				<rect x="341.5" y="407.9" class="st2" width="8.6" height="122.8"/>
				<rect x="212.2" y="392.6" class="st1" width="96.4" height="15.2"/>
			</g>
		</g>
		<g>
			<g>
				<rect x="295.1" y="48.6" class="st4" width="372.8" height="207.6"/>
				<rect x="297" y="48.6" class="st5" width="391.4" height="207.6"/>
				<rect x="303.4" y="55" class="st3" width="378.6" height="194.8"/>
				<polygon class="st5" points="456.7,249.7 528.2,55 410.2,55 338.7,249.7 				"/>
				<polygon class="st5" points="570.3,249.7 641.7,55 552.8,55 481.3,249.7 				"/>
			</g>
		</g>
		<g>
			<g>
				<rect x="754.4" y="332.4" class="st1" width="31.7" height="198.2"/>
				<polygon class="st6" points="777.8,530.6 786.1,530.6 786.1,515.4 769,515.4 				"/>
				<rect x="462.2" y="332.4" class="st1" width="31.7" height="198.2"/>
				<rect x="486.6" y="332.4" class="st6" width="299.5" height="194.1"/>
				<path class="st1" d="M780.4,395H492.3v-54.8h288.1V395z M493.9,393.4h284.9v-51.6H493.9V393.4z"/>
				<path class="st1" d="M729.7,366.8H548.6c-8.4,0-16.5-6.8-22.2-18.6l-0.6-1.1h226.6l-0.6,1.1C746.2,360,738.1,366.8,729.7,366.8z
					 M528.4,348.7c5.4,10.5,12.7,16.6,20.2,16.6h181.1c7.5,0,14.8-6,20.2-16.6H528.4z"/>
				<polygon class="st6" points="495,530.6 486.6,530.6 486.6,515.4 503.7,515.4 				"/>
				<path class="st1" d="M780.4,456.9H492.3V402h288.1V456.9z M493.9,455.3h284.9v-51.6H493.9V455.3z"/>
				<path class="st1" d="M729.7,428.7H548.6c-8.4,0-16.5-6.8-22.2-18.6l-0.6-1.1h226.6l-0.6,1.1
					C746.2,421.9,738.1,428.7,729.7,428.7z M528.4,410.5c5.4,10.5,12.7,16.6,20.2,16.6h181.1c7.5,0,14.8-6,20.2-16.6H528.4z"/>
				<path class="st1" d="M780.4,518.7H492.3v-54.8h288.1V518.7z M493.9,517.1h284.9v-51.6H493.9V517.1z"/>
				<path class="st1" d="M729.7,490.5H548.6c-8.4,0-16.5-6.8-22.2-18.6l-0.6-1.1h226.6l-0.6,1.1
					C746.2,483.7,738.1,490.5,729.7,490.5z M528.4,472.3c5.4,10.5,12.7,16.6,20.2,16.6h181.1c7.5,0,14.8-6,20.2-16.6H528.4z"/>
			</g>
		</g>
		<g>
			<polygon class="st1" points="281.6,358.6 281.6,362.5 279.1,362.5 277.1,392.6 247.1,392.6 245.1,362.5 242.6,362.5 242.6,358.6 
							"/>
			<path class="st1" d="M271.7,283.7c-2.5-18-26.7-23.1-57.5-23.8c-29.3-0.6-38.7-11-38.7-11s0.1,42,42.3,57.2
				C257.9,320.6,274.2,301.7,271.7,283.7z"/>
			<path class="st1" d="M256.7,324.5c0.5-7.4,12.3-21,40.7-14.8c20.5,4.5,28.2-6.2,28.2-6.2s-1.9,30-32.8,39.1
				C263.5,351.1,255.8,337.5,256.7,324.5z"/>
			<path class="st1" d="M263.2,370c0.3,0,0.6-0.1,0.8-0.4c2.1-2.4,0.4-8.3-2-16.3c-3-10.3-6.7-23.2-3.6-32.6c1.8-5.3,4-9.9,6.1-14.4
				c4.5-9.4,8.3-17.6,5.1-26.1c-0.2-0.6-0.8-0.9-1.4-0.6c-0.6,0.2-0.9,0.8-0.6,1.4c2.9,7.6-0.6,15-5,24.4c-2.1,4.3-4.4,9.3-6.2,14.7
				c-3.4,10,0.5,23.2,3.5,33.9c1.8,6.3,3.7,12.8,2.4,14.3c-0.4,0.5-0.3,1.2,0.1,1.5C262.7,369.9,263,370,263.2,370z"/>
		</g>
	</g>
</g>
<g id="Shadow_1_">
	<ellipse id="_x3C_Path_x3E__191_" class="st5" cx="568.8" cy="584.5" rx="308.5" ry="18"/>
</g>
<g id="Login">
	<g>
		<polygon class="st7" points="591.2,506 288.5,506 272,142.6 574.6,142.6 		"/>
		<g>
			<polygon class="st7" points="606.3,494.7 303.6,494.7 287.1,131.4 589.7,131.4 			"/>
			<polygon class="st8" points="606.3,494.7 303.6,494.7 287.1,131.4 589.7,131.4 			"/>
		</g>
	</g>
</g>
<g id="Character_1_">
	<g>
		<path class="st9" d="M702.3,199.5c2.1,3.4,3.9,6.7,5.7,10c1.8,3.4,3.5,6.8,5.1,10.3c3.2,7,6,14.2,8.1,21.8
			c0.3,0.9,0.5,1.9,0.7,2.9l0.3,1.5l0.2,0.7l0.2,1.2c0.5,3.2,0.1,5.9-0.5,8.2c-1.1,4.6-3,8.3-5,11.9c-4,7-8.7,12.9-14.1,18.6
			l-6.7-5.1c3.3-6.3,6.6-12.8,9-19.2c1.2-3.1,2.1-6.3,2.4-9c0.1-1.3,0-2.4-0.1-2.8l-0.6-1.9c-0.3-0.8-0.5-1.6-0.8-2.4
			c-2.3-6.4-5.2-12.9-8.4-19.2c-3.1-6.3-6.6-12.8-10-18.8L702.3,199.5z"/>
		<path class="st9" d="M698.1,279.3l-7.3,3.9l8.4,9.8c0,0,5.2-3.5,5.5-9L698.1,279.3z"/>
		<polygon class="st9" points="680.9,289.2 689.9,296.4 699.2,293 690.8,283.2 		"/>
		<path class="st10" d="M650.2,147.5c-0.2,0.9-0.8,1.5-1.4,1.4c-0.6-0.1-0.9-0.9-0.7-1.8c0.2-0.9,0.8-1.5,1.4-1.4
			C650.1,145.8,650.4,146.6,650.2,147.5z"/>
		<path class="st11" d="M649.5,149c0,0-3,4.7-5.8,6.7c1.3,1.8,4.1,1.7,4.1,1.7L649.5,149z"/>
		<path class="st9" d="M646.6,180.2l0.1-10.4l13.8,1.7c0,0-0.2,9-7.9,11.6L646.6,180.2z"/>
		<polygon class="st9" points="650.6,162.3 660.3,165.1 660.5,171.4 646.7,169.8 		"/>
		<path class="st12" d="M660.3,165.1l-9.7-2.8l-1.9,3.6c0.2,6.2,4,11.2,9,13.5c2.7-3.5,2.8-7.9,2.8-7.9L660.3,165.1z"/>
		<path class="st10" d="M654.4,143.2c0.1,0,0.3,0,0.4-0.1c0.2-0.2,0.2-0.5,0-0.7c-2-2.2-4.4-1.8-4.5-1.8c-0.3,0-0.5,0.3-0.4,0.6
			s0.3,0.5,0.6,0.4l0,0c0.1,0,2-0.3,3.6,1.4C654.2,143.2,654.3,143.2,654.4,143.2z"/>
		<path class="st9" d="M674.8,163.6c-1.6,8.2-2.6,19.5,3.2,25c0,0-2.2,8.3-17.4,8.3c-16.7,0-8-7.3-8-7.3c7-2.2,6.9-10.1,5.3-16.4
			L674.8,163.6z"/>
		<path class="st7" d="M681.1,194c1.5-2.1,1.4-8.8-0.2-9.9c-2.6-1.9-13.6-2.3-28.3,1.1c1.6,6.5-1.8,9.8-1.8,9.8L681.1,194z"/>
		<path class="st7" d="M730.8,571.7c-1.1,0.2-2.2,0.3-2.8-0.2c-0.2-0.2-0.5-0.6-0.3-1.2c0.1-0.4,0.3-0.6,0.7-0.8
			c1.5-0.7,5,0.7,5.1,0.8c0.1,0,0.2,0.1,0.2,0.2c0,0.1-0.1,0.2-0.1,0.2C733,571.1,731.9,571.5,730.8,571.7z M729,569.9
			c-0.1,0-0.2,0.1-0.3,0.1c-0.2,0.1-0.3,0.2-0.4,0.5c-0.1,0.5,0,0.6,0.1,0.7c0.6,0.5,2.8,0,4.4-0.6C731.7,570.2,730,569.7,729,569.9
			z"/>
		<path class="st7" d="M733.5,570.8c0,0-0.1,0-0.1,0c-1.3-0.4-4-2.3-4-3.6c0-0.2,0.1-0.6,0.7-0.9c0.4-0.1,0.8-0.1,1.2,0.1
			c1.5,0.8,2.4,3.9,2.5,4c0,0.1,0,0.2-0.1,0.3C733.6,570.8,733.6,570.8,733.5,570.8z M730.3,566.9c0,0-0.1,0-0.1,0
			c-0.3,0.1-0.3,0.3-0.3,0.3c0,0.8,1.8,2.3,3.1,2.9c-0.3-0.9-1.1-2.7-2-3.1C730.8,566.9,730.6,566.8,730.3,566.9z"/>
		<path class="st7" d="M648.2,573.6c-1.4,0-2.8-0.2-3.3-0.8c-0.2-0.2-0.3-0.6,0-1.2c0.2-0.3,0.5-0.5,0.8-0.6
			c1.9-0.5,5.8,1.7,5.9,1.8c0.1,0.1,0.1,0.2,0.1,0.3c0,0.1-0.1,0.2-0.2,0.2C650.9,573.4,649.5,573.6,648.2,573.6z M646.4,571.4
			c-0.2,0-0.4,0-0.5,0.1c-0.2,0.1-0.4,0.2-0.5,0.4c-0.2,0.3-0.1,0.5-0.1,0.6c0.5,0.7,3.3,0.7,5.4,0.4
			C649.7,572.4,647.7,571.4,646.4,571.4z"/>
		<path class="st7" d="M651.5,573.3c0,0-0.1,0-0.1,0c-1.4-0.6-4-3-3.8-4.3c0-0.3,0.3-0.7,1-0.7c0.5-0.1,1,0.1,1.5,0.5
			c1.4,1.2,1.7,4.2,1.7,4.3c0,0.1,0,0.2-0.1,0.2C651.7,573.3,651.6,573.3,651.5,573.3z M648.8,568.8c-0.1,0-0.1,0-0.2,0
			c-0.5,0-0.5,0.2-0.5,0.3c-0.1,0.8,1.7,2.7,3.1,3.5c-0.1-0.9-0.5-2.7-1.5-3.5C649.5,568.9,649.2,568.8,648.8,568.8z"/>
		<polygon class="st9" points="663.9,573 652.7,573 651.5,547.1 662.7,547.1 		"/>
		<polygon class="st9" points="746,567.9 735,570.2 724.1,546.1 735,543.7 		"/>
		<path class="st10" d="M734,569.1l12.3-2.7c0.4-0.1,0.9,0.1,1.1,0.5l4.3,9.3c0.4,1-0.1,2.1-1.2,2.3c-4.3,0.9-6.4,1.1-11.8,2.2
			c-3.3,0.7-10.8,2.5-15.4,3.5c-4.5,1-6.2-3.4-4.4-4.2c8-3.7,11.4-6.9,13.6-9.9C732.8,569.6,733.3,569.3,734,569.1z"/>
		<path class="st10" d="M652.7,571.7H665c0.5,0,0.9,0.3,1,0.8l2.2,9.9c0.2,1-0.6,2-1.6,2c-4.4-0.1-10.8-0.3-16.3-0.3
			c-6.5,0-12.1,0.4-19.7,0.4c-4.6,0-5.9-4.6-3.9-5.1c8.8-1.9,15.9-2.1,23.5-6.8C650.9,572.1,651.8,571.7,652.7,571.7z"/>
		<g>
			<path class="st7" d="M698,191.1c10.5,2.4,19.1,29.2,19.1,29.2L696,236.3c0,0-7.7-7.3-11.2-20.7
				C681.3,201.6,687.2,188.6,698,191.1z"/>
			<path class="st13" d="M698,191.1c10.5,2.4,19.1,29.2,19.1,29.2L696,236.3c0,0-7.7-7.3-11.2-20.7
				C681.3,201.6,687.2,188.6,698,191.1z"/>
		</g>
		<path class="st9" d="M642.8,223c-2.6,2.8-5.2,5.3-7.9,7.9c-1.3,1.3-2.7,2.5-4.1,3.8l-2.1,1.9l-0.5,0.5c-0.3,0.2-0.6,0.5-0.9,0.7
			c-0.7,0.5-1.5,1.1-3.1,1.8c-0.9,0.3-1.9,0.8-3.9,0.8c-0.9,0-2.2-0.1-3.3-0.6c-1.2-0.4-2.4-1.2-3.2-2c-1.7-1.7-2.2-3.1-2.5-4.1
			c-0.3-1-0.4-1.7-0.5-2.4c-0.1-1.2,0-2.1,0-2.8c0.1-0.8,0.2-1.4,0.3-2c0.5-2.5,1.1-4.4,1.8-6.4c0.7-2,1.5-3.8,2.5-5.7
			c1-2,2-3.5,3-5.2c3.9-6.6,8.5-12.6,13.4-18.2c5-5.6,10.3-10.8,16.3-15.5l5.9,6c-4.1,5.5-8.2,11.4-11.9,17.2
			c-3.7,5.9-7.2,11.8-10.2,17.9c-0.7,1.5-1.5,3.1-2,4.4c-0.6,1.4-1.1,2.8-1.5,4.3c-0.4,1.4-0.8,2.9-0.9,4c0,0.3-0.1,0.5-0.1,0.6
			c0,0.1,0,0.2,0-0.1c0-0.2,0-0.5-0.2-1c-0.2-0.6-0.5-1.6-1.8-3c-0.6-0.6-1.6-1.3-2.6-1.7c-1-0.4-2-0.5-2.7-0.5
			c-1.5,0-2.1,0.3-2.6,0.5c-0.8,0.3-0.8,0.4-0.8,0.4l0.6-0.6l1.9-1.8l3.8-3.6c2.5-2.4,5-4.9,7.4-7.3L642.8,223z"/>
		<path class="st12" d="M689,210.8c5.7,5.6,7.6,15.9,8,24.8l-0.9,0.7c0,0-7.7-7.3-11.2-20.7c-0.2-0.8-0.4-1.7-0.5-2.5L689,210.8z"/>
		<g>
			<path class="st7" d="M631.7,202.3c-2.3,12.1-3.7,36.9,2.9,86.1h59.9c0.4-9.2-5.4-54,3.5-97.3c0,0-10.3-2.1-20-2.5
				c-7.6-0.4-18.7-0.6-25.4,0c-2.8,0.3-5.6,0.7-8,1.1C638,190.8,632.9,195.9,631.7,202.3z"/>
			<path class="st13" d="M631.7,202.3c-2.3,12.1-3.7,36.9,2.9,86.1h59.9c0.4-9.2-5.4-54,3.5-97.3c0,0-10.3-2.1-20-2.5
				c-7.6-0.4-18.7-0.6-25.4,0c-2.8,0.3-5.6,0.7-8,1.1C638,190.8,632.9,195.9,631.7,202.3z"/>
		</g>
		<path class="st12" d="M640.8,220.2l-10.8-2.6c-0.3,6.6-0.4,14.7,0.1,24.7C635.1,236.6,641.5,227.8,640.8,220.2z"/>
		<g>
			<polygon class="st12" points="651.5,547.1 652.1,560.5 663.3,560.5 662.7,547.1 			"/>
			<polygon class="st12" points="735,543.7 724.1,546.1 729.7,558.5 740.7,556.2 			"/>
		</g>
		<path class="st9" d="M680.1,151.6c-2.9,10.7-4,17.2-10.6,21.6c-10,6.7-22.4-1-22.7-12.4c-0.3-10.2,4.4-26.1,15.9-28.2
			C674,130.5,683,140.9,680.1,151.6z"/>
		<path class="st10" d="M655,152c-0.5-1.4-3-12.5-0.7-15.4c2.3-2.9,28.8-0.8,32.7,3c6.5,6.4,2,12.1-5.1,19.5
			c-5.4,5.5-5.6,11.8-8.3,12.7c-4.7,1.6-12.1,0.1-13.5-5C658.6,161.8,655,152,655,152z"/>
		<path class="st10" d="M683.8,127c-9.4-4-26.9,0.4-36.4-1.9c-0.3,4.9,2.6,12.8,12.1,14.9c0,0,13.5,2.6,23.9,2.2
			C693.8,141.8,691.8,130.4,683.8,127z"/>
		<path class="st10" d="M685.3,140c0,0,5.8,0.7,9.9-1.9C696.9,142.3,687.3,143.5,685.3,140z"/>
		<path class="st9" d="M660.1,152.4c-0.2,2.9-1.5,5.6-3.1,7.4c-2.4,2.7-5,1-5.4-2.3c-0.4-2.9,0.4-7.9,3.4-9.4
			C657.9,146.8,660.3,149.1,660.1,152.4z"/>
		<path class="st7" d="M655.8,288.4c0,0,12.7,85.5,19.7,117.6c7.6,35.1,48.6,151.2,48.6,151.2l20-4.3c0,0-28.6-94.6-35-143.6
			c-4.9-37.7-14.6-120.7-14.6-120.7H655.8z"/>
		<path class="st10" d="M719.3,550.4c-0.1,0,3.7,7.2,3.7,7.2l22.5-4.9l-1.9-6.8L719.3,550.4z"/>
		<path class="st14" d="M663.9,318.9c14.7,2.9,13.1,57.6,11.4,85.8c-4.2-19.9-10.4-58.2-14.7-85.4
			C661.5,318.8,662.6,318.6,663.9,318.9z"/>
		<path class="st7" d="M634.6,288.4c0,0-1.5,83.7-0.3,117.8c1.3,35.5,13.7,151.7,13.7,151.7h19c0,0,0.7-114.1,1.5-149
			c0.9-38,5.5-120.5,5.5-120.5L634.6,288.4L634.6,288.4z"/>
		<path class="st10" d="M644.3,550.4c-0.1,0,1.1,7.9,1.1,7.9h23.1l0.6-7L644.3,550.4z"/>
		<g>
			<path class="st7" d="M655.1,206c5.4,14.5-26.2,31.5-26.2,31.5l-13.6-17.5c0,0,9.1-18.1,20.3-26.3
				C649.4,183.5,651.1,195,655.1,206z"/>
			<path class="st13" d="M655.1,206c5.4,14.5-26.2,31.5-26.2,31.5l-13.6-17.5c0,0,9.1-18.1,20.3-26.3
				C649.4,183.5,651.1,195,655.1,206z"/>
		</g>
	</g>
</g>
<g id="Thinking">
	<g>
		<ellipse class="st7" cx="778.6" cy="59.6" rx="57.4" ry="36.6"/>
		<path class="st3" d="M757.9,78c-3.2,0-6.3-1-9-2.8c-3.6-2.5-6-6.2-6.8-10.6c-1.4-8.3,4.1-16.5,12.3-18.4l0,0
			c6.7-1.5,13.6,1.3,17.2,7.2l36.9-7.6c3-0.6,6,1.2,6.8,4c0.4,1.5,0.2,3-0.7,4.3c-0.8,1.3-2.1,2.2-3.6,2.5l-1,0.2
			c-0.3,0.1-0.5,0.2-0.7,0.5c-0.1,0.3-0.2,0.6-0.1,0.8l0.6,1.7c0.4,1.1,0,2.4-1,3.1c-0.8,0.5-1.3,1.3-1.4,2.2
			c-0.1,1.1-0.9,2-1.9,2.2l-0.8,0.2c-1,0.2-2.1-0.3-2.6-1.3c-0.7-1.1-2-1.7-3.3-1.5c-1.3,0.3-2.3,1.3-2.5,2.7
			c-0.1,1.1-0.9,2-1.9,2.2l-0.7,0.2c-1,0.2-2.1-0.3-2.6-1.3c-0.5-0.8-1.3-1.4-2.2-1.5c-1.2-0.2-2.1-1.2-2.1-2.4l-0.1-1.8
			c0-0.3-0.1-0.6-0.4-0.7c-0.2-0.2-0.5-0.2-0.8-0.2l-11.7,2.4c-1,6.7-6,12-12.6,13.4C760.1,77.9,759,78,757.9,78z M754.7,47.8
			c-7.4,1.7-12.3,9.1-11,16.6c0.7,3.9,2.8,7.3,6.1,9.5s7.2,3,11.1,2.2c6.1-1.3,10.8-6.3,11.5-12.5l0.1-0.6l12.9-2.7
			c0.7-0.2,1.5,0,2.1,0.5c0.6,0.5,1,1.2,1,1.9l0.1,1.8c0,0.5,0.3,0.9,0.8,0.9c1.4,0.2,2.6,1,3.4,2.3c0.2,0.3,0.5,0.6,0.9,0.5
			l0.7-0.2c0.4-0.1,0.6-0.5,0.7-0.8c0.2-2,1.7-3.6,3.7-4c2-0.4,4,0.5,5,2.2c0.2,0.3,0.5,0.6,0.9,0.5l0.8-0.2
			c0.4-0.1,0.6-0.5,0.7-0.8c0.2-1.4,1-2.7,2.2-3.4c0.4-0.2,0.5-0.7,0.3-1.1l-0.6-1.7c-0.3-0.7-0.2-1.5,0.1-2.2
			c0.4-0.7,1-1.1,1.7-1.3l1-0.2c1.1-0.2,2-0.9,2.6-1.8c0.6-0.9,0.7-2,0.5-3.1c-0.5-2-2.7-3.3-4.9-2.8l-38,7.8l-0.3-0.5
			C767.3,49.2,761,46.4,754.7,47.8L754.7,47.8z M757.9,72.1c-2,0-3.9-0.6-5.6-1.7c-2.3-1.5-3.8-3.8-4.4-6.5c-0.6-2.7,0-5.4,1.5-7.7
			c1.5-2.3,3.8-3.8,6.5-4.4c2.7-0.6,5.4,0,7.7,1.5c2.3,1.5,3.8,3.8,4.4,6.5c0.6,2.7,0,5.4-1.5,7.7c-1.5,2.3-3.8,3.8-6.5,4.4l0,0
			C759.3,72.1,758.6,72.1,757.9,72.1z M758,53.3c-0.6,0-1.2,0.1-1.8,0.2c-2.2,0.5-4.2,1.8-5.4,3.7c-1.3,1.9-1.7,4.2-1.2,6.5
			c0.5,2.2,1.8,4.2,3.7,5.4c1.9,1.3,4.2,1.7,6.5,1.2l0,0c2.3-0.5,4.2-1.8,5.4-3.7c1.3-1.9,1.7-4.2,1.2-6.5c-0.5-2.3-1.8-4.2-3.7-5.5
			C761.3,53.8,759.6,53.3,758,53.3z"/>
		<ellipse class="st15" cx="731.9" cy="105.6" rx="18.9" ry="12"/>
		<ellipse class="st16" cx="701.9" cy="117.6" rx="7.7" ry="4.9"/>
	</g>
</g>
</svg>
