<?xml version="1.0" encoding="utf-8"?>
<!-- Generator: Adobe Illustrator 27.5.0, SVG Export Plug-In . SVG Version: 6.00 Build 0)  -->
<svg version="1.1" xmlns="http://www.w3.org/2000/svg" xmlns:xlink="http://www.w3.org/1999/xlink" x="0px" y="0px"
	 viewBox="0 0 750 500" style="enable-background:new 0 0 750 500;" xml:space="preserve">
<g id="BACKGROUND">
	<g>
		<rect style="fill:#FFEAE6;" width="750" height="500"/>
		<rect y="441.747" style="fill:#FCDDD9;" width="750" height="58.253"/>
	</g>
</g>
<g id="OBJECTS">
	<g>
		<g>
			<path style="fill:#6D88B3;" d="M121.481,370.958c0,0-13.347,66.12-18.114,129.042h50.528c0,0,6.674-40.995,9.057-76.746
				l6.674-1.43l14.777,78.176h46.238c0,0-15.254-110.837-27.648-134.548L121.481,370.958z"/>
			<g>
				<defs>
					<path id="SVGID_1_" d="M121.481,370.958c0,0-13.347,66.12-18.114,129.042h50.528c0,0,6.674-40.995,9.057-76.746l6.674-1.43
						l14.777,78.176h46.238c0,0-15.254-110.837-27.648-134.548L121.481,370.958z"/>
				</defs>
				<clipPath id="SVGID_00000111890621652549345920000013677317377034800564_">
					<use xlink:href="#SVGID_1_"  style="overflow:visible;"/>
				</clipPath>
				<g style="clip-path:url(#SVGID_00000111890621652549345920000013677317377034800564_);">
					<g>
						<path style="fill:#4A6489;" d="M160.331,424.685c1.378-1.56,2.832-2.781,4.309-3.925c1.484-1.127,2.984-2.158,4.495-3.132
							c1.516-0.971,3.046-1.878,4.562-2.806c1.534-0.936,3.06-1.797,4.748-3.007c-0.091,2.124-1.213,4.019-2.468,5.581
							c-1.286,1.58-2.829,2.862-4.481,3.912c-1.652,1.059-3.419,1.895-5.276,2.493C164.358,424.383,162.421,424.792,160.331,424.685
							z"/>
					</g>
					<path style="fill:none;stroke:#4A6489;stroke-width:1.2711;stroke-miterlimit:10;" d="M128.631,369.478
						c0,0-16.684,90.005-19.067,130.523"/>
					<path style="fill:none;stroke:#4A6489;stroke-width:1.2711;stroke-miterlimit:10;" d="M119.98,419.615
						c0,0,17.072-16.857,17.39-47.365"/>
					<path style="fill:none;stroke:#4A6489;stroke-width:1.2711;stroke-miterlimit:10;" d="M200.673,369.478
						c0,0,5.762,29.884,17.813,39.523"/>
				</g>
			</g>
		</g>
		<g>
			<circle style="fill:#311E20;" cx="200.441" cy="126.65" r="9.712"/>
			<path style="fill:#CB5F43;" d="M125.582,213.386c0,0,20.05-17.796,18.779-47.35l0.117-10.487c0,0-13.464-7.945-13.146-28.601
				c0.318-20.656,21.292-43.219,50.21-30.825c28.919,12.394,18.114,46.079,18.114,46.079s-4.131,26.376-19.703,29.872
				c0,0-0.635,26.694,8.898,41.312c0,0-5.72,10.169-28.919,10.169S125.582,213.386,125.582,213.386z"/>
			<path style="fill:#311E20;" d="M144.839,148.954c0,0-15.492-16.048-5.243-21.768c10.249-5.72,9.057,9.534,9.057,9.534
				l3.098,0.788l4.528-18.664c0,0,10.01,5.005,12.87-5.959c0,0,7.865,8.58,16.684,2.622c0,0,3.813,7.388,11.202,2.86
				c0,0,9.534,4.528,11.202-3.813c1.668-8.342-5.005-7.865-5.005-7.865s13.824,2.145,11.44-8.819
				c-2.383-10.964-10.964-4.052-10.964-4.052s-0.715-9.295-8.342-9.057c-7.627,0.238-8.819,4.29-8.819,4.29s1.668-9.057-4.528-10.01
				c-6.197-0.953-15.54,8.58-15.54,8.58s-3.766-7.15-9.248-4.767c-5.482,2.383-4.528,9.731-4.528,9.731s-9.534-4.249-14.777,0.994
				s-1.764,10.964-1.764,10.964s-8.008,3.508-9.438,9.5c-1.43,5.992,1.668,8.852,1.668,8.852s-7.865,5.244-6.197,11.917
				c1.668,6.673,5.959,6.912,5.959,6.912s-4.767,10.964,5.958,11.44c0,0-1.615,11.679,10.275,10.487L144.839,148.954z"/>
			<g>
				<g>
					<path style="fill:#311E20;" d="M168.456,130.696h9.114C177.571,130.696,171.577,124.975,168.456,130.696z"/>
					<path style="fill:#311E20;" d="M174.656,136.495c0,1.733-1.061,3.138-2.369,3.138c-1.308,0-2.369-1.405-2.369-3.138
						c0-1.733,1.061-3.138,2.369-3.138C173.596,133.357,174.656,134.762,174.656,136.495z"/>
				</g>
				<g>
					<path style="fill:#311E20;" d="M188.852,131.828l8.421,2.681C197.273,134.509,196.956,129.146,188.852,131.828z"/>
					<path style="fill:#311E20;" d="M194.12,139.495c-0.48,1.676-1.895,2.741-3.161,2.378c-1.265-0.363-1.902-2.015-1.421-3.691
						s1.895-2.741,3.161-2.378C193.964,136.166,194.6,137.819,194.12,139.495z"/>
				</g>
				
					<path style="fill:none;stroke:#311E20;stroke-width:1.2711;stroke-linecap:round;stroke-linejoin:round;stroke-miterlimit:10;" d="
					M182.16,140.87c0.245,0.753-0.379,1.552-0.245,2.333c0.099,0.576,0.589,1.005,1.101,1.286c0.512,0.282,1.079,0.471,1.541,0.828
					c1.183,0.917,1.294,2.856,0.344,4.013c-0.95,1.157-2.719,1.471-4.092,0.874"/>
				
					<path style="fill:none;stroke:#311E20;stroke-width:1.2711;stroke-linecap:round;stroke-linejoin:round;stroke-miterlimit:10;" d="
					M141.956,130.912c0,0,3.328,7.215,2.087,8.393c-1.241,1.178-3.295-3.483-3.295-3.483"/>
				<path style="fill:#FFFFFF;" d="M171.634,153.324l13.903,3.019c0,0-4.29,10.487-9.613,9.375
					C170.601,164.606,171.634,153.324,171.634,153.324z"/>
			</g>
			<path style="fill:#AF412C;" d="M179.954,172.074c0,0-8.66,3.496-20.338-4.131c0,0,7.186,10.48,20.855,15.965
				C180.471,183.908,180.022,176.995,179.954,172.074z"/>
		</g>
		<g>
			<g>
				<path style="fill:#CB5F43;" d="M271.832,186.242l2.025-6.348c0.388-1.215,0.334-2.528-0.152-3.707l-1.703-4.133
					c-0.735-1.783-1.23-3.656-1.474-5.57l-0.794-6.242l-1.359-17.628c-0.063-0.815,0.414-1.575,1.175-1.873l0,0
					c1.603-0.627,3.391,0.305,3.795,1.978l2.537,10.518c0.511,2.12,2.097,3.816,4.177,4.468l23.647,7.417l-6.963,14.714
					c-0.463,0.979-1.299,1.732-2.322,2.091l0,0c-1.385,0.486-2.54,1.47-3.241,2.76l-3.412,6.287L271.832,186.242z"/>
				<path style="fill:#CB5F43;" d="M297.332,141.014l4.062-1.826c0.779-0.35,1.696-0.009,2.055,0.767l0.988,2.129
					c0.358,0.771,0.033,1.686-0.731,2.059l0,0l0,0c0.812-0.163,1.633,0.237,2.005,0.977l0.749,1.491
					c0.368,0.733,0.206,1.621-0.396,2.177l-0.357,0.329l0.419-0.158c0.867-0.326,1.842,0.044,2.274,0.864l0.566,1.074
					c0.426,0.808,0.193,1.806-0.545,2.343l-0.776,0.564l0,0c0.794,0.081,1.475,0.602,1.761,1.347l0.106,0.278
					c0.662,1.73,0.35,3.681-0.818,5.118l-1.987,2.444L297.332,141.014z"/>
				<g>
					<path style="fill:#21181D;" d="M267.387,126.459l20.506-8.803c0.935-0.401,2.018,0.028,2.423,0.961l20.664,47.558
						c0.404,0.929-0.016,2.009-0.94,2.423l-21.1,9.433c-0.949,0.424-2.06-0.017-2.46-0.976l-20.069-48.188
						C266.021,127.932,266.456,126.858,267.387,126.459z"/>
					<path style="fill:#D3E2DE;" d="M269.097,128.175l18.86-8.097c0.86-0.369,1.856,0.026,2.229,0.884l19.005,43.742
						c0.371,0.854-0.015,1.848-0.865,2.228l-19.407,8.676c-0.872,0.39-1.895-0.016-2.262-0.898l-18.458-44.321
						C267.841,129.53,268.241,128.543,269.097,128.175z"/>
					<g>
						<circle style="fill:#95B8B1;" cx="277.75" cy="139.18" r="2.458"/>
						<circle style="fill:#95B8B1;" cx="284.125" cy="136.722" r="2.458"/>
						<path style="fill:#95B8B1;" d="M292.957,134.264c0,1.357-1.1,2.458-2.458,2.458c-1.358,0-2.458-1.1-2.458-2.458
							c0-1.358,1.1-2.458,2.458-2.458C291.857,131.806,292.957,132.906,292.957,134.264z"/>
						<circle style="fill:#95B8B1;" cx="287.031" cy="143.472" r="2.458"/>
						<path style="fill:#95B8B1;" d="M302.801,158.225c0,1.358-1.1,2.458-2.458,2.458c-1.358,0-2.458-1.1-2.458-2.458
							c0-1.357,1.1-2.458,2.458-2.458C301.701,155.768,302.801,156.868,302.801,158.225z"/>
						<path style="fill:#95B8B1;" d="M295.864,141.014c0,1.357-1.1,2.458-2.458,2.458c-1.358,0-2.458-1.1-2.458-2.458
							c0-1.358,1.1-2.458,2.458-2.458C294.763,138.556,295.864,139.656,295.864,141.014z"/>
						<circle style="fill:#95B8B1;" cx="283.562" cy="152.68" r="2.458"/>
					</g>
				</g>
			</g>
			<path style="fill:#CB5F43;" d="M67.407,373.586l-2.118,7.193c-0.465,1.58,0.008,3.288,1.221,4.403l0,0
				c1.608,1.478,2.461,3.605,2.32,5.785l0.38,5.598l-0.02,6.097c0.185,1.627-0.945,3.112-2.563,3.365l0,0
				c-1.751,0.274-3.368-0.994-3.518-2.76l-0.443-5.21c-0.118-1.392-1.028-2.592-2.337-3.081l0,0
				c-1.323-0.495-2.813-0.174-3.815,0.82l-1.564,1.552c-3.161,3.137-7.477,7.191-8.205,11.585l-1.793,10.825
				c-0.248,1.498-1.663,2.511-3.161,2.263l0,0c-1.498-0.248-2.511-1.663-2.263-3.161l0.342-2.063l0,0
				c-1.452-1.449-2.115-3.51-1.78-5.534l0.915-5.523l0,0c-0.309-2.415-0.047-4.869,0.764-7.164l3.774-10.673
				c0.929-2.626,2.522-4.966,4.626-6.791l0.34-0.295c1.669-1.448,2.968-3.272,3.792-5.322l2.418-6.018L67.407,373.586z"/>
			<path style="fill:#ED8F09;" d="M53.792,360.333l-5.62,9.057c0,0,7.527,10.725,22.542,9.057l5.005-12.394L53.792,360.333z"/>
			<path style="fill:#ED8F09;" d="M120.528,356.043l-3.337,16.207c0,0,60.062,18.591,91.523-5.243l-5.243-15.254L120.528,356.043z"
				/>
			<g>
				<path style="fill:#F7B52D;" d="M183.688,194.517c14.511-1.188,28.238,7.484,36.33,19.589
					c7.863,11.762,9.186,26.738,15.663,39.316c8.445-14.757,15.766-30.158,21.877-46.025c1.947-5.055,4.161-10.613,8.986-13.076
					c6.242-3.186,14.343,0.736,17.697,6.89c3.354,6.154,2.967,13.678,1.418,20.513c-3.126,13.791-8.747,26.936-14.905,39.666
					c-8.566,17.706-12.864,27.078-18.98,38.639c-1.482,2.801-2.316,6.211-5.075,7.768c-2.132,1.203-4.713,1.184-7.16,1.133
					c-6.067-0.126-7.817-0.341-13.004-3.489c-4.156-2.523-7.045-6.644-9.747-10.686c-8.072-12.077-16.257-19.165-18.691-33.486
					c3.537,20.804,2.163,31.981,5.938,47.626c2.774,11.496,10.068,22.436,8.302,34.13c-1.479,9.795-9.346,17.73-18.415,21.716
					c-9.069,3.986-19.231,4.62-29.138,4.594c-11.938-0.032-23.873-0.94-35.678-2.714c-4.549-0.684-9.54-1.771-12.25-5.488
					c-1.975-2.708-2.292-6.253-2.414-9.603c-0.414-11.32,0.6-22.638,1.613-33.921c1.675-18.658,3.351-37.316,5.026-55.973
					c-14.563,22.835-24.704,48.479-29.696,75.099c-2.277,12.139-4.724,26.323-15.643,32.097c-5.654,2.99-12.858,2.815-18.36-0.446
					c-5.503-3.261-9.115-9.496-9.207-15.891c-0.065-4.534,1.5-8.913,3.051-13.173c12.409-34.073,25.259-67.986,38.549-101.725
					c4.544-11.537,9.758-23.819,20.271-30.394c7.963-4.981,15.659-9.619,25.021-10.37c0,0,11.44,10.487,26.932,8.819
					C177.491,203.981,183.688,194.517,183.688,194.517z"/>
			</g>
			<g>
				<defs>
					<path id="SVGID_00000011730729379556802050000002551016192783655074_" d="M183.688,194.517
						c14.511-1.188,28.238,7.484,36.33,19.589c7.863,11.762,9.186,26.738,15.663,39.316c8.445-14.757,15.766-30.158,21.877-46.025
						c1.947-5.055,4.161-10.613,8.986-13.076c6.242-3.186,14.343,0.736,17.697,6.89c3.354,6.154,2.967,13.678,1.418,20.513
						c-3.126,13.791-8.995,26.819-14.905,39.666c-6.394,13.899-11.348,24.77-18.98,38.639c-1.527,2.776-2.316,6.211-5.075,7.768
						c-2.132,1.203-4.713,1.184-7.16,1.133c-6.067-0.126-7.817-0.341-13.004-3.489c-4.156-2.523-7.045-6.644-9.747-10.686
						c-8.072-12.077-16.257-19.165-18.691-33.486c3.537,20.804,2.163,31.981,5.938,47.626c2.774,11.496,10.068,22.436,8.302,34.13
						c-1.479,9.795-9.346,17.73-18.415,21.716c-9.069,3.986-19.231,4.62-29.138,4.594c-11.938-0.032-23.873-0.94-35.678-2.714
						c-4.549-0.684-9.54-1.771-12.25-5.488c-1.975-2.708-2.292-6.253-2.414-9.603c-0.414-11.32,0.6-22.638,1.613-33.921
						c1.675-18.658,3.351-37.316,5.026-55.973c-14.563,22.835-24.704,48.479-29.696,75.099
						c-2.277,12.139-4.724,26.323-15.643,32.097c-5.654,2.99-12.858,2.815-18.36-0.446c-5.503-3.261-9.115-9.496-9.207-15.891
						c-0.065-4.534,1.5-8.913,3.051-13.173c12.409-34.073,25.259-67.986,38.549-101.725c4.544-11.537,9.758-23.819,20.271-30.394
						c7.963-4.981,15.659-9.619,25.021-10.37c0,0,11.44,10.487,26.932,8.819C177.491,203.981,183.688,194.517,183.688,194.517z"/>
				</defs>
				<clipPath id="SVGID_00000093159104225769036480000001802993069321072012_">
					<use xlink:href="#SVGID_00000011730729379556802050000002551016192783655074_"  style="overflow:visible;"/>
				</clipPath>
				<g style="clip-path:url(#SVGID_00000093159104225769036480000001802993069321072012_);">
					<g>
						<g>
							<path style="fill:#ED8F09;" d="M112.178,291.014c23.264-5.697,47.267-8.162,71.204-7.306
								c6.694,0.239,13.375,0.742,20.031,1.493c2.029,0.229,2.013-2.951,0-3.178c-23.926-2.697-48.17-2.064-71.931,1.814
								c-6.768,1.105-13.488,2.482-20.149,4.113C109.348,288.436,110.189,291.501,112.178,291.014L112.178,291.014z"/>
						</g>
					</g>
					<path style="fill:none;stroke:#ED8F09;stroke-width:16.525;stroke-miterlimit:10;" d="M107.631,310.277
						c34.499-5.481,69.636-6.94,104.47-4.337"/>
					<path style="fill:none;stroke:#ED8F09;stroke-width:16.525;stroke-miterlimit:10;" d="M80.804,240.554
						c50.268-6.793,101.464-8.601,152.22-5.375"/>
					<g>
						<g>
							<path style="fill:#ED8F09;" d="M105.713,330.653c29.968-2.467,60.047-3.542,90.115-3.197
								c8.425,0.097,16.849,0.306,25.269,0.622c2.045,0.077,2.042-3.101,0-3.178c-30.048-1.127-60.146-0.859-90.168,0.827
								c-8.412,0.473-16.818,1.057-25.216,1.749C103.689,327.642,103.671,330.822,105.713,330.653L105.713,330.653z"/>
						</g>
					</g>
				</g>
			</g>
			<path style="fill:#ED8F09;" d="M138.051,193.011c0,0,11.555,9.302,21.565,8.826s22.738-10.436,22.738-10.436l6.101,3.524
				c0,0-0.715,14.539-28.839,14.539s-28.289-12.155-28.289-12.155L138.051,193.011z"/>
			<path style="fill:#ED8F09;" d="M267.504,195.083l1.748-12.235c0,0,12.711-1.748,20.974,6.117l-6.515,13.744l-1.01-0.923
				c-3.87-3.538-8.724-5.815-13.918-6.528L267.504,195.083z"/>
		</g>
	</g>
	<g>
		<g>
			<path style="fill:#6D88B3;" d="M437.574,383.493c9.425,18.524-5.072,116.508-5.072,116.508H346.74
				c-15.599-96.034-7.637-111.145-7.637-111.145L437.574,383.493z"/>
			<g>
				<defs>
					<path id="SVGID_00000058590279043201731290000007612614152113837192_" d="M437.574,383.493
						c9.425,18.524-5.072,116.508-5.072,116.508H346.74c-15.599-96.034-7.637-111.145-7.637-111.145L437.574,383.493z"/>
				</defs>
				<clipPath id="SVGID_00000109725337385261556890000012087751910424791737_">
					<use xlink:href="#SVGID_00000058590279043201731290000007612614152113837192_"  style="overflow:visible;"/>
				</clipPath>
				<g style="clip-path:url(#SVGID_00000109725337385261556890000012087751910424791737_);">
					<g>
						<path style="fill:#4A6489;" d="M399.226,420.054c-1.7,1.845-3.441,3.644-5.206,5.414c-1.759,1.777-3.545,3.523-5.345,5.252
							l0.372-1.253c1.827,5.799,2.827,11.602,3.705,17.479c0.408,2.935,0.714,5.878,1.031,8.821c0.27,2.945,0.472,5.896,0.634,8.846
							c0.346,5.901,0.384,11.81,0.3,17.711c-0.105,2.952-0.191,5.901-0.378,8.848c-0.201,2.947-0.45,5.891-0.783,8.83
							c-0.355-2.942-0.626-5.878-0.849-8.812c-0.288-2.933-0.484-5.864-0.713-8.792l-1.343-17.533
							c-0.463-5.834-0.94-11.662-1.58-17.464c-0.273-2.907-0.628-5.802-1.004-8.691c-0.347-2.878-0.81-5.802-1.341-8.568
							l-0.162-0.842l0.534-0.411c1.979-1.521,3.973-3.025,5.994-4.498C395.107,422.91,397.146,421.459,399.226,420.054z"/>
					</g>
					<path style="fill:none;stroke:#4A6489;stroke-width:1.3;stroke-miterlimit:10;" d="M346.74,388.44
						c0,0-4.875,17.965-3.412,38.439c1.462,20.474,8.125,73.122,8.125,73.122"/>
				</g>
			</g>
		</g>
		<g>
			<path style="fill:#B1383F;" d="M398.498,82.557c0,0-12.21,1.517-10.426,12.173c1.784,10.656-8.724,91.088-8.724,91.088
				s26.061,11.753,43.135,0c0,0-13.774-72.716-13.851-80.853C408.554,96.828,413.155,82.557,398.498,82.557z"/>
			<g>
				<path style="fill:#FF9B7F;" d="M405.45,199.053c-8.445-10.877-6.824-23.403-6.824-23.403h-31.268
					c-0.445,10.203-1.475,14.142-2.255,19.364c-0.542,3.626-5.864,7.38-10.512,9.382c-7.648,3.293-8.275,4.031-12.219,6.614
					c0,0,12.403,25.546,42.908,25.546c30.505,0,43.824-30.428,43.824-30.428s-4.079-1.065-11.277-2.913
					C413.522,202.11,406.419,200.301,405.45,199.053z"/>
				<g>
					<g>
						<g>
							<path style="fill:#F27563;" d="M399.156,184.959c-0.917-5.81-0.531-9.31-0.531-9.31h-31.268
								c-0.175,4.006-0.562,7.185-0.866,10.551C372.771,189.174,389.582,191.042,399.156,184.959z"/>
						</g>
					</g>
				</g>
			</g>
			<path style="fill:#FF9B7F;" d="M352.485,129.844c0,0-0.325,13.324,0,16.899c0,0-3.25-2.762-4.225,0s0.812,12.512,6.012,12.512
				c0,0,7.475,23.561,27.786,23.724c20.312,0.162,26.649-24.212,26.649-24.212s6.337-3.737,5.687-11.212
				c-0.65-7.475-4.225-2.275-4.225-2.275l-0.163-16.412c0,0-1.183-23.562-28.784-23.562
				C353.623,105.307,352.485,129.844,352.485,129.844z"/>
			<path style="fill:#B1383F;" d="M349.045,145.703c0,0,1.166-0.423,3.441,1.04c0,0,2.875-1.973,2.925-14.624
				c0,0,1.787,7.312,20.149,7.312l-4.875-10.725c0,0,16.249,15.924,31.199,14.462l-2.925-10.887c0,0,4.875,8.937,11.212,12.999
				c0,0,2.127,0.981,2.629-1.72c2.248-12.106,3.545-47.921-31.575-47.921C338.267,95.639,349.045,145.703,349.045,145.703z"/>
			<g>
				<path style="fill:none;stroke:#311E20;stroke-width:1.3;stroke-linecap:round;stroke-linejoin:round;stroke-miterlimit:10;" d="
					M381.849,156.654c0.023,0.749,0.046,1.497,0.069,2.246c0.005,0.162,0.008,0.332-0.066,0.477
					c-0.074,0.145-0.216,0.242-0.356,0.324c-0.78,0.455-1.801,0.728-2.131,1.568c-0.256,0.652,0.056,1.428,0.596,1.874
					c0.54,0.446,1.259,0.616,1.958,0.668c0.701,0.052,1.409-0.001,2.094-0.158"/>
				<path style="fill:#FFFFFF;" d="M376.813,170.76l13.37-2.908c0,0,1.093,9.137-4.548,10.085
					C379.994,178.884,376.813,170.76,376.813,170.76z"/>
				<g>
					<path style="fill:#311E20;" d="M371.823,155.111c0,1.772-1.085,3.209-2.423,3.209s-2.423-1.437-2.423-3.209
						s1.085-3.209,2.423-3.209S371.823,153.339,371.823,155.111z"/>
					<path style="fill:#B1383F;" d="M364.835,149.343l6.094-1.381C370.928,147.962,367.11,144.955,364.835,149.343z"/>
				</g>
				<g>
					<path style="fill:#311E20;" d="M397.144,155.111c0,1.772-1.085,3.209-2.423,3.209c-1.338,0-2.423-1.437-2.423-3.209
						s1.085-3.209,2.423-3.209C396.059,151.902,397.144,153.339,397.144,155.111z"/>
					<path style="fill:#B1383F;" d="M399.328,147.936l-6.094-1.381C393.234,146.555,397.053,143.548,399.328,147.936z"/>
				</g>
				<g>
					<circle style="fill:#F27563;" cx="373.122" cy="161.63" r="0.794"/>
					<circle style="fill:#F27563;" cx="369.4" cy="165.917" r="0.794"/>
					<circle style="fill:#F27563;" cx="366.183" cy="163.831" r="0.794"/>
				</g>
				<g>
					<circle style="fill:#F27563;" cx="392.44" cy="162.811" r="0.794"/>
					<circle style="fill:#F27563;" cx="397.496" cy="165.917" r="0.794"/>
					<circle style="fill:#F27563;" cx="400.121" cy="162.423" r="0.794"/>
				</g>
				<path style="fill:none;stroke:#311E20;stroke-width:1.3;stroke-linecap:round;stroke-linejoin:round;stroke-miterlimit:10;" d="
					M350.82,149.343c0,0,3.412,5.403,2.194,5.769s-2.194-2.194-2.194-2.194"/>
				<path style="fill:none;stroke:#311E20;stroke-width:1.3;stroke-linecap:round;stroke-linejoin:round;stroke-miterlimit:10;" d="
					M411.145,148.693c0,0-3.25,4.631-2.275,5.037c0.975,0.406,2.762-1.828,2.762-1.828"/>
			</g>
			<g>
				<path style="fill:none;stroke:#311E20;stroke-width:1.3;stroke-linecap:round;stroke-linejoin:round;stroke-miterlimit:10;" d="
					M365.753,190.975c0,0,14.018,10.707,35.223,0.226"/>
				<path style="fill:#311E20;" d="M386.228,195.013c0,1.327-1.076,2.403-2.403,2.403s-2.403-1.076-2.403-2.403
					c0-1.327,1.076-2.403,2.403-2.403S386.228,193.686,386.228,195.013z"/>
			</g>
			<g>
				<path style="fill:#7C9D92;" d="M386.981,96.763c2.091-1.51,4.881-1.849,7.477-1.494c2.628,0.374,5.097,1.547,7.164,3.107
					c2.126,1.529,3.724,3.568,5.086,5.666c0.597,1.106,1.167,2.219,1.628,3.371c0.392,1.192,0.746,2.388,0.95,3.631
					c-1.017-0.796-1.883-1.639-2.711-2.486c-0.876-0.809-1.718-1.61-2.506-2.434c-1.702-1.519-3.268-3.081-5.017-4.333
					c-1.715-1.292-3.494-2.436-5.468-3.288C391.608,97.66,389.485,96.998,386.981,96.763z"/>
			</g>
			<g>
				<circle style="fill:#311E20;" cx="352.048" cy="160.684" r="3.652"/>
				<circle style="fill:#311E20;" cx="411.633" cy="159.801" r="3.652"/>
			</g>
		</g>
		<g>
			<path style="fill:#95B8B1;" d="M348.889,209.008c0,0-11.085,1.778-20.51,18.503c-9.425,16.725-35.423,85.297-14.949,95.372
				c20.474,10.075,25.674,6.175,25.674,6.175s-13.974,57.198-6.825,63.047s26.649,13,53.623,13c26.974,0,62.722-12.35,62.072-20.149
				c-0.65-7.8-10.4-59.147-10.4-59.147s24.699,6.5,29.899-13.65c5.2-20.149-5.867-96.764-41.364-107.083
				c0,0-11.933,25.836-40.207,25.836C357.628,230.912,348.889,209.008,348.889,209.008z"/>
			<g>
				<defs>
					<path id="SVGID_00000033360740703856273470000002775701693333809286_" d="M348.889,209.008c0,0-11.085,1.778-20.51,18.503
						c-9.425,16.725-35.423,85.297-14.949,95.372c20.474,10.075,25.674,6.175,25.674,6.175s-13.974,57.198-6.825,63.047
						s26.649,13,53.623,13c26.974,0,62.722-12.35,62.072-20.149c-0.65-7.8-10.4-59.147-10.4-59.147s24.699,6.5,29.899-13.65
						c5.2-20.149-5.867-96.764-41.364-107.083c0,0-11.933,25.836-40.207,25.836C357.628,230.912,348.889,209.008,348.889,209.008z"
						/>
				</defs>
				<clipPath id="SVGID_00000124129664367807754380000007137593267302710446_">
					<use xlink:href="#SVGID_00000033360740703856273470000002775701693333809286_"  style="overflow:visible;"/>
				</clipPath>
				<g style="clip-path:url(#SVGID_00000124129664367807754380000007137593267302710446_);">
					<g>
						<path style="fill:#D3E2DE;" d="M327.992,239.088c0,2.849-2.31,5.159-5.159,5.159c-2.849,0-5.159-2.31-5.159-5.159
							c0-2.849,2.31-5.159,5.159-5.159C325.683,233.929,327.992,236.239,327.992,239.088z"/>
						<path style="fill:#D3E2DE;" d="M363.595,263.665c0,2.849-2.31,5.159-5.159,5.159s-5.159-2.31-5.159-5.159
							c0-2.849,2.31-5.159,5.159-5.159S363.595,260.816,363.595,263.665z"/>
						<path style="fill:#D3E2DE;" d="M335.813,286.16c0,2.849-2.31,5.159-5.159,5.159c-2.849,0-5.159-2.31-5.159-5.159
							s2.31-5.159,5.159-5.159C333.503,281,335.813,283.31,335.813,286.16z"/>
						<circle style="fill:#D3E2DE;" cx="351.453" cy="320.868" r="5.159"/>
						<path style="fill:#D3E2DE;" d="M363.112,360.294c0,2.849-2.31,5.159-5.159,5.159c-2.849,0-5.159-2.31-5.159-5.159
							c0-2.849,2.31-5.159,5.159-5.159C360.802,355.135,363.112,357.444,363.112,360.294z"/>
						<path style="fill:#D3E2DE;" d="M397.458,337.413c0,2.849-2.31,5.159-5.159,5.159c-2.849,0-5.159-2.31-5.159-5.159
							c0-2.849,2.31-5.159,5.159-5.159C395.148,332.254,397.458,334.564,397.458,337.413z"/>
						<path style="fill:#D3E2DE;" d="M392.117,403.111c0,2.849-2.31,5.159-5.159,5.159c-2.849,0-5.159-2.31-5.159-5.159
							c0-2.849,2.31-5.159,5.159-5.159C389.807,397.952,392.117,400.262,392.117,403.111z"/>
						<circle style="fill:#D3E2DE;" cx="333.152" cy="388.652" r="5.159"/>
						<circle style="fill:#D3E2DE;" cx="415.475" cy="365.453" r="5.159"/>
						<circle style="fill:#D3E2DE;" cx="459.806" cy="320.868" r="5.159"/>
						<path style="fill:#D3E2DE;" d="M451.077,275.841c0,2.849-2.31,5.159-5.159,5.159c-2.849,0-5.159-2.31-5.159-5.159
							c0-2.849,2.31-5.159,5.159-5.159C448.767,270.682,451.077,272.992,451.077,275.841z"/>
						<circle style="fill:#D3E2DE;" cx="457.642" cy="242.124" r="5.159"/>
						<path style="fill:#D3E2DE;" d="M434.812,231.805c0,2.849-2.31,5.159-5.159,5.159c-2.849,0-5.159-2.31-5.159-5.159
							c0-2.849,2.31-5.159,5.159-5.159C432.502,226.646,434.812,228.956,434.812,231.805z"/>
					</g>
				</g>
			</g>
			<path style="fill:#7C9D92;" d="M349.909,205.076c0,0,9.072,23.887,37.319,23.887c28.247,0,37.144-26.08,37.144-26.08l10.44,3.981
				c0,0-12.215,35.261-47.584,35.261c-35.369,0-48.125-31.195-48.125-31.195L349.909,205.076z"/>
			<g>
				<g>
					<path style="fill:none;stroke:#311E20;stroke-width:2.5999;stroke-linecap:round;stroke-linejoin:round;" d="M415.475,202.214
						c0,0,0.017,0.222,0.052,0.644"/>
					
						<path style="fill:none;stroke:#311E20;stroke-width:2.5999;stroke-linecap:round;stroke-linejoin:round;stroke-dasharray:1.2975,3.8926;" d="
						M415.869,206.733c1.289,13.799,5.868,55.877,15.596,79.348"/>
					<path style="fill:none;stroke:#311E20;stroke-width:2.5999;stroke-linecap:round;stroke-linejoin:round;" d="M432.235,287.875
						c0.089,0.199,0.178,0.397,0.267,0.592"/>
				</g>
			</g>
			<path style="fill:#311E20;" d="M449.593,326.647c-14.631,1.651-23.068-5.778-23.068-5.778s2.722,51.169,9.851,54.825
				s21.266,1.219,21.266-1.95C457.642,370.575,449.593,326.647,449.593,326.647z"/>
			<g>
				<g>
					<path style="fill:#21181D;" d="M375.04,289.11l2.838-46.758c0.109-1.792,1.652-3.154,3.443-3.041l23.863,1.515
						c1.848,0.117,3.223,1.755,3.018,3.595l-5.022,45.243c-0.182,1.643-1.571,2.886-3.224,2.886h-21.679
						C376.409,292.55,374.927,290.975,375.04,289.11z"/>
					<path style="fill:#4F474C;" d="M394.978,249.137c0,1.145-0.928,2.072-2.072,2.072c-1.145,0-2.072-0.928-2.072-2.072
						c0-1.145,0.928-2.072,2.072-2.072C394.05,247.065,394.978,247.992,394.978,249.137z"/>
				</g>
				<path style="fill:#F27563;" d="M362.015,286.972l3.708-7.041c0.71-1.805,1.742-3.467,3.047-4.903l1.534-1.689
					c2.029-2.234,4.648-3.848,7.556-4.656l9.26-2.575c1.592-0.443,2.578,0.196,3.286,1.437l0,0c0.601,1.327,0.49,2.927-2.578,3.976
					l-6.102,1.894c-2.022,0.627-3.678,2.092-4.547,4.023l-1.631,3.622l14.005-2.684c0.638-0.122,1.271-0.267,1.898-0.433
					l6.554-1.737c1.268-0.336,2.562,0.447,2.853,1.726l0,0c0.262,1.152-0.385,2.317-1.502,2.703l-9.64,3.335
					c-0.574,0.198-1.153,0.381-1.737,0.547l-9.933,2.829l9.453-1.185c1.414-0.177,2.803-0.515,4.14-1.007l6.637-2.44
					c1.189-0.437,2.487,0.296,2.726,1.54l0,0c0.184,0.955-0.328,1.909-1.226,2.284l-6.225,2.6c-1.732,0.723-3.51,1.333-5.322,1.824
					l-5.78,1.568h12.14l-11.321,5.769c-3.94,2.008-8.3,3.055-12.722,3.055l0,0L362.015,286.972z"/>
				<path style="fill:#FF9B7F;" d="M417.986,289.305l-5.391-5.644l-1.142-5.152c-0.391-1.765-1.212-3.405-2.389-4.777l-0.186-0.216
					c-2.056-2.395-4.608-4.316-7.478-5.63l-7.524-3.443c-1.26-0.577-2.751-0.064-3.39,1.166l0,0
					c-0.637,1.227-0.203,2.738,0.989,3.439l10.241,6.028l5.004,4.467l-6.287-4.88l-10.527-5.956
					c-1.145-0.648-2.596-0.279-3.293,0.836l0,0c-0.693,1.108-0.397,2.564,0.673,3.314l10.251,7.183l6.121,5.873l-12.034-7.114
					l-6.208-3.883c-1.014-0.635-2.353-0.298-2.947,0.741l0,0c-0.516,0.903-0.296,2.048,0.519,2.695l7.958,6.32l9.651,6.456
					l-8.355-3.197l-6.348-3.633c-0.894-0.512-2.032-0.237-2.594,0.627l0,0c-0.599,0.922-0.315,2.157,0.628,2.724l7.018,4.22
					l4.928,3.059c1.637,1.016,3.058,2.353,4.104,3.971c1.077,1.666,5.775,6.656,10.599,6.191L417.986,289.305z"/>
			</g>
			<g>
				<path style="fill:#7C9D92;" d="M427.906,286.246c-7.283,4.939-11.803,30.219-11.803,30.219l-8.036-8.036
					c2.009-13.059,10.045-25.113,10.045-25.113L427.906,286.246z"/>
				<path style="fill:none;stroke:#7C9D92;stroke-width:1.3;stroke-linecap:round;stroke-miterlimit:10;" d="M424.372,286.972
					c0,0,17.671,5.362,24.008,10.237"/>
				<path style="fill:none;stroke:#7C9D92;stroke-width:1.3;stroke-linecap:round;stroke-miterlimit:10;" d="M415.475,312.809
					c0,0,8.368,8.45,22.099,13"/>
			</g>
			<g>
				<path style="fill:#7C9D92;" d="M366.402,312.809c-6.175-16.899-14.949-27.624-14.949-27.624l7.8-3.575
					c0,0,7.8,7.637,13.324,23.48L366.402,312.809z"/>
				<path style="fill:none;stroke:#7C9D92;stroke-width:1.3;stroke-linecap:round;stroke-miterlimit:10;" d="M356.003,286.16
					c0,0-17.549,5.525-25.349,9.1"/>
				<path style="fill:none;stroke:#7C9D92;stroke-width:1.3;stroke-linecap:round;stroke-miterlimit:10;" d="M346.74,259.511
					c0,0-2.437,21.026-5.362,31.556"/>
				<path style="fill:none;stroke:#7C9D92;stroke-width:1.3;stroke-linecap:round;stroke-miterlimit:10;" d="M339.103,329.058
					c0,0,16.656-6.5,27.38-22.099"/>
			</g>
		</g>
	</g>
	<g>
		<path style="fill:#311E20;" d="M570.475,334.04c0,0-13.438,46.189-21.217,165.961h52.64l11.495-93.483l5.198,93.483h47.641
			c0,0-3.696-136.549-21.877-163.571L570.475,334.04z"/>
		<g>
			<defs>
				<path id="SVGID_00000154384835586034400850000015794478061171147905_" d="M570.475,334.04c0,0-13.438,46.189-21.217,165.961
					h52.64l11.495-93.483l5.198,93.483h47.641c0,0-3.696-136.549-21.877-163.571L570.475,334.04z"/>
			</defs>
			<clipPath id="SVGID_00000160888076656497000960000007431531685511370390_">
				<use xlink:href="#SVGID_00000154384835586034400850000015794478061171147905_"  style="overflow:visible;"/>
			</clipPath>
			
				<path style="clip-path:url(#SVGID_00000160888076656497000960000007431531685511370390_);fill:none;stroke:#422E30;stroke-width:1.2987;stroke-miterlimit:10;" d="
				M556.44,500.001c0,0,10.962-131.683,20.092-168.356"/>
		</g>
		<g>
			<path style="fill:#8B574A;" d="M557.601,122.796c0,0-14.099,39.116,11.824,41.199L557.601,122.796z"/>
			<path style="fill:#FA8D78;" d="M557.621,126.268c0,0,0.694,51.846,29.163,47.448c0,0,1.389,26.155-3.24,36.801
				c0,0,13.193,7.87,41.199,0c0,0-11.804-42.125-11.11-67.122c0,0,6.481-8.101,3.472-18.748
				c-3.009-10.647-20.137-32.172-40.505-21.988C556.233,112.844,557.621,126.268,557.621,126.268z"/>
			<path style="fill:#D66961;" d="M586.785,173.717c0,0,11.727-1.929,17.591-7.792c0,0-2.393,12.194-17.398,15.586L586.785,173.717z
				"/>
			<path style="fill:#8B574A;" d="M553.764,123.645c0,0,8.332,12.036,41.816,6.172l-2.932-2.281c0,0,7.407,4.267,13.579,3.891
				l2.43,7.802c0,0-0.549-12.008,5.555-9.027c4.976,2.43-0.579,13.193-0.579,13.193s-0.348,7.594,0.926,16.896
				c0,0,7.175-4.976,8.448-11.341v4.976c0,0,7.985-7.059,7.522-16.086l1.389,4.128c0,0,3.24-43.475-28.701-52.039
				S550.832,103.431,553.764,123.645z"/>
			<g>
				
					<path style="fill:none;stroke:#311E20;stroke-width:1.2624;stroke-linecap:round;stroke-linejoin:round;stroke-miterlimit:10;" d="
					M578.763,146.282c0.787,1.443,1.573,2.885,2.36,4.328c0.156,0.286,0.316,0.586,0.324,0.912c0.017,0.683-0.609,1.187-0.913,1.798
					c-0.421,0.846-0.176,1.93,0.462,2.628c0.638,0.698,1.602,1.037,2.546,1.068c0.506,0.016,1.028-0.053,1.469-0.303
					c0.441-0.249,0.787-0.702,0.813-1.208"/>
				<path style="fill:#FFFFFF;" d="M585.825,162.684l11.915-9.104c0,0,3.395,8.487-2.16,11.573
					C590.025,168.239,585.825,162.684,585.825,162.684z"/>
				<g>
					<path style="fill:#311E20;" d="M571.716,147.375c0.393,1.676-0.313,3.275-1.578,3.572c-1.265,0.297-2.609-0.821-3.003-2.496
						c-0.393-1.676,0.313-3.275,1.578-3.572C569.978,144.582,571.323,145.699,571.716,147.375z"/>
					<path style="fill:#8B574A;" d="M564.102,144.325l6.134-3.703c0,0-2.569-1.399-4.976,0
						C562.852,142.021,564.102,144.325,564.102,144.325z"/>
					
						<polyline style="fill:none;stroke:#311E20;stroke-width:1.2624;stroke-linecap:round;stroke-linejoin:round;stroke-miterlimit:10;" points="
						565.838,146.814 568.789,147.508 565.838,149.012 					"/>
				</g>
				<g>
					<path style="fill:#311E20;" d="M590.812,141.963c0.393,1.676-0.313,3.275-1.578,3.572c-1.265,0.297-2.609-0.821-3.003-2.496
						c-0.393-1.676,0.313-3.275,1.578-3.572C589.074,139.169,590.418,140.287,590.812,141.963z"/>
					<path style="fill:#8B574A;" d="M584.239,136.337l6.934-0.81C591.172,135.527,588.405,130.203,584.239,136.337z"/>
					
						<polyline style="fill:none;stroke:#311E20;stroke-width:1.2624;stroke-linecap:round;stroke-linejoin:round;stroke-miterlimit:10;" points="
						590.102,138.767 589.177,141.233 591.761,140.194 					"/>
				</g>
				
					<path style="fill:none;stroke:#311E20;stroke-width:1.2624;stroke-linecap:round;stroke-linejoin:round;stroke-miterlimit:10;" d="
					M612.322,133.383c0,0-2.469,7.929-0.694,7.081c1.774-0.849,1.852-3.086,1.852-3.086"/>
			</g>
			<path style="fill:#8B574A;" d="M613.634,143.396c0,0-0.116,9.49-3.703,14.698c0,0,4.079,0.18,7.754-2.43L613.634,143.396z"/>
		</g>
		<g>
			<path style="fill:#FA8D78;" d="M681.451,157.49l7.383-28.452c0.375-1.39,1.839-2.18,3.207-1.732l0,0
				c1.206,0.396,1.928,1.629,1.681,2.874l-4.197,21.166l7.89-21.55c0.512-1.398,2.073-2.101,3.459-1.559l0,0
				c1.273,0.499,1.96,1.883,1.585,3.198l-6.24,21.895l8.868-18.909c0.596-1.271,2.105-1.824,3.381-1.239l0,0
				c1.234,0.565,1.811,1.996,1.315,3.259l-8.686,22.14l8.081-12.684c0.784-1.23,2.478-1.477,3.58-0.52l0,0
				c0.857,0.744,1.072,1.989,0.514,2.978l-10.152,17.984c0,0-1.647,7.484-5.963,9.173l0.188,10.462l-18.575-2.978l1.689-10.485
				c0,0-5.816-5.904-5.441-12.074l-0.015-13.677c-0.002-1.419,1.091-2.6,2.506-2.708l0,0c1.476-0.113,2.77,0.978,2.908,2.451
				L681.451,157.49z"/>
			<g>
				<path style="fill:#21181D;" d="M510.644,185.45l-13.638-16.999c-0.946-1.179-0.663-2.917,0.608-3.735l13.276-8.543
					c1.09-0.701,2.532-0.472,3.351,0.532l29.014,35.559c0.983,1.205,0.666,3.002-0.67,3.798l-12.282,7.319
					c-1.025,0.611-2.336,0.428-3.155-0.439l-16.37-17.335C510.732,185.555,510.687,185.504,510.644,185.45z"/>
				<g>
					<path style="fill:#4F474C;" d="M509.13,165.717c-0.625-0.177-1.364,0.083-1.65,0.666c-0.339,0.692-0.029,1.518,0.337,2.197
						c0.174,0.322,0.367,0.645,0.651,0.876c0.523,0.423,1.248,0.459,1.92,0.476c0.154,0.004,0.317,0.006,0.45-0.072
						c0.17-0.1,0.246-0.303,0.291-0.495C511.51,167.774,510.703,166.163,509.13,165.717z"/>
				</g>
				<path style="fill:#FA8D78;" d="M514.374,214.374l-0.343-9.837c0,0-5.213-5.477-6.484-12.548
					c-0.827-4.603-3.42-9.022-5.13-11.546c-0.845-1.248-0.56-2.935,0.642-3.845l0.3-0.227l7.349,9.16l2.224-5.305
					c0.782-1.867,1.921-3.563,3.352-4.994l6.166-6.167c1.02-1.02,2.684-0.987,3.663,0.073l0,0c0.842,0.912,0.902,2.299,0.142,3.28
					l-3.606,4.653l6.472-4.345c1.077-0.723,2.518-0.568,3.417,0.368l0.028,0.029c0.93,0.969,0.997,2.476,0.156,3.523
					c-0.887,1.104-1.884,2.347-2.085,2.609c-0.221,0.288,1.26-0.559,2.523-1.31c0.963-0.572,2.199-0.34,2.889,0.542l0.64,0.818
					c0.696,0.89,0.615,2.162-0.19,2.956l-0.801,0.79l0.144-0.069c1.041-0.5,2.289-0.194,2.982,0.729l0.422,0.562
					c0.628,0.837,0.647,1.984,0.046,2.841l-2.063,2.943l-2.585,7.203l-3.281,16.494L514.374,214.374z"/>
				<path style="fill:none;stroke:#D66961;stroke-width:0.9641;stroke-linecap:round;stroke-miterlimit:10;" d="M522.65,177.07
					c0,0-2.839,2.703-6.048,10.385"/>
				<path style="fill:none;stroke:#D66961;stroke-width:0.9641;stroke-linecap:round;stroke-miterlimit:10;" d="M530.49,179.921
					c0,0-4.15,3.029-7.793,11.109"/>
				<path style="fill:none;stroke:#D66961;stroke-width:0.9641;stroke-linecap:round;stroke-miterlimit:10;" d="M535.699,183.051
					c0,0-5.852,5.79-7.439,11.831"/>
			</g>
			<path style="fill:none;stroke:#4A6489;stroke-width:1.2987;stroke-linecap:round;stroke-miterlimit:10;" d="M644.802,240.179
				c0,0,19.815,18.701,3.698,37.475"/>
			<path style="fill:none;stroke:#4A6489;stroke-width:1.2987;stroke-linecap:round;stroke-miterlimit:10;" d="M608.891,274.027
				c0,0,10.586,1.923,11.56-15.11"/>
			<g>
				<path style="fill:none;" d="M537.804,271.392c0.128,0.243,0.294,0.499,0.487,0.698
					C537.981,271.638,537.804,271.392,537.804,271.392z"/>
				<g>
					<path style="fill:#708BB8;" d="M696.069,188.721c-0.108-1.34-0.235-2.712-0.781-3.928c-1.152-2.566-3.989-3.907-6.681-3.977
						c-5.012-0.131-9.588,3.428-12.291,7.88c-2.702,4.452-3.876,9.716-5.005,14.866c-2.326,10.609-4.651,21.217-6.977,31.826
						c-3.447-9.407-7.149-19.206-14.375-25.814c-11.474-10.493-28.345-10.113-43.508-9.158c-10.522,0.663-23.39,2.184-33.912,2.847
						l-0.132,0.309c-3.025,0.866-5.656,2.857-7.953,5.105c-7.968,7.798-12.466,18.757-15.568,29.742
						c-1.919,6.794-3.394,13.734-5.179,20.566c-2.87-11.647-5.449-23.379-7.729-35.181c-0.331-1.713-0.673-3.474-1.584-4.926
						c-1.396-2.226-4.002-3.405-6.568-3.437c-4.785-0.06-9.166,3.517-11.567,7.917c-2.401,4.4-3.173,9.52-3.717,14.52
						c-2.103,19.329-1.419,39.053,3.371,57.681c2.053,7.986,5,15.991,10.544,21.808c4.74,4.973,11.754,7.992,18.346,6.868
						c1.047-0.436,5.044-1.472,5.999-2.143c5.561-3.907,8.25-10.913,10.629-17.496c3.392-9.387,6.784-18.774,10.177-28.16
						c-1.412,19.186-3.315,37.009-4.727,56.195c-0.101,1.37-0.418,7.415-0.041,8.73c0.446,1.556,1.511,2.825,2.639,3.933
						c9.141,8.975,24.461,7.285,36.952,7.412c5.616,0.057,11.233,0.066,16.85,0.026c4.677-0.033,23.12-0.439,26.542-3.801
						c3.195-3.139,2.498-7.971,2.286-12.566c-1.161-25.165-6.088-39.118-3.607-58.71c5.087,4.896,11.497,7.753,18.04,10.024
						c6.543,2.272,14.719,1.013,18.743-4.881c1.595-2.337,2.402-5.157,3.134-7.93C695.796,246.936,698.401,217.611,696.069,188.721z
						"/>
				</g>
			</g>
			<g>
				<path style="fill:#4A6489;" d="M628.235,201.934l-5.976-19.721c-0.366-1.208-1.677-1.88-2.857-1.434
					c-16.423,6.208-29.995,3.211-35.267,1.549c-1.261-0.397-2.58,0.38-2.825,1.679c-0.885,4.689-2.882,14.668-4.65,19.255
					c-0.253,0.656-0.128,1.381,0.334,1.911c2.116,2.429,9.156,8.595,25.649,7.896c16.668-0.706,23.336-7.045,25.241-9.382
					C628.285,203.195,628.419,202.543,628.235,201.934z"/>
				<g style="opacity:0.5;">
					<g>
						<g>
							<path style="fill:#708BB8;" d="M586.147,185.394c0.164,1.748,0.062,3.437-0.1,5.113c-0.179,1.672-0.456,3.321-0.819,4.952
								c-0.362,1.631-0.814,3.242-1.364,4.83c-0.565,1.585-1.194,3.156-2.09,4.668c-0.167-1.749-0.067-3.438,0.097-5.113
								c0.179-1.672,0.456-3.321,0.823-4.951c0.366-1.63,0.817-3.241,1.367-4.829C584.628,188.478,585.255,186.906,586.147,185.394z
								"/>
						</g>
						<g>
							<path style="fill:#708BB8;" d="M592.748,188.597c0.268,1.697,0.269,3.349,0.208,4.991c-0.078,1.639-0.255,3.262-0.52,4.871
								c-0.263,1.609-0.617,3.203-1.07,4.78c-0.468,1.575-1.002,3.139-1.804,4.659c-0.271-1.697-0.274-3.35-0.211-4.992
								c0.078-1.639,0.255-3.262,0.523-4.87c0.267-1.608,0.62-3.202,1.073-4.78C591.417,191.682,591.949,190.118,592.748,188.597z"
								/>
						</g>
						<g>
							<path style="fill:#708BB8;" d="M599.297,188.597c0.541,1.673,0.81,3.346,1.018,5.019c0.19,1.673,0.279,3.346,0.281,5.019
								c0.002,1.673-0.087,3.346-0.277,5.019c-0.206,1.673-0.477,3.346-1.021,5.019c-0.544-1.673-0.815-3.346-1.021-5.019
								c-0.19-1.673-0.279-3.346-0.277-5.019c0.001-1.673,0.09-3.346,0.281-5.019C598.486,191.943,598.756,190.27,599.297,188.597z"
								/>
						</g>
						<g>
							<path style="fill:#708BB8;" d="M605.628,188.597c0.806,1.536,1.343,3.118,1.82,4.709c0.46,1.594,0.819,3.205,1.093,4.83
								c0.274,1.625,0.458,3.266,0.543,4.923c0.069,1.66,0.073,3.33-0.191,5.045c-0.809-1.536-1.348-3.117-1.823-4.708
								c-0.46-1.594-0.819-3.205-1.089-4.831c-0.271-1.626-0.455-3.266-0.539-4.923
								C605.372,191.982,605.366,190.312,605.628,188.597z"/>
						</g>
						<g>
							<path style="fill:#708BB8;" d="M612.446,187.342c0.874,1.49,1.482,3.037,2.03,4.598c0.531,1.564,0.963,3.149,1.309,4.753
								c0.347,1.603,0.605,3.226,0.764,4.87c0.144,1.647,0.224,3.308,0.037,5.026c-0.877-1.489-1.487-3.036-2.033-4.597
								c-0.531-1.564-0.963-3.149-1.306-4.753c-0.344-1.604-0.602-3.227-0.76-4.871C612.344,190.72,612.262,189.06,612.446,187.342z
								"/>
						</g>
						<g>
							<path style="fill:#708BB8;" d="M618.29,185.394c0.943,1.22,1.627,2.52,2.251,3.839c0.608,1.324,1.119,2.677,1.547,4.057
								c0.428,1.379,0.769,2.785,1.014,4.221c0.23,1.441,0.396,2.901,0.303,4.441c-0.946-1.219-1.631-2.519-2.254-3.838
								c-0.608-1.324-1.119-2.677-1.543-4.058c-0.425-1.38-0.766-2.786-1.01-4.222C618.368,188.393,618.199,186.934,618.29,185.394z
								"/>
						</g>
					</g>
				</g>
			</g>
			<path style="fill:#4A6489;" d="M514.871,226.423l-4.443-13.04c0,0,8.872-7.269,25.332-5.558v14.751h-0.001
				c-7.201,0.033-14.34,1.335-21.088,3.848H514.871z"/>
			<path style="fill:#4A6489;" d="M674.601,192.252l-0.106-14.932c0,0,14.69-3.97,27.171,4.003l-5.126,14.43l0,0
				c-6.148-3.313-14.163-4.604-21.077-3.623L674.601,192.252z"/>
		</g>
	</g>
</g>
</svg>
